<svg width="276" height="292" viewBox="0 0 276 292" fill="none" xmlns="http://www.w3.org/2000/svg">
<path d="M42.0954 87.5869C44.9321 96.0236 44.8491 102.84 41.8461 108.035C38.9762 111.702 35.3154 114.151 30.8638 115.385C28.1396 116.164 25.7816 115.6 23.7899 113.691C19.6032 109.858 16.1352 102.687 13.3861 92.1765C12.4612 88.6244 11.687 84.6443 11.0635 80.2361C10.8557 78.7667 10.6607 77.3704 10.4785 76.0471C10.4417 75.5516 10.3891 75.1091 10.3207 74.7195C10.3181 74.4188 10.3082 74.2198 10.2911 74.1224C9.57314 66.3175 9.44624 60.5924 9.91041 56.947L9.95388 56.337L9.99736 55.727L10.11 54.6531C10.2252 53.8799 10.5036 53.1785 10.9451 52.5488C11.0827 52.4745 11.3133 52.3587 11.6371 52.2014L12.0497 51.9784L12.4623 51.7553C13.1499 51.3836 13.4583 50.8526 13.3872 50.1623L14.4572 49.8239L15.4541 49.4982C16.2162 49.264 16.7834 49.064 17.1558 48.8982C18.2818 48.4495 19.4014 48.6796 20.5147 49.5884C20.8752 49.9267 21.2773 50.358 21.7207 50.8825L22.3001 51.609L22.8064 52.3483C24.4111 54.6265 26.0668 57.6236 27.7734 61.3396L28.7939 63.7204L29.8873 66.0884L32.0269 70.9832C31.6511 71.7018 30.7038 72.5959 29.185 73.6658C27.6662 74.7356 26.6304 75.2689 26.0777 75.2655C25.5249 75.2622 25.1157 74.9325 24.8499 74.2764C24.2953 73.1189 23.685 71.6449 23.0193 69.8544L21.2617 65.4195C19.8327 61.8556 18.4145 59.0677 17.0072 57.056C16.3848 64.9457 17.1546 74.0466 19.3168 84.3586C21.4388 94.7279 24.3536 102.323 28.0613 107.143C28.8337 108.112 29.6736 108.893 30.581 109.486C31.7173 110.241 32.8254 110.548 33.9052 110.409C34.5212 110.2 34.994 109.891 35.3237 109.482C35.4441 109.31 35.5645 109.138 35.685 108.967L35.84 108.563C37.068 105.837 37.4631 102.656 37.0251 99.0184C36.6924 96.2658 35.8602 93.099 34.5286 89.518L34.2928 89.0323L33.9967 88.6325C33.848 88.3575 33.6104 88.1482 33.2841 88.0047C32.6261 87.1164 32.7213 86.3718 33.5695 85.7711C36.7993 83.2965 39.0567 82.5738 40.3417 83.6031C41.0937 85.0271 41.6783 86.355 42.0954 87.5869ZM73.3554 61.2412C77.3333 68.1725 77.8322 76.0158 74.852 84.7713C73.402 89.0918 71.3544 92.438 68.7089 94.81C65.7167 97.4938 61.5552 99.3791 56.2245 100.466C54.6261 100.797 52.9294 100.567 51.1344 99.7784C49.4539 99.0696 47.8757 97.5146 46.3999 95.1133C45.8966 94.248 45.4334 93.3254 45.0104 92.3456C44.6617 91.5033 44.4403 90.8143 44.3463 90.2787C43.5076 86.3601 43.1963 81.872 43.4125 76.8145C43.5259 74.8871 43.9594 71.9247 44.7131 67.9273C45.6163 63.3515 46.4522 60.3937 47.2208 59.054C47.5163 58.45 48.0694 58.0266 48.8801 57.7838L48.9838 57.088L49.1606 56.3793C49.2698 55.8582 49.4607 55.3729 49.7331 54.9235C50.3498 53.8615 51.4129 53.1979 52.9224 52.9329L53.9706 52.8994L54.86 52.8185C55.5502 52.7475 56.073 52.5804 56.4284 52.3172C59.5166 51.3232 62.8011 51.8758 66.2818 53.9752C69.2645 55.8106 71.6224 58.2326 73.3554 61.2412ZM67.1915 85.74C69.066 80.6924 69.5385 75.6652 68.609 70.6582C67.5796 65.3676 65.1489 61.1011 61.3168 57.8588C59.8429 56.6117 58.4187 55.9332 57.0441 55.8232C56.717 56.5332 56.4971 57.4251 56.3845 58.499C56.2548 59.4755 56.2327 60.2072 56.3182 60.6942C57.116 65.5235 59.6504 70.9513 63.9211 76.9778C63.7349 77.0607 63.5 77.1522 63.2164 77.2522C62.9413 77.4009 62.6376 77.5295 62.3053 77.6381C61.463 77.9867 60.6852 78.2739 59.9719 78.4996C57.9866 79.1995 56.7005 79.4505 56.1135 79.2524C55.2864 78.5443 54.4768 77.5069 53.6847 76.1401C53.3386 75.5985 53.004 74.9796 52.681 74.2834C52.4494 73.8221 52.1721 73.2434 51.849 72.5471C51.0753 79.861 51.3197 85.5404 52.5821 89.5854C52.9249 90.6797 53.3979 91.8013 54.0013 92.9503C55.3053 95.2311 56.7749 96.4538 58.4101 96.6184C60.1025 96.8232 62.0787 95.0707 64.3386 91.3609C65.4686 89.5061 66.4195 87.6324 67.1915 85.74ZM113.736 45.4164C114.208 46.3877 114.511 47.6896 114.648 49.3221C114.738 51.264 114.525 53.4848 114.01 55.9846C112.685 62.4417 109.494 69.8537 104.437 78.2208C99.6768 85.9838 97.2526 90.902 97.1649 92.9754C96.6464 93.1669 95.5093 93.2662 93.7537 93.2733C92.7456 93.2495 91.8964 93.2731 91.2061 93.3442C90.0605 93.3947 88.9521 93.5141 87.8808 93.7022C86.9257 88.5492 86.2064 80.5939 85.7229 69.8365C85.6013 68.0006 85.5113 66.0588 85.4529 64.011C85.3997 62.5647 85.3324 60.8949 85.2509 59.0018C85.1077 55.6136 85.0305 53.7448 85.0194 53.3954C79.5675 55.5073 75.2906 56.7352 72.1886 57.0791C70.4672 57.281 68.9768 56.9403 67.7174 56.0572C69.6781 50.6431 71.6943 45.5456 73.7661 40.7645C73.855 40.6987 73.9925 40.6244 74.1787 40.5415C74.4538 40.3928 74.7289 40.2441 75.0039 40.0954C75.7975 39.7552 76.5954 39.4395 77.3976 39.148C79.7724 38.3796 81.6728 38.1965 83.0987 38.5986L82.4916 40.2864L81.9574 41.9614L80.911 45.0063C80.11 47.3054 79.3192 49.3768 78.5387 51.2205L80.1071 50.7192L81.6025 50.2307C82.6968 49.888 83.5635 49.535 84.2024 49.1718C84.2544 48.6106 84.1621 47.7986 83.9252 46.7358L83.7072 45.4941L83.6352 44.2268C84.2657 43.8149 85.5432 43.5153 87.468 43.3279L88.6623 43.2687L89.9168 43.1237C90.8591 43.0586 91.5537 43.012 92.0005 42.9837C92.0135 44.4873 92.1615 45.6158 92.4444 46.3693C99.4861 43.8779 105.7 42.9623 111.087 43.6227C112.438 43.8874 113.321 44.4852 113.736 45.4164ZM105.743 48.7776C105.5 47.9669 105.036 47.4711 104.352 47.2901C102.92 47.1399 101.126 47.3546 98.9686 47.9342C98.1493 48.1283 97.1682 48.4009 96.0252 48.7522L92.9742 49.8151C93.011 50.3105 93.0984 51.9517 93.2363 54.7384C93.3382 56.1762 93.4102 57.4436 93.4522 58.5405C93.5225 60.0842 93.6001 61.5263 93.6848 62.8667C94.1594 70.7143 94.6126 76.5829 95.0447 80.4725C99.9206 71.9363 103.078 65.3333 104.517 60.6634C105.867 56.0593 106.275 52.0974 105.743 48.7776ZM154.617 65.494C154.101 72.5618 151.187 77.6915 145.875 80.8832C143.7 82.2188 142.042 83.2126 140.902 83.8646C138.976 84.9055 137.236 85.7131 135.68 86.2874C131.767 87.7276 128.062 87.9263 124.566 86.8838C122.977 86.4099 121.628 85.4422 120.518 83.9806C119.473 82.6079 118.83 81.0895 118.588 79.4253L118.499 78.914L118.482 78.3899C118.413 78.0003 118.389 77.5779 118.41 77.1225C118.376 76.0743 118.485 74.9761 118.735 73.8278C119.439 70.6924 121.106 67.0365 123.736 62.8603C122.791 62.6246 121.726 62.5607 120.54 62.6685C119.553 61.336 119.214 59.6889 119.522 57.7274C120.1 54.1622 121.256 50.1694 122.99 45.749C123.61 44.1342 124.411 42.2619 125.392 40.1319L126.636 37.3535L127.819 34.661C128.633 33.8655 130.171 33.0434 132.431 32.1947C133.184 31.9118 134.015 31.6404 134.923 31.3806C135.256 31.272 135.588 31.1635 135.92 31.0549L136.346 30.9049L136.638 30.8536C138.061 30.9551 139.027 31.7392 139.536 33.206C140.472 37.1075 140.11 42.7677 138.452 50.1868L138.245 50.2984L138.052 50.4829L137.519 50.8777C137.026 51.2152 136.529 51.5284 136.027 51.8172C134.523 52.6837 132.964 53.3841 131.352 53.9183C130.702 53.0786 130.376 52.5084 130.374 52.2077C132.1 48.8927 132.946 45.1302 132.909 40.9201C132.964 40.6596 132.925 40.4404 132.794 40.2628C132.654 40.0364 132.499 40.0134 132.33 40.1936C130.475 41.9248 129.051 44.9608 128.056 49.3017C127.688 50.9224 127.422 52.5503 127.257 54.1855C127.116 55.666 127.089 56.8001 127.177 57.5878C127.91 57.7602 128.923 57.8083 130.214 57.7321L131.787 57.6819L132.53 57.6267L133.2 57.5843C133.558 57.6218 133.864 57.7939 134.119 58.1006C134.333 58.4645 134.369 58.8096 134.225 59.136C131.19 61.5764 128.99 64.6232 127.623 68.2764C126.122 72.3047 126.202 75.9048 127.864 79.0766C128.81 80.4664 130.164 81.4585 131.925 82.0528C133.686 82.6471 135.315 82.637 136.814 82.0225C139.722 80.8594 142.022 78.9496 143.714 76.2933C145.277 73.76 146.17 70.8424 146.393 67.5405C144.504 66.2157 142.928 65.3882 141.665 65.0577C141.385 64.605 141.312 64.1911 141.447 63.816L141.723 63.2406L141.998 62.6652C142.436 62.5882 142.959 62.4211 143.567 62.1639L145.255 61.4909C146.745 60.8277 147.782 60.4448 148.367 60.3422C149.114 60.3113 149.893 60.6012 150.703 61.2119L151.145 61.586L151.587 61.9602C151.939 62.2497 152.278 62.4662 152.605 62.6097L153.365 63.0786C153.651 63.2793 153.888 63.4886 154.077 63.7064C154.569 64.2223 154.749 64.8182 154.617 65.494ZM190.324 52.8991C190.699 53.0341 190.925 53.7474 191.001 55.0391L191.095 56.0015L191.115 56.9766C191.163 57.8216 191.214 58.5404 191.268 59.1333C190.669 59.4393 189.614 59.5744 188.102 59.5388C185.186 59.7998 182.211 60.297 179.178 61.0305L177.365 61.4242L175.564 61.8909C174.218 62.2277 173.058 62.4817 172.084 62.6527C164.063 64.7137 158.407 65.8072 155.117 65.9333C154.492 66.0932 154.142 65.5272 154.066 64.2355C154.012 63.6427 154.09 61.9473 154.302 59.1494C156.53 59.2601 158.841 59.1303 161.236 58.76C162.161 58.5975 163.204 58.3893 164.364 58.1354L167.406 57.4507L170.229 56.8044L173.039 56.085L178.745 54.7065C183.239 53.7165 187.099 53.1141 190.324 52.8991ZM59.7887 163.477C61.3972 168.064 60.9836 172.855 58.5479 177.85C57.6213 179.719 56.335 181.828 54.6891 184.175L52.4355 187.206L50.3023 190.065C48.5189 192.486 47.0626 194.198 45.9333 195.199C44.1105 196.824 42.1837 197.715 40.1531 197.871C37.773 198.038 35.7423 198.194 34.061 198.338C33.3708 198.409 32.4532 198.043 31.3083 197.24C30.2377 196.575 29.4679 195.907 28.9988 195.237C28.0553 193.294 27.5231 190.978 27.4023 188.289C27.3353 186.192 27.5506 183.845 28.0483 181.248C29.6655 175.593 31.6767 171.325 34.082 168.443C35.6502 166.511 37.2983 164.891 39.0264 163.584C39.5594 163.189 40.1454 162.81 40.7844 162.447L41.124 162.237L41.4763 162.1C41.654 161.968 41.7873 161.869 41.8761 161.804C42.4289 161.807 43.182 161.951 44.1354 162.235L45.3208 162.554L46.5062 162.873C48.092 163.9 48.8351 165.702 48.7355 168.279C48.5571 169.264 48.2109 170.58 47.6969 172.226L47.1154 174.06C46.8857 174.753 46.7247 175.409 46.6326 176.027L47.9028 177.686C47.6935 177.924 46.1511 178.145 43.2755 178.348C42.9261 178.36 42.5566 178.399 42.1671 178.468L41.2175 178.635C40.5443 178.803 40.0775 178.86 39.8169 178.805C39.1497 178.722 39.0231 177.715 39.4371 175.785C39.4832 175.476 39.6698 174.966 39.9969 174.256L40.4273 173.277L40.8577 172.298C41.5494 170.52 41.5505 169.24 40.861 168.457C37.5896 172.696 35.7455 177.487 35.3286 182.831C35.1402 185.474 35.2542 187.839 35.6705 189.924C36.2126 192.439 37.1393 193.857 38.4507 194.179C42.076 191.384 45.2564 187.914 47.9921 183.77C50.335 180.246 51.8108 177.502 52.4196 175.538C53.2752 172.978 53.5199 169.798 53.1537 165.997C52.5406 162.792 50.4328 161.079 46.8301 160.858C46.1714 160.824 45.3466 160.843 44.3556 160.916L41.8081 160.987C39.6142 161.071 37.8701 161.001 36.5758 160.777C32.2185 158.831 30.2881 155.556 30.7846 150.951C30.9262 149.471 31.3271 147.895 31.9872 146.223L32.3574 145.329C32.4206 145.117 32.5324 144.897 32.693 144.668C32.9484 144.121 33.0718 143.823 33.0632 143.775C33.8694 142.077 35.3923 139.601 37.6318 136.347C39.1743 134.269 40.9041 132.685 42.821 131.596C44.4628 130.655 45.8049 130.293 46.8471 130.512L47.7236 130.358C48.2191 130.321 48.6988 130.337 49.1627 130.407C50.4972 130.574 51.6036 131.158 52.482 132.158C53.9321 134.413 54.5784 137.236 54.4209 140.627C54.3511 141.944 54.1565 143.409 53.8373 145.021C53.6674 146.055 53.3584 147.439 52.9101 149.174C50.1372 149.962 48.4299 150.388 47.7883 150.45C46.9921 150.49 46.7204 150.086 46.9731 149.238L47.4944 147.49L48.0631 145.583C48.5139 144.149 48.82 142.89 48.9813 141.808C49.4678 138.861 49.1491 136.332 48.0254 134.22L47.755 133.967L47.4717 133.64C47.1769 133.391 46.945 133.356 46.7759 133.536C41.275 139.371 38.297 145.566 37.8418 152.122C37.7029 153.903 38.4433 155.404 40.0633 156.626C41.3885 157.598 43.0921 158.152 45.1741 158.288C45.9387 158.355 46.8694 158.367 47.9664 158.325L49.3196 158.313L50.66 158.228C55.1221 158.198 58.165 159.947 59.7887 163.477ZM80.8396 126.802C80.7593 126.916 80.5987 127.145 80.3579 127.489L80.0568 127.918L79.7685 128.42C79.198 129.173 78.6449 129.597 78.1092 129.691C78.7672 130.579 79.2774 131.769 79.6399 133.262C80.2199 138.28 80.1401 144.543 79.4006 152.052L78.9285 156.653L78.4563 161.253C78.1211 164.775 77.9281 167.821 77.8773 170.39C77.8528 172.252 78.0645 174.172 78.5125 176.151C78.7876 176.003 79.1715 175.76 79.6644 175.422L80.4037 174.916L81.1431 174.409C82.5329 173.463 83.6404 172.766 84.4656 172.32C87.1103 170.802 88.5438 170.675 88.7661 171.941C88.668 172.812 88.511 173.919 88.2951 175.262L87.9801 176.898L87.6651 178.535C87.2734 181.164 87.3545 183.483 87.9084 185.494C87.2753 185.606 86.5706 185.88 85.7941 186.317L84.7626 186.875L83.9502 187.394C82.6236 188.129 81.6971 188.141 81.1707 187.43C80.9228 186.018 80.8896 184.543 81.0714 183.006L81.3479 181.15C81.4545 180.328 81.5381 179.661 81.5987 179.148C81.5816 179.051 81.0242 179.45 79.9266 180.345C80.3036 181.634 79.856 182.516 78.584 182.991L77.673 183.376L76.7491 183.689C75.9555 184.029 75.3537 184.461 74.9437 184.985C74.5798 185.2 74.0988 185.033 73.5007 184.486C71.4344 186.153 68.8189 188.696 65.6542 192.113C64.5171 192.212 63.7302 191.447 63.2934 189.817C65.4979 187.221 68.3859 184.229 71.9572 180.841C71.2375 178.458 70.8689 175.787 70.8514 172.828C70.8093 171.732 70.8305 170.423 70.9148 168.902L71.0641 165.036C71.1689 163.06 71.3787 160.538 71.6934 157.471L72.1004 153.786L72.4945 150.027C73.0036 144.065 72.8862 138.965 72.1422 134.729C70.074 135.243 68.1661 135.954 66.4183 136.864L65.7313 136.382C65.4938 136.173 65.2806 135.959 65.0918 135.741C64.5911 135.177 64.2723 134.505 64.1355 133.726C67.5593 132.07 70.9509 129.517 74.3104 126.066C76.576 125.819 78.3935 125.449 79.7629 124.958C80.7855 124.778 81.1444 125.393 80.8396 126.802ZM97.0247 136.157C97.6577 136.046 98.1861 136.054 98.6099 136.18C99.1968 136.378 99.5946 136.785 99.8031 137.401C100.689 140.157 101.751 143.635 102.99 147.834L104.511 153.064L106.118 158.353C108.645 166.744 111.061 173.498 113.365 178.615C113.373 178.663 113.131 178.857 112.638 179.194C112.057 179.597 111.422 179.985 110.734 180.357C108.817 181.446 107.351 181.955 106.334 181.882C104.013 176.668 101.606 169.536 99.1135 160.487L97.5543 155.038L96.0811 149.65C94.9075 145.539 93.8121 142.017 92.795 139.084C90.0299 140.774 87.9311 141.971 86.4985 142.674C90.1912 144.836 92.88 147 94.565 149.163C94.5762 149.513 93.7822 150.28 92.1832 151.464C90.5926 152.697 89.521 153.312 88.9683 153.308C86.3732 150.25 83.003 147.78 78.8576 145.898L78.5398 145.803L78.0502 145.588C77.6666 145.404 77.3561 145.208 77.1185 144.999C76.3171 144.437 76.1115 143.695 76.5018 142.773C76.9716 142.59 77.4615 142.378 77.9715 142.138L79.2824 141.456C80.3339 140.87 81.1719 140.497 81.7964 140.337C82.5781 140.501 83.4145 140.404 84.3055 140.047C84.9701 139.83 85.7265 139.421 86.5748 138.821L102.148 128.029C105.283 125.873 108.664 124.401 112.29 123.613L112.509 123.575L112.741 123.609C112.993 123.615 113.225 123.65 113.437 123.713C114.024 123.911 114.349 124.331 114.411 124.972C114.576 126.198 114.645 127.592 114.618 129.153L114.539 131.275L114.46 133.397C114.231 136.951 114.373 139.762 114.887 141.83C114.823 142.042 113.885 142.558 112.072 143.379C110.161 144.216 108.698 144.749 107.684 144.977C107.162 142.86 107.004 140.102 107.21 136.703L107.388 134.714L107.492 132.738C107.577 131.217 107.578 129.937 107.496 128.897C106.226 129.672 104.432 130.891 102.114 132.553L100.709 133.553L99.3631 134.467C98.3859 135.19 97.6064 135.754 97.0247 136.157ZM153.198 152.044C152.682 159.112 149.768 164.241 144.455 167.433C142.28 168.769 140.623 169.762 139.482 170.414C137.557 171.455 135.816 172.263 134.261 172.837C130.347 174.277 126.643 174.476 123.147 173.434C121.558 172.96 120.208 171.992 119.098 170.53C118.054 169.158 117.411 167.639 117.169 165.975L117.079 165.464L117.062 164.94C116.994 164.55 116.97 164.128 116.99 163.672C116.957 162.624 117.065 161.526 117.315 160.378C118.02 157.242 119.687 153.586 122.316 149.41C121.372 149.174 120.306 149.111 119.12 149.218C118.134 147.886 117.794 146.239 118.102 144.277C118.681 140.712 119.837 136.719 121.571 132.299C122.191 130.684 122.991 128.812 123.972 126.682L125.216 123.903L126.4 121.211C127.214 120.415 128.751 119.593 131.012 118.745C131.765 118.462 132.596 118.19 133.504 117.93C133.836 117.822 134.169 117.713 134.501 117.605L134.926 117.455L135.218 117.403C136.642 117.505 137.608 118.289 138.116 119.756C139.052 123.657 138.691 129.318 137.032 136.737L136.826 136.848L136.632 137.033L136.099 137.427C135.606 137.765 135.109 138.078 134.608 138.367C133.104 139.234 131.545 139.934 129.932 140.468C129.283 139.628 128.957 139.058 128.954 138.757C130.681 135.443 131.526 131.68 131.49 127.47C131.544 127.209 131.506 126.99 131.374 126.813C131.234 126.586 131.079 126.563 130.91 126.743C129.056 128.475 127.631 131.511 126.637 135.851C126.269 137.472 126.003 139.1 125.838 140.735C125.696 142.216 125.67 143.35 125.758 144.138C126.491 144.31 127.503 144.358 128.795 144.282L130.367 144.232L131.11 144.176L131.781 144.134C132.139 144.172 132.445 144.344 132.699 144.65C132.914 145.014 132.949 145.359 132.806 145.686C129.771 148.126 127.57 151.173 126.204 154.826C124.703 158.855 124.783 162.455 126.444 165.626C127.391 167.016 128.745 168.008 130.506 168.603C132.266 169.197 133.896 169.187 135.394 168.572C138.302 167.409 140.602 165.499 142.294 162.843C143.857 160.31 144.75 157.392 144.974 154.09C143.084 152.766 141.509 151.938 140.246 151.608C139.966 151.155 139.893 150.741 140.028 150.366L140.303 149.79L140.579 149.215C141.017 149.138 141.54 148.971 142.147 148.714L143.836 148.041C145.326 147.377 146.363 146.995 146.947 146.892C147.695 146.861 148.473 147.151 149.283 147.762L149.726 148.136L150.168 148.51C150.52 148.8 150.859 149.016 151.185 149.16L151.945 149.628C152.232 149.829 152.469 150.038 152.658 150.256C153.15 150.772 153.33 151.368 153.198 152.044ZM166.01 162.142L164.772 162.811C163.769 163.389 162.917 163.965 162.214 164.54C161.461 164.823 160.968 164.734 160.737 164.273C160.333 163.691 159.537 162.727 158.346 161.38C157.35 160.852 159.262 159.161 164.081 156.307C164.511 156.181 164.981 156.425 165.49 157.038C165.868 157.474 166.279 158.104 166.726 158.929C167.006 159.382 167.209 159.823 167.334 160.253C167.477 160.78 167.468 161.158 167.308 161.387L166.01 162.142ZM90.008 245.525C89.223 245.914 87.696 246.508 85.4271 247.308L84.0176 247.857L82.6682 248.32C81.6312 248.703 80.8534 248.99 80.3348 249.181C80.7025 251.275 81.5653 253.759 82.9233 256.633L84.7717 260.299L85.7024 262.168L86.6073 263.892L86.7445 264.244L86.8817 264.596C87.0389 264.92 87.106 265.159 87.083 265.314C87.0797 265.867 86.5953 266.253 85.63 266.473C84.9996 266.885 84.1171 267.29 82.9827 267.69L81.6462 268.226C81.0875 268.475 80.5775 268.715 80.1162 268.947C77.6766 265.058 75.5341 260.289 73.6887 254.64L73.5387 254.215L73.4746 253.85L73.2989 253.278C71.1115 255.971 68.386 259.888 65.1225 265.029L61.1048 271.306C59.5648 273.685 58.1884 275.709 56.9756 277.377L55.9006 278.545L54.8256 279.712C53.9629 280.517 52.9959 281.013 51.9246 281.201L50.6394 282.029L49.3414 282.784C48.2412 283.378 47.2186 283.558 46.2737 283.322C45.2518 282.649 44.5939 281.76 44.2998 280.657C44.1143 279.887 44.1095 278.859 44.2852 277.573C44.6454 275.05 45.3796 272.085 46.488 268.678L47.9866 264.349L49.4852 260.02C45.0336 261.253 41.4431 261.959 38.7136 262.137C38.1207 262.191 37.4068 261.413 36.5719 259.803L42.9158 256.053L43.4054 256.269C44.5885 255.86 46.0912 255.27 47.9133 254.498L50.075 253.516L52.3225 252.594C53.3644 249.952 54.6428 246.942 56.1578 243.563L58.228 239.059L60.3712 234.541C63.9145 226.992 66.4556 221.024 67.9944 216.638C68.1122 216.166 68.2317 215.417 68.3528 214.391L74.8122 211.3C75.5965 211.764 76.1114 212.552 76.3567 213.664C76.4251 214.053 76.482 214.52 76.5274 215.064L76.5698 215.734L76.6122 216.405L76.7896 219.988L76.9798 223.644C77.175 226.47 77.3505 228.899 77.5063 230.93C77.9771 236.469 78.6805 241.19 79.6166 245.091L79.6807 245.456C79.7064 245.602 79.6991 245.704 79.659 245.761L81.8591 244.998L84.1452 244.296C86.0015 243.719 87.4196 243.219 88.3994 242.796C88.8317 242.971 89.1679 243.313 89.4081 243.823L89.6222 244.614C89.788 244.987 89.9166 245.29 90.008 245.525ZM69.7494 229.205C67.3025 233.851 64.1307 240.657 60.2338 249.624C61.8467 249.09 63.7346 248.407 65.8976 247.575L68.7038 246.405L71.5229 245.308C71.1697 243.01 70.8455 240.307 70.5503 237.196L70.1498 233.201L69.7494 229.205ZM70.4675 248.731C69.6653 249.022 68.6569 249.425 67.4421 249.939L65.8263 250.6L64.2105 251.26C61.6349 252.315 59.7914 252.965 58.68 253.21L58.3226 254.176L69.0312 250.413L70.4675 248.731ZM65.4272 255.187C64.2039 255.653 62.7816 256.129 61.1601 256.614L56.8803 257.968C53.9101 265.065 52.2307 271.509 51.842 277.3C51.9881 277.274 52.7883 275.829 54.2428 272.963C55.1378 271.2 56.0615 269.456 57.0138 267.733C58.3675 265.437 59.8673 263.116 61.5132 260.769L65.4272 255.187ZM125.471 229.736C125.011 231.121 124.155 232.251 122.903 233.123C122.41 233.46 121.84 233.786 121.192 234.101L120.367 234.547L119.529 234.92C114.587 236.792 110.524 238.233 107.338 239.244C112.497 240.898 116.72 242.792 120.006 244.926C124.42 247.765 127.371 251.137 128.86 255.041L129.01 255.467L129.186 256.038C129.329 256.566 129.467 257.068 129.601 257.547C129.898 258.95 129.964 260.043 129.8 260.825C129.067 260.652 128.14 260.514 127.017 260.41L125.638 260.275L124.259 260.141C122.063 259.925 120.335 259.375 119.075 258.491C118.658 257.26 118.19 256.162 117.669 255.2L117.013 254.035L116.43 252.857C114.839 250.376 112.384 247.971 109.064 245.642C105.801 243.354 103.296 242.238 101.549 242.294C102.329 247.879 103.13 252.583 103.951 256.404C105.078 261.677 106.382 266.242 107.862 270.098C107.89 270.545 104.913 270.741 98.9301 270.688C95.9038 262.887 93.5507 253.06 91.871 241.207C91.6907 241.038 91.4374 240.882 91.111 240.739L90.7202 240.657L90.3895 240.489C89.794 240.242 89.4693 239.822 89.4154 239.229C89.4845 238.765 89.7169 238.373 90.1124 238.053C90.4276 237.847 90.8244 237.677 91.3028 237.543C90.7726 234.523 90.3412 231.638 90.0084 228.885L89.7736 227.119L89.6119 225.341C89.4271 223.717 89.2778 222.438 89.164 221.504L88.1504 221.306L87.0637 221.12C86.2819 220.956 85.6177 220.746 85.0709 220.491C84.8649 220.176 84.7679 219.766 84.7798 219.262C84.7831 218.709 84.9095 218.286 85.1589 217.991L89.2453 216.822C89.3743 216.699 89.4905 216.502 89.5938 216.233L89.6757 215.842C89.7962 215.671 89.9209 215.523 90.0499 215.4C91.7765 215.8 94.1391 215.962 97.1377 215.887L98.869 215.885L100.6 215.882C101.869 215.96 102.996 216.089 103.981 216.267C111.715 217.72 117.759 220.122 122.112 223.474C123.094 224.205 123.935 225.136 124.636 226.268C125.419 227.586 125.698 228.742 125.471 229.736ZM116.378 227.266C116.384 227.014 116.329 226.698 116.211 226.317C116.103 225.985 115.983 225.73 115.851 225.552C114.06 223.357 111.483 221.826 108.118 220.962C105.063 220.143 101.977 220.007 98.8607 220.554L100.37 234.294L102.523 233.69L104.736 233C106.454 232.498 107.905 232.042 109.089 231.633C112.337 230.41 114.767 228.955 116.378 227.266ZM136.12 215.593C136.754 215.481 137.282 215.489 137.706 215.615C138.293 215.814 138.69 216.221 138.899 216.836C139.784 219.592 140.847 223.07 142.086 227.27L143.607 232.499L145.213 237.789C147.741 246.179 150.157 252.933 152.461 258.05C152.469 258.099 152.227 258.292 151.734 258.629C151.152 259.033 150.518 259.42 149.83 259.792C147.913 260.882 146.446 261.39 145.43 261.318C143.109 256.103 140.702 248.972 138.209 239.922L136.65 234.474L135.177 229.085C134.003 224.975 132.908 221.452 131.891 218.519C129.126 220.209 127.027 221.406 125.594 222.109C129.287 224.272 131.976 226.435 133.661 228.599C133.672 228.948 132.878 229.715 131.279 230.899C129.688 232.132 128.617 232.747 128.064 232.744C125.469 229.686 122.099 227.216 117.953 225.333L117.636 225.239L117.146 225.023C116.762 224.84 116.452 224.643 116.214 224.434C115.413 223.872 115.207 223.13 115.598 222.208C116.067 222.025 116.557 221.814 117.067 221.574L118.378 220.892C119.43 220.305 120.268 219.932 120.892 219.773C121.674 219.936 122.51 219.84 123.401 219.483C124.066 219.265 124.822 218.857 125.671 218.256L141.244 207.465C144.379 205.308 147.759 203.836 151.386 203.049L151.605 203.01L151.837 203.045C152.089 203.051 152.321 203.085 152.533 203.148C153.12 203.346 153.444 203.766 153.507 204.408C153.672 205.634 153.741 207.027 153.714 208.588L153.635 210.71L153.556 212.832C153.326 216.386 153.469 219.197 153.982 221.265C153.919 221.477 152.981 221.993 151.167 222.814C149.256 223.651 147.794 224.184 146.78 224.413C146.258 222.296 146.099 219.538 146.306 216.138L146.483 214.149L146.588 212.173C146.673 210.653 146.674 209.372 146.591 208.333C145.322 209.108 143.528 210.326 141.21 211.988L139.804 212.988L138.459 213.902C137.482 214.626 136.702 215.189 136.12 215.593Z" fill="url(#paint0_linear_2001_162)"/>
<defs>
<linearGradient id="paint0_linear_2001_162" x1="201.785" y1="66.2231" x2="27.9192" y2="255.532" gradientUnits="userSpaceOnUse">
<stop stop-color="#121212"/>
<stop offset="1" stop-color="#B00F74"/>
</linearGradient>
</defs>
</svg>
