<svg width="470" height="492" viewBox="0 0 470 492" fill="none" xmlns="http://www.w3.org/2000/svg">
<path d="M86.4162 195.707C96.1697 206.444 100.505 216.672 99.4214 226.392C97.5362 233.742 93.6747 239.793 87.8371 244.547C84.2808 247.493 80.3917 248.192 76.1699 246.646C67.4135 243.664 57.5457 235.228 46.5666 221.339C42.8623 216.642 39.1029 211.208 35.2885 205.036C34.017 202.979 32.8125 201.022 31.6749 199.166C31.2958 198.451 30.9277 197.825 30.5708 197.288C30.3702 196.841 30.2252 196.55 30.136 196.416C23.9584 185.236 20.0236 176.773 18.3316 171.029L17.9975 170.09L17.6633 169.151L17.1289 167.474C16.795 166.245 16.7517 165.016 16.9989 163.787C17.1555 163.586 17.424 163.262 17.8044 162.816L18.2743 162.213L18.7443 161.61C19.5275 160.605 19.6403 159.611 19.0828 158.627L20.4584 157.422L21.7334 156.284C22.7176 155.436 23.4334 154.766 23.8809 154.275C25.2679 152.869 27.0896 152.48 29.3459 153.108C30.1053 153.377 30.9876 153.758 31.9926 154.25L33.3326 154.956L34.572 155.728C38.4577 158.079 42.8897 161.469 47.8681 165.899L50.9487 168.785L54.1299 171.604L60.5256 177.511C60.4348 178.829 59.6058 180.784 58.0387 183.374C56.4716 185.965 55.2744 187.438 54.4472 187.795C53.62 188.151 52.7934 187.927 51.9675 187.122C50.3824 185.757 48.5073 183.956 46.3422 181.719L40.8175 176.249C36.3531 171.864 32.4125 168.631 28.9958 166.549C33.2282 178.732 40.331 191.813 50.3044 205.79C60.2554 219.879 69.5746 229.309 78.262 234.078C80.0487 235.019 81.8134 235.635 83.5561 235.928C85.7456 236.31 87.6007 236.044 89.1212 235.129C89.9041 234.415 90.4078 233.645 90.6322 232.818C90.6996 232.483 90.767 232.148 90.8344 231.813L90.8017 231.109C90.8517 226.237 89.36 221.23 86.3266 216.087C84.0292 212.196 80.7154 208.014 76.3852 203.54L75.7154 202.969L75.0119 202.566C74.61 202.253 74.1186 202.096 73.5376 202.095C71.9743 201.2 71.6293 200.026 72.5024 198.574C75.7043 192.768 78.601 190.213 81.1924 190.908C83.2465 192.542 84.9877 194.141 86.4162 195.707ZM115.84 135.933C126.312 143.676 132.188 155.057 133.467 170.075C134.13 177.473 133.262 183.807 130.865 189.078C128.155 195.042 123.177 200.578 115.931 205.687C113.762 207.227 111.079 207.995 107.884 207.991C104.912 208.033 101.539 206.744 97.765 204.125C96.4477 203.163 95.1528 202.089 93.8803 200.903C92.8088 199.874 92.0277 198.99 91.5369 198.252C87.7215 192.952 84.3209 186.457 81.3349 178.766C80.2432 175.815 78.9523 171.11 77.4623 164.65C75.8168 157.229 75.1296 152.268 75.4005 149.765C75.4464 148.67 75.995 147.677 77.0462 146.784L76.7458 145.677L76.546 144.504C76.3681 143.655 76.3355 142.805 76.4482 141.956C76.6739 139.968 77.8266 138.282 79.9063 136.899L81.449 136.163L82.7236 135.461C83.7074 134.903 84.3785 134.312 84.7367 133.686C88.6959 130.182 93.9599 128.858 100.529 129.715C106.182 130.503 111.285 132.576 115.84 135.933ZM122.667 176.533C122.163 167.772 119.579 159.959 114.916 153.094C109.919 145.87 103.499 141.092 95.6585 138.76C92.6427 137.863 90.073 137.782 87.9492 138.517C87.9255 139.79 88.1808 141.265 88.7153 142.942C89.1605 144.484 89.6062 145.591 90.0524 146.262C94.4026 152.948 101.736 159.392 112.053 165.594C111.83 165.839 111.539 166.129 111.181 166.464C110.868 166.866 110.499 167.257 110.074 167.636C109.044 168.708 108.071 169.645 107.154 170.448C104.649 172.792 102.893 174.008 101.888 174.096C100.19 173.58 98.3027 172.562 96.2262 171.04C95.3553 170.458 94.451 169.753 93.5134 168.925C92.866 168.388 92.0734 167.706 91.1358 166.878C94.7656 178.301 98.8458 186.618 103.376 191.83C104.604 193.239 106.044 194.604 107.696 195.924C111.134 198.475 114.128 199.339 116.676 198.515C119.336 197.713 121.14 193.805 122.086 186.789C122.559 183.281 122.753 179.862 122.667 176.533ZM165.76 85.8956C167.1 87.0368 168.405 88.7812 169.677 91.129C171.081 93.9686 172.217 97.4223 173.084 101.49C175.329 111.996 175.415 125.147 173.342 140.943C171.315 155.645 170.914 164.572 172.139 167.724C171.491 168.349 169.858 169.241 167.243 170.4C165.722 171.024 164.47 171.615 163.486 172.173C161.81 172.997 160.233 173.901 158.757 174.882C153.96 167.816 147.683 156.412 139.923 140.672C138.541 138.011 137.136 135.171 135.709 132.153C134.684 130.029 133.491 127.581 132.131 124.808C129.701 119.845 128.363 117.106 128.118 116.592C121.362 123.31 115.781 127.941 111.376 130.484C108.939 131.911 106.491 132.378 104.034 131.883C103.418 122.52 103.093 113.592 103.058 105.1C103.147 104.944 103.304 104.743 103.528 104.497C103.841 104.095 104.154 103.694 104.467 103.292C105.43 102.265 106.414 101.271 107.42 100.312C110.463 97.6111 113.179 96.0945 115.571 95.762L115.769 98.6784L116.067 101.528L116.497 106.757C116.806 110.713 116.98 114.322 117.022 117.585L119.035 115.811L120.947 114.103C122.356 112.876 123.419 111.782 124.135 110.822C123.846 109.95 123.176 108.798 122.128 107.367L120.99 105.656L120.054 103.812C120.725 102.784 122.436 101.501 125.186 99.9626L126.93 99.093L128.708 98.0558C130.072 97.3422 131.078 96.8182 131.726 96.4837C132.73 98.7195 133.689 100.307 134.604 101.247C143.485 92.9213 152.161 87.4895 160.633 84.9514C162.824 84.4622 164.533 84.777 165.76 85.8956ZM156.028 96.1419C155.136 95.0906 154.12 94.6537 152.98 94.8312C150.744 95.5439 148.206 97.0383 145.366 99.3145C144.27 100.14 142.984 101.189 141.508 102.461L137.649 106.043C138.028 106.759 139.232 109.151 141.261 113.221C142.354 115.3 143.29 117.145 144.071 118.754C145.185 121.013 146.244 123.114 147.248 125.06C153.09 136.463 157.606 144.926 160.795 150.449C162.489 134.518 162.882 122.596 161.974 114.685C160.977 106.929 158.995 100.749 156.028 96.1419ZM239.916 89.1195C243.77 100.006 242.776 109.57 236.934 117.809C234.562 121.225 232.738 123.793 231.462 125.512C229.269 128.326 227.199 130.67 225.253 132.545C220.354 137.254 214.954 139.975 209.054 140.706C206.372 141.038 203.725 140.476 201.112 139.021C198.655 137.655 196.702 135.809 195.252 133.484L194.784 132.779L194.416 132.008C194.059 131.471 193.747 130.856 193.479 130.163C192.743 128.62 192.187 126.91 191.809 125.033C190.809 119.892 190.906 113.345 192.099 105.391C190.534 105.657 188.902 106.259 187.203 107.195C184.858 105.852 183.274 103.616 182.45 100.486C180.982 94.7862 180.095 88.0702 179.791 80.338C179.66 77.5222 179.63 74.2037 179.702 70.3826L179.741 65.4217L179.746 60.6284C180.441 58.9085 182.197 56.6758 185.016 53.9303C185.955 53.0151 187.018 52.0666 188.203 51.0847C188.628 50.7053 189.053 50.3258 189.478 49.9464L190.015 49.4442L190.418 49.1765C192.609 48.3968 194.563 48.9353 196.282 50.7919C200.231 56.003 203.395 64.6881 205.773 76.8471L205.538 77.1485L205.37 77.5506L204.832 78.4885C204.317 79.3148 203.78 80.1075 203.221 80.8666C201.542 83.1441 199.674 85.2091 197.616 87.0616C196.098 86.2331 195.238 85.5953 195.037 85.1481C195.446 79.0703 194.246 72.9014 191.438 66.6413C191.349 66.2166 191.148 65.9148 190.835 65.7356C190.478 65.4894 190.232 65.5562 190.098 65.9359C188.462 69.733 188.322 75.1966 189.677 82.3266C190.188 84.9863 190.856 87.5904 191.68 90.1388C192.437 92.4413 193.139 94.1516 193.786 95.2697C194.993 95.0475 196.535 94.457 198.414 93.4982L200.728 92.3946L201.801 91.826L202.773 91.3243C203.332 91.1461 203.902 91.2026 204.483 91.4938C205.041 91.8966 205.32 92.3885 205.319 92.9695C202.386 98.5976 201.094 104.585 201.445 110.932C201.839 117.927 204.314 123.248 208.868 126.895C211.191 128.35 213.86 128.945 216.877 128.681C219.895 128.416 222.32 127.335 224.155 125.437C227.734 121.799 229.918 117.444 230.706 112.372C231.381 107.568 230.806 102.629 228.979 97.5543C225.293 96.8128 222.399 96.6085 220.298 96.9414C219.583 96.449 219.204 95.8787 219.16 95.2306L219.195 94.1916L219.23 93.1525C219.833 92.7509 220.504 92.1595 221.243 91.3782L223.323 89.2688C225.113 87.3042 226.411 86.0543 227.216 85.5189C228.311 84.9838 229.663 84.907 231.272 85.2887L232.177 85.5579L233.081 85.827C233.796 86.0289 234.444 86.1302 235.025 86.1308L236.466 86.3336C237.025 86.4459 237.516 86.6029 237.941 86.8045C239.013 87.2526 239.671 88.0242 239.916 89.1195ZM284.973 46.9608C285.621 46.9168 286.425 47.8339 287.384 49.712L288.153 51.0872L288.822 52.5293C289.446 53.759 289.992 54.7987 290.461 55.6484C289.767 56.4968 288.28 57.389 286 58.325C281.818 60.6221 277.704 63.3103 273.656 66.3896L271.207 68.1635L268.825 70.0379C267.036 71.4214 265.47 72.5594 264.128 73.4517C253.505 81.7752 245.778 87.1075 240.949 89.4485C240.121 90.0956 239.228 89.4801 238.269 87.602C237.801 86.7523 236.809 84.1702 235.294 79.8556C238.692 78.5633 242.057 76.8575 245.389 74.7383C246.664 73.8906 248.084 72.8977 249.65 71.7598L253.742 68.7475L257.533 65.9361L261.257 63.024L268.872 57.2335C274.933 52.8156 280.3 49.3914 284.973 46.9608ZM162.736 297.804C168.138 303.598 170.655 311.02 170.287 320.069C170.127 323.466 169.586 327.454 168.665 332.034L167.284 338.033L165.971 343.696C164.893 348.477 163.839 351.984 162.808 354.218C161.151 357.836 158.857 360.426 155.928 361.987C152.485 363.793 149.556 365.354 147.141 366.67C146.157 367.227 144.548 367.281 142.314 366.832C140.281 366.539 138.694 366.046 137.556 365.352C134.877 363.069 132.567 359.961 130.627 356.026C129.156 352.94 127.942 349.296 126.986 345.094C125.7 335.596 125.91 327.909 127.615 322.033C128.692 318.124 130.092 314.628 131.816 311.546C132.353 310.609 132.98 309.659 133.696 308.699L134.066 308.163L134.502 307.728C134.681 307.416 134.815 307.181 134.905 307.025C135.732 306.668 136.95 306.39 138.559 306.191L140.537 305.891L142.515 305.592C145.554 306.087 147.842 308.29 149.38 312.203C149.758 313.79 150.102 315.98 150.412 318.774L150.743 321.891C150.854 323.076 151.042 324.16 151.31 325.143L154.291 326.789C154.134 327.281 151.976 328.619 147.817 330.804C147.303 331.05 146.778 331.351 146.241 331.708L144.933 332.578C144.038 333.269 143.378 333.66 142.954 333.749C141.903 334.06 141.055 332.64 140.411 329.489C140.277 328.997 140.222 328.114 140.246 326.841L140.248 325.098L140.25 323.355C140.119 320.248 139.284 318.337 137.742 317.62C135.632 326.087 136.014 334.445 138.888 342.694C140.336 346.763 142.053 350.217 144.038 353.057C146.493 356.457 148.804 357.968 150.972 357.59C154.555 351.046 157.032 343.787 158.404 335.811C159.596 329.019 160.004 323.958 159.627 320.627C159.23 316.247 157.515 311.34 154.482 305.907C151.47 301.523 147.203 300.346 141.681 302.373C140.675 302.752 139.457 303.32 138.026 304.078L134.269 305.851C131.05 307.412 128.401 308.448 126.322 308.959C118.545 308.906 113.521 305.28 111.25 298.082C110.493 295.78 110.06 293.165 109.951 290.237L109.92 288.662C109.875 288.304 109.898 287.902 109.988 287.455C110.011 286.472 110.001 285.947 109.956 285.88C110.049 282.818 110.702 278.126 111.916 271.804C112.859 267.693 114.405 264.198 116.553 261.317C118.388 258.839 120.155 257.422 121.854 257.066L123.062 256.263C123.777 255.884 124.504 255.594 125.241 255.394C127.343 254.771 129.376 254.918 131.341 255.836C134.981 258.254 137.793 262.045 139.776 267.209C140.533 269.221 141.201 271.534 141.779 274.15C142.202 275.804 142.646 278.072 143.113 280.956C139.489 283.946 137.219 285.698 136.302 286.211C135.14 286.79 134.47 286.365 134.292 284.935L133.927 281.985L133.528 278.766C133.263 276.33 132.896 274.252 132.429 272.53C131.228 267.814 129.097 264.247 126.039 261.831L125.469 261.629L124.833 261.326C124.229 261.147 123.861 261.247 123.726 261.627C119.333 273.935 118.94 285.13 122.549 295.212C123.507 297.962 125.595 299.718 128.812 300.482C131.425 301.066 134.331 300.778 137.528 299.62C138.712 299.219 140.11 298.628 141.72 297.848L143.732 296.945L145.677 295.942C152.317 292.977 158.004 293.598 162.736 297.804ZM170.165 229.29C170.12 229.514 170.03 229.961 169.895 230.631L169.726 231.469L169.625 232.407C169.266 233.904 168.717 234.898 167.979 235.389C169.542 236.284 171.083 237.727 172.6 239.718C176.749 246.828 180.727 256.229 184.535 267.921L186.84 275.097L189.145 282.272C190.949 287.749 192.654 292.421 194.258 296.289C195.44 299.084 197.012 301.812 198.975 304.473C199.289 304.071 199.703 303.457 200.218 302.631L200.99 301.392L201.762 300.152C203.217 297.83 204.415 296.066 205.355 294.86C208.309 290.863 210.366 289.737 211.526 291.481C211.949 292.845 212.439 294.6 212.995 296.746L213.596 299.394L214.196 302.043C215.331 306.223 216.97 309.633 219.112 312.272C218.24 312.852 217.367 313.723 216.495 314.884L215.32 316.391L214.447 317.697C212.948 319.662 211.573 320.286 210.322 319.569C209.028 317.624 208.014 315.444 207.279 313.03L206.478 310.079C206.099 308.783 205.788 307.732 205.543 306.927C205.453 306.793 204.882 307.753 203.83 309.808C205.236 311.486 205.145 313.094 203.556 314.635L202.449 315.807L201.275 316.878C200.313 317.905 199.697 318.943 199.428 319.993C199.025 320.551 198.198 320.618 196.947 320.192C194.954 324.033 192.713 329.539 190.225 336.709C188.592 337.601 186.917 336.974 185.199 334.827C186.791 329.51 189.145 323.155 192.259 315.762C189.626 312.675 187.328 308.93 185.366 304.525C184.586 302.915 183.761 300.948 182.893 298.623L180.586 292.754C179.45 289.736 178.113 285.836 176.577 281.052L174.773 275.284L172.902 269.416C169.762 260.184 166.251 252.649 162.369 246.813C159.618 248.932 157.235 251.243 155.221 253.743L153.881 253.474C153.389 253.317 152.932 253.137 152.507 252.936C151.39 252.421 150.475 251.626 149.761 250.553C153.789 245.842 157.181 239.812 159.938 232.463C163.158 230.612 165.629 228.872 167.351 227.243C168.76 226.306 169.698 226.988 170.165 229.29ZM200.443 232.666C201.315 232.086 202.109 231.752 202.824 231.663C203.83 231.575 204.69 231.922 205.404 232.705C208.529 236.24 212.39 240.735 216.987 246.193L222.678 253.004L228.536 259.848C237.798 270.719 245.822 279.219 252.609 285.35C252.653 285.417 252.418 285.864 251.903 286.69C251.299 287.672 250.605 288.666 249.822 289.671C247.673 292.551 245.817 294.27 244.252 294.827C237.376 288.562 229.118 279.491 219.477 267.615L213.586 260.502L207.862 253.423C203.421 248.055 199.482 243.514 196.044 239.801C193.023 244.133 190.673 247.292 188.995 249.279C195.921 250.092 201.35 251.561 205.28 253.689C205.526 254.203 204.842 255.867 203.23 258.681C201.663 261.562 200.465 263.18 199.638 263.537C193.764 260.67 187.118 259.188 179.699 259.09L179.163 259.157L178.291 259.156C177.598 259.133 177.006 259.043 176.515 258.886C174.951 258.571 174.159 257.598 174.138 255.967C174.72 255.387 175.313 254.75 175.917 254.058L177.427 252.183C178.613 250.62 179.62 249.515 180.448 248.868C181.722 248.601 182.907 247.91 184.003 246.793C184.853 246.035 185.715 244.929 186.588 243.478L202.773 217.183C206.042 211.913 210.125 207.504 215.022 203.956L215.324 203.755L215.693 203.655C216.073 203.499 216.442 203.399 216.8 203.355C217.805 203.267 218.565 203.681 219.078 204.598C220.126 206.319 221.14 208.354 222.121 210.701L223.391 213.921L224.662 217.14C226.644 222.595 228.696 226.698 230.816 229.449C230.86 229.806 229.797 231.19 227.627 233.601C225.322 236.102 223.488 237.854 222.124 238.858C219.959 236.04 217.919 232.026 216.003 226.818L214.967 223.733L213.831 220.715C212.962 218.39 212.126 216.478 211.323 214.98C209.935 216.967 208.055 219.96 205.682 223.957L204.238 226.369L202.828 228.613C201.842 230.333 201.048 231.684 200.443 232.666ZM294.681 219.631C298.535 230.518 297.541 240.081 291.7 248.32C289.327 251.737 287.503 254.304 286.228 256.024C284.035 258.837 281.965 261.181 280.019 263.056C275.12 267.766 269.72 270.486 263.82 271.217C261.138 271.549 258.49 270.988 255.877 269.532C253.421 268.166 251.468 266.321 250.018 263.995L249.549 263.29L249.181 262.519C248.824 261.982 248.512 261.368 248.245 260.675C247.509 259.132 246.952 257.422 246.574 255.544C245.575 250.403 245.671 243.856 246.864 235.902C245.3 236.168 243.668 236.77 241.968 237.707C239.624 236.363 238.039 234.127 237.216 230.997C235.747 225.298 234.861 218.581 234.557 210.849C234.426 208.034 234.396 204.715 234.467 200.894L234.506 195.933L234.511 191.14C235.206 189.42 236.963 187.187 239.781 184.442C240.721 183.526 241.784 182.578 242.969 181.596C243.394 181.217 243.819 180.837 244.244 180.458L244.781 179.956L245.183 179.688C247.374 178.908 249.329 179.447 251.048 181.303C254.997 186.514 258.161 195.199 260.538 207.358L260.303 207.66L260.135 208.062L259.598 209C259.083 209.826 258.546 210.619 257.986 211.378C256.308 213.655 254.44 215.72 252.382 217.573C250.863 216.744 250.003 216.107 249.803 215.659C250.212 209.582 249.012 203.413 246.203 197.153C246.114 196.728 245.913 196.426 245.601 196.247C245.244 196.001 244.998 196.068 244.863 196.447C243.228 200.244 243.088 205.708 244.443 212.838C244.954 215.498 245.621 218.102 246.445 220.65C247.203 222.953 247.905 224.663 248.551 225.781C249.758 225.559 251.301 224.968 253.179 224.01L255.493 222.906L256.566 222.337L257.539 221.836C258.098 221.657 258.668 221.714 259.248 222.005C259.807 222.408 260.085 222.9 260.085 223.481C257.151 229.109 255.86 235.096 256.21 241.443C256.605 248.438 259.079 253.759 263.634 257.407C265.956 258.862 268.626 259.457 271.643 259.192C274.66 258.927 277.086 257.846 278.92 255.949C282.5 252.31 284.683 247.955 285.471 242.883C286.147 238.079 285.571 233.14 283.744 228.066C280.058 227.324 277.165 227.12 275.064 227.453C274.349 226.96 273.97 226.39 273.926 225.742L273.96 224.703L273.995 223.664C274.599 223.262 275.27 222.671 276.008 221.89L278.089 219.78C279.879 217.816 281.176 216.566 281.981 216.03C283.077 215.495 284.429 215.418 286.037 215.8L286.942 216.069L287.847 216.338C288.562 216.54 289.21 216.642 289.791 216.642L291.232 216.845C291.79 216.957 292.282 217.114 292.706 217.316C293.778 217.764 294.437 218.536 294.681 219.631ZM320.411 226.322L319.001 228.131C317.882 229.649 316.987 231.067 316.315 232.385C315.375 233.3 314.582 233.489 313.934 232.952C312.952 232.348 311.132 231.429 308.474 230.197C306.642 230.061 308.389 226.287 313.715 218.874C314.275 218.405 315.135 218.462 316.296 219.044C317.145 219.447 318.172 220.119 319.378 221.059C320.092 221.551 320.684 222.077 321.153 222.636C321.71 223.329 321.944 223.899 321.855 224.346L320.411 226.322ZM261.782 400.898C260.864 401.992 258.974 403.878 256.111 406.557L254.366 408.298L252.655 409.871C251.357 411.121 250.384 412.059 249.735 412.684C251.654 415.569 254.567 418.711 258.473 422.112L263.631 426.375L266.243 428.557L268.721 430.537L269.156 430.973L269.592 431.41C270.038 431.79 270.295 432.103 270.362 432.349C270.718 433.176 270.248 434.07 268.951 435.029C268.279 436.056 267.228 437.239 265.796 438.579L264.152 440.253C263.48 440.989 262.876 441.682 262.339 442.329C256.154 438.121 249.836 432.405 243.386 425.18L242.884 424.643L242.549 424.14L241.913 423.401C240.41 428.852 238.904 436.482 237.396 446.29L235.506 458.288C234.764 462.846 234.033 466.767 233.314 470.051L232.474 472.497L231.633 474.943C230.871 476.708 229.752 478.081 228.276 479.062L226.9 481.139L225.456 483.115C224.203 484.723 222.794 485.66 221.23 485.926C219.264 485.589 217.7 484.693 216.54 483.239C215.759 482.211 215.079 480.679 214.5 478.645C213.387 474.644 212.544 469.738 211.969 463.927L211.374 456.485L210.779 449.043C204.941 453.796 200.044 457.199 196.086 459.25C195.236 459.719 193.662 459.024 191.362 457.167L198.378 447.42L199.25 447.421C200.749 446.037 202.605 444.174 204.82 441.83L207.404 438.95L210.156 436.104C209.983 431.478 209.921 426.148 209.973 420.115L210.116 412.037L210.359 403.892C210.71 390.305 210.598 379.735 210.026 372.182C209.893 371.399 209.581 370.204 209.091 368.594L216.71 359.753C218.185 359.934 219.468 360.773 220.562 362.272C220.919 362.808 221.309 363.468 221.733 364.251L222.235 365.223L222.736 366.196L225.345 371.428L228.021 376.76C230.161 380.852 232.012 384.362 233.573 387.292C237.9 395.252 242.038 401.837 245.987 407.048L246.322 407.551C246.456 407.753 246.511 407.909 246.489 408.021L249.274 405.443L252.226 402.899C254.62 400.823 256.409 399.149 257.595 397.877C258.355 397.855 259.081 398.147 259.773 398.751L260.61 399.791C261.101 400.238 261.492 400.607 261.782 400.898ZM220.867 389.791C220.254 398.327 219.972 410.561 220.022 426.495C222.08 424.642 224.451 422.388 227.135 419.731L230.558 416.149L234.048 412.666C232.018 409.469 229.765 405.645 227.29 401.195L224.078 395.493L220.867 389.791ZM234.712 418.466C233.705 419.426 232.464 420.687 230.987 422.25L229.007 424.292L227.027 426.335C223.873 429.594 221.546 431.77 220.048 432.863L220.147 434.539L233.669 421.917L234.712 418.466ZM231.413 431.401C229.892 432.896 228.08 434.537 225.977 436.322L220.475 441.143C220.684 453.68 222.393 464.397 225.601 473.294C225.802 473.16 226.051 470.479 226.348 465.25C226.53 462.032 226.768 458.826 227.062 455.631C227.581 451.319 228.301 446.872 229.222 442.292L231.413 431.401ZM304.384 354.131C304.605 356.5 304.066 358.745 302.768 360.867C302.253 361.693 301.615 362.552 300.855 363.445L299.915 364.651L298.908 365.756C292.756 371.783 287.633 376.593 283.54 380.186C292.323 379.28 299.865 379.344 306.165 380.379C314.611 381.729 321.222 384.831 325.999 389.686L326.501 390.222L327.137 390.961C327.695 391.654 328.231 392.314 328.744 392.94C330.105 394.841 330.919 396.428 331.185 397.702C329.979 397.925 328.503 398.325 326.76 398.904L324.614 399.606L322.468 400.307C319.047 401.421 316.108 401.731 313.651 401.236C312.222 399.67 310.805 398.339 309.398 397.243L307.657 395.933L306.016 394.557C302.019 391.894 296.781 389.91 290.302 388.607C283.934 387.326 279.465 387.299 276.894 388.525C281.712 396.352 285.984 402.848 289.71 408.014C294.842 415.148 299.774 421.109 304.506 425.896C304.841 426.545 300.525 428.786 291.56 432.62C281.94 422.955 271.999 409.827 261.738 393.235C261.358 393.1 260.878 393.033 260.297 393.032L259.66 393.165L259.056 393.131C258.006 393.152 257.247 392.738 256.778 391.888C256.578 391.151 256.668 390.413 257.049 389.676C257.385 389.163 257.866 388.649 258.492 388.136C255.726 383.977 253.194 379.952 250.896 376.061L249.391 373.579L247.986 371.03C246.648 368.726 245.588 366.915 244.807 365.596L243.165 365.963L241.421 366.397C240.147 366.663 239.018 366.785 238.035 366.762C237.522 366.426 237.109 365.878 236.797 365.118C236.44 364.291 236.352 363.575 236.531 362.972L241.866 358.553C241.978 358.285 242.023 357.917 242.001 357.447L241.867 356.81C241.935 356.475 242.025 356.174 242.137 355.906C244.975 355.373 248.608 354.069 253.035 351.996L255.617 350.859L258.199 349.722C260.144 349.009 261.91 348.464 263.497 348.086C275.992 345.195 286.585 344.826 295.275 346.981C297.219 347.43 299.084 348.27 300.87 349.501C302.902 350.956 304.073 352.499 304.384 354.131ZM289.198 356.393C289.042 356.013 288.752 355.577 288.327 355.085C287.948 354.66 287.602 354.358 287.289 354.179C283.18 352.074 278.331 351.476 272.744 352.386C267.648 353.163 262.953 354.979 258.66 357.835L269.901 377.355L272.719 375.046L275.571 372.568C277.807 370.694 279.675 369.065 281.174 367.681C285.223 363.73 287.898 359.967 289.198 356.393ZM311.028 326.054C311.901 325.474 312.694 325.139 313.409 325.051C314.415 324.962 315.275 325.31 315.989 326.093C319.114 329.627 322.975 334.123 327.572 339.58L333.263 346.391L339.121 353.235C348.383 364.106 356.407 372.607 363.194 378.737C363.238 378.804 363.003 379.251 362.488 380.077C361.884 381.06 361.19 382.053 360.407 383.058C358.258 385.938 356.402 387.657 354.837 388.214C347.961 381.949 339.703 372.879 330.063 361.002L324.171 353.889L318.447 346.81C314.006 341.442 310.067 336.902 306.63 333.188C303.608 337.52 301.258 340.68 299.58 342.667C306.506 343.479 311.935 344.948 315.866 347.076C316.111 347.59 315.427 349.254 313.815 352.068C312.248 354.949 311.051 356.568 310.223 356.924C304.35 354.057 297.703 352.575 290.284 352.478L289.748 352.544L288.876 352.543C288.184 352.52 287.592 352.43 287.1 352.273C285.536 351.958 284.744 350.985 284.723 349.354C285.305 348.774 285.898 348.138 286.502 347.445L288.012 345.57C289.199 344.007 290.205 342.902 291.033 342.255C292.307 341.988 293.492 341.297 294.588 340.181C295.438 339.422 296.3 338.317 297.173 336.865L313.358 310.57C316.627 305.3 320.71 300.891 325.608 297.343L325.91 297.143L326.278 297.042C326.658 296.886 327.027 296.786 327.385 296.742C328.391 296.654 329.15 297.068 329.663 297.985C330.711 299.707 331.726 301.741 332.706 304.089L333.977 307.308L335.247 310.527C337.23 315.982 339.281 320.085 341.401 322.836C341.445 323.193 340.382 324.578 338.212 326.989C335.907 329.489 334.073 331.241 332.709 332.245C330.544 329.427 328.504 325.414 326.588 320.205L325.552 317.12L324.416 314.102C323.547 311.777 322.711 309.865 321.908 308.367C320.521 310.355 318.64 313.347 316.267 317.344L314.823 319.756L313.413 322C312.428 323.72 311.633 325.071 311.028 326.054Z" fill="#4A0631"/>
</svg>
