<svg width="493" height="375" viewBox="0 0 493 375" fill="none" xmlns="http://www.w3.org/2000/svg">
<path d="M107.185 82.9859C104.647 97.2679 99.2008 106.95 90.8456 112.033C83.876 115.033 76.7261 115.675 69.3961 113.959C64.891 112.945 61.9604 110.294 60.6044 106.007C57.6128 97.2542 58.2588 84.2883 62.5423 67.1098C63.996 61.3072 65.9997 55.0104 68.5536 48.2194C69.4048 45.9557 70.2174 43.8064 70.9912 41.7717C71.3258 41.0343 71.5964 40.3604 71.8031 39.7499C72.0344 39.3178 72.1759 39.0254 72.2276 38.8728C77.3012 27.1504 81.5945 18.8641 85.1076 14.0138L85.6465 13.1755L86.1854 12.3372L87.1858 10.8895C87.9549 9.87392 88.9012 9.08844 90.0249 8.5331C90.2797 8.53428 90.7 8.54896 91.2859 8.57715L92.0502 8.58069L92.8146 8.58423C94.0885 8.59012 94.9445 8.07175 95.3824 7.02914L97.1771 7.38141L98.8573 7.69493C100.13 7.9556 101.097 8.11295 101.76 8.16698C103.72 8.40536 105.142 9.60944 106.023 11.7792C106.275 12.5448 106.512 13.4759 106.737 14.5725L106.997 16.0642L107.143 17.5172C107.658 22.0294 107.683 27.6094 107.219 34.2573L106.817 38.4595L106.53 42.7004L105.764 51.3725C104.665 52.1063 102.611 52.6446 99.6032 52.9874C96.5951 53.3302 94.6971 53.2832 93.9093 52.8464C93.1215 52.4096 92.7939 51.6183 92.9266 50.4723C93.0382 48.3836 93.3177 45.7987 93.7651 42.7178L94.718 35.0021C95.4602 28.7886 95.6111 23.6935 95.1709 19.7167C88.1142 30.5127 82.1019 44.1289 77.1339 60.5654C72.0637 77.0524 70.2958 90.1914 71.8303 99.9825C72.1778 101.971 72.7683 103.745 73.6019 105.303C74.6375 107.27 75.9818 108.575 77.635 109.22C78.6788 109.403 79.5964 109.331 80.3877 109.003C80.6942 108.852 81.0006 108.701 81.3071 108.549L81.8442 108.093C85.7306 105.155 88.7823 100.914 90.9991 95.3703C92.6747 91.174 93.9598 85.9949 94.8546 79.8331L94.8969 78.9543L94.786 78.1512C94.7883 77.6416 94.6122 77.1567 94.2576 76.6964C94.0111 74.9118 94.7291 73.9214 96.4116 73.7253C102.964 72.711 106.757 73.442 107.791 75.9182C107.753 78.5424 107.551 80.8983 107.185 82.9859ZM172.479 69.7438C172.75 82.7649 167.333 94.371 156.228 104.562C150.778 109.607 145.234 112.792 139.597 114.116C133.221 115.616 125.796 115.059 117.324 112.446C114.779 111.67 112.532 110.016 110.582 107.485C108.733 105.158 107.691 101.701 107.458 97.1134C107.414 95.4825 107.473 93.8012 107.634 92.0693C107.794 90.5923 108.015 89.434 108.3 88.5945C110.163 82.3353 113.226 75.6739 117.488 68.6105C119.157 65.9429 122.092 62.0454 126.294 56.9181C131.162 51.0804 134.669 47.5041 136.816 46.1891C137.71 45.5563 138.832 45.3831 140.181 45.6696L140.873 44.7556L141.68 43.8803C142.244 43.2204 142.896 42.6756 143.637 42.2459C145.349 41.2092 147.388 41.0912 149.753 41.892L151.279 42.6635L152.614 43.2429C153.656 43.6809 154.534 43.8505 155.248 43.7519C160.441 44.7442 164.706 48.1016 168.043 53.8244C170.874 58.7804 172.353 64.0869 172.479 69.7438ZM144.516 99.9601C151.142 94.207 155.747 87.3871 158.332 79.5006C160.995 71.1303 160.853 63.1292 157.908 55.4973C156.775 52.562 155.268 50.4785 153.388 49.2468C152.366 50.0065 151.354 51.1101 150.354 52.5578C149.405 53.8528 148.802 54.8819 148.543 55.6451C145.91 63.1747 145.291 72.9176 146.688 84.8738C146.357 84.8468 145.95 84.7939 145.466 84.7152C144.956 84.7129 144.422 84.6595 143.862 84.5549C142.385 84.3952 141.048 84.198 139.851 83.9631C136.465 83.4124 134.43 82.766 133.745 82.024C133.116 80.3649 132.769 78.2485 132.705 75.6748C132.633 74.6299 132.638 73.4833 132.72 72.2352C132.75 71.3946 132.806 70.3502 132.888 69.1021C126.065 78.9564 121.975 87.2692 120.619 94.0403C120.254 95.8731 120.054 97.8468 120.018 99.9614C120.1 104.242 121.246 107.139 123.456 108.653C125.716 110.269 129.912 109.307 136.043 105.768C139.109 103.999 141.933 102.063 144.516 99.9601ZM242.593 78.6754C242.509 80.433 241.926 82.5324 240.844 84.9734C239.455 87.8206 237.416 90.8304 234.726 94.0029C227.783 102.2 217.427 110.306 203.656 118.319C190.781 125.699 183.47 130.838 181.724 133.734C180.833 133.603 179.129 132.856 176.613 131.494C175.19 130.672 173.957 130.042 172.915 129.604C171.237 128.781 169.558 128.085 167.879 127.517C170.541 119.402 175.731 107.463 183.447 91.7019C184.708 88.9815 186.097 86.1342 187.614 83.1602C188.669 81.0503 189.877 78.6099 191.241 75.839C193.684 70.8819 195.034 68.1491 195.292 67.6407C185.845 66.3995 178.769 64.8126 174.064 62.8799C171.445 61.8231 169.58 60.1711 168.469 57.9238C175.504 51.714 182.372 46.0002 189.071 40.7825C189.25 40.7579 189.505 40.759 189.836 40.786C190.345 40.7884 190.855 40.7908 191.365 40.7931C192.765 40.927 194.153 41.099 195.528 41.3092C199.525 42.0666 202.385 43.2901 204.11 44.9797L201.923 46.9187L199.85 48.8965L195.973 52.4329C193.031 55.0946 190.281 57.4387 187.724 59.4652L190.359 59.9742L192.879 60.4445C194.712 60.8097 196.227 60.9823 197.424 60.9623C197.938 60.2003 198.44 58.9669 198.932 57.2621L199.591 55.316L200.478 53.4474C201.702 53.3512 203.763 53.9212 206.662 55.1576L208.416 56.0065L210.323 56.7797C211.722 57.4232 212.752 57.8993 213.413 58.2081C212.256 60.3685 211.586 62.098 211.401 63.3965C223.418 65.3376 233.02 68.8854 240.207 74.0399C241.933 75.4747 242.728 77.0199 242.593 78.6754ZM228.536 77.2345C228.822 75.8854 228.547 74.814 227.71 74.0203C225.779 72.6865 223.045 71.591 219.508 70.7338C218.185 70.371 216.568 69.994 214.659 69.603L209.466 68.7382C209.131 69.4755 207.973 71.8907 205.992 75.9837C205.014 78.1194 204.127 79.988 203.329 81.5895C202.223 83.852 201.207 85.9748 200.281 87.9579C194.825 99.5511 190.887 108.298 188.464 114.198C202.109 105.802 211.785 98.827 217.493 93.2734C223.022 87.7446 226.703 82.3983 228.536 77.2345ZM285.362 139.34C279.1 149.044 270.924 154.102 260.832 154.514C256.678 154.724 253.531 154.85 251.39 154.891C247.823 154.874 244.703 154.669 242.03 154.274C235.308 153.275 229.855 150.664 225.67 146.44C223.768 144.52 222.595 142.082 222.15 139.124C221.729 136.345 221.996 133.671 222.951 131.102L223.222 130.301L223.608 129.538C223.815 128.927 224.111 128.305 224.496 127.669C225.267 126.144 226.28 124.658 227.536 123.212C230.993 119.279 236.235 115.354 243.26 111.437C242.093 110.361 240.619 109.437 238.839 108.665C238.469 105.988 239.271 103.367 241.245 100.803C244.859 96.1568 249.633 91.3506 255.567 86.3842C257.716 84.5596 260.324 82.5079 263.392 80.229L267.343 77.228L271.14 74.3027C272.926 73.8014 275.767 73.8272 279.662 74.3803C280.961 74.5647 282.361 74.826 283.863 75.1641C284.423 75.2686 284.983 75.3731 285.543 75.4776L286.268 75.5957L286.726 75.7506C288.682 77.0082 289.451 78.8844 289.032 81.3794C287.321 87.6903 282.38 95.5023 274.209 104.815L273.827 104.814L273.406 104.926L272.335 105.074C271.367 105.172 270.411 105.231 269.468 105.252C266.64 105.315 263.863 105.099 261.139 104.602C260.867 102.894 260.846 101.823 261.078 101.391C266.138 98.0006 270.288 93.2806 273.526 87.2316C273.808 86.9017 273.924 86.5583 273.875 86.2013C273.851 85.7681 273.648 85.6143 273.265 85.7399C269.26 86.766 264.85 89.9942 260.035 95.4244C258.242 97.4545 256.589 99.5743 255.076 101.784C253.716 103.791 252.791 105.391 252.302 106.587C253.215 107.406 254.625 108.266 256.532 109.167L258.82 110.324L259.926 110.826L260.917 111.289C261.4 111.623 261.703 112.108 261.828 112.746C261.85 113.434 261.631 113.955 261.171 114.31C254.923 115.427 249.395 118.064 244.586 122.221C239.29 126.808 236.591 132.019 236.487 137.853C236.755 140.58 237.916 143.057 239.969 145.283C242.023 147.509 244.361 148.769 246.984 149.061C252.051 149.671 256.833 148.737 261.329 146.261C265.544 143.86 269.102 140.386 272.002 135.839C270.336 132.468 268.729 130.052 267.182 128.593C267.135 127.726 267.354 127.078 267.84 126.647L268.684 126.039L269.528 125.432C270.214 125.664 271.093 125.834 272.162 125.941L275.103 126.298C277.752 126.514 279.535 126.777 280.45 127.087C281.543 127.628 282.431 128.651 283.111 130.157L283.451 131.038L283.791 131.918C284.068 132.608 284.384 133.182 284.739 133.643L285.459 134.907C285.711 135.418 285.888 135.903 285.987 136.362C286.288 137.484 286.08 138.477 285.362 139.34ZM346.268 149.238C346.699 149.724 346.464 150.92 345.564 152.827L344.946 154.277L344.213 155.687C343.621 156.933 343.132 158.001 342.746 158.891C341.65 158.86 340.035 158.229 337.901 156.996C333.527 155.09 328.885 153.476 323.973 152.154L321.073 151.3L318.133 150.56C315.945 149.989 314.087 149.446 312.561 148.929C299.48 145.607 290.537 142.751 285.733 140.359C284.715 140.099 284.656 139.016 285.557 137.109C285.943 136.219 287.381 133.856 289.87 130.021C292.97 131.92 296.377 133.541 300.09 134.883C301.54 135.374 303.194 135.892 305.052 136.435L309.937 137.834L314.479 139.116L319.06 140.284L328.297 142.772C335.498 144.869 341.489 147.025 346.268 149.238ZM73.0178 205.791C71.7331 213.607 67.397 220.135 60.0093 225.375C57.2231 227.324 53.7359 229.334 49.5477 231.404L43.9559 233.977L38.6705 236.398C34.2276 238.467 30.8074 239.776 28.4098 240.326C24.5328 241.225 21.0815 240.992 18.0558 239.628C14.5217 238.007 11.496 236.642 8.97869 235.535C7.93608 235.097 6.90991 233.856 5.9002 231.813C4.88931 230.025 4.31049 228.468 4.16374 227.143C4.33288 223.627 5.38202 219.9 7.31118 215.959C8.85403 212.909 10.9963 209.721 13.7379 206.396C20.4705 199.573 26.6828 195.041 32.375 192.8C36.1276 191.263 39.7503 190.235 43.2434 189.716C44.3142 189.569 45.4484 189.485 46.646 189.465L47.2959 189.429L47.907 189.509C48.2639 189.459 48.5316 189.422 48.7101 189.398C49.4979 189.835 50.4625 190.629 51.6037 191.781L53.0496 193.163L54.4955 194.546C55.9608 197.253 55.615 200.411 53.458 204.019C52.433 205.288 50.9095 206.899 48.8877 208.852L46.6227 211.02C45.7527 211.831 45.01 212.643 44.3948 213.455L44.9143 216.821C44.4294 216.997 42.0512 216.107 37.7798 214.151C37.2714 213.894 36.7119 213.662 36.1014 213.455L34.6132 212.952C33.5189 212.666 32.8068 212.383 32.4769 212.101C31.5881 211.46 32.1939 209.921 34.2945 207.485C34.6021 207.079 35.2673 206.496 36.2899 205.736L37.6707 204.672L39.0515 203.609C41.4303 201.607 42.4325 199.777 42.058 198.119C34.0668 201.624 27.6848 207.034 22.9118 214.35C20.5764 217.983 18.8915 221.453 17.857 224.76C16.6664 228.78 16.883 231.533 18.5068 233.018C25.8756 231.855 33.1358 229.379 40.2875 225.59C46.3918 222.382 50.6469 219.612 53.0527 217.279C56.2769 214.288 59.1125 209.931 61.5595 204.21C63.1881 199.147 61.5127 195.05 56.5333 191.918C55.6186 191.353 54.424 190.736 52.9493 190.067L49.2508 188.177C46.0478 186.583 43.6086 185.119 41.9332 183.786C37.2227 177.599 37.022 171.406 41.3311 165.209C42.6908 163.203 44.4961 161.262 46.7469 159.387L47.9745 158.399C48.2304 158.145 48.5627 157.918 48.9713 157.716C49.7638 157.133 50.173 156.804 50.1989 156.728C52.6786 154.93 56.7916 152.58 62.5379 149.676C66.3679 147.91 70.0793 146.998 73.6721 146.938C76.7554 146.876 78.9569 147.408 80.2766 148.535L81.6503 149C82.3876 149.335 83.061 149.733 83.6704 150.194C85.448 151.476 86.5739 153.176 87.0482 155.293C87.3593 159.651 86.0771 164.193 83.2016 168.919C82.072 170.748 80.6489 172.691 78.9323 174.747C77.8815 176.092 76.3574 177.831 74.3602 179.962C69.7788 178.921 67.0049 178.195 66.0386 177.783C64.8692 177.217 64.7964 176.427 65.8203 175.412L67.932 173.32L70.2357 171.038C72.0016 169.339 73.4229 167.778 74.4996 166.357C77.4984 162.523 79.0195 158.657 79.063 154.759L78.8746 154.185L78.7249 153.496C78.4983 152.909 78.1936 152.679 77.8108 152.804C65.3838 156.849 56.2831 163.38 50.5086 172.399C48.9176 174.837 48.8031 177.563 50.165 180.576C51.3003 183.002 53.3034 185.126 56.1741 186.948C57.2155 187.641 58.537 188.386 60.1385 189.183L62.0828 190.224L64.0659 191.15C70.4707 194.594 73.4546 199.475 73.0178 205.791ZM131.787 169.798C131.582 169.899 131.174 170.101 130.561 170.404L129.795 170.783L128.99 171.276C127.586 171.906 126.464 172.079 125.624 171.795C125.871 173.58 125.67 175.681 125.022 178.099C121.929 185.728 116.92 194.622 109.993 204.782L105.722 210.992L101.451 217.202C98.2188 221.977 95.5623 226.181 93.4817 229.815C91.9917 232.458 90.7934 235.37 89.8869 238.551C90.3965 238.553 91.1356 238.506 92.1043 238.408L93.5573 238.262L95.0102 238.116C97.7377 237.848 99.8658 237.718 101.395 237.725C106.363 237.62 108.512 238.56 107.84 240.545C107.02 241.713 105.93 243.173 104.572 244.925L102.842 247.019L101.113 249.113C98.4977 252.566 96.8005 255.947 96.0208 259.255C95.0287 258.92 93.8064 258.761 92.354 258.78L90.4431 258.771L88.8757 258.878C86.4041 258.892 85.0698 258.186 84.8725 256.758C85.6217 254.545 86.7271 252.409 88.189 250.352L90.0347 247.915C90.8296 246.823 91.4707 245.934 91.958 245.249C92.0096 245.096 90.9007 245.231 88.6311 245.654C88.1626 247.792 86.8335 248.703 84.6437 248.387L83.0393 248.227L81.4736 247.952C80.0729 247.818 78.8747 247.965 77.879 248.394C77.191 248.416 76.6333 247.802 76.2059 246.552C71.9473 247.322 66.2199 248.913 59.0237 251.326C57.32 250.579 56.7929 248.87 57.4422 246.197C62.6237 244.208 69.0919 242.187 76.8471 240.134C77.6808 236.163 79.2413 232.055 81.5285 227.811C82.3258 226.209 83.379 224.354 84.6882 222.246L87.9236 216.833C89.6179 214.09 91.8887 210.648 94.736 206.508L98.1986 201.555L101.7 196.488C107.088 188.36 110.906 180.976 113.153 174.336C109.794 173.455 106.51 172.981 103.299 172.915L102.694 171.689C102.518 171.204 102.38 170.732 102.28 170.273C102.005 169.074 102.074 167.864 102.488 166.643C108.678 166.952 115.523 165.952 123.025 163.643C126.458 165.06 129.346 165.952 131.688 166.32C133.291 166.862 133.324 168.022 131.787 169.798ZM147.62 195.827C148.612 196.163 149.361 196.587 149.869 197.099C150.553 197.841 150.804 198.734 150.621 199.778C149.733 204.411 148.534 210.214 147.024 217.189L145.111 225.855L143.274 234.675C140.33 248.65 138.506 260.196 137.802 269.314C137.776 269.391 137.278 269.478 136.31 269.575C135.163 269.697 133.952 269.755 132.678 269.749C129.085 269.809 126.59 269.39 125.193 268.492C125.95 259.221 128.082 247.141 131.59 232.252L133.619 223.242L135.724 214.385C137.259 207.589 138.446 201.696 139.284 196.706C134.009 196.962 130.072 197.033 127.473 196.919C131.064 202.897 133.218 208.092 133.937 212.504C133.68 213.012 131.945 213.488 128.732 213.932C125.494 214.452 123.481 214.494 122.693 214.057C121.372 207.655 118.484 201.489 114.027 195.557L113.646 195.173L113.114 194.483C112.709 193.92 112.419 193.397 112.243 192.912C111.536 191.482 111.822 190.26 113.1 189.247C113.915 189.352 114.781 189.433 115.698 189.488L118.106 189.537C120.068 189.521 121.558 189.643 122.576 189.902C123.565 190.747 124.837 191.263 126.39 191.448C127.51 191.658 128.912 191.664 130.594 191.468L161.299 188.208C167.468 187.575 173.453 188.112 179.254 189.82L179.598 189.937L179.902 190.167C180.258 190.373 180.563 190.603 180.816 190.859C181.501 191.601 181.637 192.456 181.225 193.422C180.503 195.304 179.512 197.351 178.254 199.561L176.482 202.534L174.71 205.507C171.604 210.41 169.611 214.541 168.729 217.9C168.473 218.154 166.728 218.159 163.493 217.914C160.106 217.619 157.598 217.238 155.969 216.771C156.877 213.336 158.806 209.268 161.758 204.568L163.567 201.863L165.261 199.119C166.571 197.01 167.573 195.181 168.268 193.63C165.847 193.746 162.329 194.086 157.715 194.651L154.923 194.982L152.285 195.237C150.322 195.508 148.767 195.705 147.62 195.827ZM215.532 262.451C209.27 272.155 201.093 277.213 191.002 277.625C186.848 277.835 183.7 277.96 181.56 278.001C177.993 277.985 174.873 277.779 172.199 277.385C165.477 276.385 160.024 273.774 155.84 269.551C153.938 267.631 152.764 265.192 152.319 262.235C151.899 259.455 152.166 256.781 153.121 254.212L153.392 253.411L153.778 252.648C153.984 252.038 154.28 251.415 154.665 250.78C155.437 249.255 156.45 247.769 157.705 246.322C161.163 242.389 166.404 238.464 173.429 234.547C172.262 233.472 170.789 232.548 169.009 231.775C168.639 229.098 169.441 226.477 171.415 223.913C175.029 219.267 179.803 214.461 185.737 209.495C187.885 207.67 190.494 205.618 193.562 203.339L197.512 200.338L201.309 197.413C203.095 196.912 205.936 196.938 209.832 197.491C211.13 197.675 212.531 197.936 214.032 198.275C214.592 198.379 215.152 198.484 215.712 198.588L216.438 198.706L216.896 198.861C218.852 200.119 219.62 201.995 219.201 204.49C217.49 210.801 212.55 218.613 204.379 227.926L203.997 227.924L203.576 228.037L202.505 228.185C201.536 228.282 200.58 228.341 199.638 228.362C196.809 228.426 194.033 228.209 191.309 227.712C191.037 226.004 191.016 224.934 191.247 224.502C196.308 221.111 200.457 216.391 203.696 210.342C203.977 210.012 204.094 209.669 204.044 209.312C204.021 208.879 203.818 208.725 203.435 208.85C199.43 209.876 195.02 213.105 190.205 218.535C188.412 220.565 186.759 222.685 185.245 224.894C183.886 226.901 182.961 228.502 182.471 229.697C183.385 230.517 184.795 231.377 186.702 232.277L188.989 233.435L190.095 233.936L191.087 234.4C191.569 234.733 191.873 235.219 191.997 235.856C192.02 236.544 191.801 237.066 191.34 237.42C185.093 238.538 179.564 241.175 174.755 245.331C169.46 249.918 166.76 255.129 166.657 260.963C166.925 263.691 168.085 266.168 170.139 268.394C172.192 270.62 174.53 271.879 177.153 272.172C182.221 272.781 187.003 271.848 191.498 269.372C195.714 266.971 199.271 263.496 202.171 258.949C200.505 255.578 198.899 253.163 197.351 251.703C197.304 250.837 197.524 250.188 198.01 249.757L198.853 249.15L199.697 248.542C200.384 248.775 201.262 248.944 202.332 249.051L205.273 249.409C207.922 249.625 209.704 249.888 210.62 250.198C211.713 250.738 212.6 251.761 213.281 253.268L213.621 254.148L213.961 255.029C214.238 255.718 214.554 256.293 214.908 256.753L215.629 258.018C215.881 258.528 216.057 259.013 216.157 259.472C216.458 260.595 216.249 261.588 215.532 262.451ZM225.96 286.906L223.667 286.895C221.782 286.937 220.112 287.095 218.658 287.369C217.36 287.184 216.725 286.672 216.755 285.831C216.633 284.684 216.247 282.682 215.598 279.825C214.586 278.292 218.641 277.368 227.764 277.053C228.477 277.21 228.957 277.925 229.206 279.2C229.406 280.119 229.502 281.342 229.495 282.871C229.542 283.737 229.487 284.527 229.331 285.239C229.123 286.105 228.815 286.638 228.407 286.84L225.96 286.906ZM320.885 291.476C319.458 291.418 316.81 291.075 312.94 290.445L310.496 290.128L308.204 289.735C306.422 289.472 305.085 289.275 304.194 289.144C303.083 292.425 302.376 296.652 302.072 301.822L301.85 308.51L301.719 311.91L301.666 315.082L301.587 315.694L301.508 316.305C301.48 316.891 301.389 317.285 301.235 317.488C300.798 318.276 299.804 318.45 298.251 318.009C297.028 318.106 295.449 317.996 293.514 317.682L291.184 317.403C290.191 317.322 289.274 317.267 288.433 317.238C287.983 309.77 288.647 301.276 290.423 291.755L290.541 291.03L290.735 290.457L290.931 289.503C285.698 291.644 278.738 295.115 270.053 299.916L259.402 305.753C255.34 307.951 251.79 309.769 248.752 311.207L246.302 312.036L243.852 312.866C241.99 313.341 240.219 313.295 238.54 312.727L236.055 312.906L233.609 312.971C231.571 312.962 229.968 312.419 228.801 311.344C227.866 309.582 227.62 307.797 228.061 305.99C228.398 304.743 229.195 303.269 230.451 301.568C232.938 298.241 236.306 294.575 240.554 290.569L246.08 285.55L251.607 280.531C244.277 278.815 238.591 277.018 234.548 275.139C233.658 274.753 233.246 273.082 233.31 270.127L245.313 269.724L245.845 270.414C247.856 270.755 250.466 271.085 253.675 271.406L257.534 271.691L261.468 272.13C265.023 269.165 269.204 265.86 274.011 262.213L280.493 257.389L287.088 252.604C298.056 244.578 306.354 238.03 311.983 232.96C312.521 232.377 313.277 231.399 314.252 230.028L325.905 230.655C326.664 231.932 326.784 233.462 326.266 235.243C326.06 235.853 325.776 236.566 325.416 237.379L324.952 238.371L324.489 239.362L321.942 244.625L319.357 250.002C317.427 254.197 315.779 257.807 314.415 260.833C310.758 269.122 308.075 276.422 306.364 282.733L306.17 283.305C306.093 283.534 306.003 283.674 305.901 283.725L309.643 284.353L313.462 285.135C316.567 285.761 318.986 286.155 320.718 286.315C321.199 286.904 321.412 287.656 321.357 288.573L321.045 289.871C320.991 290.534 320.938 291.068 320.885 291.476ZM304.67 252.303C297.54 257.035 287.684 264.289 275.103 274.066C277.827 274.562 281.061 275.061 284.804 275.563L289.732 276.082L294.621 276.717C295.911 273.155 297.561 269.035 299.57 264.357L302.12 258.33L304.67 252.303ZM290.436 280.787C289.061 280.576 287.304 280.364 285.165 280.151L282.338 279.832L279.511 279.513C275.004 279.008 271.86 278.497 270.078 277.979L268.812 279.081L287.067 282.07L290.436 280.787ZM278.182 286.081C276.068 285.79 273.662 285.359 270.964 284.786L263.786 283.377C253.991 291.205 246.553 299.107 241.471 307.084C241.7 307.161 243.974 305.72 248.294 302.758C250.952 300.936 253.636 299.165 256.344 297.445C260.075 295.22 264.034 293.073 268.222 291.003L278.182 286.081ZM383.939 296.614C382.198 298.237 380.092 299.182 377.619 299.451C376.651 299.549 375.581 299.569 374.409 299.513L372.88 299.506L371.39 299.384C362.86 298.198 355.922 297.083 350.576 296.039C356.662 302.437 361.22 308.446 364.252 314.065C368.345 321.575 369.93 328.704 369.007 335.451L368.889 336.177L368.693 337.132C368.485 337.997 368.29 338.824 368.108 339.613C367.435 341.852 366.676 343.467 365.831 344.456C364.918 343.637 363.699 342.714 362.175 341.688L360.308 340.418L358.441 339.148C355.469 337.121 353.428 334.984 352.318 332.737C352.684 330.65 352.871 328.714 352.88 326.931L352.851 324.752L352.938 322.612C352.603 317.821 350.972 312.462 348.044 306.538C345.166 300.715 342.456 297.161 339.914 295.875C336.664 304.472 334.133 311.824 332.321 317.931C329.811 326.352 328.107 333.899 327.21 340.571C326.901 341.232 322.49 339.186 313.976 334.433C315.746 320.911 320.062 305.02 326.924 286.757C326.798 286.375 326.558 285.953 326.203 285.493L325.709 285.07L325.367 284.572C324.708 283.753 324.572 282.899 324.958 282.009C325.42 281.4 326.059 281.021 326.875 280.872C327.486 280.823 328.187 280.89 328.976 281.072C330.577 276.341 332.216 271.877 333.891 267.68L334.936 264.972L336.095 262.302C337.1 259.835 337.886 257.889 338.453 256.465L337.159 255.389L335.75 254.274C334.76 253.429 333.974 252.61 333.391 251.817C333.343 251.206 333.525 250.544 333.936 249.832C334.372 249.045 334.884 248.537 335.471 248.311L342.229 249.833C342.51 249.757 342.829 249.568 343.187 249.264L343.61 248.769C343.916 248.617 344.21 248.504 344.491 248.429C346.647 250.35 349.899 252.429 354.246 254.666L356.724 256.015L359.202 257.364C360.955 258.467 362.466 259.532 363.735 260.557C373.66 268.68 380.425 276.839 384.03 285.034C384.863 286.847 385.338 288.837 385.455 291.003C385.545 293.5 385.04 295.371 383.939 296.614ZM372.866 285.976C373.072 285.62 373.24 285.124 373.37 284.488C373.474 283.928 373.502 283.469 373.453 283.113C372.607 278.573 370.117 274.371 365.982 270.504C362.253 266.945 357.946 264.339 353.062 262.686L344.481 283.514L348.032 284.333L351.735 285.076C354.586 285.701 357.017 286.183 359.028 286.524C364.63 287.314 369.243 287.131 372.866 285.976ZM410.223 284.713C411.215 285.049 411.964 285.473 412.472 285.985C413.156 286.727 413.407 287.62 413.224 288.664C412.336 293.297 411.137 299.1 409.627 306.075L407.714 314.741L405.877 323.561C402.933 337.536 401.109 349.082 400.404 358.2C400.379 358.277 399.881 358.363 398.913 358.461C397.766 358.583 396.555 358.641 395.281 358.635C391.688 358.695 389.193 358.276 387.796 357.378C388.552 348.107 390.685 336.027 394.193 321.138L396.222 312.128L398.327 303.271C399.862 296.475 401.048 290.582 401.887 285.592C396.612 285.848 392.675 285.919 390.076 285.805C393.667 291.783 395.821 296.978 396.54 301.39C396.283 301.898 394.548 302.374 391.335 302.818C388.097 303.338 386.084 303.38 385.296 302.943C383.975 296.541 381.087 290.375 376.63 284.443L376.249 284.059L375.717 283.369C375.312 282.806 375.022 282.283 374.846 281.798C374.139 280.368 374.425 279.146 375.703 278.133C376.518 278.238 377.384 278.319 378.301 278.374L380.709 278.423C382.671 278.407 384.161 278.529 385.179 278.788C386.168 279.633 387.44 280.149 388.993 280.334C390.113 280.543 391.515 280.55 393.197 280.354L423.902 277.094C430.071 276.461 436.056 276.998 441.857 278.706L442.201 278.822L442.505 279.053C442.861 279.259 443.166 279.489 443.419 279.745C444.104 280.487 444.24 281.342 443.828 282.308C443.106 284.19 442.115 286.236 440.857 288.447L439.085 291.42L437.313 294.393C434.207 299.296 432.214 303.427 431.332 306.786C431.076 307.04 429.331 307.045 426.096 306.8C422.708 306.505 420.201 306.123 418.572 305.657C419.48 302.222 421.409 298.154 424.361 293.454L426.17 290.749L427.864 288.005C429.174 285.896 430.176 284.067 430.871 282.515C428.45 282.632 424.932 282.972 420.318 283.537L417.526 283.868L414.888 284.123C412.925 284.394 411.37 284.591 410.223 284.713Z" fill="#4A0631"/>
</svg>
