<svg width="393" height="451" viewBox="0 0 393 451" fill="none" xmlns="http://www.w3.org/2000/svg">
<path d="M72.8841 129.091C78.5286 142.463 79.2271 153.556 74.9797 162.371C70.7616 168.684 65.1087 173.115 58.0212 175.665C53.6868 177.266 49.7836 176.636 46.3116 173.775C39.0352 168.055 32.5193 156.819 26.7638 140.065C24.8255 134.402 23.0798 128.025 21.5269 120.934C21.0093 118.57 20.5214 116.324 20.0634 114.194C19.9429 113.393 19.8033 112.68 19.6444 112.055C19.6034 111.566 19.563 111.244 19.5233 111.087C17.4013 98.4844 16.4947 89.1907 16.8037 83.2064L16.7998 82.2093L16.7958 81.2121L16.8476 79.4522C16.9404 78.1809 17.3073 77.0063 17.9483 75.9284C18.1628 75.7907 18.5237 75.5742 19.0309 75.279L19.6745 74.8658L20.3181 74.4527C21.3908 73.7642 21.8272 72.863 21.6273 71.7493L23.3257 71.0681L24.9069 70.4167C26.1173 69.9427 27.0151 69.5481 27.6005 69.233C29.3764 68.3657 31.225 68.6029 33.1464 69.9444C33.7741 70.4503 34.4805 71.1026 35.2657 71.9011L36.2966 73.0116L37.2103 74.1518C40.0982 77.6599 43.157 82.3308 46.3864 88.1643L48.3368 91.9107L50.4044 95.6273L54.482 103.325C53.9588 104.539 52.5279 106.109 50.1891 108.034C47.8504 109.96 46.2314 110.953 45.3322 111.015C44.4331 111.078 43.7273 110.592 43.2149 109.557C42.1715 107.743 40.999 105.421 39.6974 102.591L36.2972 95.5947C33.5378 89.9744 30.8909 85.6148 28.3565 82.5159C28.3093 95.4207 30.6742 110.125 35.4511 126.628C40.1697 143.229 45.838 155.222 52.4562 162.606C53.8307 164.087 55.2919 165.254 56.8399 166.108C58.7798 167.196 60.6192 167.56 62.358 167.201C63.334 166.787 64.065 166.227 64.551 165.521C64.7258 165.227 64.9007 164.933 65.0755 164.639L65.2781 163.964C66.9417 159.382 67.1949 154.16 66.0379 148.299C65.1602 143.864 63.4198 138.817 60.8167 133.157L60.3737 132.396L59.8434 131.782C59.568 131.353 59.1562 131.042 58.608 130.848C57.4295 129.484 57.4931 128.262 58.7989 127.181C63.7479 122.763 67.3301 121.312 69.5454 122.828C70.9424 125.051 72.0553 127.139 72.8841 129.091ZM120.491 82.4297C127.807 93.2135 129.578 105.906 125.803 120.507C123.973 127.709 121.053 133.401 117.042 137.581C112.504 142.311 105.968 145.886 97.4334 148.304C94.8749 149.038 92.088 148.873 89.0728 147.809C86.2535 146.862 83.4972 144.527 80.8039 140.803C79.8797 139.457 79.0137 138.014 78.206 136.472C77.536 135.145 77.0918 134.052 76.8733 133.193C75.0304 126.924 73.9754 119.664 73.7084 111.414C73.657 108.266 73.9996 103.396 74.7363 96.8043C75.6452 89.2535 76.6426 84.3419 77.7287 82.0695C78.1353 81.0512 78.9828 80.2951 80.2714 79.8012L80.3549 78.6571L80.5556 77.4832C80.6695 76.6224 80.9205 75.81 81.3085 75.0459C82.1813 73.2437 83.8288 72.0347 86.2509 71.4191L87.9512 71.2365L89.3874 70.9962C90.5011 70.7963 91.3308 70.4607 91.8764 69.9893C96.7762 67.9952 102.184 68.4922 108.101 71.4801C113.175 74.0997 117.305 77.7496 120.491 82.4297ZM113.465 123.019C115.896 114.582 116.049 106.35 113.925 98.3223C111.604 89.8456 107.13 83.2056 100.503 78.4021C97.9536 76.5546 95.5548 75.6255 93.3062 75.6148C92.8612 76.8092 92.6128 78.2864 92.5611 80.0463C92.4696 81.65 92.5231 82.8425 92.7217 83.6238C94.6096 91.3787 99.3943 99.8946 107.076 109.171C106.783 109.329 106.412 109.506 105.963 109.704C105.534 109.979 105.056 110.225 104.529 110.443C103.202 111.113 101.973 111.675 100.84 112.129C97.6977 113.51 95.6372 114.075 94.6586 113.825C93.2271 112.775 91.7838 111.187 90.3286 109.061C89.6996 108.223 89.0799 107.257 88.4695 106.165C88.0365 105.443 87.5148 104.536 86.9044 103.443C86.5408 115.431 87.6327 124.636 90.1802 131.058C90.8714 132.796 91.7777 134.562 92.8992 136.356C95.2985 139.905 97.8377 141.714 100.517 141.781C103.294 141.907 106.293 138.816 109.514 132.508C111.124 129.353 112.441 126.19 113.465 123.019ZM184.215 51.7597C185.101 53.2813 185.754 55.3611 186.175 57.9991C186.559 61.1455 186.485 64.7825 185.954 68.9102C184.588 79.5717 180.306 92.014 173.108 106.237C166.316 119.442 162.976 127.736 163.087 131.118C162.267 131.493 160.431 131.793 157.577 132.02C155.935 132.104 154.557 132.246 153.443 132.446C151.586 132.669 149.799 132.998 148.08 133.435C145.897 125.173 143.754 112.326 141.652 94.8932C141.23 91.9229 140.846 88.7765 140.501 85.4539C140.237 83.1086 139.924 80.4018 139.56 77.3335C138.913 71.8418 138.558 68.8126 138.498 68.2458C129.891 72.3465 123.087 74.8661 118.085 75.8047C115.311 76.3435 112.846 75.9719 110.69 74.6899C113.216 65.6467 115.871 57.1114 118.655 49.084C118.791 48.9662 119.006 48.8284 119.298 48.6709C119.728 48.3955 120.157 48.12 120.586 47.8446C121.835 47.1945 123.093 46.5834 124.362 46.0114C128.13 44.4716 131.197 43.9414 133.565 44.4209L132.784 47.2395L132.12 50.0284L130.791 55.1074C129.77 58.9437 128.738 62.4086 127.694 65.5019L130.183 64.495L132.555 63.5179C134.292 62.8267 135.658 62.1468 136.653 61.4781C136.669 60.5591 136.419 59.25 135.904 57.551L135.398 55.5586L135.126 53.5067C136.1 52.7599 138.141 52.1164 141.248 51.5763L143.183 51.3341L145.205 50.9449C146.729 50.7238 147.853 50.563 148.576 50.4624C148.781 52.9057 149.159 54.7226 149.711 55.9131C160.857 51.0008 170.849 48.7522 179.688 49.1672C181.918 49.4322 183.427 50.2964 184.215 51.7597ZM171.629 58.2028C171.135 56.9142 170.321 56.1646 169.186 55.954C166.839 55.885 163.948 56.4536 160.511 57.6598C159.203 58.0755 157.641 58.6389 155.825 59.3499L150.994 61.4512C151.115 62.2524 151.458 64.9102 152.023 69.4246C152.364 71.75 152.636 73.8019 152.839 75.5804C153.142 78.0819 153.444 80.4172 153.746 82.5864C155.477 95.2887 156.932 104.776 158.11 111.047C164.995 96.5712 169.321 85.4484 171.089 77.6791C172.721 70.0277 172.901 63.5356 171.629 58.2028ZM253.144 79.4064C253.17 90.9618 249.059 99.6592 240.811 105.499C237.438 107.936 234.864 109.755 233.09 110.955C230.086 112.883 227.355 114.409 224.896 115.533C218.709 118.353 212.709 119.129 206.897 117.862C204.255 117.286 201.942 115.877 199.959 113.636C198.093 111.532 196.862 109.142 196.265 106.465L196.056 105.645L195.965 104.795C195.806 104.17 195.715 103.486 195.693 102.743C195.51 101.042 195.552 99.2434 195.818 97.3458C196.58 92.1614 198.844 86.013 202.609 78.9007C201.044 78.6331 199.304 78.6595 197.389 78.9799C195.621 76.9338 194.868 74.2972 195.129 71.07C195.634 65.2023 197.025 58.5685 199.303 51.1687C200.114 48.4673 201.187 45.3249 202.522 41.7416L204.204 37.0717L205.8 32.5489C207.026 31.1558 209.425 29.6311 212.997 27.9747C214.187 27.4225 215.505 26.8797 216.95 26.3461C217.477 26.129 218.004 25.9118 218.531 25.6947L219.204 25.3987L219.673 25.2796C222 25.2705 223.666 26.4273 224.673 28.7501C226.672 34.9795 226.777 44.2274 224.987 56.4938L224.665 56.7004L224.373 57.0241L223.554 57.7312C222.794 58.3403 222.024 58.9104 221.244 59.4414C218.904 61.0343 216.456 62.3637 213.898 63.4296C212.74 62.1436 212.14 61.2563 212.099 60.7677C214.501 55.1663 215.416 48.945 214.841 42.1039C214.898 41.6735 214.809 41.3219 214.573 41.0491C214.318 40.6982 214.063 40.6796 213.81 40.9934C211.007 44.0351 209.062 49.1459 207.975 56.3259C207.575 59.0062 207.341 61.6858 207.274 64.3647C207.225 66.7894 207.32 68.6368 207.559 69.9067C208.772 70.0975 210.424 70.0519 212.515 69.77L215.066 69.496L216.268 69.3153L217.352 69.1644C217.939 69.1817 218.458 69.4241 218.91 69.8915C219.303 70.457 219.403 71.0139 219.209 71.5621C214.573 75.9014 211.367 81.1247 209.592 87.232C207.644 93.9657 208.214 99.8097 211.304 104.764C213.013 106.908 215.336 108.355 218.272 109.107C221.207 109.858 223.856 109.642 226.217 108.459C230.803 106.212 234.309 102.826 236.736 98.2998C238.967 93.9895 240.063 89.1362 240.022 83.7399C236.788 81.8169 234.125 80.6639 232.031 80.2811C231.52 79.5792 231.351 78.9151 231.525 78.2887L231.902 77.3194L232.279 76.3501C232.983 76.1713 233.812 75.8357 234.768 75.3431L237.432 74.0422C239.774 72.7817 241.413 72.0323 242.351 71.7939C243.562 71.6523 244.864 72.0285 246.256 72.9224L247.021 73.4767L247.785 74.0309C248.393 74.4587 248.971 74.7693 249.519 74.9627L250.812 75.6321C251.302 75.9235 251.714 76.2347 252.048 76.5658C252.911 77.3445 253.277 78.2914 253.144 79.4064ZM309.664 54.5601C310.29 54.7336 310.744 55.8658 311.026 57.9569L311.296 59.5102L311.449 61.0934C311.631 62.4613 311.801 63.624 311.962 64.5815C311.025 65.1522 309.326 65.501 306.862 65.628C302.153 66.409 297.377 67.5813 292.535 69.145L289.634 70.0069L286.764 70.986C284.616 71.6983 282.761 72.253 281.198 72.6502C268.408 76.9824 259.346 79.4522 254.01 80.0597C253.014 80.396 252.375 79.5186 252.093 77.4276C251.933 76.4702 251.854 73.7038 251.856 69.1285C255.492 69.0361 259.234 68.5424 263.083 67.6474C264.567 67.2701 266.237 66.8041 268.092 66.2493L272.955 64.7638L277.466 63.3677L281.948 61.8543L291.057 58.915C298.244 56.7556 304.446 55.304 309.664 54.5601ZM111.033 250.712C114.21 257.973 114.123 265.814 110.774 274.234C109.495 277.387 107.662 280.973 105.273 284.99L101.979 290.194L98.86 295.105C96.2562 299.26 94.0975 302.221 92.3839 303.987C89.6186 306.853 86.5946 308.536 83.3118 309.038C79.4621 309.601 76.1793 310.102 73.4632 310.543C72.3495 310.743 70.8128 310.26 68.8529 309.095C67.0308 308.144 65.6974 307.152 64.8526 306.119C63.0809 303.076 61.9323 299.375 61.4069 295.017C61.0416 291.616 61.1047 287.774 61.5963 283.49C63.5343 274.097 66.2825 266.911 69.8411 261.93C72.1548 258.597 74.6366 255.762 77.2866 253.425C78.105 252.718 79.0115 252.03 80.006 251.361L80.5324 250.978L81.0886 250.712C81.3615 250.476 81.5661 250.299 81.7025 250.182C82.6016 250.119 83.8438 250.261 85.4289 250.607L87.3954 250.981L89.3619 251.354C92.0659 252.829 93.4946 255.669 93.6479 259.872C93.4783 261.495 93.0763 263.677 92.4418 266.417L91.7205 269.47C91.4318 270.625 91.2503 271.711 91.1761 272.728L93.4444 275.27C93.1331 275.682 90.6521 276.23 86.0013 276.913C85.4345 276.973 84.8386 277.083 84.2136 277.242L82.69 277.629C81.616 277.986 80.8638 278.135 80.4334 278.078C79.3383 278.024 79.0093 276.402 79.4465 273.214C79.4836 272.705 79.7247 271.854 80.1697 270.659L80.7498 269.014L81.33 267.37C82.2372 264.394 82.0824 262.312 80.8655 261.125C76.0647 268.417 73.6521 276.433 73.6277 285.173C73.6446 289.494 74.1191 293.325 75.0512 296.664C76.2401 300.688 77.9205 302.881 80.0922 303.244C85.6451 298.255 90.3922 292.224 94.3336 285.151C97.7122 279.135 99.7763 274.493 100.526 271.224C101.604 266.958 101.613 261.757 100.553 255.621C99.164 250.485 95.5271 247.957 89.6421 248.039C88.5668 248.063 87.228 248.195 85.6257 248.436L81.492 248.863C77.935 249.268 75.0905 249.367 72.9585 249.16C65.6356 246.53 62.0962 241.44 62.3403 233.892C62.3894 231.467 62.8485 228.855 63.7173 226.056L64.21 224.558C64.2869 224.206 64.4418 223.834 64.6749 223.442C65.0233 222.522 65.1875 222.022 65.1676 221.944C66.2709 219.085 68.4443 214.873 71.6877 209.307C73.9418 205.74 76.5607 202.953 79.5443 200.947C82.0989 199.217 84.237 198.465 85.9585 198.693L87.3649 198.336C88.166 198.215 88.948 198.183 89.7108 198.238C91.9011 198.347 93.7715 199.161 95.3221 200.68C97.9558 204.17 99.352 208.681 99.5106 214.213C99.5581 216.364 99.4209 218.77 99.0989 221.43C98.9492 223.132 98.616 225.421 98.0994 228.297C93.6869 229.917 90.9628 230.818 89.9272 230.998C88.6374 231.159 88.1462 230.535 88.4535 229.126L89.0873 226.22L89.7788 223.05C90.3364 220.663 90.6802 218.579 90.8101 216.799C91.2408 211.948 90.4134 207.875 88.3279 204.579L87.8571 204.199L87.3566 203.703C86.8468 203.333 86.4654 203.305 86.2124 203.619C77.9816 213.78 73.897 224.217 73.9585 234.932C73.9504 237.845 75.3381 240.196 78.1215 241.984C80.3952 243.402 83.233 244.095 86.635 244.062C87.8864 244.077 89.4014 243.983 91.1799 243.78L93.3788 243.596L95.5479 243.294C102.8 242.698 107.961 245.171 111.033 250.712ZM140.777 188.503C140.66 188.699 140.427 189.091 140.078 189.679L139.641 190.414L139.233 191.266C138.398 192.56 137.55 193.316 136.691 193.534C137.869 194.898 138.844 196.771 139.616 199.154C141.173 207.242 141.809 217.436 141.525 229.736L141.32 237.274L141.115 244.813C141.001 250.581 141.059 255.557 141.291 259.74C141.479 262.77 142.058 265.867 143.028 269.031C143.458 268.755 144.052 268.313 144.812 267.704L145.953 266.79L147.093 265.877C149.237 264.167 150.952 262.899 152.24 262.073C156.354 259.28 158.67 258.9 159.186 260.931C159.133 262.359 159.013 264.178 158.826 266.388L158.514 269.087L158.202 271.787C157.887 276.109 158.302 279.871 159.449 283.073C158.433 283.332 157.321 283.864 156.112 284.67L154.503 285.703L153.245 286.646C151.178 288.004 149.673 288.137 148.73 287.045C148.154 284.78 147.92 282.385 148.028 279.863L148.25 276.812C148.323 275.462 148.377 274.367 148.413 273.526C148.374 273.37 147.516 274.087 145.841 275.677C146.611 277.727 145.992 279.216 143.981 280.142L142.547 280.881L141.083 281.503C139.834 282.153 138.909 282.929 138.306 283.831C137.74 284.224 136.938 284.012 135.898 283.195C132.743 286.16 128.801 290.614 124.073 296.557C122.236 296.857 120.863 295.709 119.953 293.112C123.22 288.622 127.55 283.404 132.943 277.458C131.481 273.671 130.555 269.373 130.165 264.564C129.962 262.786 129.837 260.655 129.788 258.172L129.558 251.868C129.487 248.642 129.519 244.516 129.656 239.49L129.867 233.448L130.048 227.288C130.147 217.531 129.332 209.254 127.604 202.456C124.304 203.545 121.289 204.935 118.558 206.627L117.382 205.928C116.97 205.617 116.598 205.296 116.264 204.964C115.381 204.108 114.78 203.054 114.463 201.804C119.827 198.694 125.03 194.127 130.07 188.105C133.724 187.426 136.634 186.603 138.801 185.636C140.441 185.219 141.1 186.175 140.777 188.503ZM168.238 201.736C169.254 201.477 170.114 201.425 170.819 201.579C171.797 201.829 172.494 202.442 172.908 203.418C174.685 207.791 176.838 213.316 179.367 219.993L182.479 228.31L185.738 236.715C190.874 250.049 195.628 260.735 200 268.774C200.02 268.852 199.65 269.195 198.89 269.805C197.993 270.532 197.009 271.239 195.936 271.928C192.952 273.934 190.63 274.94 188.968 274.947C184.556 266.752 179.77 255.45 174.61 241.04L171.409 232.372L168.354 223.79C165.943 217.25 163.731 211.657 161.719 207.011C157.429 210.098 154.163 212.3 151.92 213.619C158.188 216.684 162.825 219.872 165.83 223.184C165.89 223.751 164.693 225.095 162.238 227.216C159.802 229.416 158.135 230.547 157.236 230.609C152.642 225.954 146.86 222.35 139.89 219.796L139.361 219.681L138.539 219.391C137.893 219.139 137.364 218.858 136.952 218.546C135.58 217.731 135.155 216.549 135.677 215.003C136.418 214.648 137.189 214.244 137.989 213.791L140.037 212.522C141.675 211.44 142.992 210.731 143.988 210.395C145.279 210.566 146.627 210.306 148.032 209.616C149.087 209.182 150.267 208.425 151.572 207.344L175.575 187.893C180.409 184.003 185.726 181.196 191.526 179.472L191.878 179.382L192.259 179.41C192.669 179.389 193.051 179.417 193.403 179.494C194.382 179.744 194.961 180.387 195.141 181.423C195.559 183.396 195.842 185.653 195.989 188.194L196.12 191.654L196.251 195.115C196.312 200.922 196.888 205.475 197.976 208.775C197.899 209.127 196.436 210.081 193.588 211.637C190.583 213.233 188.27 214.278 186.649 214.773C185.541 211.395 184.947 206.93 184.866 201.377L184.912 198.121L184.841 194.896C184.792 192.413 184.637 190.331 184.376 188.65C182.407 190.066 179.639 192.267 176.073 195.253L173.91 197.05L171.834 198.701C170.333 199.997 169.135 201.009 168.238 201.736ZM261.519 220.697C261.545 232.253 257.434 240.95 249.186 246.79C245.813 249.227 243.239 251.046 241.465 252.246C238.461 254.174 235.73 255.7 233.271 256.824C227.084 259.644 221.084 260.42 215.272 259.153C212.63 258.576 210.318 257.168 208.334 254.927C206.468 252.823 205.237 250.433 204.64 247.756L204.431 246.936L204.34 246.086C204.181 245.461 204.09 244.777 204.068 244.034C203.885 242.333 203.927 240.534 204.193 238.637C204.955 233.452 207.219 227.304 210.984 220.192C209.419 219.924 207.679 219.95 205.764 220.271C203.996 218.225 203.243 215.588 203.504 212.361C204.009 206.493 205.4 199.859 207.678 192.46C208.489 189.758 209.562 186.616 210.897 183.033L212.58 178.363L214.175 173.84C215.401 172.447 217.8 170.922 221.372 169.266C222.562 168.713 223.88 168.171 225.325 167.637C225.852 167.42 226.379 167.203 226.906 166.986L227.579 166.69L228.048 166.571C230.375 166.561 232.041 167.718 233.048 170.041C235.047 176.27 235.152 185.518 233.362 197.785L233.04 197.991L232.748 198.315L231.93 199.022C231.169 199.631 230.399 200.201 229.619 200.732C227.279 202.325 224.831 203.655 222.274 204.72C221.115 203.435 220.515 202.547 220.474 202.059C222.877 196.457 223.791 190.236 223.216 183.395C223.273 182.964 223.184 182.613 222.948 182.34C222.693 181.989 222.438 181.971 222.186 182.284C219.382 185.326 217.437 190.437 216.351 197.617C215.95 200.297 215.717 202.977 215.649 205.656C215.6 208.08 215.695 209.928 215.935 211.198C217.148 211.388 218.8 211.343 220.891 211.061L223.441 210.787L224.643 210.606L225.727 210.455C226.314 210.473 226.833 210.715 227.285 211.182C227.678 211.748 227.778 212.305 227.585 212.853C222.948 217.192 219.742 222.416 217.968 228.523C216.019 235.257 216.59 241.101 219.679 246.055C221.388 248.199 223.711 249.646 226.647 250.397C229.582 251.148 232.231 250.933 234.592 249.75C239.178 247.503 242.684 244.117 245.111 239.591C247.342 235.28 248.438 230.427 248.397 225.031C245.163 223.108 242.5 221.955 240.406 221.572C239.895 220.87 239.726 220.206 239.9 219.58L240.277 218.61L240.655 217.641C241.358 217.462 242.187 217.127 243.144 216.634L245.807 215.333C248.149 214.073 249.788 213.323 250.726 213.085C251.938 212.943 253.239 213.319 254.631 214.213L255.396 214.768L256.16 215.322C256.768 215.75 257.346 216.06 257.894 216.254L259.188 216.923C259.678 217.214 260.089 217.526 260.423 217.857C261.286 218.635 261.652 219.582 261.519 220.697ZM283.587 235.551L281.656 236.79C280.096 237.852 278.78 238.893 277.709 239.914C276.518 240.466 275.707 240.382 275.274 239.66C274.547 238.763 273.133 237.293 271.033 235.248C269.349 234.511 272.25 231.528 279.738 226.298C280.421 226.041 281.214 226.38 282.118 227.315C282.785 227.977 283.532 228.952 284.358 230.239C284.869 230.941 285.253 231.634 285.51 232.317C285.807 233.156 285.838 233.772 285.605 234.164L283.587 235.551ZM170.303 380.814C169.074 381.542 166.664 382.695 163.072 384.273L160.848 385.338L158.71 386.256C157.071 387.005 155.841 387.567 155.021 387.942C155.875 391.301 157.582 395.235 160.141 399.741L163.595 405.476L165.337 408.402L167.02 411.094L167.286 411.65L167.552 412.206C167.847 412.713 167.986 413.094 167.967 413.348C168.029 414.247 167.289 414.935 165.746 415.41C164.771 416.157 163.386 416.925 161.59 417.714L159.483 418.749C158.605 419.221 157.805 419.674 157.083 420.107C152.641 414.083 148.574 406.591 144.882 397.631L144.586 396.957L144.437 396.371L144.082 395.463C140.854 400.11 136.902 406.813 132.224 415.571L126.459 426.269C124.246 430.325 122.255 433.784 120.487 436.646L118.882 438.675L117.277 440.705C115.972 442.118 114.461 443.043 112.742 443.48L110.753 444.984L108.735 446.37C107.019 447.472 105.378 447.889 103.813 447.621C102.069 446.65 100.89 445.286 100.277 443.529C99.8815 442.299 99.7479 440.628 99.8764 438.515C100.153 434.369 100.985 429.458 102.37 423.783L104.278 416.56L106.185 409.338C99.0974 411.888 93.3455 413.475 88.929 414.098C87.9716 414.258 86.7156 413.08 85.1611 410.564L95.0179 403.692L95.8403 403.982C97.7141 403.173 100.085 402.03 102.954 400.552L106.349 398.691L109.89 396.917C111.261 392.493 112.972 387.442 115.022 381.764L117.837 374.186L120.77 366.578C125.608 353.87 129.01 343.855 130.975 336.535C131.109 335.752 131.212 334.52 131.284 332.838L141.408 327.021C142.741 327.68 143.674 328.899 144.209 330.676C144.368 331.301 144.518 332.053 144.658 332.932L144.809 334.017L144.96 335.102L145.686 340.906L146.443 346.827C147.106 351.4 147.688 355.328 148.19 358.611C149.633 367.56 151.354 375.149 153.353 381.379L153.502 381.965C153.562 382.199 153.562 382.365 153.504 382.463L156.988 380.954L160.619 379.532C163.567 378.367 165.812 377.38 167.353 376.572C168.078 376.804 168.666 377.32 169.119 378.12L169.564 379.379C169.879 379.965 170.126 380.443 170.303 380.814ZM135.366 356.754C131.956 364.608 127.631 376.064 122.391 391.12C124.948 390.054 127.934 388.713 131.35 387.096L135.77 384.85L140.219 382.721C139.364 379.029 138.506 374.672 137.646 369.65L136.506 363.202L135.366 356.754ZM138.922 388.415C137.653 388.987 136.063 389.766 134.15 390.751L131.604 392.022L129.057 393.293C124.998 395.323 122.08 396.606 120.303 397.14L119.84 398.755L136.792 391.327L138.922 388.415ZM131.516 399.531C129.584 400.438 127.329 401.385 124.752 402.373L117.958 405.098C113.997 417.001 112.054 427.684 112.13 437.148C112.365 437.088 113.489 434.64 115.504 429.802C116.743 426.825 118.032 423.878 119.37 420.959C121.29 417.061 123.445 413.103 125.834 409.085L131.516 399.531ZM226.034 350.803C225.457 353.112 224.203 355.053 222.274 356.624C221.514 357.233 220.626 357.833 219.612 358.424L218.325 359.25L217.008 359.959C209.201 363.607 202.77 366.448 197.714 368.482C206.305 370.54 213.403 373.103 219.007 376.17C226.531 380.247 231.742 385.368 234.641 391.536L234.937 392.209L235.292 393.117C235.589 393.956 235.876 394.757 236.152 395.518C236.806 397.764 237.048 399.533 236.877 400.824C235.664 400.633 234.138 400.522 232.3 400.49L230.042 400.44L227.783 400.391C224.185 400.307 221.308 399.624 219.153 398.342C218.324 396.39 217.427 394.663 216.463 393.161L215.254 391.348L214.161 389.504C211.272 385.664 206.986 382.054 201.302 378.674C195.717 375.352 191.507 373.844 188.673 374.148C190.625 383.135 192.502 390.684 194.305 396.797C196.782 405.234 199.46 412.497 202.339 418.586C202.439 419.309 197.622 419.993 187.888 420.637C182.013 408.323 176.985 392.632 172.804 373.565C172.49 373.312 172.059 373.089 171.511 372.896L170.865 372.81L170.307 372.578C169.309 372.249 168.73 371.606 168.569 370.649C168.625 369.886 168.955 369.22 169.559 368.651C170.046 368.277 170.67 367.952 171.432 367.675C170.201 362.831 169.146 358.192 168.268 353.757L167.671 350.914L167.19 348.042C166.691 345.424 166.292 343.363 165.993 341.858L164.32 341.659L162.531 341.49C161.239 341.32 160.134 341.06 159.213 340.712C158.84 340.224 158.632 339.57 158.59 338.749C158.528 337.85 158.681 337.145 159.051 336.636L165.552 334.234C165.747 334.019 165.912 333.686 166.047 333.235L166.132 332.59C166.307 332.296 166.492 332.041 166.687 331.825C169.543 332.264 173.405 332.239 178.271 331.75L181.086 331.534L183.901 331.318C185.973 331.29 187.821 331.361 189.445 331.53C202.198 332.947 212.319 336.114 219.808 341.031C221.493 342.1 222.975 343.512 224.253 345.266C225.688 347.314 226.282 349.159 226.034 350.803ZM210.948 347.9C210.927 347.489 210.798 346.981 210.561 346.376C210.344 345.849 210.117 345.449 209.882 345.176C206.701 341.826 202.322 339.653 196.746 338.658C191.678 337.7 186.644 337.857 181.644 339.128L185.778 361.284L189.204 360.039L192.718 358.647C195.452 357.619 197.755 356.701 199.629 355.892C204.762 353.506 208.535 350.842 210.948 347.9ZM241.622 326.503C242.637 326.245 243.498 326.193 244.202 326.347C245.181 326.597 245.877 327.21 246.292 328.186C248.068 332.559 250.221 338.084 252.75 344.761L255.862 353.078L259.122 361.482C264.257 374.817 269.012 385.503 273.384 393.541C273.404 393.62 273.033 393.963 272.273 394.572C271.377 395.299 270.392 396.007 269.319 396.696C266.336 398.702 264.013 399.708 262.351 399.714C257.939 391.52 253.153 380.218 247.994 365.808L244.792 357.139L241.738 348.558C239.327 342.017 237.115 336.424 235.102 331.779C230.813 334.865 227.546 337.068 225.303 338.387C231.572 341.451 236.208 344.64 239.213 347.952C239.274 348.519 238.077 349.863 235.621 351.984C233.186 354.184 231.519 355.314 230.619 355.377C226.026 350.722 220.244 347.117 213.273 344.564L212.745 344.448L211.922 344.158C211.276 343.907 210.747 343.625 210.335 343.314C208.963 342.498 208.538 341.317 209.06 339.77C209.802 339.415 210.573 339.012 211.372 338.559L213.42 337.29C215.059 336.208 216.376 335.499 217.372 335.162C218.663 335.333 220.011 335.074 221.416 334.384C222.47 333.95 223.65 333.192 224.956 332.112L248.958 312.661C253.792 308.77 259.109 305.963 264.909 304.239L265.261 304.15L265.642 304.178C266.053 304.157 266.434 304.185 266.786 304.261C267.765 304.512 268.344 305.155 268.524 306.19C268.943 308.163 269.225 310.421 269.372 312.962L269.503 316.422L269.634 319.882C269.696 325.689 270.271 330.243 271.359 333.543C271.282 333.895 269.82 334.849 266.971 336.405C263.966 338 261.654 339.046 260.033 339.541C258.924 336.163 258.33 331.697 258.25 326.145L258.296 322.889L258.224 319.663C258.175 317.18 258.021 315.099 257.76 313.418C255.791 314.834 253.023 317.034 249.456 320.02L247.293 321.818L245.217 323.468C243.717 324.765 242.518 325.776 241.622 326.503Z" fill="url(#paint0_linear_118_4707)"/>
<defs>
<linearGradient id="paint0_linear_118_4707" x1="144.5" y1="89.5" x2="77.5" y2="537.5" gradientUnits="userSpaceOnUse">
<stop stop-color="#121212"/>
<stop offset="1" stop-color="#0C96FA"/>
</linearGradient>
</defs>
</svg>
