<svg width="385" height="332" viewBox="0 0 385 332" fill="none" xmlns="http://www.w3.org/2000/svg">
<path d="M103.453 66.4611C99.4163 76.8101 93.8807 83.2701 86.8466 85.8411C81.1639 87.0544 75.6977 86.4699 70.4479 84.0876C67.2153 82.6534 65.4096 80.2252 65.0307 76.8029C64.0897 69.7819 66.5096 60.1393 72.2902 47.8752C74.2479 43.7337 76.6925 39.303 79.624 34.5831C80.6012 33.0098 81.5322 31.5167 82.417 30.1038C82.7784 29.5999 83.0822 29.134 83.3285 28.7063C83.5667 28.4162 83.7166 28.2178 83.7782 28.1108C89.3382 20.0629 93.7994 14.4794 97.1619 11.3605L97.6918 10.8112L98.2217 10.2619L99.1891 9.32381C99.9183 8.67571 100.746 8.22693 101.673 7.97745C101.864 8.01636 102.178 8.0901 102.614 8.19869L103.187 8.3154L103.761 8.43211C104.717 8.62661 105.437 8.36497 105.922 7.64718L107.217 8.17956L108.432 8.66575C109.35 9.05145 110.053 9.314 110.542 9.45338C111.979 9.925 112.867 11.0415 113.206 12.8028C113.28 13.4153 113.32 14.1502 113.325 15.0073L113.298 16.1667L113.191 17.2799C112.904 20.7458 112.09 24.9409 110.75 29.865L109.821 32.9615L108.973 36.1041L107.103 42.5036C106.168 42.8908 104.545 42.9887 102.235 42.7974C99.9241 42.606 98.5055 42.2875 97.9789 41.8419C97.4523 41.3962 97.3244 40.7529 97.595 39.912C97.9905 38.3597 98.5861 36.4599 99.3819 34.2125L101.249 28.5592C102.733 24.0029 103.607 20.1983 103.87 17.1456C96.9585 24.2018 90.4108 33.5322 84.2267 45.1368C77.9584 56.764 74.6701 66.3693 74.3617 73.9525C74.3259 75.4984 74.5049 76.9186 74.8986 78.2133C75.3829 79.845 76.1979 81.0263 77.3434 81.7572C78.1001 82.0505 78.8001 82.1332 79.4434 82.0052C79.6962 81.9372 79.949 81.8692 80.2018 81.8011L80.6733 81.5387C84.0308 79.912 86.9557 77.1819 89.4481 73.3483C91.3327 70.4464 93.0708 66.7481 94.6623 62.2533L94.8252 61.5995L94.8617 60.9797C94.9395 60.5973 94.8796 60.2068 94.6819 59.8082C94.763 58.4309 95.4501 57.7941 96.7431 57.8979C101.816 58.1138 104.556 59.2287 104.963 61.2429C104.543 63.2083 104.04 64.9478 103.453 66.4611ZM154.474 66.2573C152.734 76.0782 146.934 83.9875 137.072 89.9854C132.225 92.9617 127.586 94.5267 123.154 94.6803C118.141 94.855 112.647 93.329 106.673 90.1025C104.878 89.1399 103.437 87.5624 102.349 85.37C101.308 83.3461 101.041 80.5939 101.55 77.1134C101.761 75.8819 102.056 74.6278 102.435 73.351C102.776 72.2654 103.115 71.4285 103.454 70.8403C105.787 66.4169 109.082 61.8704 113.337 57.2008C114.989 55.4461 117.775 52.9566 121.696 49.7323C126.224 46.0738 129.392 43.9109 131.2 43.2434C131.967 42.9016 132.835 42.9389 133.806 43.3554L134.462 42.7721L135.199 42.235C135.72 41.8235 136.292 41.5116 136.912 41.2994C138.353 40.7761 139.902 40.9917 141.559 41.9462L142.59 42.7532L143.506 43.3876C144.224 43.8722 144.858 44.1307 145.409 44.1631C149.162 45.6832 151.864 48.8415 153.517 53.6379C154.904 57.7828 155.222 61.9893 154.474 66.2573ZM128.961 84.7811C134.797 81.4484 139.273 77.013 142.391 71.4748C145.64 65.5851 146.728 59.5542 145.654 53.3821C145.241 51.0083 144.42 49.2186 143.192 48.0129C142.311 48.4309 141.386 49.109 140.419 50.0471C139.513 50.8783 138.906 51.5612 138.598 52.0959C135.497 57.3586 133.578 64.5845 132.844 73.7735C132.599 73.7038 132.301 73.6033 131.949 73.472C131.567 73.3942 131.173 73.2743 130.768 73.1122C129.682 72.7719 128.708 72.4243 127.844 72.0693C125.383 71.1504 123.951 70.3612 123.547 69.7017C123.322 68.3617 123.377 66.7202 123.713 64.7775C123.815 63.9819 123.99 63.1215 124.238 62.1963C124.385 61.5692 124.583 60.7931 124.831 59.8679C118.236 66.2516 113.924 71.8853 111.895 76.7689C111.347 78.0911 110.902 79.5437 110.56 81.1268C109.983 84.3545 110.411 86.7016 111.845 88.1682C113.302 89.7189 116.597 89.6227 121.73 87.8796C124.297 87.008 126.707 85.9752 128.961 84.7811ZM205.805 83.4276C205.479 84.7352 204.728 86.2251 203.552 87.8972C202.084 89.8286 200.103 91.785 197.609 93.7666C191.171 98.8881 182.182 103.431 170.644 107.395C159.871 111.018 153.613 113.786 151.87 115.702C151.22 115.47 150.052 114.655 148.365 113.256C147.419 112.426 146.587 111.769 145.869 111.285C144.731 110.416 143.574 109.643 142.398 108.966C145.608 103.267 151.288 95.0743 159.435 84.387C160.789 82.5318 162.257 80.6004 163.84 78.5929C164.947 77.1654 166.219 75.5128 167.656 73.6349C170.231 70.276 171.653 68.4249 171.922 68.0814C165.012 65.7395 159.933 63.4917 156.688 61.338C154.878 60.1534 153.724 58.6343 153.225 56.7806C159.436 53.166 165.447 49.8989 171.258 46.9794C171.395 46.9875 171.587 47.0264 171.831 47.0961C172.214 47.1739 172.596 47.2517 172.978 47.3295C174.011 47.6391 175.027 47.9754 176.029 48.3384C178.918 49.5036 180.884 50.8495 181.927 52.3759L179.995 53.506L178.143 54.6822L174.703 56.7601C172.096 58.3203 169.681 59.6708 167.458 60.8113L169.361 61.5868L171.184 62.3161C172.506 62.8639 173.618 63.2196 174.521 63.3833C175.02 62.8875 175.581 62.0361 176.205 60.8289L176.99 59.4655L177.936 58.1943C178.869 58.3046 180.332 59.0403 182.325 60.4016L183.516 61.3009L184.834 62.1663C185.788 62.8583 186.49 63.3695 186.941 63.7001C185.75 65.1503 184.988 66.3493 184.656 67.2972C193.393 70.5482 200.075 74.6457 204.704 79.5897C205.787 80.925 206.154 82.2043 205.805 83.4276ZM195.461 80.2478C195.878 79.2772 195.831 78.4314 195.32 77.7103C194.069 76.4204 192.179 75.1896 189.65 74.0179C188.71 73.548 187.553 73.0237 186.177 72.4451L182.405 71.0206C182.044 71.5245 180.814 73.1658 178.715 75.9446C177.662 77.4029 176.716 78.674 175.878 79.7579C174.71 81.2923 173.63 82.7352 172.638 84.0865C166.811 91.9805 162.547 97.9626 159.847 102.033C171.349 97.7622 179.658 93.9671 184.773 90.6473C189.751 87.3194 193.314 83.8529 195.461 80.2478ZM228.878 135.376C222.727 141.73 215.831 144.31 208.189 143.113C205.037 142.651 202.655 142.276 201.041 141.987C198.364 141.443 196.051 140.823 194.102 140.128C189.202 138.374 185.496 135.599 182.983 131.802C181.84 130.077 181.323 128.07 181.43 125.782C181.529 123.632 182.129 121.663 183.229 119.876L183.552 119.314L183.956 118.799C184.202 118.371 184.517 117.948 184.901 117.528C185.708 116.497 186.691 115.533 187.85 114.633C191.034 112.195 195.556 110.029 201.417 108.135C200.701 107.153 199.732 106.239 198.511 105.393C198.632 103.327 199.626 101.478 201.491 99.8469C204.899 96.8964 209.202 93.9987 214.4 91.1537C216.286 90.1038 218.552 88.9519 221.196 87.6979L224.611 86.0332L227.9 84.4026C229.316 84.2925 231.446 84.7358 234.289 85.7325C235.237 86.0647 236.25 86.4699 237.328 86.948C237.733 87.11 238.138 87.2721 238.543 87.4341L239.07 87.6311L239.391 87.8158C240.673 89.0522 240.97 90.5762 240.283 92.3877C238.056 96.8727 233.179 102.003 225.652 107.779L225.366 107.721L225.033 107.743L224.206 107.694C223.464 107.623 222.737 107.525 222.026 107.4C219.892 107.025 217.839 106.448 215.867 105.669C215.917 104.345 216.062 103.538 216.3 103.248C220.607 101.456 224.428 98.5302 227.763 94.4698C228.024 94.2641 228.162 94.0235 228.179 93.748C228.226 93.4191 228.096 93.2732 227.79 93.3105C224.628 93.4836 220.834 95.2504 216.407 98.6107C214.758 99.868 213.199 101.214 211.733 102.648C210.412 103.952 209.479 105.016 208.933 105.841C209.497 106.593 210.427 107.449 211.725 108.41L213.271 109.621L214.027 110.163L214.703 110.659C215.015 110.981 215.171 111.391 215.169 111.889C215.083 112.409 214.841 112.768 214.442 112.965C209.583 112.873 205.037 114.028 200.804 116.433C196.142 119.088 193.337 122.599 192.389 126.966C192.183 129.055 192.685 131.088 193.896 133.067C195.106 135.045 196.674 136.34 198.601 136.951C202.316 138.165 206.047 138.178 209.794 136.988C213.318 135.814 216.509 133.735 219.365 130.752C218.617 127.972 217.77 125.918 216.826 124.591C216.92 123.933 217.182 123.478 217.611 123.227L218.335 122.897L219.06 122.566C219.541 122.843 220.175 123.102 220.963 123.342L223.119 124.049C225.076 124.607 226.375 125.07 227.017 125.44C227.758 126.008 228.271 126.909 228.558 128.143L228.682 128.855L228.806 129.567C228.911 130.126 229.062 130.605 229.26 131.003L229.612 132.061C229.726 132.482 229.786 132.872 229.792 133.232C229.851 134.12 229.546 134.835 228.878 135.376ZM273.15 151.898C273.401 152.328 273.046 153.191 272.085 154.489L271.404 155.485L270.643 156.436C270.013 157.283 269.486 158.012 269.063 158.623C268.245 158.437 267.126 157.721 265.707 156.477C262.706 154.393 259.46 152.488 255.968 150.762L253.917 149.687L251.819 148.693C250.261 147.938 248.947 147.253 247.877 146.637C238.548 142.19 232.257 138.71 229.005 136.196C228.279 135.85 228.396 135.027 229.357 133.729C229.78 133.119 231.213 131.558 233.655 129.048C235.7 130.938 238.017 132.664 240.606 134.226C241.622 134.811 242.787 135.446 244.101 136.132L247.562 137.911L250.782 139.552L254.049 141.113L260.616 144.36C265.712 147.01 269.89 149.522 273.15 151.898ZM59.1898 154.085C57.0586 159.764 52.8276 164.021 46.4966 166.854C44.113 167.902 41.1939 168.892 37.7392 169.821L33.1552 170.92L28.8239 171.95C25.178 172.841 22.4137 173.314 20.5308 173.369C17.4845 173.466 14.9268 172.776 12.8577 171.3C10.4451 169.555 8.37604 168.078 6.65044 166.871C5.93265 166.387 5.34696 165.302 4.89338 163.616C4.40089 162.122 4.19843 160.867 4.28599 159.849C4.93755 157.234 6.28181 154.59 8.31878 151.919C9.9328 149.858 12.0175 147.783 14.573 145.694C20.648 141.574 25.9904 139.097 30.6004 138.263C33.6484 137.668 36.5229 137.437 39.224 137.568C40.0504 137.617 40.9148 137.723 41.8174 137.887L42.3108 137.957L42.758 138.108C43.0334 138.124 43.24 138.136 43.3778 138.145C43.9043 138.59 44.5103 139.331 45.1957 140.366L46.0754 141.62L46.9552 142.875C47.6518 145.127 46.9209 147.447 44.7624 149.836C43.8031 150.636 42.4184 151.619 40.6084 152.784L38.5837 154.074C37.8091 154.554 37.1302 155.053 36.5468 155.571L36.4348 158.177C36.0443 158.237 34.3908 157.213 31.4743 155.107C31.1308 154.837 30.7452 154.58 30.3174 154.334L29.2747 153.733C28.4954 153.356 28.0028 153.036 27.797 152.775C27.2251 152.161 27.9098 151.096 29.8511 149.579C30.1427 149.32 30.7293 148.981 31.6108 148.564L32.8067 147.971L34.0026 147.378C36.088 146.229 37.1138 145.004 37.0799 143.703C30.5546 145.143 24.9536 148.254 20.2769 153.037C17.9807 155.418 16.1974 157.773 14.9269 160.103C13.4327 162.945 13.1847 165.045 14.1827 166.402C19.8912 166.628 25.714 165.852 31.6511 164.073C36.7148 162.574 40.3243 161.128 42.4794 159.735C45.3476 157.969 48.1275 155.12 50.8192 151.187C52.7979 147.628 52.1508 144.3 48.8779 141.205C48.2751 140.644 47.4698 140.003 46.462 139.28L43.966 137.309C41.7981 135.633 40.1843 134.17 39.1247 132.919C36.5098 127.568 37.283 122.887 41.4443 118.875C42.765 117.571 44.4106 116.382 46.381 115.31L47.4505 114.751C47.6806 114.599 47.9641 114.477 48.3012 114.386C48.9834 114.067 49.3399 113.881 49.3707 113.827C51.5015 112.847 54.9416 111.695 59.6909 110.372C62.8312 109.617 65.7552 109.485 68.4628 109.976C70.788 110.39 72.3621 111.118 73.1852 112.162L74.1476 112.716C74.6515 113.077 75.0979 113.477 75.4868 113.914C76.6307 115.143 77.2228 116.587 77.2632 118.248C76.8465 121.568 75.2057 124.788 72.3407 127.909C71.2193 129.115 69.8606 130.361 68.2645 131.649C67.2744 132.503 65.8702 133.582 64.0521 134.884C60.7661 133.419 58.791 132.46 58.1267 132.006C57.3327 131.406 57.396 130.802 58.3164 130.193L60.2147 128.936L62.2856 127.566C63.8655 126.553 65.1659 125.593 66.1868 124.686C69.0113 122.254 70.7306 119.577 71.3449 116.656L71.2891 116.196L71.2794 115.657C71.1968 115.182 71.0024 114.963 70.6961 115C60.7584 116.184 52.948 119.732 47.265 125.645C45.7061 127.239 45.2134 129.269 45.7868 131.735C46.2777 133.727 47.4653 135.621 49.3496 137.418C50.0285 138.094 50.9099 138.851 51.9939 139.689L53.299 140.761L54.6503 141.752C58.9473 145.295 60.4604 149.406 59.1898 154.085ZM108.703 135.819C108.535 135.864 108.198 135.955 107.692 136.091L107.06 136.261L106.382 136.511C105.233 136.775 104.365 136.738 103.776 136.399C103.695 137.776 103.231 139.325 102.383 141.044C98.9219 146.313 93.832 152.246 87.1136 158.844L82.9789 162.871L78.8443 166.898C75.7039 170.003 73.0811 172.764 70.9761 175.183C69.4626 176.946 68.1281 178.955 66.9726 181.209C67.355 181.286 67.9173 181.361 68.6594 181.432L69.7726 181.539L70.8858 181.646C72.9744 181.852 74.5923 182.072 75.7395 182.305C79.4873 182.968 80.961 183.995 80.1604 185.385C79.3697 186.14 78.3334 187.074 77.0516 188.187L75.4401 189.502L73.8285 190.817C71.3492 193.02 69.5699 195.307 68.4906 197.676C67.7955 197.275 66.9011 196.974 65.8074 196.771L64.3734 196.479L63.18 196.326C61.3215 195.968 60.4246 195.238 60.4895 194.136C61.3825 192.585 62.5314 191.147 63.9363 189.82L65.6864 188.264C66.4464 187.563 67.0606 186.991 67.5289 186.548C67.5905 186.442 66.7373 186.377 64.9695 186.356C64.2986 187.892 63.1643 188.378 61.5667 187.814L60.3855 187.455L59.2504 187.015C58.2183 186.705 57.2963 186.637 56.4845 186.81C55.9644 186.724 55.6371 186.18 55.5027 185.177C52.189 185.12 47.6496 185.461 41.8843 186.199C40.7161 185.384 40.5752 184.021 41.4617 182.111C45.6503 181.39 50.8104 180.837 56.9419 180.452C58.1606 177.594 59.9456 174.741 62.2969 171.894C63.1347 170.81 64.2026 169.574 65.5006 168.186L68.7383 164.603C70.4204 162.795 72.6396 160.549 75.396 157.864L78.7358 154.661L82.1217 151.377C87.3818 146.076 91.3512 141.099 94.0299 136.447C91.6384 135.284 89.2419 134.438 86.8406 133.909L86.5684 132.898C86.5085 132.508 86.4753 132.132 86.4688 131.773C86.4414 130.831 86.6739 129.933 87.1666 129.077C91.7699 130.233 97.0612 130.503 103.04 129.888C105.408 131.464 107.444 132.566 109.148 133.191C110.271 133.838 110.123 134.714 108.703 135.819ZM116.712 157.732C117.407 158.132 117.907 158.563 118.211 159.023C118.615 159.682 118.67 160.39 118.377 161.147C117.018 164.495 115.252 168.675 113.077 173.688L110.347 179.913L107.651 186.264C103.355 196.321 100.262 204.721 98.3723 211.465C98.3415 211.519 97.955 211.51 97.2129 211.438C96.3331 211.359 95.4151 211.222 94.4591 211.027C91.7515 210.536 89.94 209.849 89.0246 208.966C90.976 202.115 94.3801 193.36 99.237 182.7L102.105 176.235L105.008 169.896C107.175 165.021 108.945 160.771 110.32 157.148C106.319 156.553 103.351 156.019 101.417 155.546C103.221 160.572 104.064 164.796 103.946 168.217C103.677 168.56 102.303 168.659 99.8237 168.513C97.3138 168.42 95.7955 168.151 95.269 167.706C95.232 162.7 93.9823 157.637 91.5197 152.517L91.2912 152.172L90.9947 151.574C90.7744 151.091 90.6343 150.654 90.5743 150.264C90.2568 149.084 90.6539 148.209 91.7655 147.639C92.3617 147.84 93.0002 148.029 93.6807 148.208L95.4817 148.604C96.9578 148.884 98.0588 149.198 98.7847 149.545C99.402 150.327 100.28 150.904 101.419 151.276C102.229 151.6 103.281 151.814 104.574 151.917L128.123 154.051C132.852 154.495 137.267 155.791 141.37 157.94L141.61 158.079L141.805 158.298C142.041 158.505 142.236 158.724 142.388 158.954C142.791 159.613 142.766 160.275 142.312 160.94C141.489 162.246 140.44 163.635 139.165 165.108L137.39 167.076L135.616 169.045C132.551 172.264 130.438 175.07 129.274 177.462C129.044 177.614 127.732 177.357 125.339 176.691C122.839 175.963 121.012 175.303 119.858 174.71C121.053 172.265 123.109 169.497 126.027 166.407L127.79 164.645L129.472 162.837C130.77 161.448 131.796 160.224 132.549 159.162C130.713 158.888 128.02 158.619 124.47 158.355L122.324 158.187L120.304 157.985C118.789 157.896 117.592 157.812 116.712 157.732ZM157.781 217.908C151.63 224.262 144.734 226.841 137.092 225.645C133.941 225.183 131.558 224.808 129.944 224.519C127.267 223.975 124.954 223.355 123.005 222.659C118.105 220.906 114.399 218.131 111.886 214.334C110.744 212.608 110.226 210.601 110.333 208.314C110.432 206.163 111.032 204.195 112.132 202.407L112.455 201.846L112.859 201.331C113.105 200.903 113.42 200.479 113.805 200.06C114.612 199.029 115.594 198.064 116.753 197.165C119.937 194.727 124.46 192.561 130.321 190.667C129.604 189.685 128.636 188.771 127.414 187.925C127.536 185.859 128.529 184.01 130.394 182.379C133.802 179.428 138.105 176.53 143.303 173.685C145.189 172.636 147.455 171.484 150.099 170.23L153.514 168.565L156.803 166.934C158.219 166.824 160.349 167.268 163.193 168.264C164.141 168.596 165.153 169.002 166.231 169.48C166.636 169.642 167.041 169.804 167.446 169.966L167.973 170.163L168.294 170.348C169.576 171.584 169.873 173.108 169.186 174.919C166.959 179.404 162.082 184.535 154.556 190.311L154.269 190.253L153.936 190.275L153.109 190.226C152.367 190.155 151.641 190.056 150.929 189.932C148.795 189.557 146.742 188.98 144.77 188.201C144.821 186.877 144.965 186.07 145.203 185.78C149.51 183.988 153.331 181.062 156.666 177.002C156.927 176.796 157.066 176.555 157.082 176.28C157.129 175.951 156.999 175.805 156.693 175.842C153.532 176.015 149.737 177.782 145.31 181.142C143.661 182.4 142.103 183.745 140.636 185.179C139.316 186.484 138.382 187.548 137.836 188.373C138.4 189.125 139.331 189.981 140.629 190.942L142.174 192.153L142.93 192.695L143.606 193.191C143.918 193.513 144.074 193.923 144.072 194.42C143.986 194.941 143.744 195.299 143.346 195.497C138.486 195.404 133.94 196.56 129.708 198.965C125.046 201.62 122.241 205.131 121.292 209.498C121.086 211.587 121.589 213.62 122.799 215.599C124.009 217.577 125.578 218.872 127.504 219.483C131.22 220.697 134.95 220.709 138.697 219.52C142.221 218.346 145.412 216.267 148.269 213.284C147.52 210.503 146.674 208.45 145.729 207.122C145.823 206.465 146.085 206.01 146.514 205.759L147.239 205.429L147.963 205.098C148.444 205.375 149.079 205.634 149.866 205.873L152.022 206.581C153.979 207.138 155.279 207.602 155.92 207.971C156.661 208.54 157.174 209.441 157.461 210.674L157.585 211.386L157.709 212.099C157.814 212.658 157.966 213.136 158.163 213.535L158.516 214.592C158.629 215.014 158.689 215.404 158.695 215.764C158.754 216.652 158.449 217.366 157.781 217.908ZM161.966 237.832L160.245 237.482C158.822 237.233 157.545 237.102 156.412 237.091C155.464 236.758 155.064 236.279 155.211 235.652C155.291 234.772 155.3 233.211 155.238 230.968C154.707 229.665 157.891 229.576 164.791 230.701C165.303 230.925 165.557 231.534 165.554 232.529C165.566 233.249 165.456 234.182 165.223 235.329C165.129 235.987 164.97 236.572 164.746 237.084C164.461 237.703 164.15 238.058 163.813 238.148L161.966 237.832ZM232.584 255.429C231.521 255.173 229.583 254.52 226.77 253.469L224.981 252.866L223.319 252.23C222.02 251.766 221.045 251.418 220.395 251.187C219.071 253.486 217.909 256.555 216.909 260.393L215.745 265.383L215.139 267.918L214.626 270.293L214.476 270.74L214.325 271.187C214.216 271.623 214.089 271.906 213.943 272.035C213.498 272.562 212.725 272.544 211.624 271.982C210.691 271.872 209.521 271.554 208.115 271.029L206.406 270.472C205.672 270.263 204.992 270.085 204.365 269.937C205.141 264.261 206.907 257.98 209.662 251.094L209.859 250.566L210.09 250.165L210.379 249.477C206.129 250.305 200.384 251.874 193.144 254.184L184.272 256.979C180.894 258.024 177.956 258.859 175.459 259.486L173.495 259.744L171.531 260.001C170.061 260.081 168.738 259.782 167.562 259.104L165.669 258.868L163.822 258.552C162.292 258.241 161.169 257.594 160.453 256.612C160.014 255.149 160.095 253.772 160.696 252.481C161.135 251.594 161.954 250.606 163.151 249.516C165.516 247.388 168.592 245.137 172.38 242.762L177.281 239.816L182.181 236.871C176.931 234.488 172.928 232.29 170.172 230.276C169.561 229.853 169.5 228.536 169.99 226.326L179.065 227.814L179.362 228.412C180.822 228.968 182.733 229.606 185.095 230.325L187.951 231.116L190.841 232.032C193.954 230.336 197.588 228.477 201.742 226.455L207.33 223.799L212.999 221.189C222.434 216.796 229.644 213.116 234.629 210.148C235.12 209.79 235.834 209.169 236.77 208.284L245.43 210.494C245.809 211.567 245.671 212.733 245.017 213.994C244.77 214.422 244.451 214.914 244.059 215.472L243.563 216.147L243.067 216.823L240.369 220.396L237.625 224.048C235.549 226.911 233.773 229.378 232.296 231.447C228.313 237.127 225.208 242.21 222.982 246.695L222.751 247.096C222.658 247.257 222.57 247.348 222.486 247.371L225.203 248.402L227.954 249.559C230.194 250.492 231.952 251.149 233.228 251.528C233.502 252.041 233.55 252.639 233.372 253.319L232.944 254.248C232.804 254.737 232.685 255.131 232.584 255.429ZM226.25 223.586C220.188 226.076 211.703 230.054 200.794 235.521C202.766 236.3 205.12 237.157 207.857 238.093L211.481 239.218L215.058 240.424C216.559 237.942 218.413 235.093 220.62 231.879L223.435 227.732L226.25 223.586ZM211.308 242.857C210.307 242.494 209.018 242.072 207.443 241.592L205.368 240.931L203.292 240.27C199.982 239.218 197.696 238.365 196.436 237.71L195.32 238.349L208.586 243.318L211.308 242.857ZM201.313 245.005C199.769 244.471 198.027 243.788 196.086 242.955L190.904 240.826C182.379 245.244 175.613 250.07 170.605 255.303C170.766 255.395 172.689 254.652 176.376 253.072C178.644 252.1 180.924 251.17 183.215 250.282C186.349 249.168 189.643 248.146 193.098 247.216L201.313 245.005ZM279.179 268.696C277.629 269.656 275.906 270.052 274.009 269.885C273.267 269.813 272.46 269.669 271.588 269.452L270.441 269.218L269.34 268.905C263.11 266.741 258.065 264.869 254.205 263.287C257.821 269 260.349 274.194 261.787 278.867C263.741 285.118 263.868 290.71 262.168 295.64L261.971 296.168L261.682 296.855C261.396 297.474 261.127 298.067 260.872 298.632C260.033 300.213 259.222 301.313 258.439 301.93C257.875 301.178 257.097 300.303 256.106 299.305L254.893 298.073L253.68 296.84C251.751 294.875 250.536 292.965 250.037 291.111C250.624 289.598 251.053 288.172 251.326 286.834L251.63 285.193L252.014 283.599C252.477 279.95 252.052 275.682 250.736 270.794C249.444 265.992 247.938 262.918 246.221 261.573C242.497 267.545 239.499 272.69 237.227 277.006C234.085 282.957 231.679 288.372 230.01 293.249C229.679 293.699 226.671 291.504 220.985 286.664C224.332 276.772 229.945 265.479 237.824 252.786C237.787 252.48 237.669 252.127 237.472 251.728L237.163 251.337L236.981 250.912C236.608 250.199 236.633 249.537 237.056 248.926C237.494 248.537 238.03 248.348 238.665 248.357C239.132 248.413 239.648 248.567 240.213 248.822C242.122 245.507 244.019 242.398 245.904 239.496L247.093 237.617L248.362 235.785C249.485 234.082 250.365 232.738 251.004 231.753L250.192 230.751L249.3 229.704C248.683 228.921 248.215 228.189 247.895 227.506C247.951 227.04 248.185 226.57 248.6 226.097C249.046 225.57 249.506 225.266 249.981 225.183L254.83 227.334C255.052 227.32 255.32 227.225 255.634 227.05L256.026 226.741C256.278 226.673 256.516 226.632 256.738 226.617C258.071 228.382 260.203 230.429 263.135 232.757L264.794 234.14L266.454 235.524C267.606 236.614 268.583 237.639 269.383 238.598C275.626 246.18 279.49 253.318 280.975 260.012C281.33 261.498 281.39 263.063 281.155 264.708C280.85 266.597 280.191 267.927 279.179 268.696ZM272.449 259.054C272.656 258.817 272.857 258.47 273.049 258.011C273.211 257.606 273.301 257.266 273.317 256.991C273.359 253.455 272.116 249.927 269.587 246.405C267.317 243.176 264.471 240.576 261.049 238.605L251.496 252.969L254.04 254.114L256.712 255.225C258.76 256.119 260.514 256.845 261.973 257.401C266.063 258.83 269.555 259.381 272.449 259.054ZM300.697 263.679C301.392 264.079 301.892 264.51 302.196 264.97C302.6 265.629 302.655 266.337 302.361 267.094C301.003 270.442 299.237 274.622 297.062 279.635L294.332 285.86L291.636 292.211C287.34 302.268 284.247 310.668 282.357 317.412C282.326 317.466 281.94 317.457 281.198 317.385C280.318 317.306 279.4 317.169 278.444 316.974C275.737 316.483 273.925 315.796 273.01 314.913C274.961 308.062 278.365 299.307 283.222 288.647L286.09 282.182L288.993 275.843C291.16 270.968 292.93 266.718 294.305 263.095C290.304 262.5 287.336 261.966 285.402 261.493C287.206 266.52 288.049 270.743 287.931 274.164C287.662 274.507 286.288 274.606 283.809 274.46C281.299 274.367 279.781 274.098 279.254 273.653C279.217 268.647 277.967 263.584 275.505 258.464L275.276 258.119L274.98 257.521C274.759 257.038 274.619 256.601 274.559 256.211C274.242 255.031 274.639 254.156 275.75 253.586C276.347 253.787 276.985 253.977 277.666 254.155L279.467 254.551C280.943 254.832 282.044 255.145 282.77 255.492C283.387 256.275 284.265 256.852 285.404 257.223C286.214 257.547 287.266 257.761 288.559 257.865L312.108 259.998C316.837 260.442 321.252 261.739 325.355 263.887L325.595 264.026L325.79 264.245C326.026 264.452 326.221 264.671 326.373 264.901C326.776 265.561 326.751 266.222 326.297 266.887C325.474 268.193 324.425 269.582 323.15 271.055L321.375 273.024L319.601 274.992C316.536 278.212 314.423 281.017 313.259 283.409C313.029 283.561 311.717 283.304 309.324 282.638C306.824 281.91 304.997 281.25 303.843 280.657C305.038 278.212 307.094 275.444 310.012 272.354L311.775 270.592L313.457 268.784C314.755 267.396 315.781 266.171 316.534 265.109C314.698 264.835 312.005 264.566 308.455 264.302L306.309 264.134L304.289 263.932C302.774 263.843 301.577 263.759 300.697 263.679Z" fill="url(#paint0_linear_2314_2212)" style="mix-blend-mode:plus-darker"/>
<defs>
<linearGradient id="paint0_linear_2314_2212" x1="16.7069" y1="115.525" x2="181.782" y2="293.556" gradientUnits="userSpaceOnUse">
<stop stop-color="#F9E9F9"/>
<stop offset="1" stop-color="#0F98B0"/>
</linearGradient>
</defs>
</svg>
