<svg width="474" height="493" viewBox="0 0 474 493" fill="none" xmlns="http://www.w3.org/2000/svg">
<path d="M87.1581 200.599C97.2248 211.043 101.86 221.139 101.065 230.886C99.3978 238.288 95.717 244.451 90.0224 249.375C86.5547 252.425 82.6881 253.239 78.4224 251.818C69.5816 249.097 59.4687 240.957 48.0838 227.398C44.2422 222.813 40.3238 217.492 36.3286 211.436C34.9968 209.417 33.735 207.497 32.543 205.675C32.1429 204.971 31.7565 204.356 31.3839 203.83C31.1701 203.389 31.0166 203.103 30.9235 202.972C24.418 191.979 20.2347 183.637 18.3736 177.944L18.0118 177.016L17.6501 176.087L17.0663 174.427C16.6962 173.208 16.6166 171.981 16.8273 170.745C16.9779 170.54 17.2368 170.208 17.6038 169.751L18.0557 169.134L18.5076 168.518C19.2608 167.49 19.3442 166.493 18.7577 165.526L20.0971 164.281L21.3379 163.105C22.2966 162.228 22.9923 161.538 23.4251 161.034C24.7699 159.587 26.5793 159.144 28.8532 159.706C29.6203 159.952 30.5134 160.307 31.5326 160.769L32.8928 161.435L34.1545 162.17C38.108 164.405 42.6383 167.663 47.7455 171.944L50.9101 174.738L54.1733 177.461L60.7408 183.176C60.689 184.497 59.9182 186.475 58.4284 189.11C56.9385 191.746 55.7855 193.254 54.9692 193.635C54.1529 194.016 53.32 193.816 52.4706 193.036C50.8459 191.718 48.9183 189.974 46.688 187.802L41.004 182.498C36.4119 178.247 32.3774 175.131 28.9007 173.151C33.4914 185.204 40.9779 198.069 51.3603 211.745C61.7234 225.534 71.3173 234.684 80.142 239.194C81.9557 240.082 83.7379 240.646 85.4885 240.886C87.6883 241.204 89.5347 240.883 91.0276 239.924C91.789 239.187 92.2697 238.402 92.4695 237.569C92.527 237.232 92.5844 236.895 92.6419 236.558L92.5884 235.855C92.4944 230.985 90.8553 226.024 87.6711 220.973C85.2597 217.151 81.8237 213.069 77.363 208.725L76.6767 208.174L75.9616 207.792C75.5506 207.491 75.0548 207.348 74.474 207.365C72.8849 206.516 72.5053 205.353 73.3351 203.876C76.364 197.978 79.1839 195.338 81.7947 195.956C83.8962 197.529 85.684 199.076 87.1581 200.599ZM114.802 139.981C125.498 147.411 131.708 158.613 133.431 173.587C134.312 180.962 133.632 187.319 131.392 192.659C128.859 198.7 124.047 204.381 116.955 209.702C114.832 211.305 112.174 212.152 108.979 212.243C106.01 212.372 102.6 211.184 98.7509 208.678C97.4056 207.755 96.0795 206.72 94.7726 205.572C93.6711 204.575 92.8642 203.715 92.3518 202.992C88.3814 197.807 84.7902 191.415 81.5782 183.816C80.3997 180.898 78.9702 176.233 77.2898 169.82C75.4257 162.452 74.592 157.512 74.7888 155.003C74.8023 153.907 75.3213 152.898 76.3457 151.974L76.0127 150.877L75.7782 149.71C75.5754 148.866 75.5177 148.018 75.6052 147.166C75.772 145.172 76.8743 143.453 78.9123 142.009L80.4325 141.228L81.6857 140.488C82.6527 139.901 83.3059 139.29 83.6455 138.655C87.4994 135.035 92.722 133.556 99.3133 134.218C104.987 134.839 110.15 136.76 114.802 139.981ZM122.826 180.361C122.063 171.619 119.25 163.886 114.386 157.162C109.177 150.089 102.619 145.503 94.7125 143.403C91.6716 142.596 89.1005 142.591 86.9995 143.388C87.0134 144.662 87.3123 146.129 87.8961 147.789C88.3867 149.318 88.8649 150.41 89.3308 151.068C93.8767 157.623 101.398 163.847 111.894 169.741C111.677 169.993 111.395 170.291 111.047 170.636C110.746 171.047 110.389 171.449 109.975 171.841C108.978 172.942 108.033 173.908 107.14 174.738C104.705 177.155 102.986 178.422 101.984 178.54C100.271 178.075 98.355 177.112 96.2344 175.652C95.3467 175.096 94.422 174.418 93.4603 173.619C92.7973 173.101 91.9849 172.442 91.0232 171.643C94.9892 182.953 99.3136 191.146 103.996 196.222C105.265 197.594 106.744 198.916 108.435 200.186C111.947 202.635 114.965 203.41 117.488 202.511C120.123 201.631 121.81 197.671 122.548 190.63C122.918 187.11 123.01 183.687 122.826 180.361ZM163.221 88.4895C164.594 89.5905 165.95 91.2956 167.29 93.6048C168.778 96.4015 170.015 99.8202 171.002 103.861C173.557 114.295 174.032 127.438 172.427 143.289C170.835 158.044 170.698 166.979 172.016 170.093C171.386 170.737 169.781 171.677 167.201 172.913C165.7 173.582 164.466 174.209 163.499 174.796C161.847 175.67 160.298 176.62 158.852 177.644C153.848 170.723 147.236 159.51 139.015 144.005C137.554 141.387 136.066 138.59 134.551 135.615C133.463 133.522 132.198 131.11 130.756 128.379C128.181 123.49 126.762 120.792 126.502 120.285C119.948 127.201 114.506 131.994 110.178 134.666C107.784 136.165 105.352 136.704 102.881 136.282C101.989 126.941 101.4 118.026 101.113 109.54C101.198 109.381 101.349 109.175 101.565 108.923C101.866 108.512 102.168 108.101 102.469 107.69C103.4 106.635 104.355 105.613 105.333 104.624C108.294 101.835 110.964 100.239 113.345 99.8355L113.629 102.745L114.011 105.584L114.596 110.799C115.021 114.744 115.303 118.346 115.44 121.606L117.4 119.773L119.261 118.01C120.633 116.741 121.663 115.616 122.351 114.635C122.036 113.773 121.333 112.641 120.242 111.242L119.054 109.565L118.064 107.749C118.704 106.702 120.377 105.369 123.08 103.75L124.798 102.829L126.544 101.74C127.886 100.986 128.876 100.433 129.515 100.079C130.584 102.284 131.589 103.843 132.532 104.755C141.162 96.1707 149.674 90.4848 158.068 87.6973C160.243 87.1435 161.96 87.4076 163.221 88.4895ZM153.796 99.019C152.873 97.9946 151.844 97.5879 150.71 97.7991C148.496 98.5775 146.004 100.146 143.232 102.505C142.161 103.363 140.906 104.45 139.468 105.765L135.717 109.46C136.117 110.164 137.392 112.519 139.54 116.527C140.694 118.573 141.684 120.389 142.512 121.975C143.693 124.199 144.814 126.269 145.874 128.184C152.051 139.409 156.815 147.735 160.167 153.161C161.388 137.187 161.429 125.259 160.288 117.378C159.062 109.656 156.898 103.536 153.796 99.019ZM237.439 89.5193C241.613 100.288 240.902 109.876 235.307 118.284C233.037 121.769 231.289 124.39 230.065 126.146C227.956 129.023 225.957 131.427 224.067 133.359C219.309 138.212 213.992 141.09 208.116 141.995C205.445 142.407 202.782 141.924 200.128 140.546C197.632 139.254 195.625 137.466 194.107 135.185L193.617 134.494L193.227 133.734C192.854 133.208 192.524 132.603 192.236 131.918C191.455 130.398 190.848 128.705 190.415 126.839C189.264 121.73 189.167 115.183 190.124 107.197C188.568 107.51 186.955 108.159 185.284 109.146C182.9 107.872 181.25 105.684 180.335 102.58C178.698 96.9261 177.614 90.2392 177.081 82.5194C176.867 79.7087 176.739 76.3926 176.697 72.571L176.59 67.6111L176.453 62.8198C177.097 61.0801 178.786 58.7964 181.523 55.9688C182.435 55.0263 183.469 54.0467 184.625 53.0302C185.038 52.6383 185.452 52.2465 185.865 51.8547L186.387 51.3368L186.782 51.0573C188.948 50.2132 190.918 50.6936 192.691 52.4987C196.793 57.5907 200.212 66.1784 202.948 78.2619L202.722 78.5701L202.566 78.9769L202.057 79.9304C201.566 80.7715 201.053 81.5797 200.516 82.3551C198.906 84.6812 197.099 86.8005 195.097 88.713C193.555 87.9298 192.676 87.3177 192.463 86.8766C192.692 80.7894 191.31 74.6587 188.317 68.4844C188.216 68.0625 188.006 67.7667 187.689 67.5969C187.324 67.3614 187.08 67.4354 186.957 67.8189C185.435 71.6627 185.456 77.128 187.022 84.2148C187.611 86.8583 188.355 89.4415 189.254 91.9644C190.079 94.2436 190.832 95.9323 191.511 97.0308C192.711 96.773 194.235 96.1372 196.084 95.1233L198.365 93.9517L199.421 93.3516L200.378 92.8214C200.932 92.6268 201.503 92.6664 202.092 92.9402C202.662 93.3264 202.955 93.8099 202.971 94.3906C200.205 100.103 199.092 106.126 199.63 112.46C200.231 119.44 202.862 124.685 207.522 128.197C209.886 129.582 212.573 130.098 215.581 129.744C218.588 129.39 220.981 128.238 222.759 126.287C226.229 122.545 228.283 118.127 228.92 113.034C229.454 108.212 228.732 103.292 226.756 98.2739C223.05 97.6417 220.151 97.523 218.061 97.9179C217.332 97.4468 216.936 96.888 216.873 96.2415L216.877 95.2019L216.881 94.1622C217.473 93.743 218.126 93.132 218.841 92.3292L220.858 90.1591C222.589 88.1426 223.849 86.8548 224.638 86.2958C225.717 85.7285 227.066 85.6119 228.686 85.9458L229.598 86.1881L230.51 86.4304C231.231 86.6111 231.881 86.6931 232.462 86.6766L233.909 86.8366C234.47 86.9324 234.966 87.0748 235.396 87.2637C236.481 87.6799 237.162 88.4318 237.439 89.5193ZM281.23 46.0468C281.877 45.9837 282.707 46.8766 283.721 48.7256L284.531 50.0774L285.242 51.4991C285.902 52.7098 286.479 53.733 286.972 54.5684C286.304 55.4369 284.844 56.3727 282.592 57.3758C278.481 59.7955 274.447 62.6041 270.492 65.8018L268.097 67.6473L265.771 69.5914C264.024 71.0272 262.492 72.2109 261.178 73.1425C250.805 81.7765 243.239 87.3349 238.481 89.8177C237.673 90.489 236.762 89.9001 235.748 88.0512C235.255 87.2157 234.187 84.664 232.546 80.3962C235.904 79.0039 239.217 77.1994 242.485 74.9826C243.734 74.0975 245.124 73.0631 246.655 71.8794L250.657 68.7475L254.363 65.8252L257.999 62.8042L265.44 56.7911C271.368 52.196 276.631 48.6145 281.23 46.0468ZM166.464 300.395C172.034 306.026 174.769 313.37 174.669 322.427C174.61 325.827 174.187 329.829 173.402 334.434L172.199 340.471L171.053 346.171C170.117 350.982 169.167 354.518 168.203 356.781C166.653 360.447 164.438 363.103 161.556 364.75C158.168 366.658 155.286 368.305 152.911 369.691C151.944 370.278 150.337 370.379 148.091 369.996C146.05 369.764 144.45 369.317 143.291 368.657C140.546 366.455 138.145 363.416 136.09 359.54C134.528 356.5 133.207 352.893 132.127 348.721C130.561 339.265 130.543 331.575 132.074 325.652C133.035 321.712 134.331 318.177 135.963 315.045C136.473 314.092 137.071 313.125 137.758 312.144L138.112 311.597L138.535 311.149C138.705 310.831 138.832 310.593 138.917 310.434C139.733 310.053 140.943 309.739 142.545 309.493L144.514 309.135L146.482 308.777C149.534 309.182 151.886 311.317 153.539 315.182C153.963 316.757 154.372 318.936 154.764 321.72L155.188 324.826C155.333 326.007 155.554 327.085 155.85 328.06L158.879 329.617C158.737 330.113 156.619 331.514 152.527 333.822C152.02 334.082 151.504 334.399 150.978 334.771L149.696 335.68C148.822 336.397 148.174 336.807 147.752 336.909C146.711 337.251 145.822 335.857 145.085 332.726C144.937 332.238 144.856 331.357 144.842 330.084L144.792 328.341L144.743 326.599C144.52 323.498 143.628 321.612 142.066 320.941C140.208 329.467 140.837 337.81 143.953 345.97C145.521 349.994 147.339 353.396 149.408 356.177C151.961 359.502 154.316 360.944 156.472 360.502C159.86 353.856 162.121 346.526 163.257 338.513C164.247 331.688 164.505 326.617 164.031 323.3C163.504 318.933 161.644 314.079 158.452 308.738C155.312 304.446 151.012 303.394 145.553 305.584C144.558 305.993 143.357 306.597 141.949 307.397L138.247 309.28C135.075 310.935 132.458 312.049 130.395 312.622C122.62 312.798 117.491 309.323 115.008 302.195C114.183 299.916 113.673 297.315 113.478 294.392L113.4 292.818C113.345 292.462 113.356 292.059 113.432 291.61C113.427 290.627 113.401 290.102 113.354 290.036C113.356 286.973 113.87 282.264 114.897 275.908C115.718 271.772 117.159 268.232 119.222 265.289C120.983 262.758 122.707 261.289 124.395 260.883L125.578 260.045C126.282 259.645 127 259.334 127.731 259.112C129.813 258.426 131.85 258.514 133.841 259.374C137.551 261.682 140.473 265.388 142.608 270.492C143.425 272.48 144.161 274.773 144.816 277.37C145.288 279.011 145.799 281.266 146.35 284.134C142.817 287.23 140.599 289.048 139.698 289.588C138.553 290.202 137.871 289.796 137.652 288.372L137.199 285.434L136.705 282.229C136.368 279.802 135.94 277.735 135.422 276.028C134.082 271.349 131.847 267.847 128.718 265.522L128.143 265.337L127.498 265.054C126.89 264.892 126.524 265.003 126.401 265.387C122.373 277.819 122.312 289.021 126.217 298.992C127.256 301.712 129.395 303.406 132.633 304.074C135.263 304.581 138.158 304.207 141.32 302.955C142.492 302.519 143.871 301.887 145.457 301.06L147.442 300.098L149.357 299.037C155.906 295.878 161.609 296.33 166.464 300.395ZM171.863 231.691C171.825 231.916 171.748 232.365 171.633 233.039L171.489 233.882L171.416 234.823C171.101 236.329 170.582 237.339 169.859 237.851C171.448 238.7 173.03 240.097 174.606 242.042C178.963 249.027 183.217 258.306 187.37 269.88L189.886 276.984L192.402 284.089C194.367 289.51 196.209 294.13 197.927 297.948C199.19 300.707 200.843 303.387 202.884 305.989C203.185 305.578 203.581 304.952 204.071 304.111L204.807 302.85L205.542 301.588C206.928 299.223 208.073 297.425 208.976 296.192C211.811 292.109 213.834 290.923 215.045 292.632C215.508 293.983 216.05 295.722 216.669 297.851L217.348 300.48L218.026 303.11C219.284 307.255 221.023 310.615 223.243 313.189C222.388 313.795 221.542 314.691 220.703 315.877L219.574 317.418L218.74 318.75C217.299 320.758 215.943 321.423 214.672 320.744C213.321 318.837 212.243 316.688 211.437 314.297L210.549 311.371C210.132 310.086 209.789 309.045 209.521 308.248C209.428 308.117 208.885 309.094 207.894 311.178C209.349 312.814 209.306 314.424 207.763 316.011L206.691 317.215L205.549 318.321C204.618 319.376 204.033 320.432 203.795 321.489C203.409 322.059 202.584 322.15 201.321 321.761C199.443 325.66 197.366 331.229 195.09 338.47C193.485 339.41 191.792 338.832 190.011 336.737C191.446 331.375 193.61 324.954 196.504 317.472C193.781 314.464 191.374 310.788 189.283 306.444C188.455 304.858 187.572 302.916 186.635 300.617L184.156 294.82C182.931 291.836 181.48 287.977 179.803 283.24L177.829 277.529L175.786 271.719C172.374 262.583 168.641 255.156 164.588 249.436C161.901 251.637 159.588 254.016 157.649 256.575L156.301 256.345C155.805 256.203 155.342 256.037 154.912 255.848C153.781 255.366 152.842 254.6 152.097 253.548C155.984 248.72 159.196 242.593 161.734 235.165C164.898 233.22 167.317 231.407 168.99 229.728C170.371 228.749 171.328 229.404 171.863 231.691ZM202.228 234.171C203.083 233.565 203.866 233.207 204.578 233.098C205.581 232.98 206.451 233.301 207.188 234.063C210.416 237.503 214.408 241.883 219.164 247.202L225.054 253.842L231.112 260.51C240.691 271.102 248.963 279.361 255.928 285.289C255.975 285.354 255.753 285.808 255.263 286.649C254.688 287.649 254.024 288.663 253.27 289.69C251.208 292.633 249.403 294.405 247.855 295.008C240.797 288.95 232.275 280.127 222.287 268.541L216.188 261.606L210.257 254.699C205.659 249.465 201.588 245.042 198.042 241.432C195.15 245.852 192.894 249.079 191.276 251.115C198.223 251.722 203.693 253.03 207.685 255.04C207.945 255.547 207.311 257.231 205.783 260.091C204.301 263.017 203.152 264.671 202.336 265.052C196.38 262.36 189.693 261.075 182.274 261.196L181.74 261.279L180.869 261.303C180.176 261.301 179.581 261.228 179.085 261.086C177.513 260.818 176.692 259.869 176.623 258.239C177.188 257.641 177.761 256.988 178.345 256.278L179.799 254.359C180.939 252.762 181.912 251.627 182.72 250.956C183.986 250.652 185.15 249.926 186.213 248.778C187.04 247.994 187.868 246.864 188.698 245.387L204.099 218.625C207.21 213.261 211.161 208.733 215.952 205.042L216.248 204.832L216.614 204.721C216.989 204.554 217.355 204.443 217.711 204.388C218.713 204.27 219.485 204.662 220.024 205.563C221.123 207.253 222.197 209.257 223.247 211.574L224.612 214.755L225.977 217.935C228.12 223.329 230.292 227.369 232.492 230.056C232.547 230.412 231.525 231.827 229.427 234.301C227.198 236.869 225.416 238.674 224.082 239.718C221.835 236.966 219.677 233.014 217.608 227.864L216.481 224.811L215.256 221.828C214.319 219.53 213.427 217.644 212.58 216.17C211.252 218.198 209.461 221.244 207.207 225.31L205.835 227.764L204.492 230.049C203.558 231.797 202.803 233.171 202.228 234.171ZM296.039 218.354C300.213 229.123 299.503 238.711 293.908 247.119C291.637 250.604 289.89 253.225 288.666 254.981C286.557 257.858 284.557 260.262 282.667 262.194C277.91 267.047 272.593 269.925 266.717 270.83C264.046 271.242 261.383 270.759 258.728 269.381C256.232 268.089 254.225 266.301 252.707 264.02L252.218 263.329L251.827 262.569C251.455 262.043 251.125 261.438 250.837 260.753C250.056 259.233 249.449 257.54 249.016 255.674C247.864 250.565 247.767 244.018 248.724 236.032C247.169 236.345 245.555 236.994 243.884 237.981C241.501 236.707 239.851 234.519 238.935 231.415C237.299 225.761 236.214 219.074 235.682 211.354C235.467 208.544 235.339 205.228 235.298 201.406L235.19 196.446L235.054 191.655C235.697 189.915 237.387 187.631 240.123 184.804C241.035 183.861 242.069 182.882 243.225 181.865C243.639 181.473 244.052 181.081 244.466 180.69L244.988 180.172L245.382 179.892C247.549 179.048 249.519 179.529 251.292 181.334C255.393 186.426 258.812 195.013 261.549 207.097L261.323 207.405L261.167 207.812L260.657 208.765C260.167 209.606 259.653 210.415 259.117 211.19C257.506 213.516 255.7 215.635 253.698 217.548C252.155 216.765 251.277 216.153 251.063 215.712C251.292 209.624 249.911 203.494 246.918 197.319C246.817 196.897 246.607 196.602 246.289 196.432C245.925 196.196 245.681 196.27 245.558 196.654C244.035 200.498 244.057 205.963 245.622 213.05C246.212 215.693 246.956 218.276 247.855 220.799C248.68 223.079 249.432 224.767 250.112 225.866C251.312 225.608 252.836 224.972 254.685 223.958L256.965 222.787L258.021 222.187L258.979 221.656C259.532 221.462 260.103 221.501 260.692 221.775C261.262 222.161 261.555 222.645 261.572 223.226C258.806 228.938 257.692 234.961 258.23 241.295C258.831 248.275 261.462 253.52 266.123 257.032C268.487 258.417 271.173 258.933 274.181 258.579C277.189 258.225 279.582 257.073 281.359 255.122C284.83 251.38 286.883 246.962 287.521 241.869C288.054 237.047 287.333 232.127 285.357 227.109C281.65 226.477 278.752 226.358 276.662 226.753C275.933 226.282 275.537 225.723 275.474 225.076L275.478 224.037L275.482 222.997C276.073 222.578 276.727 221.967 277.441 221.164L279.459 218.994C281.19 216.978 282.45 215.69 283.239 215.131C284.318 214.564 285.667 214.447 287.286 214.781L288.198 215.023L289.111 215.265C289.831 215.446 290.482 215.528 291.063 215.512L292.509 215.672C293.071 215.767 293.567 215.91 293.997 216.099C295.082 216.515 295.762 217.267 296.039 218.354ZM321.956 224.282L320.6 226.132C319.527 227.682 318.673 229.126 318.041 230.463C317.129 231.406 316.341 231.618 315.678 231.1C314.678 230.525 312.832 229.661 310.138 228.508C308.303 228.427 309.938 224.602 315.043 217.035C315.588 216.55 316.45 216.581 317.628 217.129C318.488 217.507 319.534 218.147 320.767 219.051C321.496 219.522 322.103 220.03 322.588 220.575C323.166 221.252 323.417 221.815 323.34 222.264L321.956 224.282ZM268.514 400.515C267.629 401.636 265.796 403.577 263.013 406.339L261.32 408.131L259.656 409.754C258.396 411.042 257.451 412.008 256.821 412.652C258.824 415.479 261.829 418.534 265.834 421.818L271.115 425.926L273.791 428.03L276.327 429.936L276.775 430.359L277.223 430.782C277.68 431.149 277.946 431.455 278.02 431.699C278.401 432.515 277.957 433.422 276.689 434.419C276.048 435.466 275.032 436.679 273.641 438.06L272.046 439.782C271.397 440.539 270.814 441.248 270.296 441.911C263.989 437.888 257.505 432.361 250.844 425.33L250.327 424.808L249.977 424.315L249.32 423.596C247.978 429.089 246.699 436.76 245.481 446.608L243.947 458.657C243.339 463.235 242.725 467.176 242.104 470.48L241.336 472.949L240.568 475.419C239.858 477.205 238.781 478.611 237.334 479.636L236.02 481.752L234.635 483.77C233.43 485.414 232.05 486.392 230.494 486.705C228.518 486.426 226.929 485.577 225.726 484.158C224.915 483.153 224.191 481.642 223.552 479.626C222.321 475.659 221.333 470.78 220.587 464.989L219.772 457.568L218.957 450.147C213.262 455.071 208.467 458.617 204.572 460.784C203.737 461.277 202.142 460.63 199.789 458.841L206.514 448.892L207.385 448.867C208.842 447.439 210.643 445.521 212.788 443.113L215.286 440.158L217.952 437.232C217.642 432.613 217.423 427.287 217.296 421.255L217.2 413.176L217.203 405.028C217.151 391.437 216.727 380.875 215.931 373.342C215.775 372.564 215.428 371.377 214.891 369.783L222.245 360.721C223.725 360.858 225.033 361.659 226.17 363.124C226.543 363.65 226.952 364.298 227.399 365.068L227.929 366.025L228.459 366.982L231.222 372.135L234.054 377.386C236.315 381.413 238.269 384.867 239.915 387.749C244.475 395.577 248.806 402.038 252.908 407.13L253.258 407.623C253.397 407.82 253.458 407.975 253.438 408.087L256.146 405.428L259.022 402.797C261.353 400.652 263.092 398.926 264.24 397.619C264.999 397.575 265.733 397.845 266.443 398.428L267.31 399.443C267.814 399.876 268.215 400.233 268.514 400.515ZM227.288 390.623C226.928 399.173 227.008 411.41 227.529 427.335C229.531 425.423 231.835 423.099 234.439 420.365L237.755 416.682L241.14 413.098C239.017 409.962 236.652 406.206 234.046 401.832L230.667 396.228L227.288 390.623ZM241.975 418.876C240.998 419.865 239.794 421.162 238.364 422.768L236.445 424.868L234.527 426.968C231.47 430.319 229.209 432.563 227.744 433.7L227.892 435.373L241.035 422.356L241.975 418.876ZM239.06 431.903C237.584 433.442 235.821 435.136 233.772 436.982L228.415 441.964C228.995 454.489 231.02 465.15 234.49 473.949C234.687 473.809 234.856 471.122 234.998 465.887C235.085 462.665 235.228 459.453 235.428 456.25C235.819 451.925 236.407 447.459 237.192 442.854L239.06 431.903ZM309.715 352.509C310.006 354.87 309.534 357.13 308.299 359.289C307.808 360.13 307.196 361.008 306.462 361.924L305.558 363.157L304.585 364.291C298.614 370.497 293.636 375.456 289.65 379.169C298.403 378.003 305.943 377.844 312.272 378.692C320.753 379.792 327.453 382.698 332.371 387.409L332.889 387.931L333.547 388.65C334.125 389.326 334.68 389.97 335.211 390.581C336.628 392.44 337.489 394.003 337.793 395.269C336.593 395.527 335.13 395.971 333.404 396.601L331.28 397.366L329.156 398.13C325.77 399.345 322.841 399.741 320.37 399.319C318.896 397.797 317.44 396.508 316.002 395.453L314.222 394.196L312.541 392.869C308.467 390.325 303.173 388.497 296.658 387.386C290.256 386.294 285.787 386.399 283.254 387.701C288.301 395.381 292.763 401.749 296.641 406.802C301.981 413.782 307.087 419.594 311.959 424.239C312.312 424.878 308.065 427.245 299.217 431.342C289.315 421.967 278.991 409.138 268.243 392.856C267.86 392.733 267.378 392.68 266.797 392.696L266.164 392.848L265.56 392.832C264.511 392.884 263.74 392.493 263.246 391.657C263.024 390.926 263.093 390.186 263.451 389.438C263.772 388.915 264.238 388.388 264.848 387.856C261.96 383.78 259.31 379.832 256.899 376.01L255.321 373.574L253.841 371.068C252.435 368.805 251.323 367.026 250.503 365.73L248.872 366.145L247.142 366.631C245.876 366.935 244.752 367.09 243.768 367.096C243.245 366.775 242.816 366.24 242.482 365.489C242.101 364.673 241.991 363.961 242.153 363.352L247.354 358.778C247.458 358.507 247.493 358.137 247.457 357.668L247.305 357.036C247.362 356.699 247.443 356.395 247.547 356.123C250.369 355.506 253.961 354.096 258.325 351.893L260.872 350.68L263.42 349.468C265.343 348.698 267.092 348.1 268.667 347.675C281.071 344.416 291.648 343.735 300.398 345.631C302.354 346.023 304.243 346.807 306.065 347.985C308.139 349.379 309.356 350.887 309.715 352.509ZM294.602 355.219C294.435 354.844 294.132 354.417 293.694 353.937C293.302 353.524 292.947 353.232 292.629 353.062C288.459 351.08 283.595 350.626 278.037 351.701C272.966 352.627 268.327 354.581 264.12 357.563L275.933 376.743L278.682 374.351L281.459 371.79C283.64 369.85 285.458 368.166 286.915 366.739C290.846 362.67 293.408 358.83 294.602 355.219ZM315.526 324.247C316.381 323.642 317.164 323.284 317.876 323.174C318.879 323.056 319.749 323.378 320.486 324.14C323.714 327.58 327.706 331.96 332.463 337.279L338.352 343.918L344.411 350.587C353.99 361.179 362.262 369.438 369.226 375.365C369.273 375.431 369.051 375.884 368.561 376.725C367.986 377.725 367.322 378.739 366.568 379.767C364.506 382.709 362.701 384.482 361.153 385.085C354.095 379.026 345.573 370.204 335.585 358.618L329.486 351.682L323.555 344.776C318.957 339.541 314.886 335.119 311.34 331.509C308.448 335.928 306.193 339.156 304.574 341.192C311.521 341.798 316.991 343.107 320.983 345.117C321.243 345.624 320.609 347.307 319.081 350.168C317.599 353.094 316.451 354.747 315.634 355.128C309.678 352.436 302.991 351.151 295.572 351.273L295.038 351.355L294.167 351.38C293.474 351.378 292.879 351.305 292.383 351.163C290.811 350.894 289.99 349.945 289.922 348.315C290.486 347.718 291.06 347.065 291.643 346.355L293.097 344.436C294.237 342.838 295.21 341.704 296.018 341.033C297.284 340.728 298.448 340.002 299.511 338.854C300.338 338.071 301.167 336.94 301.996 335.464L317.397 308.702C320.508 303.337 324.459 298.809 329.25 295.119L329.546 294.909L329.912 294.798C330.287 294.631 330.653 294.52 331.009 294.465C332.011 294.347 332.783 294.738 333.322 295.64C334.421 297.33 335.496 299.334 336.545 301.651L337.91 304.831L339.275 308.012C341.418 313.405 343.59 317.446 345.79 320.133C345.845 320.489 344.823 321.904 342.725 324.378C340.496 326.945 338.714 328.751 337.38 329.795C335.133 327.042 332.975 323.091 330.906 317.941L329.78 314.888L328.554 311.905C327.617 309.607 326.725 307.721 325.878 306.247C324.55 308.274 322.759 311.321 320.505 315.387L319.133 317.84L317.79 320.125C316.856 321.873 316.101 323.247 315.526 324.247Z" fill="url(#paint0_linear_2314_2239)" style="mix-blend-mode:hard-light"/>
<defs>
<linearGradient id="paint0_linear_2314_2239" x1="156.28" y1="409.423" x2="418.356" y2="287.77" gradientUnits="userSpaceOnUse">
<stop stop-color="#F9E9F9"/>
<stop offset="1" stop-color="#B00F74"/>
</linearGradient>
</defs>
</svg>
