<svg width="265" height="192" viewBox="0 0 265 192" fill="none" xmlns="http://www.w3.org/2000/svg">
<path opacity="0.66" d="M41.8961 51.8687C38.1618 56.0189 34.6052 62.6516 31.2263 71.7669C28.0284 80.5561 26.0757 88.3678 25.3683 95.2021C24.895 101.163 26.8653 105.343 31.2794 107.743C32.0252 107.756 32.6634 107.646 33.194 107.413L33.8236 107.161L34.4883 106.777L35.6404 100.905C36.1212 98.4111 36.5286 96.3663 36.8626 94.7701C37.5793 89.9986 37.7536 85.5032 37.3857 81.284L40.4893 80.7109L43.5929 80.1377C45.6854 79.6682 47.341 79.0817 48.5597 78.378C49.3055 78.3906 49.9289 78.5108 50.4297 78.7386C51.1053 79.0133 51.504 79.4479 51.6256 80.0424C52.0311 82.0241 52.066 84.5152 51.7303 87.5157L51.105 91.422L50.7796 93.161L50.4892 94.7689C66.9882 77.931 76.8106 60.147 79.9563 41.4168C81.0538 34.8743 79.5415 30.208 75.4192 27.4177C72.8305 28.6907 70.2292 30.7096 67.6154 33.4743C65.6492 35.5697 63.5862 38.2011 61.4264 41.3684C54.8596 50.847 51.2599 59.388 50.6273 66.9916L47.6266 69.278L44.5299 71.3982C41.9988 73.155 40.1091 74.6153 38.8607 75.7792C38.4004 75.7495 38.0572 75.283 37.831 74.3795L37.5877 73.1905C37.5066 72.7942 37.4021 72.4852 37.2742 72.2636C36.9389 70.0198 37.4003 66.7252 38.6583 62.3797C39.0563 60.8943 39.6033 59.0274 40.2995 56.779L41.1329 54.1927L41.8961 51.8687ZM49.6304 38.2077C51.5732 36.1997 53.3584 34.4304 54.986 32.8998C57.2377 30.7873 59.3639 28.9689 61.3644 27.4446C66.4561 23.4708 70.5694 21.5761 73.7041 21.7605C74.6887 21.9307 76.1687 21.9995 78.1441 21.9669L80.5127 22.0396L82.8462 22.2435C86.3944 22.6323 89.0149 24.0368 90.7077 26.4571C93.3428 30.2536 94.5025 35.0128 94.1868 40.7346C93.8962 44.9647 92.7513 49.7619 90.752 55.1262C86.9813 65.354 81.3055 75.3522 73.7244 85.1209C65.9218 95.0176 57.3728 102.982 48.0772 109.013L47.5667 111.967L46.8901 115.017C46.3858 117.597 46.1095 119.677 46.061 121.256C45.8047 126.057 47.3273 129.462 50.6288 131.471C52.47 131.589 54.93 130.797 58.0087 129.093C59.14 128.366 60.283 127.596 61.4378 126.781C62.4817 126.031 63.3712 125.333 64.1061 124.687C62.808 123.59 60.796 122.535 58.0702 121.524L54.8989 120.253C53.6116 119.814 52.578 119.303 51.7978 118.72C51.2159 118.095 50.9788 116.534 51.0867 114.034C52.9747 113.978 55.1866 113.587 57.7222 112.862L60.5988 112.087C61.677 111.908 62.6561 111.749 63.5362 111.61C64.3226 111.821 65.0739 112.163 65.79 112.635C66.5701 113.219 67.1404 113.887 67.5008 114.639C71.0427 115.401 74.9793 117.486 79.3105 120.894C79.5773 121.996 79.372 123.111 78.6947 124.241L77.7139 125.804L76.506 127.166C68.9175 133.468 58.7999 137.5 46.1531 139.262C41.2051 139.903 37.1749 138.167 34.0623 134.056C32.5677 131.595 31.8986 128.325 32.055 124.246C32.0801 122.755 32.1871 120.957 32.3761 118.854L32.7813 116.293L33.0553 113.698L28.4398 114.147C26.6157 114.313 25.0569 114.364 23.7634 114.298C20.3665 114.044 17.6204 112.933 15.525 110.967C11.5746 105.788 10.1779 99.4668 11.3348 92.0037C11.7984 89.2248 12.6764 85.9481 13.9687 82.1738L15.6964 77.2986L17.389 72.5545C19.7566 66.165 23.5591 58.6148 28.7964 49.9038L35.6621 38.9601C38.546 34.4884 40.7909 30.8288 42.3967 27.9813C43.2082 26.7003 45.0502 26.1169 47.9228 26.231C48.9308 26.3138 50.3757 26.5137 52.2574 26.8306L54.5558 27.1655L56.9852 27.5355C52.7125 33.6954 50.2609 37.2528 49.6304 38.2077ZM145.563 144.265C145.16 144.719 143.808 144.872 141.507 144.724L139.959 144.731L138.543 144.773C137.314 144.818 136.236 144.997 135.309 145.311C134.27 141.848 132.736 138.487 130.706 135.227C129.38 133.186 127.373 130.541 124.684 127.292L112.875 113.171C111.499 114.113 110.044 115.175 108.51 116.356C106.509 117.88 104.62 119.341 102.841 120.737C98.0174 124.408 94.3136 127.396 91.7295 129.7L89.5177 130.091L87.1748 130.446C85.5254 130.66 84.1297 130.801 82.9875 130.87C79.9573 130.994 77.9913 130.468 77.0895 129.289C76.4562 127.809 76.4641 126.031 77.1134 123.958C77.3475 123.084 77.6807 122.19 78.113 121.276L78.7264 120.035L79.3046 118.926C81.6922 115.258 84.7126 111.15 88.3658 106.604L93.0755 100.561L97.8811 94.6842C93.1694 87.8026 92.1253 81.3887 94.7487 75.4424C97.1678 69.9096 102.926 64.1477 112.023 58.1568C119.855 53.0442 127.811 49.0418 135.891 46.1496C136.882 45.9468 138.787 46.1764 141.606 46.8382C144.076 47.4064 145.713 47.9386 146.517 48.4348C147.167 50.2012 146.909 51.8645 145.741 53.4248C144.474 55.7075 139.768 61.5638 131.622 70.9939L126.388 76.8963L121.285 82.8337C117.125 87.5254 114.149 90.9423 112.357 93.0845L111.351 94.2196L110.309 95.4857C111.275 96.7746 112.834 98.6441 114.987 101.094L121.548 96.5305L128.144 91.836C133.475 88.0198 138.059 84.8933 141.896 82.4564C143.032 82.7607 145.612 83.2649 149.638 83.969C150.482 84.6634 150.889 85.9429 150.857 87.8076C150.781 88.4426 150.657 89.2524 150.487 90.237L150.337 91.3206L150.187 92.4043C151.17 93.9788 151.583 94.8854 151.425 95.1241C151.355 95.3862 150.804 95.5196 149.773 95.5242C149.423 95.4305 148.59 95.3946 147.273 95.4163L145.595 95.3881L143.786 95.3247C140.802 95.2745 139.404 94.8999 139.592 94.2009C137.44 95.591 134.244 97.7315 130.004 100.622C125.852 103.537 122.609 105.852 120.276 107.568L124.248 112.144L128.088 116.685C131.359 120.558 133.855 123.475 135.577 125.435C134.312 121.069 136.341 115.244 141.664 107.961C144.746 108.693 147.801 109.699 150.829 110.979C151.469 112.087 151.558 113.328 151.096 114.703C150.868 115.203 150.573 115.78 150.211 116.432L149.064 118.091C146.857 121.434 145.439 125.502 144.81 130.297C144.493 132.179 144.343 133.965 144.358 135.654C144.333 137.146 144.457 138.256 144.73 138.985C145.788 141.329 146.065 143.089 145.563 144.265ZM132.601 55.804C127.844 58.1815 123.266 60.9352 118.869 64.0649C112.874 68.2648 108.128 72.5187 104.633 76.8265C103.529 78.4976 103.093 80.3005 103.324 82.2354C103.474 83.7739 104.06 85.4295 105.084 87.2021C108.275 84.0302 112.554 79.4174 117.922 73.3637C124.586 65.9713 129.479 60.1181 132.601 55.804ZM104.094 102.951C103.692 103.405 103.289 103.859 102.887 104.314C102.373 104.832 101.904 105.361 101.477 105.903C100.293 107.177 99.2077 108.432 98.2215 109.666C95.4438 113.042 93.2434 116.011 91.6204 118.573L107.42 106.793L104.094 102.951ZM246.921 125.769C245.318 125.808 242.326 125.615 237.945 125.19L235.183 125.012L232.587 124.738C230.572 124.573 229.06 124.448 228.052 124.366C227.045 128.123 226.558 132.909 226.592 138.725L226.828 146.233L226.928 150.053L227.099 153.61L227.054 154.301L227.01 154.991C227.021 155.65 226.947 156.098 226.79 156.337C226.357 157.251 225.256 157.518 223.485 157.137C222.121 157.334 220.344 157.326 218.153 157.113L215.522 156.97C214.404 156.952 213.372 156.956 212.428 156.984C211.383 148.65 211.511 139.085 212.812 128.289L212.892 127.468L213.067 126.813L213.217 125.729C207.509 128.507 199.964 132.901 190.581 138.909L179.069 146.22C174.678 148.976 170.833 151.271 167.532 153.102L164.848 154.209L162.163 155.316C160.111 155.983 158.124 156.06 156.202 155.545L153.431 155.926L150.694 156.176C148.41 156.313 146.575 155.822 145.19 154.701C144.015 152.794 143.609 150.813 143.973 148.756C144.26 147.335 145.046 145.625 146.33 143.628C148.876 139.721 152.383 135.37 156.852 130.574L162.681 124.55L168.509 118.526C160.172 117.135 153.671 115.533 149.006 113.721C147.981 113.353 147.397 111.511 147.256 108.195L160.674 106.874L161.32 107.609C163.598 107.845 166.546 108.026 170.165 108.152L174.509 108.193L178.949 108.399C182.717 104.82 187.162 100.813 192.284 96.3792L199.196 90.5051L206.239 84.6661C217.946 74.879 226.768 66.9415 232.708 60.8535C233.268 60.1607 234.044 59.0108 235.037 57.4037L248.139 57.2621C249.081 58.6384 249.327 60.3431 248.876 62.3762C248.689 63.0752 248.422 63.8936 248.078 64.8314L247.63 65.9758L247.183 67.1203L244.711 73.2008L242.204 79.4123C240.345 84.2524 238.761 88.4168 237.452 91.9057C233.956 101.458 231.478 109.831 230.018 117.026L229.843 117.681C229.772 117.943 229.682 118.106 229.571 118.17L233.81 118.604L238.144 119.203C241.669 119.679 244.408 119.945 246.36 120C246.942 120.624 247.235 121.452 247.239 122.483L246.984 123.96C246.972 124.706 246.95 125.309 246.921 125.769ZM225.916 83.0551C218.27 88.873 207.753 97.7146 194.366 109.58C197.454 109.939 201.113 110.264 205.343 110.555L210.901 110.78L216.425 111.136C217.613 107.053 219.163 102.317 221.074 96.9294L223.495 89.9922L225.916 83.0551ZM212.031 115.999C210.476 115.863 208.492 115.753 206.079 115.669L202.889 115.516L199.699 115.364C194.612 115.125 191.053 114.78 189.019 114.328L187.681 115.655L208.35 117.682L212.031 115.999ZM198.685 122.818C196.296 122.647 193.57 122.337 190.505 121.891L182.36 120.832C171.953 130.312 164.192 139.705 159.076 149.01C159.339 149.08 161.782 147.3 166.407 143.67C169.254 141.435 172.132 139.257 175.042 137.133C179.06 134.37 183.341 131.677 187.883 129.055L198.685 122.818Z" fill="url(#paint0_linear_118_5796)"/>
<defs>
<linearGradient id="paint0_linear_118_5796" x1="169.349" y1="58.3274" x2="115.429" y2="163.558" gradientUnits="userSpaceOnUse">
<stop offset="0.0001" stop-color="#4D62CA"/>
<stop offset="1" stop-color="#9D5280"/>
</linearGradient>
</defs>
</svg>
