<svg width="267" height="201" viewBox="0 0 267 201" fill="none" xmlns="http://www.w3.org/2000/svg">
<path d="M63.2105 176.194C64.4173 177.251 65.1553 178.536 65.4245 180.048C65.5364 180.611 65.5994 181.445 65.6134 182.55L65.6667 183.892L65.6377 185.416C65.6947 186.101 65.7793 186.725 65.8912 187.288L66.3918 188.612C66.914 189.726 67.1654 190.791 67.146 191.808C65.8983 191.977 64.7281 192.217 63.6354 192.529L62.3936 192.848L61.2018 193.298C59.2813 193.822 57.653 194.186 56.317 194.388C54.4814 189.533 53.3698 184.858 52.9822 180.363C52.9586 179.767 56.368 178.377 63.2105 176.194ZM53.1629 161.226C52.6957 159.99 52.82 158.985 53.5359 158.21C56.5588 156.865 59.4779 155.913 62.2931 155.353C63.6764 156.343 65.6073 157.581 68.0855 159.065L70.8404 160.748L73.5953 162.431C73.8838 162.927 74.1008 163.501 74.2461 164.152C74.4248 164.892 74.5319 165.709 74.5675 166.603C68.3214 168.763 62.072 169.713 55.8194 169.454C48.9704 169.218 43.2609 167.593 38.6909 164.579C35.1608 162.18 33.617 159.031 34.0595 155.13C35.4783 148.742 39.3678 141.016 45.7279 131.953L68.1091 99.882L69.1151 98.1396L70.3359 96.1646C71.2596 94.6047 71.9243 93.294 72.3302 92.2325C73.6145 89.2246 73.5854 86.6124 72.2429 84.3958C68.1315 79.392 60.6769 77.8214 49.8791 79.6839C44.0938 80.6604 37.3535 83.9149 29.6584 89.4474C21.5552 95.235 18.2643 99.6069 19.7855 102.563C20.7393 104.019 22.5614 105.903 25.2517 108.215L28.357 110.824C29.4756 111.915 30.395 112.879 31.1152 113.717C32.0766 113.858 32.7085 114.729 33.011 116.329C32.8366 117.202 29.284 118.747 22.3532 120.964C21.3779 119.718 20.1759 118.407 18.7473 117.03L16.887 115.312L14.9443 113.777C11.9106 111.089 9.84413 108.693 8.74495 106.586C7.79647 103.009 8.60977 99.4229 11.1848 95.8261C12.1419 94.3545 13.3971 92.871 14.9506 91.3756C16.0745 90.3454 17.4907 89.1542 19.1991 87.802C34.8617 75.3225 52.6 70.7351 72.414 74.0399C75.4531 74.6061 78.0519 75.7424 80.2104 77.4487C82.7338 79.3197 84.2146 81.6354 84.6528 84.3956C84.9306 89.1335 82.9907 94.8108 78.8332 101.427C76.6112 104.891 73.7282 109.007 70.1843 113.778L65.7597 119.688L61.2528 125.781C54.1434 135.531 49.1623 143.972 46.3095 151.104L45.9978 152.282L45.6862 153.459C45.4569 154.454 45.5032 155.243 45.8251 155.828C46.6573 157.228 47.87 158.435 49.4633 159.447C50.415 160.096 51.6482 160.689 53.1629 161.226ZM137.306 148.181C138.513 149.238 139.251 150.523 139.52 152.036C139.632 152.599 139.695 153.433 139.709 154.537L139.762 155.879L139.733 157.403C139.79 158.088 139.875 158.712 139.987 159.275L140.487 160.599C141.01 161.713 141.261 162.779 141.242 163.795C139.994 163.964 138.824 164.205 137.731 164.517L136.489 164.835L135.297 165.285C133.377 165.81 131.749 166.173 130.413 166.376C128.577 161.52 127.465 156.845 127.078 152.351C127.054 151.754 130.464 150.365 137.306 148.181ZM127.259 133.214C126.791 131.978 126.916 130.972 127.631 130.197C130.654 128.852 133.573 127.9 136.389 127.34C137.772 128.331 139.703 129.568 142.181 131.053L144.936 132.735L147.691 134.418C147.979 134.914 148.196 135.488 148.342 136.139C148.52 136.879 148.628 137.696 148.663 138.591C142.417 140.75 136.168 141.7 129.915 141.441C123.066 141.205 117.356 139.58 112.786 136.566C109.256 134.168 107.713 131.018 108.155 127.118C109.574 120.729 113.463 113.004 119.824 103.94L142.205 71.8694L143.211 70.127L144.432 68.152C145.355 66.5921 146.02 65.2814 146.426 64.2199C147.71 61.212 147.681 58.5998 146.338 56.3831C142.227 51.3794 134.773 49.8088 123.975 51.6713C118.189 52.6478 111.449 55.9023 103.754 61.4348C95.6508 67.2224 92.3599 71.5943 93.8811 74.5505C94.8349 76.006 96.657 77.8899 99.3473 80.2023L102.453 82.8118C103.571 83.9024 104.491 84.8664 105.211 85.704C106.172 85.845 106.804 86.7159 107.107 88.3167C106.932 89.1898 103.38 90.7347 96.4488 92.9514C95.4735 91.7058 94.2715 90.3946 92.8429 89.0177L90.9826 87.2996L89.0399 85.7639C86.0062 83.0768 83.9397 80.6799 82.8405 78.5731C81.8921 74.9968 82.7054 71.4103 85.2804 67.8135C86.2375 66.3419 87.4927 64.8584 89.0462 63.363C90.1701 62.3327 91.5863 61.1415 93.2947 59.7894C108.957 47.3098 126.696 42.7225 146.51 46.0273C149.549 46.5935 152.147 47.7298 154.306 49.4361C156.829 51.3071 158.31 53.6228 158.748 56.383C159.026 61.1209 157.086 66.7981 152.929 73.4146C150.707 76.8779 147.824 80.9947 144.28 85.7649L139.855 91.6752L135.348 97.768C128.239 107.518 123.258 115.96 120.405 123.092L120.093 124.269L119.782 125.446C119.552 126.441 119.599 127.231 119.921 127.815C120.753 129.216 121.966 130.422 123.559 131.434C124.511 132.083 125.744 132.676 127.259 133.214ZM211.402 120.169C212.609 121.226 213.347 122.511 213.616 124.023C213.728 124.586 213.791 125.42 213.805 126.525L213.858 127.866L213.829 129.391C213.886 130.076 213.97 130.699 214.082 131.262L214.583 132.587C215.105 133.701 215.357 134.766 215.337 135.782C214.089 135.951 212.919 136.192 211.827 136.504L210.585 136.822L209.393 137.273C207.472 137.797 205.844 138.161 204.508 138.363C202.673 133.508 201.561 128.833 201.173 124.338C201.15 123.742 204.559 122.352 211.402 120.169ZM201.354 105.201C200.887 103.965 201.011 102.96 201.727 102.184C204.75 100.84 207.669 99.8875 210.484 99.3277C211.868 100.318 213.798 101.556 216.277 103.04L219.032 104.723L221.787 106.405C222.075 106.902 222.292 107.475 222.437 108.127C222.616 108.866 222.723 109.683 222.759 110.578C216.513 112.738 210.263 113.688 204.011 113.428C197.162 113.193 191.452 111.568 186.882 108.553C183.352 106.155 181.808 103.005 182.251 99.1051C183.669 92.7169 187.559 84.991 193.919 75.9274L216.3 43.8567L217.306 42.1143L218.527 40.1394C219.451 38.5795 220.116 37.2688 220.521 36.2073C221.806 33.1994 221.777 30.5871 220.434 28.3705C216.323 23.3668 208.868 21.7961 198.07 23.6587C192.285 24.6352 185.545 27.8897 177.85 33.4221C169.746 39.2098 166.455 43.5817 167.977 46.5379C168.931 47.9933 170.753 49.8773 173.443 52.1897L176.548 54.7992C177.667 55.8897 178.586 56.8538 179.306 57.6913C180.268 57.8324 180.9 58.7033 181.202 60.3041C181.028 61.1772 177.475 62.7221 170.544 64.9388C169.569 63.6932 168.367 62.382 166.938 61.0051L165.078 59.2869L163.136 57.7512C160.102 55.0642 158.035 52.6673 156.936 50.5605C155.988 46.9842 156.801 43.3977 159.376 39.8009C160.333 38.3292 161.588 36.8457 163.142 35.3504C164.266 34.3201 165.682 33.1289 167.39 31.7767C183.053 19.2972 200.791 14.7098 220.605 18.0146C223.644 18.5809 226.243 19.7172 228.402 21.4235C230.925 23.2945 232.406 25.6101 232.844 28.3704C233.122 33.1083 231.182 38.7855 227.024 45.402C224.802 48.8653 221.919 52.9821 218.375 57.7523L213.951 63.6626L209.444 69.7554C202.335 79.5058 197.353 87.9471 194.501 95.0792L194.189 96.2564L193.877 97.4337C193.648 98.4284 193.694 99.218 194.016 99.8026C194.848 101.203 196.061 102.409 197.655 103.421C198.606 104.071 199.839 104.664 201.354 105.201Z" fill="url(#paint0_linear_118_5816)"/>
<defs>
<linearGradient id="paint0_linear_118_5816" x1="79.4401" y1="51.0245" x2="137.18" y2="167.649" gradientUnits="userSpaceOnUse">
<stop stop-color="#9D5280"/>
<stop offset="1" stop-color="#22191F"/>
</linearGradient>
</defs>
</svg>
