<svg width="496" height="552" viewBox="0 0 496 552" fill="none" xmlns="http://www.w3.org/2000/svg">
<path d="M91.7824 179.357C100.106 194.17 102.378 206.982 98.5958 217.795C94.519 225.693 88.5259 231.591 80.6165 235.489C75.785 237.921 71.1617 237.701 66.7467 234.83C57.5303 229.133 48.4732 216.919 39.5753 198.187C36.576 191.855 33.7069 184.666 30.9681 176.621C30.0551 173.939 29.1922 171.39 28.3794 168.973C28.134 168.057 27.8777 167.246 27.6107 166.54C27.4988 165.977 27.4094 165.607 27.3427 165.43C23.2172 151.049 20.9407 140.357 20.5132 133.355L20.3776 132.196L20.2419 131.036L20.0707 128.982C20.0115 127.491 20.2839 126.076 20.8878 124.738C21.1192 124.55 21.5106 124.251 22.0618 123.84L22.7561 123.275L23.4505 122.71C24.6078 121.768 24.9969 120.662 24.618 119.393L26.5041 118.377L28.2578 117.412C29.6035 116.701 30.596 116.124 31.2355 115.681C33.1873 114.438 35.3689 114.471 37.7804 115.779C38.577 116.285 39.4846 116.951 40.503 117.777L41.8482 118.933L43.0609 120.139C46.8816 123.84 51.0539 128.871 55.5776 135.233L58.339 139.334L61.2328 143.386L66.9881 151.804C66.5392 153.285 65.081 155.299 62.6136 157.847C60.1462 160.394 58.3936 161.763 57.3558 161.953C56.318 162.144 55.4331 161.671 54.701 160.535C53.2487 158.562 51.5795 156.015 49.6933 152.894L44.8181 145.203C40.8693 139.028 37.217 134.304 33.8614 131.033C35.5033 146.051 40.1875 162.844 47.9141 181.414C55.5858 200.104 63.7564 213.31 72.4259 221.03C74.2195 222.571 76.0728 223.737 77.9858 224.527C80.3855 225.537 82.573 225.719 84.5485 225.073C85.6293 224.463 86.4061 223.715 86.8786 222.83C87.0434 222.465 87.2081 222.1 87.3728 221.735L87.5197 220.923C88.8524 215.374 88.4605 209.267 86.3439 202.601C84.7398 197.558 82.0516 191.915 78.2793 185.673L77.6641 184.846L76.9665 184.202C76.5897 183.739 76.0697 183.431 75.4065 183.278C73.8563 181.847 73.7696 180.416 75.1465 178.988C80.3225 173.197 84.2987 171.038 87.0751 172.511C88.9925 174.913 90.5616 177.196 91.7824 179.357ZM141.027 118.818C150.955 130.401 154.683 144.933 152.212 162.414C151.031 171.033 148.382 178.037 144.265 183.428C139.609 189.526 132.476 194.544 122.866 198.48C119.986 199.669 116.722 199.844 113.075 199.003C109.671 198.272 106.158 195.918 102.535 191.94C101.283 190.496 100.086 188.931 98.9436 187.244C97.9898 185.788 97.3293 184.575 96.9622 183.604C93.9941 176.554 91.8124 168.248 90.4171 158.686C89.9433 155.031 89.7016 149.321 89.6918 141.556C89.7563 132.653 90.2708 126.808 91.2354 124.022C91.5745 122.784 92.461 121.793 93.895 121.049L93.8417 119.707L93.9208 118.315C93.9402 117.299 94.1253 116.321 94.4763 115.381C95.2546 113.17 97.012 111.547 99.7486 110.512L101.703 110.076L103.342 109.608C104.611 109.229 105.532 108.729 106.105 108.109C111.542 105.146 117.899 105.012 125.174 107.71C131.421 110.09 136.706 113.793 141.027 118.818ZM138.19 166.958C139.908 156.824 139.004 147.228 135.479 138.169C131.664 128.614 125.586 121.478 117.245 116.761C114.037 114.947 111.125 114.182 108.507 114.465C108.147 115.913 108.052 117.664 108.223 119.718C108.328 121.596 108.547 122.976 108.881 123.859C112.096 132.631 118.782 141.909 128.937 151.69C128.617 151.912 128.209 152.167 127.713 152.455C127.25 152.832 126.726 153.182 126.142 153.503C124.686 154.457 123.33 155.273 122.072 155.95C118.598 157.97 116.276 158.898 115.105 158.736C113.301 157.702 111.414 156.045 109.441 153.764C108.599 152.871 107.752 151.83 106.898 150.639C106.299 149.856 105.573 148.87 104.719 147.679C105.873 161.671 108.353 172.235 112.161 179.371C113.193 181.302 114.48 183.237 116.02 185.177C119.278 188.99 122.47 190.76 125.595 190.486C128.842 190.268 131.924 186.277 134.841 178.515C136.3 174.634 137.416 170.782 138.19 166.958ZM211.122 74.7628C212.352 76.4164 213.386 78.7498 214.222 81.7631C215.082 85.3727 215.475 89.6132 215.4 94.4846C215.212 107.066 211.867 122.103 205.364 139.595C199.2 155.849 196.405 165.935 196.978 169.855C196.074 170.399 193.977 170.99 190.687 171.628C188.788 171.943 187.204 172.289 185.935 172.668C183.804 173.171 181.768 173.79 179.826 174.524C176.2 165.2 172.018 150.537 167.281 130.534C166.4 127.135 165.539 123.525 164.701 119.706C164.086 117.012 163.365 113.905 162.538 110.383C161.063 104.08 160.253 100.603 160.108 99.9514C150.635 105.853 143.052 109.679 137.357 111.428C134.2 112.42 131.284 112.312 128.608 111.104C130.357 100.252 132.323 89.9742 134.506 80.2702C134.649 80.1151 134.881 79.9267 135.201 79.705C135.664 79.3282 136.126 78.9514 136.589 78.5746C137.957 77.6541 139.341 76.7778 140.741 75.9456C144.921 73.659 148.42 72.6389 151.237 72.8854L150.7 76.2668L150.294 79.5982L149.416 85.6813C148.732 90.2782 147.987 94.4444 147.18 98.1801L149.943 96.6815L152.573 95.2329C154.503 94.2005 156.003 93.23 157.072 92.3214C156.97 91.2502 156.507 89.7603 155.685 87.8515L154.834 85.6005L154.248 83.2493C155.283 82.2524 157.572 81.2356 161.115 80.1988L163.334 79.6627L165.635 78.9441C167.379 78.4865 168.665 78.1517 169.493 77.9396C170.053 80.7548 170.732 82.8185 171.531 84.1308C183.85 76.9512 195.178 73.0217 205.515 72.3423C208.144 72.3573 210.013 73.1641 211.122 74.7628ZM197.328 83.9126C196.584 82.4786 195.538 81.7137 194.19 81.6179C191.452 81.8462 188.163 82.8878 184.324 84.7427C182.856 85.3983 181.113 86.2591 179.095 87.3249L173.752 90.4044C173.997 91.3205 174.745 94.3672 175.996 99.5443C176.699 102.204 177.285 104.556 177.755 106.598C178.436 109.468 179.095 112.145 179.731 114.628C183.416 129.177 186.355 140.021 188.55 147.162C194.655 129.417 198.226 115.91 199.261 106.64C200.153 97.5244 199.509 89.9488 197.328 83.9126ZM294.939 97.8602C296.489 111.299 292.85 121.957 284.023 129.834C280.42 133.113 277.665 135.567 275.759 137.196C272.518 139.834 269.542 141.968 266.829 143.599C260.002 147.693 253.125 149.385 246.198 148.674C243.049 148.352 240.173 147.017 237.571 144.671C235.124 142.469 233.378 139.85 232.331 136.815L231.981 135.888L231.763 134.911C231.496 134.205 231.3 133.421 231.177 132.56C230.741 130.606 230.553 128.508 230.613 126.266C230.817 120.135 232.642 112.685 236.087 103.916C234.231 103.811 232.21 104.07 230.025 104.695C227.7 102.547 226.477 99.5791 226.356 95.7907C226.172 88.8987 226.918 80.9989 228.595 72.0915C229.183 68.8425 230.018 65.046 231.1 60.7021L232.443 55.0486L233.705 49.5776C234.948 47.7959 237.538 45.7068 241.475 43.3104C242.787 42.5115 244.249 41.7068 245.859 40.8961C246.444 40.5743 247.028 40.2524 247.613 39.9305L248.357 39.4977L248.887 39.2974C251.592 38.9809 253.683 40.1075 255.159 42.6772C258.304 49.6608 259.641 60.4047 259.172 74.9091L258.825 75.1917L258.528 75.6067L257.669 76.5368C256.865 77.3453 256.044 78.1097 255.206 78.8299C252.694 80.9906 250.02 82.859 247.185 84.4351C245.669 83.0915 244.854 82.1383 244.742 81.5752C246.8 74.7434 247.046 67.3863 245.478 59.5038C245.488 58.9957 245.338 58.5984 245.028 58.312C244.684 57.9374 244.386 57.9493 244.133 58.3476C241.272 62.2544 239.681 68.4554 239.362 76.9504C239.249 80.1209 239.329 83.2687 239.602 86.3939C239.864 89.2209 240.218 91.3574 240.663 92.8032C242.099 92.8656 244.015 92.5953 246.41 91.9925L249.341 91.3384L250.716 90.9702L251.957 90.6521C252.642 90.595 253.278 90.8087 253.864 91.2932C254.396 91.8992 254.586 92.5339 254.433 93.197C249.61 98.8544 246.568 105.352 245.306 112.69C243.925 120.779 245.357 127.502 249.602 132.859C251.872 135.128 254.764 136.507 258.278 136.994C261.792 137.482 264.845 136.883 267.436 135.197C272.475 131.98 276.109 127.58 278.336 121.996C280.365 116.688 281.001 110.898 280.244 104.626C276.23 102.815 272.98 101.824 270.494 101.654C269.807 100.904 269.524 100.154 269.643 99.4026L269.955 98.2254L270.266 97.0482C271.061 96.7479 271.982 96.2483 273.029 95.5496L275.957 93.6861C278.515 91.9119 280.323 90.8246 281.383 90.4241C282.774 90.1 284.337 90.3665 286.074 91.2234L287.036 91.7676L287.999 92.3118C288.762 92.7295 289.475 93.0147 290.138 93.1676L291.731 93.7764C292.339 94.0509 292.859 94.3588 293.29 94.7C294.397 95.4924 294.947 96.5458 294.939 97.8602ZM357.42 61.5262C358.171 61.6457 358.848 62.9031 359.451 65.2984L359.97 67.0698L360.355 68.8914C360.746 70.4588 361.098 71.7889 361.41 72.8816C360.396 73.6686 358.465 74.2978 355.616 74.7694C350.241 76.2971 344.839 78.2887 339.411 80.7444L336.151 82.1283L332.941 83.6447C330.536 84.7557 328.45 85.645 326.685 86.3125C312.377 93.0335 302.159 97.0981 296.032 98.5063C294.918 99.0285 294.06 98.0919 293.457 95.6965C293.145 94.6039 292.689 91.3963 292.089 86.0738C296.307 85.4881 300.595 84.4218 304.954 82.8747C306.631 82.2406 308.513 81.4789 310.598 80.5897L316.059 78.2223L321.123 76.0051L326.137 73.6555L336.348 69.0386C344.424 65.5817 351.448 63.0775 357.42 61.5262ZM152.249 316.077C156.898 324.106 157.829 333.239 155.039 343.474C153.967 347.31 152.306 351.722 150.054 356.71L146.907 363.196L143.925 369.318C141.442 374.494 139.32 378.222 137.559 380.503C134.719 384.199 131.423 386.555 127.67 387.571C123.266 388.731 119.513 389.746 116.412 390.616C115.142 390.995 113.291 390.636 110.858 389.538C108.614 388.671 106.932 387.693 105.813 386.602C103.352 383.295 101.53 379.141 100.345 374.14C99.4734 370.233 99.0417 365.755 99.0503 360.707C100.07 349.526 102.322 340.805 105.806 334.543C108.06 330.362 110.574 326.738 113.349 323.671C114.208 322.74 115.172 321.821 116.241 320.912L116.803 320.397L117.415 320.015C117.702 319.705 117.916 319.472 118.06 319.317C119.097 319.126 120.561 319.128 122.45 319.322L124.787 319.498L127.124 319.674C130.463 321.034 132.498 324.149 133.229 329.019C133.246 330.93 133.065 333.52 132.687 336.791L132.249 340.437C132.065 341.818 131.997 343.105 132.044 344.298L135.017 346.958C134.709 347.478 131.895 348.441 126.575 349.847C125.924 349.992 125.245 350.198 124.539 350.465L122.817 351.116C121.615 351.672 120.759 351.944 120.251 351.935C118.97 352.016 118.374 350.173 118.464 346.406C118.44 345.809 118.608 344.787 118.969 343.339L119.428 341.35L119.886 339.36C120.55 335.78 120.097 333.378 118.525 332.156C113.899 341.271 112.146 350.913 113.267 361.083C113.855 366.107 114.911 370.501 116.434 374.263C118.346 378.787 120.589 381.117 123.163 381.254C128.967 374.721 133.696 367.081 137.351 358.334C140.49 350.892 142.281 345.221 142.723 341.32C143.416 336.215 142.743 330.164 140.703 323.166C138.412 317.374 133.849 314.912 127.014 315.78C125.766 315.949 124.226 316.279 122.394 316.77L117.641 317.81C113.557 318.749 110.261 319.238 107.754 319.278C98.8894 317.181 94.103 311.726 93.3946 302.914C93.1329 300.087 93.3234 296.988 93.9661 293.617L94.3423 291.81C94.3854 291.39 94.5167 290.937 94.7363 290.451C95.0205 289.334 95.146 288.732 95.1126 288.644C96.0201 285.173 97.9944 279.987 101.036 273.086C103.189 268.64 105.869 265.054 109.076 262.328C111.82 259.979 114.208 258.824 116.241 258.863L117.83 258.262C118.746 258.017 119.651 257.876 120.546 257.841C123.108 257.679 125.391 258.38 127.394 259.943C130.917 263.656 133.134 268.72 134.046 275.135C134.384 277.631 134.541 280.447 134.516 283.584C134.565 285.583 134.479 288.29 134.256 291.703C129.336 294.169 126.286 295.574 125.105 295.92C123.626 296.277 122.972 295.616 123.144 293.937L123.5 290.473L123.887 286.694C124.222 283.843 124.348 281.374 124.265 279.287C124.128 273.588 122.63 268.958 119.771 265.398L119.173 265.018L118.526 264.507C117.884 264.144 117.437 264.162 117.184 264.56C108.945 277.461 105.566 290.14 107.046 302.596C107.42 305.986 109.343 308.538 112.816 310.251C115.647 311.602 119.04 312.035 122.993 311.55C124.45 311.402 126.2 311.094 128.243 310.624L130.776 310.12L133.26 309.484C141.617 307.838 147.947 310.036 152.249 316.077ZM178.669 239.801C178.559 240.045 178.34 240.531 178.01 241.261L177.598 242.173L177.237 243.218C176.435 244.833 175.548 245.824 174.577 246.191C176.127 247.623 177.508 249.674 178.719 252.344C181.594 261.548 183.674 273.323 184.961 287.668L185.713 296.464L186.466 305.26C187.092 311.985 187.814 317.766 188.633 322.601C189.25 326.101 190.331 329.627 191.876 333.18C192.339 332.803 192.972 332.211 193.777 331.402L194.983 330.189L196.189 328.977C198.458 326.706 200.288 325.006 201.676 323.875C206.095 320.086 208.739 319.339 209.607 321.634C209.733 323.301 209.832 325.433 209.905 328.029L209.897 331.21L209.889 334.391C210.091 339.46 211.069 343.782 212.824 347.356C211.676 347.79 210.452 348.556 209.152 349.653L207.416 351.066L206.077 352.329C203.851 354.179 202.117 354.532 200.877 353.386C199.909 350.826 199.322 348.072 199.115 345.123L198.973 341.545C198.881 339.965 198.8 338.684 198.731 337.702C198.664 337.525 197.761 338.472 196.021 340.542C197.187 342.825 196.662 344.638 194.445 345.981L192.874 347.029L191.253 347.944C189.886 348.865 188.911 349.889 188.328 351.017C187.722 351.549 186.761 351.408 185.444 350.594C182.163 354.458 178.163 360.157 173.445 367.692C171.348 368.283 169.599 367.128 168.2 364.227C171.41 358.574 175.761 351.935 181.252 344.31C179.054 340.096 177.411 335.218 176.325 329.676C175.856 327.634 175.429 325.172 175.046 322.29L173.95 314.986C173.443 311.243 172.938 306.439 172.436 300.575L171.887 293.519L171.288 286.329C170.12 274.966 168.084 265.445 165.181 257.765C161.485 259.465 158.16 261.478 155.206 263.806L153.746 263.147C153.226 262.839 152.75 262.515 152.318 262.173C151.178 261.293 150.341 260.146 149.807 258.734C155.639 254.41 161.091 248.414 166.162 240.746C170.323 239.476 173.6 238.136 175.993 236.727C177.847 236.026 178.739 237.051 178.669 239.801ZM212.354 251.584C213.501 251.15 214.495 250.976 215.335 251.062C216.506 251.225 217.397 251.846 218.007 252.927C220.649 257.78 223.88 263.924 227.699 271.359L232.413 280.625L237.31 289.973C245.037 304.809 251.972 316.615 258.115 325.391C258.149 325.479 257.763 325.927 256.959 326.736C256.012 327.699 254.959 328.652 253.802 329.594C250.595 332.32 248.025 333.796 246.093 334.022C239.883 325.069 232.83 312.551 224.934 296.468L220.07 286.805L215.388 277.224C211.723 269.932 208.415 263.717 205.463 258.578C200.879 262.732 197.369 265.724 194.933 267.553C202.628 270.294 208.441 273.393 212.372 276.851C212.517 277.502 211.301 279.223 208.724 282.014C206.18 284.892 204.389 286.427 203.351 286.617C197.396 281.806 190.196 278.374 181.751 276.32L181.122 276.255L180.127 276.026C179.342 275.818 178.69 275.56 178.17 275.253C176.466 274.484 175.817 273.166 176.22 271.298C177.036 270.788 177.88 270.217 178.751 269.585L180.966 267.839C182.73 266.365 184.169 265.367 185.283 264.845C186.807 264.874 188.341 264.395 189.885 263.408C191.054 262.764 192.327 261.728 193.704 260.299L219.068 234.517C224.179 229.356 229.995 225.391 236.516 222.623L236.913 222.473L237.36 222.455C237.835 222.377 238.283 222.359 238.702 222.402C239.874 222.565 240.632 223.236 240.978 224.417C241.724 226.658 242.349 229.246 242.854 232.183L243.461 236.191L244.069 240.199C244.904 246.946 246.172 252.167 247.872 255.863C247.829 256.283 246.253 257.585 243.144 259.769C239.858 262.02 237.305 263.54 235.484 264.329C233.751 260.545 232.473 255.429 231.649 248.98L231.274 245.187L230.767 241.444C230.384 238.562 229.93 236.161 229.406 234.24C227.301 236.146 224.371 239.07 220.615 243.012L218.335 245.388L216.137 247.581C214.562 249.286 213.301 250.62 212.354 251.584ZM323.357 261.377C324.906 274.815 321.267 285.473 312.441 293.35C308.838 296.629 306.083 299.083 304.176 300.712C300.936 303.35 297.959 305.484 295.246 307.115C288.42 311.209 281.543 312.901 274.615 312.191C271.467 311.868 268.591 310.533 265.989 308.188C263.542 305.985 261.795 303.366 260.749 300.332L260.398 299.405L260.18 298.428C259.913 297.722 259.718 296.938 259.594 296.077C259.158 294.123 258.97 292.024 259.031 289.782C259.235 283.651 261.06 276.201 264.505 267.433C262.649 267.327 260.628 267.587 258.443 268.211C256.117 266.063 254.894 263.095 254.774 259.307C254.589 252.415 255.336 244.515 257.013 235.608C257.601 232.359 258.436 228.562 259.518 224.218L260.861 218.565L262.122 213.094C263.366 211.312 265.956 209.223 269.893 206.827C271.205 206.028 272.666 205.223 274.277 204.412C274.861 204.091 275.446 203.769 276.031 203.447L276.775 203.014L277.305 202.814C280.01 202.497 282.101 203.624 283.577 206.194C286.721 213.177 288.059 223.921 287.59 238.425L287.243 238.708L286.945 239.123L286.086 240.053C285.282 240.862 284.461 241.626 283.624 242.346C281.111 244.507 278.438 246.375 275.603 247.951C274.086 246.608 273.272 245.655 273.16 245.092C275.218 238.26 275.463 230.903 273.896 223.02C273.906 222.512 273.755 222.115 273.445 221.828C273.102 221.454 272.804 221.466 272.551 221.864C269.689 225.771 268.099 231.972 267.779 240.467C267.666 243.637 267.746 246.785 268.02 249.91C268.281 252.737 268.635 254.874 269.081 256.319C270.517 256.382 272.433 256.112 274.828 255.509L277.759 254.855L279.133 254.487L280.375 254.168C281.06 254.111 281.695 254.325 282.282 254.809C282.814 255.416 283.003 256.05 282.85 256.713C278.028 262.371 274.985 268.868 273.724 276.206C272.343 284.295 273.774 291.018 278.019 296.375C280.29 298.644 283.182 300.023 286.696 300.511C290.21 300.998 293.262 300.399 295.853 298.713C300.893 295.496 304.526 291.096 306.753 285.512C308.783 280.204 309.419 274.415 308.662 268.143C304.647 266.331 301.397 265.34 298.912 265.17C298.225 264.421 297.941 263.67 298.061 262.919L298.372 261.742L298.684 260.565C299.478 260.264 300.399 259.765 301.447 259.066L304.374 257.202C306.932 255.428 308.741 254.341 309.8 253.94C311.191 253.616 312.755 253.883 314.491 254.74L315.454 255.284L316.416 255.828C317.18 256.246 317.893 256.531 318.556 256.684L320.148 257.293C320.756 257.567 321.276 257.875 321.708 258.216C322.815 259.009 323.364 260.062 323.357 261.377ZM350.98 275.753L348.897 277.449C347.222 278.889 345.828 280.274 344.716 281.602C343.404 282.401 342.449 282.409 341.85 281.626C340.886 280.679 339.049 279.154 336.337 277.052C334.281 276.417 337.264 272.565 345.286 265.496C346.047 265.107 347.015 265.397 348.188 266.366C349.051 267.049 350.048 268.084 351.179 269.473C351.866 270.222 352.403 270.978 352.792 271.739C353.247 272.676 353.365 273.389 353.146 273.875L350.98 275.753ZM238.399 459.886C237.065 460.895 234.413 462.553 230.442 464.861L227.994 466.392L225.629 467.741C223.82 468.828 222.464 469.643 221.559 470.187C222.994 473.983 225.497 478.334 229.067 483.24L233.839 489.457L236.25 492.631L238.561 495.541L238.943 496.153L239.326 496.765C239.736 497.317 239.947 497.741 239.959 498.039C240.15 499.077 239.379 499.974 237.647 500.73C236.611 501.727 235.101 502.802 233.115 503.956L230.8 505.437C229.841 506.102 228.97 506.734 228.187 507.333C222.227 500.909 216.511 492.729 211.039 482.791L210.606 482.047L210.356 481.384L209.823 480.375C206.679 486.205 202.963 494.521 198.673 505.324L193.373 518.527C191.332 523.536 189.471 527.822 187.791 531.383L186.191 533.955L184.59 536.528C183.259 538.343 181.622 539.617 179.68 540.352L177.564 542.362L175.399 544.24C173.547 545.747 171.693 546.448 169.837 546.343C167.681 545.443 166.131 544.011 165.187 542.047C164.564 540.668 164.189 538.742 164.061 536.268C163.838 531.408 164.159 525.586 165.025 518.802L166.294 510.15L167.563 501.498C159.654 505.396 153.171 507.998 148.116 509.304C147.023 509.616 145.407 508.411 143.268 505.688L153.831 496.398L154.825 496.627C156.899 495.44 159.507 493.798 162.649 491.702L166.354 489.091L170.24 486.562C171.253 481.235 172.579 475.134 174.218 468.26L176.496 459.074L178.907 449.839C182.864 434.42 185.505 422.323 186.829 413.549C186.881 412.621 186.839 411.174 186.701 409.208L197.714 401.11C199.351 401.702 200.597 402.997 201.453 404.994C201.72 405.7 201.992 406.555 202.271 407.56L202.589 408.801L202.908 410.043L204.516 416.699L206.174 423.488C207.547 428.72 208.741 433.213 209.756 436.965C212.611 447.186 215.611 455.788 218.756 462.772L219.006 463.434C219.106 463.699 219.129 463.892 219.074 464.014L222.929 461.8L226.966 459.668C230.242 457.925 232.723 456.483 234.41 455.34C235.283 455.515 236.036 456.037 236.668 456.908L237.351 458.315C237.794 458.954 238.144 459.478 238.399 459.886ZM194.595 436.492C191.66 446.077 188.135 459.971 184.02 478.174C186.854 476.598 190.152 474.645 193.912 472.316L198.758 469.122L203.654 466.06C202.174 461.877 200.603 456.922 198.942 451.194L196.768 443.843L194.595 436.492ZM202.894 472.855C201.493 473.687 199.745 474.802 197.65 476.199L194.855 478.013L192.06 479.826C187.605 482.721 184.379 484.597 182.382 485.452L182.056 487.392L200.799 476.522L202.894 472.855ZM195.74 486.759C193.612 488.068 191.114 489.466 188.246 490.954L180.701 495.017C177.658 509.385 176.803 522.068 178.136 533.066C178.401 532.966 179.387 529.969 181.094 524.077C182.145 520.452 183.256 516.853 184.429 513.282C186.15 508.495 188.136 503.607 190.387 498.62L195.74 486.759ZM299.283 417.648C298.915 420.41 297.712 422.832 295.674 424.914C294.87 425.723 293.917 426.537 292.814 427.358L291.425 428.488L289.987 429.486C281.385 434.756 274.277 438.906 268.663 441.937C278.928 443.201 287.521 445.249 294.444 448.081C303.732 451.833 310.468 457.106 314.65 463.899L315.083 464.644L315.616 465.653C316.071 466.591 316.51 467.484 316.932 468.334C317.988 470.86 318.502 472.886 318.473 474.41C317.036 474.348 315.247 474.419 313.105 474.623L310.471 474.862L307.837 475.101C303.641 475.477 300.205 475.061 297.528 473.853C296.307 471.692 295.038 469.801 293.719 468.18L292.073 466.23L290.56 464.229C286.694 460.141 281.233 456.505 274.178 453.321C267.244 450.192 262.148 448.99 258.892 449.717C262.343 459.914 265.52 468.449 268.421 475.323C272.412 484.812 276.482 492.908 280.631 499.613C280.843 500.441 275.33 501.87 264.09 503.899C255.637 490.346 247.725 472.755 240.355 451.125C239.957 450.872 239.426 450.669 238.763 450.516L238.001 450.502L237.321 450.305C236.116 450.054 235.358 449.382 235.046 448.29C235.01 447.395 235.306 446.577 235.934 445.835C236.452 445.337 237.135 444.876 237.985 444.454C235.915 438.981 234.079 433.723 232.475 428.679L231.406 425.451L230.469 422.173C229.544 419.193 228.809 416.848 228.263 415.137L226.291 415.126L224.187 415.165C222.663 415.136 221.342 414.979 220.226 414.695C219.728 414.177 219.4 413.443 219.243 412.494C219.052 411.456 219.138 410.616 219.501 409.975L226.748 406.327C226.946 406.05 227.094 405.641 227.192 405.1L227.207 404.337C227.371 403.972 227.553 403.652 227.751 403.375C231.131 403.509 235.62 402.973 241.217 401.765L244.463 401.143L247.709 400.521C250.116 400.217 252.275 400.056 254.186 400.04C269.208 400.011 281.398 402.364 290.755 407.1C292.856 408.121 294.766 409.569 296.483 411.442C298.422 413.635 299.355 415.703 299.283 417.648ZM281.352 416.254C281.273 415.78 281.056 415.206 280.701 414.533C280.379 413.948 280.063 413.513 279.753 413.226C275.613 409.747 270.234 407.795 263.616 407.371C257.595 406.924 251.76 407.768 246.11 409.904L253.832 435.133L257.655 433.234L261.559 431.153C264.604 429.598 267.163 428.227 269.236 427.04C274.893 423.589 278.932 419.994 281.352 416.254ZM314.22 387.332C315.368 386.898 316.361 386.724 317.201 386.81C318.372 386.973 319.263 387.595 319.874 388.675C322.516 393.528 325.746 399.672 329.566 407.107L334.28 416.373L339.176 425.721C346.904 440.557 353.839 452.363 359.982 461.139C360.015 461.227 359.63 461.675 358.826 462.484C357.878 463.447 356.826 464.4 355.669 465.342C352.462 468.068 349.892 469.544 347.96 469.77C341.75 460.817 334.697 448.299 326.8 432.216L321.936 422.553L317.255 412.972C313.59 405.681 310.282 399.465 307.33 394.326C302.746 398.48 299.236 401.472 296.8 403.301C304.495 406.042 310.308 409.141 314.238 412.599C314.384 413.25 313.168 414.971 310.59 417.762C308.047 420.64 306.256 422.175 305.218 422.366C299.262 417.555 292.062 414.122 283.618 412.068L282.988 412.004L281.993 411.774C281.209 411.566 280.556 411.309 280.036 411.001C278.333 410.232 277.683 408.914 278.087 407.046C278.903 406.536 279.747 405.965 280.618 405.333L282.833 403.587C284.596 402.113 286.035 401.115 287.149 400.593C288.674 400.622 290.208 400.143 291.752 399.156C292.921 398.512 294.194 397.476 295.571 396.047L320.934 370.265C326.046 365.104 331.862 361.139 338.383 358.371L338.78 358.221L339.227 358.203C339.702 358.125 340.149 358.107 340.569 358.15C341.74 358.313 342.499 358.984 342.844 360.165C343.59 362.406 344.216 364.994 344.721 367.931L345.328 371.939L345.935 375.947C346.771 382.694 348.038 387.915 349.738 391.611C349.695 392.031 348.119 393.333 345.01 395.517C341.725 397.768 339.172 399.288 337.351 400.077C335.618 396.293 334.339 391.177 333.516 384.729L333.141 380.935L332.634 377.192C332.251 374.31 331.797 371.909 331.273 369.988C329.168 371.894 326.238 374.818 322.482 378.76L320.201 381.136L318.004 383.329C316.429 385.034 315.168 386.368 314.22 387.332Z" fill="url(#paint0_linear_118_5742)"/>
<defs>
<linearGradient id="paint0_linear_118_5742" x1="178.393" y1="109.282" x2="516.374" y2="628.527" gradientUnits="userSpaceOnUse">
<stop stop-color="#131313"/>
<stop offset="0.5" stop-color="#2B5D9A"/>
<stop offset="1" stop-color="#67BDFF"/>
</linearGradient>
</defs>
</svg>
