<svg width="313" height="354" viewBox="0 0 313 354" fill="none" xmlns="http://www.w3.org/2000/svg">
<path d="M52.8793 132.971C57.6752 141.504 58.9836 148.886 56.8048 155.116C54.456 159.666 51.0031 163.064 46.4462 165.31C43.6625 166.711 40.9989 166.585 38.4552 164.931C33.1453 161.648 27.927 154.611 22.8006 143.819C21.0726 140.171 19.4196 136.029 17.8416 131.394C17.3156 129.849 16.8185 128.38 16.3502 126.988C16.2088 126.46 16.0611 125.993 15.9073 125.586C15.8428 125.261 15.7913 125.048 15.7529 124.946C13.376 116.661 12.0644 110.501 11.8181 106.467L11.74 105.799L11.6618 105.131L11.5632 103.947C11.5291 103.088 11.686 102.273 12.0339 101.502C12.1673 101.394 12.3927 101.221 12.7103 100.985L13.1104 100.659L13.5104 100.334C14.1772 99.7909 14.4014 99.1539 14.1831 98.4226L15.2697 97.8374L16.2801 97.281C17.0554 96.8717 17.6273 96.5392 17.9957 96.2837C19.1202 95.5679 20.3771 95.5868 21.7665 96.3404C22.2255 96.6319 22.7483 97.0155 23.3351 97.4912L24.1101 98.1574L24.8088 98.8523C27.0101 100.985 29.4139 103.883 32.0202 107.548L33.6111 109.912L35.2784 112.246L38.5943 117.096C38.3356 117.949 37.4955 119.11 36.0739 120.577C34.6523 122.045 33.6426 122.833 33.0447 122.943C32.4468 123.053 31.9369 122.781 31.5151 122.126C30.6784 120.989 29.7167 119.522 28.63 117.724L25.8212 113.293C23.5461 109.735 21.4419 107.014 19.5086 105.129C20.4545 113.781 23.1533 123.457 27.6049 134.155C32.0249 144.924 36.7323 152.532 41.7272 156.98C42.7606 157.868 43.8283 158.54 44.9305 158.995C46.3131 159.577 47.5734 159.681 48.7115 159.309C49.3343 158.958 49.7818 158.527 50.0541 158.017C50.1489 157.807 50.2438 157.597 50.3387 157.386L50.4234 156.918C51.1912 153.722 50.9654 150.203 49.746 146.362C48.8218 143.456 47.273 140.205 45.0996 136.609L44.7451 136.133L44.3432 135.762C44.1261 135.495 43.8265 135.318 43.4445 135.23C42.5513 134.405 42.5014 133.581 43.2947 132.758C46.2768 129.421 48.5676 128.177 50.1673 129.026C51.2719 130.41 52.176 131.725 52.8793 132.971ZM81.2511 98.0915C86.9711 104.765 89.1191 113.137 87.6951 123.209C87.0148 128.174 85.4887 132.21 83.1169 135.316C80.4344 138.829 76.3247 141.72 70.7877 143.988C69.1286 144.673 67.2483 144.774 65.1469 144.289C63.1857 143.868 61.1615 142.512 59.0744 140.22C58.353 139.388 57.6633 138.486 57.0052 137.514C56.4556 136.676 56.0751 135.977 55.8636 135.417C54.1535 131.355 52.8966 126.57 52.0927 121.061C51.8197 118.955 51.6805 115.665 51.6748 111.191C51.712 106.062 52.0084 102.695 52.5642 101.089C52.7595 100.376 53.2703 99.8052 54.0965 99.3766L54.0658 98.6035L54.1113 97.8015C54.1225 97.216 54.2292 96.6525 54.4314 96.111C54.8798 94.8371 55.8923 93.902 57.469 93.3059L58.5947 93.0547L59.5391 92.7849C60.2703 92.5666 60.8009 92.2788 61.1309 91.9215C64.2638 90.2139 67.926 90.1373 72.1176 91.6916C75.7169 93.0629 78.7614 95.1962 81.2511 98.0915ZM79.6168 125.827C80.6066 119.988 80.0859 114.46 78.0545 109.24C75.8569 103.735 72.3553 99.6236 67.5496 96.9064C65.7012 95.8613 64.0232 95.4203 62.5153 95.5834C62.3076 96.4177 62.253 97.4265 62.3516 98.6099C62.4118 99.6916 62.538 100.487 62.7303 100.995C64.583 106.05 68.4348 111.395 74.2857 117.03C74.1014 117.158 73.8664 117.305 73.5804 117.471C73.3137 117.688 73.012 117.89 72.6752 118.075C71.8366 118.625 71.0551 119.094 70.3307 119.485C68.3292 120.648 66.991 121.183 66.3162 121.089C65.2772 120.494 64.1896 119.539 63.0533 118.225C62.5683 117.711 62.0798 117.111 61.588 116.425C61.2431 115.974 60.8248 115.405 60.3329 114.719C60.9973 122.781 62.4264 128.867 64.6202 132.979C65.215 134.091 65.9563 135.206 66.8438 136.323C68.7207 138.52 70.5595 139.54 72.36 139.382C74.2307 139.256 76.0064 136.957 77.6872 132.485C78.5277 130.249 79.1708 128.03 79.6168 125.827ZM121.636 72.7092C122.345 73.6619 122.94 75.0063 123.422 76.7423C123.918 78.822 124.144 81.2652 124.1 84.0718C123.993 91.3206 122.065 99.9839 118.318 110.062C114.767 119.426 113.157 125.238 113.487 127.496C112.966 127.809 111.758 128.15 109.862 128.518C108.768 128.699 107.856 128.898 107.124 129.117C105.897 129.406 104.724 129.763 103.605 130.186C101.516 124.814 99.1066 116.366 96.3774 104.842C95.8694 102.883 95.3738 100.803 94.8906 98.6026C94.5365 97.0507 94.1212 95.2604 93.6448 93.2316C92.795 89.6 92.3283 87.5967 92.2445 87.2214C86.787 90.6216 82.4177 92.8257 79.1366 93.8337C77.3181 94.4049 75.6378 94.3426 74.0959 93.6467C75.1037 87.3946 76.2365 81.4731 77.4944 75.8822C77.5768 75.7929 77.7102 75.6844 77.8944 75.5566C78.1611 75.3395 78.4278 75.1224 78.6945 74.9053C79.4822 74.375 80.2795 73.8701 81.0865 73.3907C83.4949 72.0732 85.5107 71.4855 87.1339 71.6275L86.8241 73.5757L86.5906 75.4951L86.0845 78.9998C85.6907 81.6483 85.2612 84.0486 84.796 86.2009L86.3878 85.3375L87.9034 84.5029C89.0155 83.9081 89.8795 83.3489 90.4954 82.8254C90.4365 82.2083 90.1701 81.3499 89.6962 80.2502L89.2059 78.9532L88.8681 77.5986C89.4648 77.0243 90.7837 76.4384 92.825 75.8411L94.1033 75.5322L95.4291 75.1182C96.4339 74.8546 97.1747 74.6617 97.6517 74.5395C97.9743 76.1614 98.3656 77.3504 98.8259 78.1065C105.923 73.97 112.45 71.706 118.405 71.3146C119.92 71.3233 120.997 71.7881 121.636 72.7092ZM113.689 77.9808C113.26 77.1546 112.657 76.7139 111.881 76.6587C110.303 76.7902 108.408 77.3903 106.196 78.459C105.351 78.8368 104.347 79.3327 103.184 79.9467L100.105 81.721C100.247 82.2488 100.678 84.0041 101.398 86.9869C101.803 88.5195 102.141 89.8741 102.412 91.0507C102.804 92.7043 103.184 94.2465 103.55 95.6774C105.673 104.059 107.367 110.307 108.631 114.422C112.149 104.198 114.206 96.4157 114.802 91.0748C115.316 85.8231 114.945 81.4585 113.689 77.9808ZM169.927 86.0166C170.819 93.7591 168.723 99.8996 163.637 104.438C161.561 106.327 159.974 107.741 158.876 108.68C157.009 110.199 155.294 111.429 153.731 112.369C149.798 114.727 145.836 115.702 141.845 115.293C140.03 115.107 138.374 114.338 136.875 112.986C135.465 111.717 134.458 110.209 133.855 108.46L133.654 107.926L133.528 107.363C133.374 106.956 133.262 106.505 133.19 106.009C132.939 104.883 132.831 103.674 132.865 102.382C132.983 98.8499 134.035 94.5578 136.019 89.5058C134.95 89.4451 133.786 89.5945 132.527 89.9543C131.187 88.7169 130.482 87.0069 130.413 84.8243C130.307 80.8535 130.737 76.3021 131.703 71.1702C132.042 69.2983 132.523 67.111 133.146 64.6083L133.92 61.351L134.647 58.1989C135.363 57.1724 136.855 55.9688 139.124 54.5881C139.88 54.1279 140.722 53.6642 141.649 53.1972C141.986 53.0117 142.323 52.8263 142.66 52.6408L143.089 52.3915L143.394 52.2761C144.953 52.0937 146.157 52.7428 147.007 54.2233C148.819 58.2468 149.59 64.4369 149.32 72.7935L149.12 72.9563L148.948 73.1954L148.453 73.7313C147.99 74.1971 147.517 74.6375 147.035 75.0524C145.587 76.2973 144.047 77.3737 142.414 78.2818C141.54 77.5077 141.07 76.9585 141.006 76.6341C142.192 72.698 142.333 68.4593 141.43 63.9178C141.436 63.6251 141.349 63.3962 141.17 63.2312C140.973 63.0154 140.801 63.0222 140.655 63.2517C139.006 65.5026 138.09 69.0752 137.906 73.9696C137.841 75.7962 137.887 77.6098 138.045 79.4104C138.195 81.0391 138.399 82.27 138.656 83.103C139.483 83.139 140.587 82.9833 141.967 82.6359L143.656 82.2591L144.447 82.047L145.163 81.8637C145.557 81.8308 145.924 81.9539 146.262 82.233C146.568 82.5822 146.677 82.9479 146.589 83.3299C143.81 86.5894 142.058 90.3329 141.331 94.5605C140.535 99.221 141.36 103.094 143.806 106.181C145.114 107.488 146.78 108.282 148.805 108.563C150.829 108.844 152.588 108.499 154.081 107.528C156.984 105.674 159.077 103.139 160.361 99.922C161.53 96.8642 161.896 93.5285 161.46 89.9149C159.147 88.8711 157.275 88.3002 155.843 88.2022C155.447 87.7705 155.283 87.3382 155.352 86.9052L155.532 86.227L155.711 85.5488C156.169 85.3757 156.7 85.0879 157.303 84.6854L158.99 83.6117C160.464 82.5895 161.506 81.9631 162.116 81.7323C162.917 81.5456 163.818 81.6991 164.819 82.1928L165.373 82.5064L165.928 82.8199C166.368 83.0605 166.778 83.2249 167.161 83.313L168.078 83.6637C168.428 83.8219 168.728 83.9993 168.977 84.1959C169.614 84.6524 169.931 85.2593 169.927 86.0166ZM205.924 65.083C206.357 65.1519 206.747 65.8763 207.095 67.2563L207.393 68.277L207.616 69.3264C207.841 70.2295 208.043 70.9958 208.223 71.6254C207.639 72.0788 206.526 72.4413 204.885 72.713C201.788 73.5931 198.676 74.7406 195.549 76.1554L193.67 76.9528L191.821 77.8264C190.435 78.4665 189.234 78.9789 188.217 79.3634C179.973 83.2357 174.086 85.5775 170.556 86.3888C169.914 86.6897 169.42 86.1501 169.072 84.77C168.893 84.1405 168.63 82.2924 168.284 79.2259C170.714 78.8885 173.185 78.2741 175.697 77.3828C176.663 77.0175 177.747 76.5786 178.948 76.0663L182.095 74.7024L185.012 73.4249L187.901 72.0712L193.784 69.4112C198.437 67.4196 202.484 65.9768 205.924 65.083ZM87.7479 211.824C90.4268 216.449 90.9627 221.711 89.3557 227.608C88.738 229.818 87.7806 232.36 86.4837 235.234L84.6705 238.971L82.9521 242.498C81.5219 245.48 80.2994 247.628 79.2847 248.942C77.6485 251.072 75.7493 252.429 73.5871 253.014C71.0497 253.683 68.8875 254.268 67.1006 254.769C66.3694 254.987 65.3028 254.78 63.9011 254.147C62.6079 253.648 61.639 253.084 60.9946 252.456C59.5767 250.551 58.5266 248.157 57.8443 245.276C57.3419 243.025 57.0931 240.445 57.098 237.537C57.6854 231.095 58.9829 226.07 60.9906 222.463C62.2887 220.054 63.7373 217.966 65.3362 216.199C65.8312 215.663 66.3866 215.133 67.0025 214.609L67.3263 214.313L67.6789 214.092C67.8439 213.914 67.9676 213.78 68.0501 213.69C68.648 213.58 69.4912 213.581 70.5798 213.693L71.926 213.794L73.2723 213.896C75.1963 214.68 76.3689 216.474 76.79 219.28C76.7994 220.381 76.6952 221.873 76.4775 223.758L76.2254 225.858C76.1193 226.654 76.08 227.396 76.1072 228.083L77.8201 229.615C77.6427 229.915 76.0214 230.47 72.9561 231.28C72.5809 231.363 72.1898 231.482 71.7829 231.636L70.7912 232.011C70.0983 232.331 69.6056 232.488 69.3128 232.483C68.5747 232.529 68.2314 231.467 68.2829 229.297C68.2692 228.954 68.3663 228.365 68.574 227.53L68.8383 226.384L69.1025 225.238C69.4851 223.175 69.2237 221.792 68.3181 221.088C65.653 226.339 64.6433 231.894 65.289 237.753C65.6277 240.648 66.2359 243.179 67.1135 245.347C68.2151 247.953 69.5074 249.296 70.9904 249.375C74.3341 245.611 77.0588 241.209 79.1645 236.17C80.9731 231.882 82.0049 228.614 82.2598 226.367C82.6592 223.426 82.2712 219.94 81.0958 215.908C79.7758 212.571 77.1469 211.152 73.209 211.653C72.4901 211.75 71.6029 211.94 70.5472 212.223L67.8091 212.822C65.4559 213.363 63.557 213.645 62.1125 213.668C57.0054 212.46 54.2477 209.317 53.8395 204.24C53.6888 202.611 53.7986 200.826 54.1688 198.884L54.3856 197.842C54.4104 197.601 54.4861 197.339 54.6126 197.059C54.7763 196.416 54.8486 196.069 54.8294 196.018C55.3522 194.018 56.4897 191.031 58.2419 187.055C59.4823 184.493 61.0264 182.427 62.8741 180.857C64.4551 179.503 65.8311 178.838 67.0021 178.86L67.9176 178.514C68.4455 178.372 68.9671 178.292 69.4825 178.271C70.9587 178.178 72.2739 178.582 73.4282 179.482C75.4577 181.622 76.7351 184.539 77.2605 188.235C77.4553 189.673 77.5455 191.296 77.5313 193.103C77.5598 194.255 77.5099 195.814 77.3815 197.781C74.547 199.201 72.7896 200.011 72.1092 200.21C71.257 200.416 70.8805 200.035 70.9797 199.068L71.1843 197.072L71.4076 194.895C71.6005 193.252 71.673 191.83 71.6253 190.627C71.5465 187.344 70.6834 184.676 69.036 182.625L68.6917 182.407L68.3187 182.112C67.949 181.903 67.6913 181.913 67.5455 182.142C62.7989 189.575 60.852 196.88 61.7049 204.056C61.9201 206.009 63.0282 207.48 65.0291 208.467C66.6604 209.246 68.6148 209.495 70.8923 209.215C71.7321 209.13 72.7404 208.952 73.917 208.682L75.3767 208.392L76.8076 208.025C81.6226 207.077 85.2693 208.343 87.7479 211.824ZM102.97 167.878C102.906 168.018 102.78 168.298 102.59 168.719L102.353 169.245L102.145 169.847C101.682 170.777 101.172 171.348 100.612 171.559C101.505 172.384 102.301 173.566 102.999 175.104C104.655 180.407 105.853 187.191 106.595 195.456L107.028 200.524L107.462 205.591C107.822 209.466 108.239 212.796 108.711 215.583C109.066 217.599 109.689 219.631 110.579 221.677C110.846 221.46 111.211 221.119 111.674 220.653L112.369 219.954L113.064 219.256C114.371 217.947 115.425 216.968 116.225 216.317C118.771 214.133 120.294 213.703 120.794 215.025C120.867 215.986 120.924 217.214 120.966 218.709L120.962 220.542L120.957 222.375C121.073 225.296 121.637 227.786 122.648 229.845C121.987 230.095 121.281 230.536 120.532 231.168L119.532 231.982L118.761 232.71C117.478 233.776 116.479 233.979 115.765 233.319C115.207 231.844 114.869 230.257 114.75 228.558L114.668 226.497C114.615 225.587 114.568 224.849 114.528 224.282C114.49 224.181 113.969 224.726 112.967 225.919C113.639 227.234 113.336 228.279 112.059 229.052L111.154 229.656L110.22 230.184C109.432 230.714 108.87 231.304 108.535 231.954C108.186 232.261 107.632 232.179 106.873 231.711C104.983 233.937 102.678 237.22 99.9598 241.561C98.7516 241.902 97.7443 241.236 96.938 239.565C98.7875 236.308 101.294 232.483 104.458 228.09C103.191 225.662 102.245 222.852 101.619 219.659C101.349 218.482 101.103 217.063 100.882 215.403L100.251 211.195C99.9586 209.038 99.6679 206.271 99.3789 202.892L99.0625 198.827L98.7173 194.685C98.0443 188.138 96.8713 182.652 95.1985 178.227C93.0692 179.207 91.1536 180.367 89.4516 181.708L88.6106 181.328C88.311 181.151 88.0368 180.964 87.7881 180.767C87.1313 180.26 86.649 179.6 86.3414 178.786C89.7012 176.295 92.8421 172.84 95.764 168.422C98.1613 167.69 100.049 166.918 101.428 166.107C102.496 165.703 103.01 166.293 102.97 167.878ZM122.377 174.666C123.038 174.416 123.611 174.316 124.094 174.366C124.769 174.459 125.282 174.818 125.634 175.44C127.156 178.236 129.018 181.776 131.218 186.06L133.934 191.398L136.755 196.784C141.207 205.331 145.203 212.133 148.742 217.189C148.761 217.24 148.539 217.499 148.076 217.964C147.53 218.52 146.924 219.069 146.257 219.611C144.409 221.182 142.929 222.032 141.816 222.162C138.238 217.004 134.174 209.792 129.625 200.526L126.822 194.959L124.125 189.439C122.014 185.238 120.108 181.657 118.407 178.696C115.766 181.089 113.744 182.813 112.34 183.867C116.774 185.446 120.123 187.232 122.387 189.224C122.471 189.599 121.77 190.59 120.286 192.198C118.82 193.857 117.788 194.741 117.19 194.851C113.759 192.079 109.611 190.101 104.746 188.918L104.383 188.881L103.81 188.749C103.357 188.629 102.982 188.48 102.682 188.303C101.701 187.86 101.326 187.101 101.559 186.024C102.029 185.73 102.515 185.401 103.017 185.037L104.293 184.032C105.309 183.182 106.138 182.607 106.78 182.307C107.659 182.323 108.542 182.047 109.432 181.479C110.105 181.108 110.839 180.511 111.632 179.688L126.245 164.833C129.19 161.86 132.541 159.576 136.298 157.981L136.527 157.894L136.784 157.884C137.058 157.839 137.316 157.829 137.558 157.853C138.232 157.947 138.669 158.334 138.868 159.015C139.298 160.305 139.659 161.797 139.95 163.489L140.299 165.798L140.649 168.107C141.131 171.994 141.861 175.002 142.84 177.132C142.816 177.373 141.908 178.124 140.116 179.382C138.223 180.679 136.752 181.555 135.704 182.01C134.705 179.829 133.968 176.882 133.494 173.166L133.278 170.981L132.986 168.824C132.765 167.164 132.504 165.781 132.201 164.674C130.989 165.772 129.301 167.456 127.137 169.728L125.823 171.096L124.557 172.36C123.649 173.342 122.923 174.111 122.377 174.666ZM186.331 180.308C187.223 188.051 185.127 194.191 180.041 198.73C177.965 200.619 176.378 202.033 175.28 202.971C173.413 204.491 171.698 205.721 170.135 206.66C166.202 209.019 162.24 209.994 158.249 209.585C156.434 209.398 154.778 208.63 153.278 207.278C151.869 206.009 150.862 204.5 150.259 202.752L150.058 202.218L149.932 201.655C149.778 201.248 149.665 200.797 149.594 200.3C149.343 199.175 149.235 197.966 149.269 196.674C149.387 193.142 150.439 188.849 152.423 183.798C151.354 183.737 150.19 183.886 148.931 184.246C147.591 183.009 146.886 181.299 146.817 179.116C146.711 175.145 147.141 170.594 148.107 165.462C148.446 163.59 148.927 161.403 149.55 158.9L150.324 155.643L151.051 152.491C151.767 151.464 153.259 150.261 155.528 148.88C156.284 148.42 157.126 147.956 158.053 147.489C158.39 147.303 158.727 147.118 159.064 146.933L159.493 146.683L159.798 146.568C161.357 146.385 162.561 147.035 163.411 148.515C165.223 152.539 165.994 158.729 165.724 167.085L165.524 167.248L165.352 167.487L164.857 168.023C164.394 168.489 163.921 168.929 163.439 169.344C161.991 170.589 160.451 171.665 158.818 172.574C157.944 171.799 157.474 171.25 157.41 170.926C158.596 166.99 158.737 162.751 157.834 158.21C157.84 157.917 157.753 157.688 157.574 157.523C157.377 157.307 157.205 157.314 157.059 157.543C155.41 159.794 154.494 163.367 154.31 168.261C154.245 170.088 154.291 171.902 154.449 173.702C154.599 175.331 154.803 176.562 155.06 177.395C155.887 177.431 156.991 177.275 158.371 176.928L160.06 176.551L160.851 176.339L161.567 176.155C161.961 176.123 162.328 176.246 162.666 176.525C162.972 176.874 163.081 177.24 162.993 177.622C160.214 180.881 158.462 184.625 157.735 188.852C156.939 193.513 157.764 197.386 160.21 200.472C161.518 201.78 163.184 202.574 165.209 202.855C167.233 203.136 168.992 202.791 170.485 201.82C173.388 199.966 175.481 197.431 176.765 194.214C177.934 191.156 178.3 187.82 177.864 184.207C175.551 183.163 173.679 182.592 172.247 182.494C171.851 182.062 171.687 181.63 171.756 181.197L171.936 180.519L172.115 179.84C172.573 179.667 173.104 179.38 173.707 178.977L175.394 177.903C176.868 176.881 177.91 176.255 178.52 176.024C179.321 175.837 180.222 175.991 181.223 176.485L181.777 176.798L182.332 177.112C182.772 177.352 183.182 177.517 183.564 177.605L184.482 177.955C184.832 178.114 185.132 178.291 185.381 178.488C186.018 178.944 186.335 179.551 186.331 180.308ZM202.245 188.591L201.045 189.568C200.08 190.398 199.277 191.196 198.637 191.961C197.881 192.421 197.33 192.426 196.985 191.975C196.43 191.429 195.371 190.551 193.809 189.339C192.624 188.974 194.343 186.754 198.965 182.682C199.403 182.458 199.961 182.625 200.637 183.183C201.134 183.576 201.709 184.173 202.36 184.973C202.756 185.405 203.065 185.84 203.289 186.278C203.552 186.819 203.62 187.229 203.493 187.509L202.245 188.591ZM137.414 294.761C136.645 295.342 135.118 296.298 132.83 297.628L131.42 298.51L130.057 299.286C129.015 299.913 128.233 300.383 127.712 300.696C128.539 302.883 129.981 305.39 132.037 308.216L134.787 311.798L136.176 313.627L137.507 315.304L137.728 315.656L137.948 316.009C138.185 316.326 138.306 316.571 138.313 316.743C138.423 317.341 137.979 317.857 136.981 318.293C136.384 318.867 135.514 319.487 134.37 320.152L133.036 321.005C132.483 321.388 131.982 321.752 131.531 322.097C128.097 318.396 124.804 313.683 121.651 307.958L121.402 307.529L121.257 307.147L120.95 306.566C119.139 309.924 116.998 314.716 114.526 320.94L111.473 328.547C110.297 331.433 109.225 333.902 108.257 335.953L107.335 337.436L106.413 338.918C105.645 339.963 104.702 340.698 103.583 341.121L102.365 342.279L101.117 343.361C100.05 344.229 98.9822 344.633 97.9129 344.573C96.6705 344.054 95.7773 343.229 95.2334 342.098C94.8749 341.303 94.6587 340.193 94.5849 338.768C94.4565 335.968 94.6416 332.614 95.1402 328.705L95.8714 323.72L96.6026 318.735C92.0457 320.981 88.3109 322.48 85.3982 323.233C84.7687 323.413 83.8377 322.718 82.6053 321.15L88.6907 315.797L89.2639 315.929C90.4584 315.245 91.961 314.299 93.7715 313.092L95.9057 311.587L98.1451 310.13C98.7287 307.061 99.4925 303.546 100.436 299.585L101.749 294.293L103.138 288.973C105.418 280.089 106.939 273.119 107.702 268.064C107.733 267.53 107.708 266.696 107.629 265.564L113.974 260.898C114.917 261.239 115.635 261.985 116.128 263.135C116.282 263.542 116.439 264.035 116.599 264.614L116.783 265.329L116.966 266.045L117.893 269.879L118.848 273.791C119.639 276.805 120.327 279.393 120.912 281.556C122.557 287.444 124.285 292.4 126.097 296.424L126.241 296.805C126.299 296.958 126.312 297.069 126.28 297.139L128.501 295.864L130.827 294.636C132.714 293.631 134.144 292.8 135.116 292.142C135.619 292.243 136.052 292.544 136.417 293.045L136.81 293.856C137.066 294.224 137.267 294.526 137.414 294.761ZM112.177 281.283C110.486 286.805 108.455 294.81 106.084 305.298C107.717 304.39 109.617 303.265 111.783 301.922L114.575 300.082L117.396 298.318C116.543 295.908 115.638 293.053 114.681 289.753L113.429 285.518L112.177 281.283ZM116.958 302.233C116.151 302.713 115.144 303.355 113.937 304.16L112.327 305.205L110.716 306.25C108.15 307.917 106.291 308.998 105.141 309.491L104.953 310.608L115.751 304.346L116.958 302.233ZM112.837 310.244C111.61 310.998 110.171 311.804 108.519 312.661L104.172 315.002C102.419 323.279 101.926 330.587 102.694 336.923C102.847 336.865 103.415 335.139 104.398 331.745C105.004 329.656 105.644 327.582 106.319 325.525C107.311 322.767 108.456 319.951 109.752 317.077L112.837 310.244ZM172.492 270.426C172.28 272.017 171.587 273.413 170.413 274.612C169.949 275.078 169.4 275.548 168.765 276.02L167.965 276.671L167.136 277.246C162.18 280.283 158.085 282.674 154.85 284.42C160.765 285.148 165.716 286.328 169.704 287.96C175.055 290.122 178.936 293.16 181.346 297.073L181.595 297.502L181.902 298.084C182.164 298.624 182.417 299.139 182.66 299.628C183.269 301.084 183.565 302.251 183.548 303.129C182.721 303.093 181.69 303.134 180.455 303.252L178.938 303.39L177.421 303.527C175.003 303.744 173.023 303.504 171.481 302.808C170.778 301.563 170.046 300.473 169.286 299.54L168.338 298.416L167.466 297.263C165.239 294.908 162.093 292.813 158.028 290.979C154.033 289.176 151.097 288.484 149.221 288.902C151.209 294.777 153.04 299.695 154.711 303.655C157.01 309.122 159.355 313.787 161.746 317.65C161.868 318.127 158.691 318.95 152.216 320.119C147.346 312.311 142.787 302.176 138.541 289.714C138.312 289.568 138.006 289.451 137.624 289.363L137.185 289.355L136.793 289.241C136.099 289.097 135.662 288.709 135.482 288.08C135.462 287.565 135.632 287.093 135.994 286.666C136.292 286.379 136.686 286.113 137.175 285.87C135.983 282.717 134.925 279.687 134.001 276.782L133.385 274.922L132.845 273.033C132.312 271.316 131.889 269.965 131.574 268.979L130.438 268.973L129.226 268.995C128.348 268.979 127.587 268.888 126.944 268.725C126.657 268.426 126.468 268.004 126.377 267.457C126.267 266.859 126.317 266.375 126.526 266.005L130.702 263.903C130.816 263.744 130.901 263.508 130.957 263.196L130.966 262.757C131.061 262.547 131.165 262.362 131.279 262.203C133.227 262.28 135.813 261.971 139.038 261.275L140.908 260.917L142.778 260.559C144.165 260.383 145.409 260.291 146.509 260.281C155.164 260.264 162.187 261.62 167.579 264.349C168.789 264.937 169.889 265.771 170.879 266.85C171.996 268.114 172.534 269.306 172.492 270.426ZM162.161 269.623C162.116 269.349 161.991 269.019 161.786 268.631C161.601 268.294 161.419 268.044 161.24 267.879C158.855 265.874 155.756 264.749 151.943 264.505C148.474 264.247 145.112 264.733 141.857 265.964L146.306 280.5L148.508 279.406L150.758 278.207C152.512 277.311 153.986 276.521 155.181 275.837C158.44 273.849 160.767 271.778 162.161 269.623ZM181.098 252.96C181.759 252.71 182.332 252.609 182.815 252.659C183.49 252.753 184.003 253.111 184.355 253.734C185.877 256.53 187.739 260.069 189.939 264.353L192.655 269.691L195.476 275.077C199.928 283.625 203.924 290.427 207.463 295.483C207.482 295.534 207.26 295.792 206.797 296.258C206.251 296.813 205.645 297.362 204.978 297.905C203.13 299.475 201.65 300.325 200.537 300.456C196.959 295.298 192.895 288.086 188.346 278.819L185.543 273.252L182.846 267.732C180.735 263.531 178.829 259.95 177.128 256.989C174.487 259.383 172.465 261.106 171.061 262.16C175.495 263.739 178.844 265.525 181.108 267.517C181.192 267.892 180.492 268.884 179.007 270.491C177.541 272.15 176.509 273.034 175.911 273.144C172.48 270.372 168.332 268.395 163.467 267.211L163.104 267.174L162.531 267.042C162.079 266.922 161.703 266.774 161.403 266.596C160.422 266.153 160.048 265.394 160.28 264.318C160.75 264.024 161.236 263.695 161.738 263.331L163.014 262.325C164.03 261.476 164.859 260.901 165.501 260.6C166.38 260.617 167.263 260.341 168.153 259.772C168.826 259.401 169.56 258.804 170.353 257.981L184.966 243.126C187.911 240.153 191.262 237.869 195.019 236.274L195.248 236.188L195.505 236.177C195.779 236.132 196.037 236.122 196.279 236.147C196.953 236.24 197.39 236.627 197.59 237.308C198.019 238.599 198.38 240.09 198.671 241.782L199.02 244.091L199.37 246.4C199.852 250.287 200.582 253.296 201.561 255.425C201.537 255.667 200.629 256.417 198.837 257.675C196.944 258.972 195.473 259.848 194.425 260.303C193.426 258.123 192.689 255.175 192.215 251.46L191.999 249.274L191.707 247.118C191.486 245.457 191.225 244.074 190.923 242.967C189.71 244.065 188.022 245.75 185.858 248.021L184.544 249.39L183.278 250.653C182.37 251.636 181.644 252.404 181.098 252.96Z" fill="url(#paint0_linear_2001_581)"/>
<defs>
<linearGradient id="paint0_linear_2001_581" x1="102.186" y1="92.915" x2="297.526" y2="391.918" gradientUnits="userSpaceOnUse">
<stop stop-color="#131313"/>
<stop offset="0.5" stop-color="#2B5D9A"/>
<stop offset="1" stop-color="#67BDFF"/>
</linearGradient>
</defs>
</svg>
