<svg width="359" height="423" viewBox="0 0 359 423" fill="none" xmlns="http://www.w3.org/2000/svg">
<path opacity="0.66" d="M67.5325 109.466C72.0288 122.838 71.8971 133.642 67.1374 141.877C62.5886 147.688 56.7862 151.571 49.7304 153.526C45.4124 154.762 41.675 153.867 38.5181 150.841C31.8821 144.766 26.3854 133.399 22.0281 116.74C20.5621 111.11 19.335 104.802 18.3467 97.8149C18.0173 95.4859 17.7082 93.2727 17.4195 91.1753C17.3612 90.3899 17.2778 89.6885 17.1693 89.0711C17.1652 88.5944 17.1496 88.2789 17.1225 88.1246C15.9845 75.7538 15.7833 66.6794 16.519 60.9014L16.5879 59.9345L16.6568 58.9677L16.8353 57.2656C17.0179 56.0401 17.4592 54.9283 18.1591 53.9302C18.3771 53.8124 18.7427 53.6289 19.2558 53.3796L19.9098 53.0261L20.5638 52.6726C21.6537 52.0834 22.1424 51.2417 22.0298 50.1477L23.7258 49.6112L25.3059 49.095C26.5137 48.7238 27.4128 48.4068 28.0031 48.144C29.7877 47.4329 31.5623 47.7975 33.3269 49.238C33.8984 49.7741 34.5356 50.4578 35.2385 51.2891L36.1567 52.4406L36.9592 53.6125C39.5028 57.2234 42.1271 61.9739 44.8321 67.8637L46.4495 71.6373L48.1826 75.3906L51.5738 83.149C50.9782 84.2879 49.4767 85.7052 47.0694 87.4009C44.6621 89.0965 43.0204 89.9418 42.1443 89.9365C41.2682 89.9312 40.6195 89.4086 40.1982 88.3687C39.3191 86.5341 38.352 84.1978 37.2967 81.3598L34.5109 74.3304C32.246 68.6815 29.9982 64.2628 27.7675 61.0743C26.781 73.5794 28.0012 88.0044 31.4283 104.349C34.7917 120.784 39.4117 132.822 45.2883 140.462C46.5126 141.998 47.8439 143.236 49.2821 144.177C51.0832 145.372 52.8395 145.859 54.5511 145.638C55.5273 145.308 56.2767 144.818 56.7993 144.17C56.9902 143.897 57.1811 143.625 57.372 143.353L57.6176 142.713C59.5641 138.393 60.1903 133.351 59.4961 127.585C58.9687 123.222 57.6497 118.203 55.5391 112.527L55.1653 111.757L54.696 111.123C54.4603 110.687 54.0838 110.356 53.5665 110.128C52.5236 108.72 52.6744 107.54 54.0189 106.588C59.1381 102.666 62.7161 101.52 64.7529 103.152C65.9449 105.409 66.8714 107.513 67.5325 109.466ZM117.08 67.7079C123.385 78.6939 124.176 91.1257 119.452 105.003C117.154 111.851 113.908 117.155 109.715 120.915C104.973 125.169 98.3765 128.157 89.9273 129.879C87.3938 130.403 84.7046 130.04 81.8594 128.79C79.1958 127.666 76.6944 125.201 74.3553 121.395C73.5575 120.024 72.8233 118.562 72.1528 117.008C71.6001 115.673 71.2493 114.581 71.1002 113.732C69.7709 107.521 69.2775 100.408 69.6202 92.3915C69.7998 89.3367 70.487 84.6413 71.6816 78.3053C73.1131 71.0526 74.4381 66.3645 75.6564 64.2411C76.1248 63.2837 77.0014 62.6126 78.2864 62.2278L78.4508 61.1249L78.7309 60.0016C78.9041 59.1756 79.2066 58.4064 79.6384 57.6941C80.6158 56.0108 82.3008 54.9591 84.6934 54.539L86.3549 54.4859L87.7645 54.3577C88.8586 54.2452 89.6872 53.9803 90.2505 53.5632C95.1453 51.9876 100.351 52.8636 105.868 56.191C110.596 59.1002 114.333 62.9392 117.08 67.7079ZM107.31 106.539C110.281 98.5382 111.03 90.5699 109.557 82.6338C107.925 74.2482 104.072 67.4858 97.9986 62.3466C95.6625 60.37 93.405 59.2945 91.2263 59.1202C90.7078 60.2455 90.3594 61.6593 90.1809 63.3614C89.9753 64.9091 89.9403 66.0689 90.0758 66.8407C91.3404 74.4952 95.3573 83.0985 102.127 92.6505C101.831 92.7819 101.459 92.9268 101.009 93.0853C100.573 93.321 100.092 93.5249 99.5654 93.6969C98.2304 94.2496 96.9976 94.7048 95.867 95.0624C92.7202 96.1719 90.6817 96.5697 89.7514 96.2557C88.4405 95.1333 87.1572 93.489 85.9016 91.3226C85.3531 90.4642 84.8228 89.4833 84.3108 88.3798C83.9437 87.6486 83.5042 86.7313 82.9921 85.6278C81.7658 97.2203 82.1531 106.222 84.1541 112.634C84.6974 114.368 85.4471 116.146 86.4034 117.967C88.4703 121.582 90.7997 123.52 93.3914 123.781C96.0739 124.106 99.2062 121.328 102.788 115.448C104.579 112.508 106.087 109.538 107.31 106.539ZM181.083 42.6253C181.831 44.1648 182.313 46.2283 182.528 48.816C182.671 51.8938 182.334 55.4138 181.518 59.376C179.417 69.6105 174.359 81.3587 166.345 94.6206C158.799 106.925 154.957 114.72 154.818 118.007C153.996 118.31 152.194 118.468 149.411 118.479C147.814 118.441 146.468 118.479 145.373 118.591C143.558 118.671 141.801 118.861 140.103 119.159C138.589 110.991 137.449 98.382 136.683 81.3314C136.49 78.4215 136.347 75.3437 136.255 72.098C136.17 69.8055 136.064 67.159 135.934 64.1583C135.707 58.788 135.585 55.826 135.567 55.2722C126.926 58.6195 120.147 60.5657 115.231 61.1108C112.502 61.4308 110.14 60.8909 108.144 59.4911C111.251 50.9097 114.447 42.83 117.731 35.252C117.872 35.1477 118.09 35.0299 118.385 34.8985C118.821 34.6628 119.257 34.4272 119.693 34.1915C120.951 33.6523 122.215 33.1518 123.487 32.6899C127.251 31.472 130.263 31.1817 132.523 31.8191L131.561 34.4943L130.714 37.1491L129.056 41.9753C127.786 45.6194 126.533 48.9026 125.295 51.8249L127.781 51.0303L130.152 50.2561C131.886 49.7128 133.26 49.1534 134.273 48.5777C134.355 47.6881 134.209 46.4011 133.833 44.7166L133.488 42.7485L133.374 40.7397C134.373 40.0869 136.398 39.612 139.448 39.315L141.341 39.2212L143.33 38.9914C144.823 38.8883 145.924 38.8143 146.632 38.7695C146.653 41.1527 146.888 42.9414 147.336 44.1356C158.497 40.1867 168.347 38.7356 176.884 39.7824C179.027 40.2018 180.426 41.1494 181.083 42.6253ZM168.414 47.9529C168.029 46.6679 167.294 45.882 166.21 45.5951C163.94 45.3571 161.096 45.6975 157.677 46.6161C156.378 46.9236 154.823 47.3558 153.012 47.9127L148.176 49.5972C148.234 50.3826 148.373 52.9838 148.591 57.4008C148.753 59.6797 148.867 61.6885 148.934 63.4271C149.045 65.8739 149.168 68.1596 149.302 70.2842C150.054 82.7227 150.773 92.0245 151.458 98.1896C159.186 84.6597 164.19 74.1938 166.471 66.792C168.611 59.4945 169.258 53.2148 168.414 47.9529ZM245.88 74.4485C245.063 85.651 240.444 93.7816 232.024 98.8405C228.577 100.957 225.949 102.533 224.142 103.566C221.09 105.216 218.331 106.496 215.865 107.406C209.663 109.689 203.791 110.004 198.25 108.351C195.731 107.6 193.592 106.067 191.832 103.75C190.177 101.574 189.158 99.1674 188.775 96.5297L188.632 95.7193L188.606 94.8886C188.497 94.2712 188.459 93.6016 188.492 92.8798C188.439 91.2184 188.61 89.4777 189.007 87.6577C190.123 82.688 192.765 76.8935 196.934 70.274C195.436 69.9005 193.747 69.7992 191.868 69.9701C190.304 67.858 189.766 65.2474 190.254 62.1383C191.171 56.4876 193.004 50.1589 195.751 43.1525C196.734 40.5931 198.003 37.6254 199.558 34.2494L201.53 29.8456L203.406 25.5779C204.696 24.317 207.133 23.014 210.715 21.6688C211.91 21.2204 213.226 20.7903 214.666 20.3784C215.192 20.2064 215.719 20.0343 216.246 19.8623L216.92 19.6245L217.383 19.5432C219.639 19.704 221.17 20.9468 221.976 23.2717C223.46 29.4556 222.887 38.4272 220.258 50.1865L219.931 50.3633L219.624 50.6558L218.779 51.2815C217.998 51.8165 217.21 52.3129 216.415 52.7707C214.031 54.1441 211.561 55.2542 209.004 56.1009C207.975 54.77 207.458 53.8662 207.454 53.3896C210.191 48.1353 211.531 42.1717 211.473 35.4987C211.56 35.0857 211.499 34.7384 211.29 34.4568C211.068 34.098 210.823 34.0614 210.555 34.3472C207.615 37.091 205.358 41.9032 203.781 48.7835C203.198 51.3523 202.776 53.9326 202.515 56.5244C202.291 58.8711 202.248 60.6686 202.388 61.9171C203.55 62.1904 205.154 62.2667 207.202 62.1458L209.694 62.0662L210.872 61.9787L211.934 61.9115C212.502 61.971 212.987 62.2438 213.391 62.7298C213.731 63.3066 213.787 63.8537 213.559 64.371C208.749 68.239 205.261 73.0682 203.095 78.8587C200.716 85.2436 200.843 90.9497 203.476 95.977C204.976 98.1799 207.122 99.7523 209.913 100.694C212.704 101.636 215.287 101.62 217.662 100.646C222.271 98.8027 225.916 95.7758 228.598 91.5655C231.076 87.5502 232.491 82.9258 232.845 77.6922C229.851 75.5925 227.353 74.2807 225.352 73.757C224.907 73.0394 224.792 72.3834 225.006 71.7889L225.443 70.8769L225.879 69.9648C226.574 69.8428 227.402 69.578 228.365 69.1703L231.042 68.1035C233.403 67.0523 235.047 66.4455 235.973 66.2828C237.158 66.2339 238.392 66.6934 239.676 67.6614L240.377 68.2544L241.078 68.8473C241.636 69.3063 242.174 69.6495 242.691 69.8769L243.895 70.6201C244.349 70.9382 244.726 71.2699 245.025 71.6152C245.805 72.4329 246.09 73.3773 245.88 74.4485ZM302.476 54.4855C303.071 54.6994 303.429 55.83 303.549 57.8774L303.698 59.4027L303.731 60.9484C303.807 62.2876 303.887 63.4271 303.973 64.3668C303.024 64.8517 301.351 65.0659 298.954 65.0094C294.333 65.4231 289.618 66.2113 284.81 67.3738L281.936 67.9978L279.082 68.7376C276.948 69.2715 275.109 69.6739 273.566 69.945C260.853 73.2117 251.888 74.945 246.672 75.1448C245.682 75.3982 245.127 74.5012 245.006 72.4538C244.921 71.5141 245.046 68.8269 245.381 64.3922C248.912 64.5677 252.576 64.362 256.371 63.775C257.838 63.5175 259.49 63.1876 261.329 62.7851L266.151 61.6997L270.625 60.6753L275.079 59.5352L284.124 57.3503C291.247 55.7811 297.365 54.8262 302.476 54.4855ZM95.624 230.023C98.1735 237.292 97.518 244.886 93.6574 252.804C92.1886 255.767 90.1499 259.109 87.5412 262.829L83.9691 267.633L80.588 272.165C77.7613 276.003 75.453 278.715 73.6631 280.303C70.7739 282.879 67.72 284.29 64.5013 284.537C60.7289 284.802 57.5103 285.049 54.8454 285.278C53.7514 285.39 52.297 284.81 50.4823 283.538C48.7855 282.483 47.5653 281.425 46.8217 280.362C45.3263 277.283 44.4828 273.612 44.2912 269.349C44.1851 266.026 44.5264 262.307 45.3152 258.19C47.8784 249.227 51.0662 242.461 54.8786 237.893C57.3643 234.831 59.9766 232.264 62.7156 230.192C63.5604 229.566 64.4893 228.966 65.502 228.39L66.0402 228.057L66.5988 227.84C66.8804 227.631 67.0916 227.475 67.2324 227.37C68.1085 227.376 69.3022 227.604 70.8134 228.054L72.6923 228.56L74.5711 229.065C77.0846 230.692 78.2624 233.549 78.1046 237.634C77.8219 239.195 77.2731 241.281 76.4584 243.89L75.5367 246.797C75.1726 247.895 74.9175 248.934 74.7714 249.915L76.7847 252.545C76.453 252.921 74.0083 253.271 69.4504 253.594C68.8966 253.612 68.311 253.675 67.6935 253.783L66.1885 254.047C65.1215 254.314 64.3815 254.404 63.9685 254.318C62.911 254.185 62.7103 252.59 63.3666 249.531C63.4396 249.04 63.7353 248.233 64.2538 247.107L64.936 245.555L65.6182 244.003C66.7146 241.185 66.7163 239.156 65.6234 237.916C60.4382 244.635 57.5153 252.229 56.8544 260.699C56.5559 264.888 56.7365 268.636 57.3965 271.941C58.2556 275.927 59.7245 278.176 61.8031 278.686C67.5491 274.256 72.5902 268.756 76.9264 262.186C80.6397 256.602 82.9789 252.253 83.9439 249.139C85.3001 245.082 85.6879 240.042 85.1074 234.017C84.1357 228.937 80.7948 226.222 75.0845 225.872C74.0405 225.817 72.7331 225.847 71.1624 225.964L67.1245 226.076C63.6473 226.21 60.8829 226.098 58.8314 225.743C51.925 222.659 48.8653 217.468 49.6523 210.169C49.8767 207.823 50.512 205.324 51.5583 202.674L52.1451 201.258C52.2453 200.922 52.4226 200.573 52.6771 200.21C53.0818 199.343 53.2774 198.872 53.2639 198.794C54.5417 196.104 56.9554 192.179 60.5051 187.021C62.95 183.727 65.6917 181.217 68.73 179.49C71.3323 177.999 73.4595 177.426 75.1115 177.773L76.5008 177.529C77.2862 177.47 78.0465 177.496 78.7818 177.606C80.8969 177.871 82.6506 178.796 84.0428 180.381C86.3413 183.956 87.3657 188.43 87.116 193.805C87.0053 195.893 86.6969 198.214 86.1909 200.77C85.9217 202.408 85.4319 204.602 84.7214 207.353C80.3262 208.602 77.6202 209.276 76.6033 209.375C75.3413 209.437 74.9106 208.797 75.3112 207.454L76.1374 204.683L77.0388 201.661C77.7534 199.387 78.2385 197.392 78.4941 195.677C79.2652 191.006 78.7602 186.998 76.9791 183.651L76.5504 183.248L76.1015 182.731C75.6342 182.335 75.2666 182.281 74.9985 182.566C66.2796 191.815 61.5595 201.634 60.838 212.024C60.6177 214.847 61.7914 217.227 64.3591 219.163C66.4595 220.704 69.1597 221.582 72.4597 221.798C73.6716 221.903 75.1469 221.923 76.8855 221.856L79.0304 221.838L81.1549 221.703C88.2273 221.655 93.0504 224.428 95.624 230.023ZM128.99 171.892C128.863 172.073 128.608 172.436 128.226 172.981L127.749 173.661L127.292 174.458C126.388 175.651 125.511 176.322 124.662 176.471C125.705 177.879 126.514 179.766 127.088 182.131C128.008 190.085 127.881 200.013 126.709 211.914L125.961 219.206L125.212 226.498C124.681 232.081 124.375 236.908 124.295 240.98C124.256 243.93 124.591 246.974 125.301 250.112C125.737 249.876 126.346 249.491 127.127 248.956L128.299 248.153L129.471 247.351C131.674 245.85 133.429 244.746 134.737 244.039C138.929 241.632 141.201 241.432 141.553 243.439C141.398 244.819 141.149 246.573 140.807 248.702L140.308 251.295L139.808 253.889C139.187 258.056 139.316 261.733 140.194 264.92C139.191 265.096 138.074 265.531 136.843 266.225L135.208 267.109L133.92 267.931C131.818 269.096 130.349 269.115 129.515 267.989C129.122 265.751 129.069 263.413 129.357 260.975L129.795 258.034C129.965 256.732 130.097 255.674 130.193 254.862C130.166 254.707 129.283 255.34 127.543 256.759C128.14 258.802 127.431 260.2 125.415 260.952L123.971 261.563L122.506 262.059C121.249 262.598 120.295 263.283 119.645 264.113C119.068 264.453 118.306 264.189 117.358 263.321C114.083 265.965 109.937 269.995 104.921 275.411C103.119 275.568 101.871 274.355 101.179 271.771C104.673 267.657 109.251 262.915 114.911 257.545C113.771 253.767 113.186 249.534 113.158 244.845C113.092 243.106 113.125 241.032 113.259 238.621L113.496 232.493C113.662 229.361 113.994 225.365 114.493 220.503L115.138 214.662L115.763 208.704C116.57 199.254 116.384 191.171 115.204 184.457C111.926 185.271 108.902 186.399 106.132 187.84L105.043 187.076C104.667 186.745 104.329 186.406 104.029 186.061C103.236 185.166 102.731 184.101 102.514 182.866C107.94 180.243 113.316 176.196 118.641 170.726C122.232 170.334 125.113 169.748 127.283 168.969C128.904 168.685 129.473 169.659 128.99 171.892ZM154.643 186.721C155.647 186.544 156.484 186.556 157.156 186.757C158.086 187.071 158.717 187.716 159.047 188.692C160.451 193.06 162.135 198.572 164.099 205.229L166.509 213.517L169.056 221.902C173.062 235.201 176.891 245.906 180.543 254.016C180.556 254.093 180.172 254.399 179.391 254.934C178.469 255.574 177.463 256.188 176.373 256.777C173.335 258.504 171.01 259.31 169.399 259.195C165.72 250.93 161.905 239.626 157.954 225.283L155.483 216.647L153.148 208.107C151.288 201.591 149.551 196.008 147.939 191.359C143.557 194.038 140.23 195.935 137.959 197.049C143.812 200.477 148.074 203.906 150.745 207.335C150.763 207.889 149.504 209.104 146.97 210.982C144.449 212.936 142.75 213.91 141.874 213.905C137.761 209.058 132.419 205.143 125.848 202.16L125.345 202.009L124.569 201.668C123.961 201.377 123.468 201.066 123.092 200.734C121.822 199.843 121.496 198.667 122.114 197.206C122.859 196.916 123.636 196.581 124.444 196.2L126.522 195.12C128.188 194.19 129.517 193.599 130.506 193.346C131.745 193.606 133.071 193.452 134.483 192.886C135.537 192.542 136.736 191.894 138.08 190.942L162.764 173.838C167.733 170.419 173.091 168.086 178.839 166.838L179.187 166.777L179.554 166.832C179.954 166.841 180.321 166.896 180.657 166.996C181.587 167.31 182.102 167.976 182.201 168.993C182.463 170.936 182.572 173.144 182.529 175.618L182.404 178.982L182.278 182.345C181.915 187.978 182.14 192.434 182.955 195.712C182.855 196.048 181.367 196.866 178.493 198.166C175.464 199.494 173.146 200.338 171.539 200.7C170.711 197.345 170.46 192.973 170.787 187.585L171.069 184.433L171.235 181.301C171.369 178.891 171.37 176.861 171.24 175.214C169.228 176.442 166.385 178.373 162.71 181.008L160.482 182.592L158.35 184.041C156.801 185.188 155.565 186.081 154.643 186.721ZM243.678 211.901C242.861 223.103 238.242 231.234 229.821 236.293C226.374 238.41 223.747 239.985 221.939 241.018C218.887 242.668 216.129 243.948 213.663 244.859C207.46 247.141 201.588 247.456 196.047 245.804C193.528 245.053 191.389 243.519 189.63 241.202C187.975 239.027 186.956 236.62 186.572 233.982L186.43 233.172L186.403 232.341C186.295 231.723 186.257 231.054 186.289 230.332C186.236 228.671 186.408 226.93 186.804 225.11C187.921 220.14 190.563 214.346 194.731 207.726C193.233 207.353 191.545 207.252 189.665 207.422C188.101 205.31 187.563 202.7 188.051 199.591C188.969 193.94 190.801 187.611 193.549 180.605C194.532 178.045 195.8 175.078 197.356 171.702L199.327 167.298L201.203 163.03C202.494 161.769 204.93 160.466 208.513 159.121C209.707 158.673 211.024 158.243 212.463 157.831C212.99 157.659 213.517 157.487 214.043 157.315L214.718 157.077L215.181 156.996C217.437 157.156 218.968 158.399 219.774 160.724C221.257 166.908 220.685 175.88 218.056 187.639L217.729 187.816L217.422 188.108L216.577 188.734C215.796 189.269 215.008 189.765 214.213 190.223C211.829 191.596 209.358 192.707 206.802 193.553C205.773 192.222 205.256 191.319 205.252 190.842C207.989 185.588 209.329 179.624 209.271 172.951C209.357 172.538 209.296 172.191 209.088 171.909C208.866 171.55 208.62 171.514 208.352 171.8C205.413 174.543 203.155 179.355 201.579 186.236C200.996 188.805 200.574 191.385 200.313 193.977C200.088 196.323 200.046 198.121 200.185 199.369C201.347 199.643 202.952 199.719 204.999 199.598L207.491 199.519L208.67 199.431L209.732 199.364C210.299 199.423 210.785 199.696 211.188 200.182C211.528 200.759 211.584 201.306 211.357 201.823C206.547 205.691 203.059 210.521 200.893 216.311C198.513 222.696 198.64 228.402 201.273 233.429C202.774 235.632 204.92 237.205 207.711 238.147C210.502 239.089 213.085 239.073 215.46 238.099C220.069 236.255 223.714 233.228 226.396 229.018C228.873 225.003 230.289 220.378 230.643 215.145C227.649 213.045 225.151 211.733 223.149 211.209C222.705 210.492 222.59 209.836 222.804 209.241L223.24 208.329L223.677 207.417C224.371 207.295 225.2 207.03 226.163 206.623L228.84 205.556C231.201 204.505 232.845 203.898 233.771 203.735C234.956 203.686 236.19 204.146 237.474 205.114L238.175 205.707L238.876 206.3C239.434 206.759 239.971 207.102 240.488 207.329L241.693 208.072C242.147 208.391 242.523 208.722 242.823 209.067C243.603 209.885 243.888 210.83 243.678 211.901ZM263.985 227.907L262.023 228.967C260.434 229.883 259.083 230.797 257.97 231.708C256.775 232.156 255.995 232.015 255.628 231.284C254.988 230.362 253.726 228.833 251.839 226.698C250.26 225.862 253.29 223.181 260.929 218.658C261.61 218.458 262.354 218.845 263.161 219.817C263.76 220.507 264.413 221.507 265.12 222.815C265.564 223.532 265.886 224.232 266.085 224.913C266.311 225.748 266.297 226.347 266.043 226.71L263.985 227.907ZM143.569 360.34C142.325 360.956 139.905 361.898 136.309 363.166L134.074 364.036L131.936 364.769C130.292 365.376 129.059 365.831 128.237 366.135C128.82 369.454 130.188 373.39 132.34 377.945L135.27 383.756L136.745 386.719L138.179 389.451L138.397 390.009L138.614 390.568C138.863 391.081 138.97 391.46 138.933 391.705C138.928 392.581 138.16 393.193 136.63 393.542C135.631 394.195 134.232 394.838 132.434 395.472L130.316 396.321C129.43 396.715 128.622 397.096 127.891 397.463C124.024 391.3 120.628 383.741 117.703 374.787L117.465 374.113L117.364 373.534L117.085 372.628C113.618 376.897 109.298 383.105 104.126 391.254L97.7574 401.203C95.3166 404.973 93.135 408.181 91.2126 410.826L89.5088 412.676L87.8049 414.527C86.4375 415.801 84.9048 416.588 83.2068 416.886L81.1698 418.198L79.1124 419.395C77.3685 420.338 75.7477 420.622 74.25 420.249C72.6304 419.181 71.5875 417.773 71.1214 416.024C70.8274 414.803 70.8197 413.173 71.0983 411.136C71.6691 407.137 72.8329 402.437 74.5897 397.037L76.965 390.175L79.3404 383.314C72.2845 385.269 66.5934 386.388 62.2672 386.67C61.3274 386.755 60.1959 385.522 58.8726 382.97L68.9278 377.027L69.7037 377.368C71.579 376.721 73.9607 375.785 76.8488 374.562L80.2751 373.006L83.8375 371.545C85.4888 367.356 87.5151 362.585 89.9165 357.23L93.1977 350.09L96.5946 342.93C102.211 330.964 106.238 321.506 108.677 314.553C108.864 313.804 109.054 312.618 109.246 310.993L119.484 306.092C120.727 306.828 121.543 308.077 121.932 309.839C122.04 310.456 122.131 311.196 122.202 312.059L122.27 313.121L122.337 314.183L122.618 319.862L122.919 325.657C123.229 330.138 123.507 333.988 123.754 337.206C124.5 345.986 125.615 353.468 127.099 359.652L127.2 360.231C127.241 360.462 127.23 360.623 127.166 360.714L130.653 359.505L134.277 358.391C137.219 357.477 139.467 356.684 141.02 356.014C141.705 356.291 142.238 356.834 142.618 357.643L142.958 358.896C143.221 359.486 143.424 359.967 143.569 360.34ZM111.459 334.472C107.581 341.836 102.553 352.624 96.377 366.837C98.9334 365.99 101.926 364.907 105.354 363.589L109.802 361.734L114.27 359.995C113.71 356.354 113.197 352.068 112.729 347.138L112.094 340.805L111.459 334.472ZM112.597 365.42C111.326 365.882 109.728 366.521 107.802 367.336L105.241 368.383L102.68 369.429C98.5977 371.101 95.6757 372.131 93.9141 372.52L93.3477 374.052L110.321 368.088L112.597 365.42ZM104.609 375.654C102.67 376.393 100.415 377.147 97.8452 377.916L91.0615 380.062C86.3538 391.311 83.6919 401.525 83.0758 410.703C83.3074 410.662 84.5758 408.371 86.8811 403.829C88.2998 401.034 89.7638 398.271 91.2732 395.539C93.4188 391.901 95.796 388.221 98.4048 384.501L104.609 375.654ZM199.778 335.313C199.05 337.51 197.693 339.299 195.708 340.682C194.927 341.217 194.023 341.734 192.997 342.232L191.689 342.939L190.361 343.531C182.528 346.497 176.087 348.782 171.038 350.385C179.215 353.006 185.908 356.008 191.117 359.39C198.113 363.889 202.79 369.234 205.15 375.423L205.388 376.097L205.666 377.003C205.893 377.839 206.112 378.636 206.325 379.394C206.795 381.619 206.9 383.35 206.641 384.589C205.479 384.316 204.008 384.097 202.229 383.932L200.043 383.719L197.858 383.506C194.376 383.163 191.638 382.291 189.641 380.891C188.98 378.939 188.237 377.2 187.412 375.674L186.372 373.828L185.448 371.961C182.927 368.028 179.036 364.216 173.773 360.526C168.601 356.899 164.631 355.13 161.862 355.218C163.098 364.071 164.367 371.526 165.669 377.582C167.455 385.941 169.522 393.176 171.868 399.288C171.913 399.996 167.194 400.308 157.711 400.223C152.914 387.858 149.185 372.282 146.522 353.496C146.236 353.228 145.835 352.98 145.318 352.753L144.698 352.623L144.174 352.357C143.23 351.966 142.716 351.3 142.63 350.361C142.74 349.625 143.108 349.004 143.735 348.496C144.234 348.169 144.863 347.9 145.622 347.687C144.781 342.902 144.097 338.328 143.57 333.965L143.198 331.166L142.941 328.347C142.649 325.773 142.412 323.746 142.232 322.266L140.625 321.951L138.903 321.657C137.663 321.397 136.611 321.065 135.744 320.66C135.418 320.161 135.264 319.512 135.283 318.713C135.288 317.837 135.488 317.165 135.883 316.698L142.36 314.844C142.565 314.649 142.749 314.338 142.913 313.912L143.043 313.292C143.234 313.02 143.431 312.787 143.636 312.592C146.372 313.225 150.117 313.482 154.87 313.364L157.614 313.359L160.358 313.355C162.369 313.479 164.155 313.682 165.716 313.965C177.975 316.268 187.555 320.075 194.455 325.388C196.011 326.547 197.344 328.023 198.455 329.817C199.697 331.906 200.138 333.738 199.778 335.313ZM185.366 331.399C185.376 331 185.288 330.498 185.102 329.894C184.93 329.368 184.74 328.963 184.531 328.682C181.692 325.202 177.607 322.777 172.274 321.406C167.432 320.108 162.541 319.893 157.601 320.761L159.993 342.538L163.405 341.581L166.913 340.488C169.637 339.691 171.937 338.969 173.812 338.321C178.961 336.383 182.813 334.075 185.366 331.399ZM216.658 312.896C217.661 312.72 218.499 312.732 219.171 312.933C220.101 313.247 220.731 313.892 221.062 314.868C222.465 319.236 224.149 324.748 226.114 331.405L228.524 339.693L231.07 348.077C235.076 361.377 238.906 372.081 242.557 380.192C242.571 380.269 242.187 380.575 241.406 381.11C240.484 381.749 239.478 382.364 238.388 382.953C235.35 384.68 233.025 385.486 231.413 385.371C227.734 377.106 223.919 365.802 219.969 351.459L217.498 342.823L215.162 334.282C213.302 327.767 211.566 322.184 209.954 317.534C205.571 320.214 202.245 322.11 199.974 323.225C205.827 326.653 210.089 330.081 212.759 333.511C212.777 334.065 211.519 335.28 208.984 337.157C206.463 339.112 204.765 340.086 203.888 340.081C199.775 335.234 194.434 331.319 187.863 328.335L187.359 328.185L186.583 327.844C185.975 327.553 185.483 327.242 185.107 326.91C183.836 326.019 183.51 324.843 184.129 323.382C184.874 323.092 185.65 322.757 186.459 322.376L188.536 321.295C190.203 320.366 191.531 319.775 192.521 319.522C193.76 319.781 195.086 319.628 196.498 319.062C197.551 318.718 198.75 318.07 200.095 317.118L224.779 300.014C229.747 296.595 235.106 294.262 240.854 293.014L241.201 292.953L241.569 293.008C241.968 293.017 242.336 293.072 242.672 293.172C243.602 293.486 244.117 294.151 244.216 295.168C244.477 297.111 244.587 299.32 244.544 301.794L244.418 305.157L244.293 308.521C243.93 314.154 244.155 318.61 244.969 321.888C244.869 322.224 243.382 323.042 240.507 324.342C237.478 325.67 235.16 326.514 233.553 326.876C232.725 323.521 232.475 319.149 232.802 313.761L233.083 310.609L233.25 307.477C233.383 305.066 233.385 303.037 233.255 301.389C231.243 302.618 228.399 304.549 224.725 307.184L222.497 308.768L220.364 310.217C218.816 311.364 217.58 312.257 216.658 312.896Z" fill="url(#paint0_linear_118_6885)"/>
<defs>
<linearGradient id="paint0_linear_118_6885" x1="250.69" y1="100.471" x2="202.674" y2="392.922" gradientUnits="userSpaceOnUse">
<stop stop-color="#131313"/>
<stop offset="0.5" stop-color="#4D62CA"/>
<stop offset="1" stop-color="#9D5280"/>
</linearGradient>
</defs>
</svg>
