<svg width="358" height="336" viewBox="0 0 358 336" fill="none" xmlns="http://www.w3.org/2000/svg">
<path d="M159.113 128.702L230.064 151.537L236.873 173.275L191.756 232.914L184.884 210.975L217.047 167.662L165.922 150.437L159.113 128.702Z" fill="url(#paint0_linear_118_1437)"/>
<path d="M139.153 126.923L146.409 305.338L127.515 311.256L120.463 132.777L139.153 126.923Z" fill="url(#paint1_linear_118_1437)"/>
<path d="M60.5961 159.561L67.4045 181.296L35.1019 224.877L86.3671 241.834L93.2393 263.773L22.0186 240.799L15.2102 219.064L60.5961 159.561Z" fill="url(#paint2_linear_118_1437)"/>
<g opacity="0.47">
<path d="M299.627 15.4619L332.085 19.6721L336.757 28.5173L322.024 57.8657L317.309 48.9387L327.748 27.6723L304.298 24.306L299.627 15.4619Z" fill="url(#paint3_linear_118_1437)"/>
<path d="M290.865 16.2837L308.209 92.754L300.521 96.8146L283.26 20.3006L290.865 16.2837Z" fill="url(#paint4_linear_118_1437)"/>
<path d="M259.54 36.6343L264.211 45.4784L253.733 66.8715L277.222 70.1111L281.937 79.0381L249.351 74.7894L244.679 65.9453L259.54 36.6343Z" fill="url(#paint5_linear_118_1437)"/>
</g>
<defs>
<linearGradient id="paint0_linear_118_1437" x1="226.19" y1="243.395" x2="157.171" y2="238.549" gradientUnits="userSpaceOnUse">
<stop stop-color="white"/>
<stop offset="1" stop-color="#FFB5E6"/>
</linearGradient>
<linearGradient id="paint1_linear_118_1437" x1="167.942" y1="332.172" x2="89.9814" y2="335.277" gradientUnits="userSpaceOnUse">
<stop stop-color="white"/>
<stop offset="1" stop-color="#FFB5E6"/>
</linearGradient>
<linearGradient id="paint2_linear_118_1437" x1="69.4697" y1="292.486" x2="0.244258" y2="287.541" gradientUnits="userSpaceOnUse">
<stop stop-color="white"/>
<stop offset="1" stop-color="#FFB5E6"/>
</linearGradient>
<linearGradient id="paint3_linear_118_1437" x1="337.729" y1="59.6494" x2="307.537" y2="63.0537" gradientUnits="userSpaceOnUse">
<stop stop-color="white"/>
<stop offset="1" stop-color="#FFB5E6"/>
</linearGradient>
<linearGradient id="paint4_linear_118_1437" x1="319.645" y1="102.627" x2="286.225" y2="110.178" gradientUnits="userSpaceOnUse">
<stop stop-color="white"/>
<stop offset="1" stop-color="#FFB5E6"/>
</linearGradient>
<linearGradient id="paint5_linear_118_1437" x1="273.959" y1="93.3308" x2="243.67" y2="96.7091" gradientUnits="userSpaceOnUse">
<stop stop-color="white"/>
<stop offset="1" stop-color="#FFB5E6"/>
</linearGradient>
</defs>
</svg>
