<svg width="27" height="27" viewBox="0 0 27 27" fill="none" xmlns="http://www.w3.org/2000/svg">
<path fill-rule="evenodd" clip-rule="evenodd" d="M13.4992 24.3C16.3636 24.3 19.1106 23.1621 21.136 21.1367C23.1614 19.1113 24.2992 16.3643 24.2992 13.5C24.2992 10.6356 23.1614 7.88859 21.136 5.8632C19.1106 3.83781 16.3636 2.69995 13.4992 2.69995C10.6349 2.69995 7.88786 3.83781 5.86247 5.8632C3.83707 7.88859 2.69922 10.6356 2.69922 13.5C2.69922 16.3643 3.83707 19.1113 5.86247 21.1367C7.88786 23.1621 10.6349 24.3 13.4992 24.3ZM14.8492 8.09995C14.8492 7.74191 14.707 7.39853 14.4538 7.14536C14.2006 6.89218 13.8573 6.74995 13.4992 6.74995C13.1412 6.74995 12.7978 6.89218 12.5446 7.14536C12.2915 7.39853 12.1492 7.74191 12.1492 8.09995V13.5C12.1493 13.858 12.2916 14.2013 12.5448 14.4544L16.3626 18.2736C16.488 18.399 16.6369 18.4985 16.8008 18.5664C16.9647 18.6342 17.1403 18.6692 17.3177 18.6692C17.4951 18.6692 17.6707 18.6342 17.8346 18.5664C17.9985 18.4985 18.1474 18.399 18.2728 18.2736C18.3982 18.1481 18.4977 17.9992 18.5656 17.8353C18.6335 17.6715 18.6684 17.4958 18.6684 17.3184C18.6684 17.141 18.6335 16.9654 18.5656 16.8015C18.4977 16.6376 18.3982 16.4887 18.2728 16.3633L14.8492 12.9411V8.09995Z" fill="white"/>
</svg>
