<svg width="278" height="309" viewBox="0 0 278 309" fill="none" xmlns="http://www.w3.org/2000/svg">
<path d="M51.9353 100.805C56.583 109.076 57.8511 116.23 55.7395 122.267C53.4632 126.676 50.117 129.97 45.7009 132.146C43.0032 133.504 40.4219 133.381 37.9568 131.778C32.8109 128.597 27.7539 121.778 22.7858 111.319C21.1111 107.783 19.5092 103.769 17.98 99.2775C17.4703 97.7802 16.9885 96.3569 16.5346 95.0074C16.3976 94.4959 16.2545 94.043 16.1054 93.6487C16.0429 93.3343 15.993 93.1279 15.9558 93.0293C13.6523 84.9994 12.3813 79.0297 12.1426 75.1203L12.0669 74.4729L11.9911 73.8255L11.8955 72.6787C11.8625 71.8462 12.0145 71.0563 12.3517 70.3092C12.481 70.204 12.6994 70.0369 13.0072 69.8079L13.3949 69.4923L13.7826 69.1767C14.4288 68.6508 14.646 68.0335 14.4345 67.3248L15.4876 66.7576L16.4667 66.2185C17.2181 65.8217 17.7723 65.4996 18.1293 65.2519C19.2191 64.5582 20.4372 64.5766 21.7836 65.3069C22.2284 65.5894 22.7351 65.9611 23.3038 66.4222L24.0548 67.0677L24.732 67.7412C26.8652 69.8077 29.1948 72.6169 31.7206 76.1687L33.2624 78.4588L34.8781 80.721L38.0916 85.4211C37.8409 86.2482 37.0268 87.3728 35.6491 88.795C34.2714 90.2172 33.2929 90.9815 32.7134 91.0879C32.134 91.1943 31.6399 90.9304 31.2311 90.2963C30.4202 89.1945 29.4882 87.7723 28.4351 86.0298L25.7131 81.7354C23.5083 78.2876 21.469 75.6503 19.5954 73.8237C20.5122 82.2088 23.1276 91.5854 27.4417 101.953C31.7251 112.389 36.2872 119.763 41.1277 124.073C42.1292 124.934 43.1639 125.585 44.2321 126.026C45.5719 126.59 46.7933 126.691 47.8963 126.331C48.4998 125.99 48.9334 125.572 49.1973 125.078C49.2893 124.874 49.3812 124.671 49.4732 124.467L49.5553 124.013C50.2994 120.915 50.0805 117.505 48.8988 113.784C48.0031 110.967 46.5022 107.817 44.3959 104.332L44.0524 103.87L43.6629 103.51C43.4525 103.252 43.1622 103.08 42.7919 102.995C41.9264 102.195 41.878 101.397 42.6467 100.599C45.5367 97.3658 47.7568 96.1603 49.307 96.9826C50.3776 98.3242 51.2537 99.5985 51.9353 100.805ZM79.4307 67.0039C84.9739 73.4709 87.0556 81.5847 85.6756 91.3451C85.0162 96.1574 83.5373 100.068 81.2388 103.078C78.6391 106.483 74.6564 109.285 69.2905 111.482C67.6826 112.146 65.8604 112.244 63.8239 111.774C61.9233 111.366 59.9617 110.052 57.939 107.831C57.2399 107.025 56.5715 106.151 55.9337 105.209C55.4012 104.396 55.0324 103.719 54.8274 103.177C53.1702 99.2401 51.952 94.6024 51.173 89.2636C50.9085 87.2229 50.7735 84.0348 50.768 79.6991C50.8041 74.7282 51.0913 71.4649 51.6299 69.9092C51.8192 69.218 52.3142 68.6647 53.1149 68.2493L53.0851 67.5001L53.1293 66.7229C53.1401 66.1555 53.2435 65.6094 53.4394 65.0846C53.874 63.85 54.8552 62.9438 56.3832 62.3662L57.4742 62.1227L58.3893 61.8612C59.098 61.6497 59.6122 61.3707 59.932 61.0245C62.9681 59.3697 66.5172 59.2954 70.5793 60.8017C74.0674 62.1307 77.0179 64.1981 79.4307 67.0039ZM77.8468 93.8824C78.8061 88.2243 78.3014 82.8663 76.3328 77.8082C74.2031 72.4729 70.8096 68.4887 66.1524 65.8554C64.3611 64.8426 62.7349 64.4152 61.2737 64.5733C61.0723 65.3818 61.0194 66.3594 61.115 67.5063C61.1733 68.5546 61.2956 69.3252 61.482 69.8181C63.2775 74.7163 67.0103 79.8961 72.6804 85.3575C72.5018 85.4813 72.274 85.6238 71.9969 85.7849C71.7385 85.9953 71.446 86.1903 71.1197 86.3701C70.307 86.9026 69.5496 87.358 68.8476 87.7361C66.9079 88.8637 65.611 89.3822 64.9571 89.2914C63.9502 88.7144 62.8962 87.789 61.795 86.5153C61.325 86.017 60.8516 85.4355 60.3749 84.7707C60.0407 84.3337 59.6353 83.7828 59.1586 83.118C59.8025 90.9303 61.1874 96.8288 63.3135 100.813C63.89 101.891 64.6083 102.972 65.4684 104.055C67.2873 106.184 69.0693 107.172 70.8142 107.019C72.6271 106.897 74.348 104.669 75.9769 100.335C76.7913 98.1684 77.4146 96.0174 77.8468 93.8824ZM118.568 42.4057C119.255 43.329 119.832 44.6318 120.299 46.3142C120.779 48.3297 120.998 50.6974 120.956 53.4173C120.852 60.4422 118.984 68.8378 115.353 78.6043C111.911 87.6795 110.35 93.3114 110.671 95.5C110.166 95.8035 108.995 96.1335 107.158 96.49C106.098 96.6655 105.213 96.8591 104.505 97.0707C103.315 97.3514 102.178 97.6967 101.094 98.1067C99.0693 92.9007 96.7346 84.7136 94.0897 73.5455C93.5974 71.6473 93.1171 69.6318 92.6488 67.4992C92.3056 65.9953 91.9031 64.2602 91.4415 62.2941C90.6179 58.7748 90.1656 56.8333 90.0845 56.4696C84.7955 59.7648 80.5612 61.9008 77.3815 62.8776C75.6191 63.4312 73.9908 63.3708 72.4965 62.6964C73.4732 56.6375 74.571 50.8989 75.7899 45.4807C75.8699 45.3941 75.9991 45.289 76.1776 45.1651C76.4361 44.9547 76.6946 44.7444 76.953 44.534C77.7164 44.02 78.4891 43.5308 79.2711 43.0661C81.6051 41.7894 83.5586 41.2198 85.1317 41.3575L84.8314 43.2455L84.6051 45.1055L84.1147 48.502C83.733 51.0686 83.3168 53.3948 82.866 55.4806L84.4087 54.6439L85.8774 53.8351C86.9552 53.2586 87.7925 52.7167 88.3893 52.2094C88.3322 51.6113 88.0741 50.7794 87.6148 49.7137L87.1397 48.4569L86.8123 47.1441C87.3906 46.5875 88.6688 46.0197 90.647 45.4409L91.8858 45.1415L93.1706 44.7403C94.1444 44.4848 94.8624 44.2979 95.3246 44.1794C95.6372 45.7513 96.0165 46.9036 96.4625 47.6363C103.341 43.6276 109.666 41.4335 115.437 41.0542C116.905 41.0626 117.949 41.5131 118.568 42.4057ZM110.866 47.5144C110.451 46.7138 109.867 46.2867 109.114 46.2332C107.585 46.3607 105.749 46.9422 103.605 47.9779C102.786 48.344 101.813 48.8246 100.686 49.4197L97.7023 51.1391C97.8393 51.6506 98.2571 53.3517 98.9556 56.2423C99.3481 57.7276 99.6754 59.0403 99.9375 60.1806C100.318 61.7831 100.686 63.2777 101.041 64.6644C103.098 72.7874 104.739 78.8424 105.965 82.8294C109.374 72.9217 111.367 65.3799 111.945 60.2039C112.444 55.1145 112.084 50.8847 110.866 47.5144ZM165.367 55.302C166.232 62.8053 164.2 68.7561 159.272 73.1543C157.26 74.9852 155.722 76.3554 154.657 77.2649C152.848 78.7376 151.186 79.9292 149.671 80.8399C145.86 83.1258 142.02 84.0705 138.152 83.6738C136.394 83.4935 134.789 82.7485 133.336 81.4387C131.969 80.2089 130.994 78.7468 130.41 77.0523L130.214 76.5348L130.093 75.9893C129.943 75.595 129.834 75.1574 129.765 74.6766C129.522 73.5856 129.417 72.4141 129.45 71.162C129.565 67.7388 130.583 63.5793 132.507 58.6835C131.471 58.6246 130.342 58.7694 129.122 59.1181C127.824 57.9189 127.141 56.2617 127.074 54.1465C126.971 50.2984 127.388 45.8876 128.324 40.9142C128.652 39.1001 129.118 36.9804 129.722 34.555L130.473 31.3984L131.177 28.3437C131.871 27.3489 133.317 26.1825 135.515 24.8444C136.248 24.3984 137.064 23.9491 137.963 23.4965C138.29 23.3167 138.616 23.137 138.942 22.9573L139.358 22.7156L139.654 22.6038C141.164 22.4271 142.332 23.0561 143.156 24.4909C144.911 28.3901 145.658 34.3889 145.396 42.4874L145.203 42.6452L145.037 42.8769L144.557 43.3962C144.108 43.8476 143.65 44.2744 143.182 44.6765C141.779 45.8829 140.286 46.9261 138.704 47.8061C137.857 47.056 137.402 46.5237 137.339 46.2094C138.489 42.3949 138.626 38.2871 137.75 33.8859C137.756 33.6022 137.672 33.3804 137.499 33.2205C137.307 33.0113 137.141 33.018 136.999 33.2404C135.402 35.4217 134.514 38.884 134.335 43.6271C134.272 45.3973 134.317 47.1549 134.47 48.8999C134.616 50.4783 134.813 51.6712 135.062 52.4784C135.864 52.5133 136.934 52.3624 138.271 52.0258L139.907 51.6606L140.675 51.455L141.368 51.2774C141.75 51.2455 142.105 51.3648 142.433 51.6353C142.73 51.9737 142.836 52.3281 142.75 52.6983C140.057 55.8571 138.359 59.4849 137.654 63.5819C136.883 68.0985 137.683 71.8523 140.053 74.8433C141.32 76.1103 142.935 76.88 144.897 77.1523C146.859 77.4245 148.564 77.09 150.01 76.1487C152.824 74.3526 154.853 71.8957 156.096 68.7778C157.229 65.8145 157.585 62.5818 157.162 59.0799C154.92 58.0683 153.106 57.515 151.718 57.4201C151.334 57.0017 151.176 56.5828 151.243 56.1632L151.417 55.5059L151.591 54.8486C152.034 54.6809 152.549 54.402 153.133 54.0119L154.768 52.9714C156.196 51.9808 157.206 51.3737 157.797 51.1501C158.574 50.9692 159.447 51.1179 160.417 51.5964L160.954 51.9002L161.491 52.2041C161.918 52.4373 162.316 52.5966 162.686 52.6819L163.575 53.0218C163.915 53.1751 164.205 53.347 164.446 53.5375C165.064 53.9799 165.371 54.5681 165.367 55.302ZM200.252 35.0151C200.672 35.0818 201.05 35.7839 201.387 37.1213L201.676 38.1104L201.891 39.1274C202.11 40.0026 202.306 40.7452 202.48 41.3553C201.914 41.7947 200.836 42.1461 199.245 42.4094C196.244 43.2623 193.228 44.3744 190.197 45.7455L188.377 46.5182L186.585 47.3649C185.242 47.9852 184.077 48.4817 183.092 48.8544C175.103 52.607 169.398 54.8765 165.977 55.6627C165.355 55.9543 164.876 55.4313 164.539 54.0939C164.365 53.4838 164.11 51.6929 163.775 48.7211C166.13 48.3941 168.525 47.7987 170.958 46.9349C171.895 46.5809 172.945 46.1556 174.11 45.6591L177.159 44.3373L179.986 43.0993L182.786 41.7874L188.487 39.2096C192.996 37.2795 196.918 35.8813 200.252 35.0151ZM85.6927 177.133C88.2888 181.616 88.8082 186.715 87.2509 192.43C86.6522 194.571 85.7245 197.035 84.4676 199.82L82.7104 203.441L81.0451 206.859C79.659 209.75 78.4743 211.831 77.491 213.104C75.9053 215.168 74.0648 216.484 71.9694 217.051C69.5104 217.699 67.415 218.266 65.6833 218.751C64.9746 218.963 63.941 218.762 62.5826 218.149C61.3293 217.665 60.3904 217.119 59.7659 216.51C58.3918 214.663 57.3741 212.344 56.7129 209.552C56.226 207.37 55.9849 204.87 55.9897 202.051C56.5589 195.808 57.8163 190.939 59.762 187.443C61.02 185.109 62.4238 183.085 63.9734 181.372C64.4531 180.853 64.9913 180.34 65.5882 179.832L65.902 179.545L66.2437 179.331C66.4036 179.158 66.5235 179.028 66.6034 178.942C67.1829 178.835 68.0001 178.836 69.055 178.944L70.3596 179.043L71.6643 179.141C73.5289 179.901 74.6652 181.64 75.0734 184.359C75.0824 185.425 74.9814 186.872 74.7705 188.698L74.5262 190.734C74.4234 191.505 74.3852 192.224 74.4117 192.89L76.0716 194.375C75.8997 194.665 74.3285 195.203 71.3579 195.988C70.9942 196.069 70.6153 196.184 70.2209 196.333L69.2598 196.696C68.5884 197.007 68.1108 197.159 67.8271 197.154C67.1118 197.199 66.7791 196.17 66.829 194.066C66.8158 193.733 66.9098 193.163 67.1112 192.354L67.3672 191.243L67.6233 190.133C67.9941 188.133 67.7408 186.793 66.8632 186.11C64.2804 191.199 63.3019 196.583 63.9276 202.261C64.2559 205.067 64.8453 207.52 65.6958 209.62C66.7634 212.146 68.0157 213.447 69.4529 213.524C72.6934 209.876 75.3339 205.61 77.3745 200.727C79.1272 196.571 80.1271 193.405 80.3741 191.227C80.7612 188.377 80.3852 184.998 79.2461 181.091C77.9669 177.857 75.4192 176.482 71.6029 176.967C70.9063 177.061 70.0464 177.246 69.0234 177.52L66.3699 178.1C64.0894 178.625 62.2492 178.898 60.8492 178.92C55.8999 177.749 53.2274 174.704 52.8319 169.783C52.6858 168.205 52.7922 166.474 53.151 164.592L53.3611 163.583C53.3851 163.349 53.4584 163.096 53.5811 162.824C53.7397 162.201 53.8098 161.865 53.7911 161.815C54.2978 159.877 55.4002 156.982 57.0982 153.129C58.3004 150.647 59.7967 148.644 61.5874 147.122C63.1195 145.811 64.453 145.166 65.5879 145.187L66.4751 144.852C66.9866 144.715 67.4921 144.636 67.9916 144.617C69.4222 144.526 70.6968 144.918 71.8154 145.791C73.7822 147.864 75.0201 150.691 75.5293 154.273C75.7181 155.666 75.8055 157.239 75.7917 158.99C75.8194 160.107 75.771 161.618 75.6466 163.524C72.8997 164.9 71.1965 165.685 70.5371 165.878C69.7112 166.077 69.3464 165.708 69.4425 164.771L69.6409 162.837L69.8572 160.727C70.0441 159.135 70.1145 157.757 70.0682 156.591C69.9918 153.409 69.1554 150.824 67.5589 148.836L67.2252 148.624L66.8637 148.339C66.5054 148.136 66.2557 148.146 66.1144 148.368C61.5144 155.572 59.6277 162.651 60.4542 169.605C60.6628 171.498 61.7367 172.923 63.6758 173.88C65.2567 174.634 67.1507 174.876 69.3579 174.605C70.1717 174.522 71.1488 174.35 72.2891 174.088L73.7037 173.807L75.0904 173.452C79.7566 172.532 83.2907 173.759 85.6927 177.133ZM100.444 134.545C100.383 134.68 100.26 134.952 100.076 135.36L99.8466 135.869L99.6446 136.452C99.1968 137.354 98.7018 137.907 98.1596 138.112C99.0252 138.912 99.7961 140.057 100.472 141.547C102.077 146.687 103.239 153.261 103.957 161.271L104.378 166.182L104.798 171.093C105.147 174.848 105.55 178.075 106.008 180.775C106.352 182.73 106.956 184.698 107.818 186.682C108.077 186.472 108.431 186.141 108.88 185.689L109.553 185.012L110.227 184.335C111.494 183.067 112.515 182.118 113.29 181.487C115.758 179.371 117.234 178.954 117.718 180.235C117.789 181.166 117.844 182.356 117.885 183.806L117.881 185.582L117.876 187.358C117.988 190.189 118.535 192.602 119.514 194.597C118.874 194.84 118.19 195.267 117.464 195.879L116.495 196.668L115.747 197.373C114.504 198.407 113.537 198.604 112.844 197.964C112.304 196.535 111.976 194.997 111.86 193.35L111.781 191.352C111.729 190.471 111.684 189.755 111.646 189.207C111.609 189.108 111.104 189.637 110.133 190.793C110.784 192.067 110.491 193.08 109.253 193.829L108.376 194.414L107.47 194.926C106.707 195.44 106.163 196.011 105.838 196.641C105.499 196.938 104.962 196.86 104.227 196.405C102.395 198.563 100.162 201.745 97.5274 205.952C96.3565 206.282 95.3803 205.637 94.5989 204.017C96.3913 200.861 98.8205 197.154 101.887 192.896C100.659 190.543 99.7422 187.82 99.1357 184.726C98.8736 183.585 98.6356 182.211 98.4216 180.602L97.8093 176.523C97.5262 174.433 97.2445 171.751 96.9644 168.477L96.6578 164.537L96.3233 160.523C95.671 154.179 94.5343 148.862 92.9131 144.574C90.8496 145.523 88.9932 146.648 87.3438 147.947L86.5287 147.58C86.2384 147.408 85.9727 147.226 85.7317 147.036C85.0951 146.544 84.6278 145.904 84.3296 145.115C87.5857 142.701 90.6296 139.354 93.4612 135.072C95.7844 134.363 97.6141 133.615 98.9503 132.828C99.9854 132.437 100.483 133.009 100.444 134.545ZM119.252 141.123C119.893 140.881 120.447 140.784 120.916 140.832C121.57 140.923 122.068 141.27 122.409 141.873C123.884 144.583 125.688 148.013 127.82 152.164L130.452 157.338L133.186 162.557C137.501 170.841 141.373 177.433 144.803 182.333C144.821 182.382 144.606 182.632 144.157 183.084C143.628 183.622 143.041 184.154 142.394 184.68C140.604 186.202 139.169 187.026 138.09 187.152C134.623 182.153 130.685 175.164 126.276 166.184L123.56 160.789L120.946 155.439C118.9 151.368 117.053 147.898 115.405 145.028C112.845 147.348 110.886 149.018 109.525 150.039C113.822 151.57 117.067 153.3 119.262 155.231C119.343 155.595 118.664 156.555 117.225 158.114C115.805 159.721 114.805 160.578 114.226 160.684C110.9 157.998 106.88 156.081 102.165 154.935L101.814 154.898L101.258 154.77C100.82 154.654 100.456 154.51 100.166 154.339C99.2146 153.909 98.8518 153.173 99.0772 152.13C99.5328 151.846 100.004 151.527 100.49 151.174L101.727 150.199C102.712 149.376 103.515 148.819 104.137 148.528C104.988 148.544 105.845 148.276 106.707 147.725C107.36 147.366 108.07 146.787 108.839 145.989L123.001 131.594C125.855 128.712 129.102 126.499 132.743 124.953L132.965 124.869L133.214 124.859C133.479 124.816 133.729 124.806 133.964 124.83C134.618 124.92 135.041 125.296 135.234 125.955C135.651 127.206 136 128.651 136.282 130.291L136.621 132.529L136.96 134.767C137.426 138.534 138.134 141.449 139.083 143.512C139.059 143.747 138.179 144.474 136.443 145.693C134.609 146.95 133.183 147.799 132.167 148.24C131.199 146.127 130.485 143.27 130.025 139.67L129.816 137.552L129.533 135.462C129.319 133.853 129.066 132.512 128.773 131.44C127.598 132.504 125.962 134.136 123.865 136.337L122.592 137.664L121.364 138.888C120.485 139.84 119.781 140.585 119.252 141.123ZM181.23 146.591C182.095 154.094 180.063 160.045 175.135 164.443C173.123 166.274 171.585 167.644 170.521 168.554C168.711 170.026 167.049 171.218 165.535 172.129C161.723 174.415 157.883 175.359 154.015 174.963C152.257 174.782 150.652 174.037 149.199 172.728C147.833 171.498 146.857 170.036 146.273 168.341L146.077 167.824L145.956 167.278C145.807 166.884 145.698 166.446 145.628 165.965C145.385 164.875 145.28 163.703 145.314 162.451C145.428 159.028 146.447 154.868 148.37 149.972C147.334 149.913 146.206 150.058 144.985 150.407C143.687 149.208 143.004 147.551 142.937 145.435C142.834 141.587 143.251 137.177 144.187 132.203C144.515 130.389 144.982 128.269 145.586 125.844L146.336 122.687L147.04 119.633C147.734 118.638 149.18 117.471 151.378 116.133C152.111 115.687 152.927 115.238 153.826 114.785C154.153 114.606 154.479 114.426 154.806 114.246L155.221 114.005L155.517 113.893C157.027 113.716 158.195 114.345 159.019 115.78C160.775 119.679 161.522 125.678 161.26 133.776L161.066 133.934L160.9 134.166L160.42 134.685C159.971 135.137 159.513 135.563 159.045 135.965C157.642 137.172 156.15 138.215 154.567 139.095C153.72 138.345 153.265 137.813 153.203 137.498C154.352 133.684 154.489 129.576 153.614 125.175C153.619 124.891 153.535 124.669 153.362 124.509C153.17 124.3 153.004 124.307 152.863 124.529C151.265 126.711 150.377 130.173 150.198 134.916C150.135 136.686 150.18 138.444 150.333 140.189C150.479 141.767 150.676 142.96 150.925 143.767C151.727 143.802 152.797 143.651 154.134 143.315L155.771 142.95L156.538 142.744L157.231 142.566C157.614 142.534 157.968 142.654 158.296 142.924C158.593 143.263 158.699 143.617 158.613 143.987C155.921 147.146 154.222 150.774 153.518 154.871C152.746 159.387 153.546 163.141 155.916 166.132C157.184 167.399 158.799 168.169 160.76 168.441C162.722 168.713 164.427 168.379 165.874 167.438C168.687 165.642 170.716 163.185 171.96 160.067C173.093 157.103 173.448 153.871 173.025 150.369C170.784 149.357 168.969 148.804 167.581 148.709C167.198 148.291 167.039 147.872 167.106 147.452L167.28 146.795L167.454 146.138C167.898 145.97 168.412 145.691 168.997 145.301L170.631 144.26C172.059 143.27 173.069 142.663 173.661 142.439C174.437 142.258 175.31 142.407 176.28 142.885L176.817 143.189L177.355 143.493C177.781 143.726 178.179 143.885 178.549 143.971L179.438 144.311C179.778 144.464 180.068 144.636 180.309 144.826C180.927 145.269 181.234 145.857 181.23 146.591ZM196.653 154.618L195.49 155.565C194.555 156.369 193.777 157.142 193.156 157.884C192.423 158.33 191.89 158.334 191.555 157.897C191.017 157.368 189.991 156.517 188.477 155.343C187.329 154.988 188.995 152.838 193.474 148.891C193.899 148.674 194.439 148.836 195.094 149.377C195.576 149.758 196.133 150.336 196.764 151.112C197.148 151.53 197.448 151.952 197.665 152.377C197.919 152.9 197.985 153.298 197.862 153.569L196.653 154.618ZM133.79 257.418C133.046 257.981 131.565 258.907 129.348 260.196L127.981 261.051L126.66 261.804C125.651 262.411 124.893 262.866 124.388 263.17C125.19 265.289 126.587 267.718 128.58 270.457L131.244 273.929L132.591 275.701L133.881 277.326L134.095 277.668L134.308 278.009C134.537 278.317 134.655 278.554 134.662 278.721C134.768 279.3 134.338 279.801 133.371 280.223C132.792 280.78 131.949 281.38 130.841 282.024L129.548 282.851C129.012 283.223 128.526 283.576 128.089 283.91C124.761 280.323 121.57 275.756 118.514 270.207L118.273 269.791L118.133 269.422L117.835 268.858C116.08 272.113 114.005 276.756 111.61 282.788L108.651 290.16C107.511 292.957 106.472 295.35 105.534 297.338L104.64 298.774L103.747 300.211C103.003 301.224 102.089 301.936 101.005 302.346L99.8239 303.468L98.6149 304.517C97.581 305.358 96.5459 305.75 95.5097 305.691C94.3057 305.188 93.4401 304.389 92.913 303.292C92.5655 302.522 92.356 301.447 92.2845 300.066C92.16 297.352 92.3394 294.102 92.8227 290.313L93.5313 285.483L94.2399 280.652C89.8238 282.828 86.2043 284.281 83.3817 285.01C82.7716 285.185 81.8693 284.512 80.675 282.991L86.5724 277.804L87.1279 277.932C88.2855 277.269 89.7417 276.353 91.4962 275.182L93.5645 273.724L95.7347 272.312C96.3003 269.338 97.0405 265.932 97.9553 262.093L99.2275 256.965L100.574 251.808C102.783 243.199 104.257 236.445 104.997 231.546C105.026 231.028 105.002 230.22 104.925 229.123L111.075 224.601C111.988 224.931 112.684 225.654 113.162 226.769C113.311 227.164 113.463 227.641 113.619 228.202L113.797 228.895L113.974 229.589L114.872 233.305L115.798 237.096C116.565 240.017 117.231 242.525 117.798 244.621C119.392 250.327 121.067 255.13 122.823 259.029L122.963 259.399C123.019 259.547 123.031 259.655 123.001 259.723L125.153 258.487L127.407 257.296C129.236 256.323 130.622 255.518 131.563 254.88C132.051 254.977 132.471 255.269 132.824 255.755L133.205 256.541C133.453 256.898 133.648 257.19 133.79 257.418ZM109.333 244.356C107.694 249.708 105.726 257.466 103.428 267.629C105.011 266.749 106.852 265.659 108.952 264.358L111.657 262.575L114.391 260.865C113.565 258.53 112.688 255.763 111.76 252.565L110.546 248.461L109.333 244.356ZM113.966 264.659C113.184 265.124 112.209 265.746 111.039 266.527L109.478 267.539L107.917 268.552C105.43 270.168 103.629 271.215 102.514 271.693L102.332 272.776L112.797 266.707L113.966 264.659ZM109.972 272.422C108.784 273.153 107.389 273.934 105.788 274.765L101.576 277.033C99.8763 285.055 99.3989 292.137 100.143 298.277C100.291 298.222 100.842 296.549 101.795 293.259C102.381 291.235 103.002 289.225 103.657 287.232C104.618 284.559 105.727 281.83 106.984 279.045L109.972 272.422ZM167.785 233.835C167.579 235.377 166.908 236.729 165.77 237.892C165.321 238.343 164.789 238.798 164.173 239.256L163.398 239.887L162.594 240.444C157.792 243.387 153.823 245.704 150.688 247.396C156.42 248.102 161.218 249.246 165.083 250.827C170.269 252.922 174.03 255.866 176.365 259.659L176.607 260.075L176.904 260.638C177.159 261.162 177.403 261.661 177.639 262.135C178.229 263.546 178.515 264.676 178.499 265.528C177.697 265.493 176.698 265.532 175.502 265.647L174.032 265.78L172.561 265.914C170.218 266.123 168.299 265.891 166.805 265.217C166.124 264.01 165.415 262.954 164.678 262.049L163.759 260.96L162.915 259.843C160.756 257.561 157.707 255.531 153.767 253.753C149.896 252.005 147.051 251.334 145.233 251.74C147.16 257.434 148.933 262.199 150.553 266.037C152.782 271.335 155.054 275.856 157.371 279.6C157.489 280.062 154.411 280.859 148.135 281.993C143.416 274.426 138.998 264.604 134.883 252.527C134.66 252.385 134.364 252.272 133.994 252.187L133.568 252.179L133.189 252.069C132.516 251.928 132.093 251.553 131.918 250.943C131.898 250.444 132.064 249.987 132.414 249.573C132.703 249.295 133.085 249.038 133.559 248.802C132.404 245.746 131.378 242.81 130.483 239.994L129.886 238.192L129.363 236.361C128.847 234.698 128.436 233.388 128.131 232.433L127.03 232.427L125.856 232.448C125.004 232.432 124.267 232.345 123.644 232.186C123.366 231.897 123.183 231.487 123.095 230.957C122.988 230.378 123.036 229.909 123.239 229.55L127.286 227.514C127.396 227.359 127.479 227.131 127.533 226.828L127.542 226.403C127.634 226.199 127.735 226.02 127.845 225.865C129.733 225.941 132.239 225.641 135.364 224.966L137.176 224.619L138.989 224.272C140.333 224.102 141.538 224.012 142.605 224.003C150.993 223.987 157.799 225.301 163.023 227.945C164.197 228.516 165.263 229.324 166.221 230.37C167.304 231.594 167.825 232.749 167.785 233.835ZM157.773 233.057C157.729 232.791 157.608 232.471 157.41 232.095C157.23 231.769 157.054 231.526 156.881 231.366C154.569 229.423 151.565 228.334 147.871 228.097C144.509 227.847 141.251 228.318 138.096 229.511L142.408 243.598L144.542 242.537L146.722 241.375C148.422 240.507 149.851 239.742 151.008 239.079C154.167 237.152 156.422 235.145 157.773 233.057ZM176.125 216.908C176.766 216.666 177.321 216.569 177.789 216.617C178.443 216.707 178.941 217.055 179.282 217.658C180.757 220.368 182.561 223.798 184.693 227.949L187.325 233.123L190.059 238.342C194.374 246.626 198.246 253.217 201.676 258.117C201.694 258.167 201.479 258.417 201.03 258.869C200.501 259.407 199.914 259.938 199.268 260.464C197.477 261.986 196.042 262.811 194.963 262.937C191.496 257.938 187.558 250.949 183.149 241.969L180.433 236.573L177.819 231.224C175.773 227.153 173.926 223.682 172.278 220.813C169.718 223.133 167.759 224.803 166.398 225.824C170.695 227.355 173.94 229.085 176.135 231.016C176.216 231.379 175.537 232.34 174.098 233.898C172.678 235.506 171.678 236.362 171.099 236.469C167.773 233.783 163.753 231.866 159.038 230.719L158.687 230.683L158.131 230.555C157.693 230.439 157.329 230.295 157.039 230.123C156.088 229.694 155.725 228.958 155.95 227.915C156.406 227.63 156.877 227.311 157.363 226.959L158.6 225.984C159.585 225.161 160.388 224.604 161.01 224.312C161.861 224.328 162.718 224.061 163.58 223.51C164.233 223.15 164.943 222.572 165.712 221.774L179.874 207.379C182.728 204.497 185.975 202.283 189.616 200.738L189.838 200.654L190.087 200.644C190.353 200.6 190.602 200.59 190.837 200.614C191.491 200.705 191.914 201.08 192.107 201.74C192.524 202.991 192.873 204.436 193.155 206.076L193.494 208.313L193.833 210.551C194.299 214.318 195.007 217.234 195.956 219.297C195.932 219.531 195.052 220.258 193.316 221.478C191.482 222.735 190.056 223.584 189.04 224.024C188.072 221.912 187.358 219.055 186.899 215.454L186.689 213.336L186.406 211.246C186.192 209.637 185.939 208.297 185.646 207.224C184.471 208.288 182.835 209.921 180.738 212.122L179.465 213.448L178.237 214.673C177.358 215.625 176.654 216.37 176.125 216.908Z" fill="url(#paint0_linear_118_6823)"/>
<defs>
<linearGradient id="paint0_linear_118_6823" x1="100.187" y1="61.396" x2="288.87" y2="351.287" gradientUnits="userSpaceOnUse">
<stop stop-color="#131313"/>
<stop offset="0.5" stop-color="#2B5D9A"/>
<stop offset="1" stop-color="#67BDFF"/>
</linearGradient>
</defs>
</svg>
