<svg width="338" height="330" viewBox="0 0 338 330" fill="none" xmlns="http://www.w3.org/2000/svg">
<path d="M61.9259 161.996C70.4671 167.015 75.3719 172.804 76.6402 179.361C76.9043 184.537 75.616 189.267 72.7754 193.552C71.055 196.196 68.6613 197.442 65.5943 197.291C59.2789 197.126 51.1308 193.631 41.1501 186.805C37.7804 184.495 34.2251 181.716 30.4839 178.466C29.2369 177.383 28.054 176.352 26.9351 175.373C26.5425 174.984 26.1753 174.65 25.8336 174.373C25.6119 174.122 25.4583 173.962 25.3729 173.893C19.0733 167.858 14.7883 163.139 12.5179 159.737L12.1092 159.193L11.7006 158.649L11.0114 157.664C10.544 156.93 10.266 156.138 10.1775 155.286C10.2388 155.123 10.3481 154.858 10.5054 154.489L10.6894 154.001L10.8733 153.512C11.1799 152.698 11.0514 152.027 10.488 151.498L11.1401 150.433L11.7402 149.432C12.2096 148.679 12.5403 148.097 12.7323 147.686C13.351 146.487 14.4597 145.863 16.0585 145.814C16.6084 145.836 17.2611 145.905 18.0165 146.022L19.0336 146.209L19.9986 146.461C23.0098 147.204 26.5885 148.515 30.7347 150.392L33.3297 151.648L35.9768 152.84L41.3472 155.391C41.5558 156.269 41.4123 157.712 40.9168 159.72C40.4213 161.727 39.9401 162.931 39.4732 163.332C39.0063 163.732 38.4217 163.754 37.7196 163.397C36.4087 162.829 34.8202 162.035 32.9539 161.017L28.2402 158.573C24.4384 156.621 21.212 155.313 18.5612 154.65C23.7962 161.734 31.0852 168.82 40.4282 175.907C49.7792 183.072 57.7715 187.327 64.4051 188.672C65.7611 188.922 67.037 188.966 68.2328 188.802C69.7381 188.607 70.8936 188.056 71.6993 187.151C72.0647 186.526 72.2365 185.922 72.2149 185.337C72.1908 185.105 72.1666 184.873 72.1425 184.64L71.9781 184.188C71.021 181.001 69.031 178.04 66.0082 175.302C63.7197 173.232 60.7092 171.178 56.9766 169.141L56.424 168.905L55.8834 168.785C55.5577 168.662 55.2054 168.66 54.8264 168.778C53.6251 168.511 53.1617 167.816 53.4361 166.692C54.3441 162.256 55.7137 160.001 57.5447 159.928C59.216 160.576 60.6764 161.265 61.9259 161.996ZM68.9671 117.042C77.3684 119.964 83.5119 126.191 87.3976 135.723C89.3323 140.412 90.0537 144.718 89.5618 148.642C89.0061 153.081 86.885 157.703 83.1984 162.506C82.0968 163.951 80.5037 164.997 78.4194 165.644C76.4899 166.275 74.0288 166.12 71.0362 165.179C69.9817 164.819 68.9191 164.382 67.8485 163.867C66.9408 163.414 66.2519 162.996 65.7819 162.615C62.2173 159.934 58.6802 156.39 55.1708 151.982C53.8594 150.28 52.0616 147.474 49.7776 143.565C47.197 139.06 45.7408 135.965 45.409 134.278C45.2164 133.555 45.3722 132.795 45.8763 131.999L45.4556 131.339L45.0869 130.615C44.7984 130.097 44.6046 129.55 44.5056 128.973C44.2487 127.631 44.6577 126.297 45.7328 124.973L46.5892 124.18L47.2775 123.463C47.8058 122.899 48.1232 122.377 48.2297 121.897C50.0993 118.808 53.2627 116.875 57.7199 116.099C61.5659 115.464 65.315 115.779 68.9671 117.042ZM81.6672 142.128C79.5585 136.518 76.2865 131.949 71.8513 128.42C67.125 124.725 61.9686 122.914 56.382 122.986C54.2333 123.014 52.5412 123.483 51.3058 124.394C51.5491 125.229 52.0153 126.139 52.7045 127.124C53.3081 128.039 53.8236 128.67 54.2508 129.017C58.4458 132.493 64.5369 135.204 72.5241 137.152C72.4281 137.357 72.2974 137.605 72.1321 137.896C72.0095 138.222 71.8481 138.552 71.6481 138.886C71.1948 139.793 70.7507 140.602 70.316 141.313C69.1586 143.35 68.2609 144.499 67.6231 144.761C66.4113 144.77 64.9738 144.489 63.3106 143.918C62.6245 143.716 61.8917 143.44 61.1121 143.091C60.5808 142.872 59.9254 142.588 59.1458 142.239C63.8335 148.95 68.1839 153.544 72.1969 156.022C73.2836 156.691 74.4997 157.288 75.8452 157.814C78.6056 158.778 80.7329 158.733 82.2272 157.678C83.7988 156.615 84.1805 153.7 83.3721 148.934C82.9679 146.55 82.3996 144.282 81.6672 142.128ZM91.3507 74.2732C92.456 74.7452 93.6616 75.6174 94.9674 76.89C96.4603 78.4561 97.9026 80.4773 99.2945 82.9537C102.893 89.3473 105.621 97.9048 107.479 108.626C109.144 118.624 110.696 124.526 112.136 126.333C111.839 126.872 110.956 127.785 109.486 129.073C108.622 129.788 107.925 130.428 107.397 130.991C106.471 131.87 105.627 132.779 104.864 133.719C100.301 130.086 93.8904 123.926 85.633 115.239C84.1909 113.785 82.6981 112.219 81.1545 110.541C80.0542 109.364 78.779 108.01 77.3289 106.479C74.7358 103.736 73.307 102.222 73.0426 101.936C70.0025 107.69 67.3046 111.843 64.9489 114.396C63.6497 115.822 62.1487 116.624 60.4458 116.801C58.1421 110.82 56.1161 105.065 54.3677 99.535C54.3944 99.4149 54.4557 99.252 54.5517 99.0465C54.6743 98.7208 54.7969 98.3951 54.9196 98.0694C55.3382 97.2043 55.7782 96.3567 56.2396 95.5263C57.6745 93.1474 59.1378 91.6065 60.6295 90.9038L61.3511 92.7652L62.1247 94.5626L63.4676 97.8851C64.4724 100.402 65.3197 102.719 66.0094 104.838L66.9615 103.273L67.8616 101.771C68.5311 100.684 69.0017 99.7549 69.2736 98.9833C68.9077 98.4737 68.2374 97.8588 67.2628 97.1385L66.1734 96.2542L65.188 95.2417C65.4171 94.4355 66.272 93.2513 67.7527 91.6891L68.7132 90.7678L69.6616 89.7304C70.4059 88.988 70.9555 88.4418 71.3103 88.092C72.4187 89.346 73.3666 90.1863 74.1542 90.613C78.2533 83.3802 82.8071 78.0756 87.8156 74.6994C89.1445 73.9353 90.3229 73.7933 91.3507 74.2732ZM87.0868 82.9315C86.2912 82.4274 85.5398 82.349 84.8326 82.6964C83.5198 83.6152 82.1685 85.1053 80.7789 87.1666C80.2321 87.9276 79.6066 88.8728 78.9025 90.0022L77.1143 93.122C77.5068 93.5115 78.778 94.8268 80.9278 97.0679C82.0627 98.2018 83.0482 99.2143 83.8841 100.105C85.0698 101.351 86.1874 102.507 87.2369 103.571C93.3631 109.819 98.027 114.42 101.229 117.373C99.0963 106.642 96.9305 98.7885 94.7313 93.8142C92.5056 88.96 89.9574 85.3324 87.0868 82.9315ZM140.358 61.3089C145.083 67.6246 146.378 74.0621 144.243 80.6213C143.39 83.331 142.722 85.3759 142.24 86.7561C141.382 89.0361 140.508 90.985 139.62 92.603C137.383 96.6692 134.415 99.54 130.716 101.215C129.035 101.977 127.194 102.149 125.195 101.731C123.316 101.339 121.667 100.532 120.249 99.3106L119.801 98.9465L119.404 98.5183C119.062 98.2409 118.734 97.9034 118.419 97.5058C117.625 96.6494 116.915 95.6474 116.287 94.5C114.591 91.3511 113.323 87.0623 112.485 81.6336C111.519 82.1252 110.577 82.849 109.66 83.805C107.858 83.4055 106.37 82.2691 105.198 80.3959C103.082 76.9777 101.14 72.7786 99.3701 67.7987C98.7126 65.9893 98.0189 63.8316 97.289 61.3256L96.3066 58.083L95.3361 54.9565C95.4396 53.6939 96.1314 51.8812 97.4115 49.5183C97.8382 48.7307 98.3383 47.8963 98.9117 47.0152C99.1117 46.6815 99.3118 46.3477 99.5118 46.014L99.7598 45.5774L99.9679 45.3211C101.238 44.3676 102.622 44.3215 104.12 45.183C107.754 47.7784 111.581 52.7986 115.602 60.2438L115.51 60.488L115.482 60.7843L115.322 61.5051C115.154 62.1485 114.965 62.7745 114.755 63.3832C114.123 65.2092 113.324 66.9352 112.359 68.5612C111.2 68.3296 110.51 68.0883 110.289 67.8375C109.32 63.7915 107.285 60.0129 104.181 56.5017C104.037 56.2429 103.845 56.0868 103.605 56.0335C103.322 55.9456 103.175 56.0391 103.164 56.314C102.869 59.1222 103.888 62.7131 106.22 67.0868C107.094 68.7172 108.058 70.2796 109.113 71.7738C110.075 73.1213 110.88 74.0939 111.529 74.6914C112.271 74.3014 113.157 73.603 114.187 72.5962L115.471 71.4064L116.055 70.8176L116.588 70.2928C116.916 70.0631 117.299 69.9842 117.737 70.0561C118.182 70.2053 118.464 70.4694 118.582 70.8484C117.813 75.1142 118.187 79.2806 119.705 83.3477C121.383 87.8285 124.078 90.7954 127.789 92.2483C129.599 92.7252 131.461 92.5708 133.374 91.7852C135.287 90.9995 136.649 89.8017 137.46 88.1918C139.055 85.0921 139.594 81.8087 139.077 78.3417C138.542 75.0722 137.163 71.9685 134.941 69.0308C132.386 69.2963 130.458 69.751 129.156 70.3949C128.59 70.219 128.227 69.9242 128.066 69.5106L127.878 68.826L127.689 68.1415C128.001 67.7569 128.319 67.235 128.641 66.5755L129.569 64.7774C130.337 63.1328 130.929 62.0541 131.346 61.5414C131.951 60.9699 132.817 60.6452 133.944 60.5672L134.588 60.5589L135.233 60.5506C135.74 60.537 136.183 60.4714 136.562 60.3538L137.543 60.1932C137.93 60.1529 138.282 60.1554 138.6 60.2007C139.39 60.275 139.976 60.6444 140.358 61.3089ZM161.172 24.6651C161.585 24.5047 162.296 24.9394 163.302 25.9693L164.084 26.7096L164.813 27.514C165.47 28.189 166.037 28.7559 166.515 29.2148C166.235 29.9089 165.447 30.7928 164.15 31.8665C161.89 34.2138 159.754 36.8026 157.74 39.6329L156.503 41.2871L155.331 42.9933C154.445 44.2589 153.656 45.319 152.962 46.1734C147.726 53.7592 143.772 58.8059 141.098 61.3135C140.69 61.9036 139.983 61.6837 138.976 60.6539C138.498 60.195 137.327 58.7129 135.463 56.2074C137.416 54.6743 139.263 52.8784 141.005 50.8196C141.664 50.0078 142.388 49.0719 143.178 48.0119L145.235 45.2162L147.135 42.6129L148.972 39.9574L152.761 34.6346C155.815 30.5225 158.619 27.1994 161.172 24.6651ZM132.486 213.104C137.185 215.784 140.334 220.112 141.934 226.088C142.519 228.335 142.977 231.045 143.307 234.219L143.625 238.41L143.919 242.37C144.188 245.706 144.213 248.207 143.995 249.873C143.649 252.569 142.68 254.724 141.087 256.337C139.209 258.214 137.616 259.827 136.309 261.176C135.781 261.739 134.743 262.101 133.195 262.262C131.809 262.484 130.675 262.485 129.791 262.264C127.581 261.32 125.443 259.762 123.379 257.59C121.793 255.878 120.261 253.748 118.784 251.203C116.015 245.27 114.59 240.215 114.508 236.038C114.416 233.27 114.619 230.706 115.117 228.347C115.277 227.626 115.493 226.88 115.765 226.108L115.897 225.684L116.093 225.311C116.146 225.071 116.186 224.891 116.212 224.771C116.679 224.37 117.417 223.941 118.426 223.484L119.655 222.887L120.884 222.29C122.966 221.995 124.905 222.967 126.703 225.206C127.272 226.164 127.941 227.522 128.71 229.281L129.56 231.246C129.873 231.996 130.216 232.665 130.59 233.252L132.869 233.719C132.866 234.071 131.731 235.383 129.463 237.653C129.178 237.917 128.896 238.22 128.619 238.562L127.943 239.395C127.5 240.028 127.149 240.416 126.89 240.561C126.268 240.977 125.427 240.224 124.367 238.3C124.18 238.006 123.965 237.442 123.721 236.606L123.368 235.469L123.016 234.332C122.299 232.334 121.366 231.257 120.215 231.103C120.56 237.052 122.507 242.424 126.057 247.219C127.827 249.578 129.649 251.482 131.521 252.93C133.812 254.648 135.626 255.164 136.962 254.477C137.969 249.482 138.109 244.245 137.383 238.766C136.78 234.095 136.018 230.712 135.096 228.617C133.947 225.842 131.832 222.991 128.75 220.064C125.896 217.818 122.874 217.917 119.686 220.361C119.107 220.812 118.428 221.43 117.649 222.216L115.56 224.134C113.777 225.806 112.26 227.02 111.009 227.776C105.928 229.321 101.915 227.978 98.9716 223.746C98.01 222.398 97.1965 220.781 96.5309 218.895L96.1901 217.874C96.0886 217.65 96.0217 217.383 95.9895 217.073C95.805 216.427 95.6914 216.087 95.6487 216.052C95.0872 214.037 94.5598 210.845 94.0666 206.476C93.8464 203.604 94.1441 201.011 94.9597 198.696C95.6528 196.707 96.517 195.424 97.5523 194.847L98.1766 194.078C98.5661 193.686 98.981 193.349 99.4212 193.069C100.665 192.235 102.02 191.918 103.489 192.118C106.353 192.955 108.957 194.855 111.299 197.819C112.202 198.977 113.107 200.35 114.015 201.938C114.627 202.931 115.378 204.32 116.268 206.105C114.512 208.791 113.388 210.394 112.895 210.915C112.254 211.529 111.731 211.388 111.325 210.491L110.487 208.642L109.573 206.625C108.905 205.09 108.244 203.809 107.59 202.782C105.848 199.951 103.734 198.058 101.249 197.104L100.837 197.088L100.36 197.02C99.9303 197.025 99.7102 197.166 99.6996 197.441C99.3356 206.359 101.354 213.738 105.756 219.579C106.939 221.177 108.657 221.898 110.91 221.742C112.733 221.592 114.569 220.814 116.418 219.409C117.109 218.907 117.9 218.238 118.791 217.402L119.92 216.405L120.984 215.355C124.712 212.073 128.546 211.323 132.486 213.104ZM123.41 166.921C123.426 167.076 123.458 167.385 123.506 167.85L123.566 168.43L123.691 169.063C123.761 170.112 123.605 170.871 123.224 171.341C124.425 171.607 125.722 172.235 127.116 173.225C131.266 177.019 135.77 182.34 140.629 189.19L143.589 193.4L146.55 197.611C148.839 200.815 150.9 203.516 152.732 205.711C154.07 207.294 155.65 208.753 157.471 210.089C157.593 209.764 157.739 209.279 157.906 208.636L158.158 207.671L158.41 206.706C158.887 204.896 159.309 203.502 159.677 202.525C160.791 199.319 161.904 198.167 163.015 199.068C163.568 199.871 164.243 200.916 165.042 202.202L165.972 203.807L166.901 205.412C168.491 207.907 170.252 209.798 172.185 211.083C171.734 211.639 171.342 212.384 171.009 213.318L170.549 214.539L170.245 215.568C169.667 217.154 168.897 217.841 167.936 217.628C166.697 216.622 165.593 215.407 164.623 213.982L163.501 212.221C162.991 211.452 162.575 210.83 162.251 210.355C162.166 210.286 161.989 211.028 161.72 212.582C162.977 213.39 163.245 214.457 162.522 215.784L162.038 216.774L161.49 217.711C161.072 218.576 160.881 219.378 160.919 220.117C160.77 220.563 160.244 220.774 159.342 220.751C158.822 223.66 158.48 227.706 158.314 232.887C157.431 233.8 156.212 233.731 154.655 232.68C154.613 228.89 154.856 224.268 155.385 218.815C153.041 217.337 150.782 215.362 148.608 212.888C147.772 211.997 146.834 210.882 145.795 209.542L143.099 206.185C141.745 204.448 140.081 202.176 138.107 199.369L135.759 195.974L133.347 192.528C129.424 187.146 125.603 182.947 121.886 179.93C120.523 181.871 119.439 183.861 118.634 185.901L117.705 185.998C117.353 185.995 117.018 185.971 116.7 185.926C115.867 185.817 115.109 185.485 114.426 184.93C116.095 181.04 117.081 176.419 117.386 171.068C119.109 169.206 120.367 167.569 121.159 166.157C121.887 165.26 122.637 165.514 123.41 166.921ZM143.838 162.97C144.289 162.415 144.739 162.036 145.187 161.832C145.825 161.571 146.456 161.622 147.081 161.988C149.836 163.657 153.267 165.804 157.374 168.429L162.468 171.714L167.679 174.986C175.926 180.192 182.886 184.105 188.556 186.723C188.599 186.758 188.536 187.097 188.369 187.74C188.174 188.504 187.924 189.293 187.617 190.107C186.801 192.421 185.94 193.919 185.033 194.6C179.277 191.913 172.049 187.676 163.35 181.891L158.063 178.45L152.893 174.997C148.906 172.399 145.415 170.239 142.42 168.516C141.33 171.955 140.439 174.492 139.749 176.129C144.43 175.251 148.268 175.106 151.264 175.695C151.528 175.98 151.42 177.204 150.941 179.366C150.504 181.563 150.053 182.862 149.586 183.263C145.173 182.587 140.538 182.971 135.681 184.414L135.345 184.567L134.776 184.743C134.32 184.869 133.916 184.93 133.563 184.928C132.48 185.041 131.765 184.567 131.42 183.508C131.682 183.011 131.939 182.476 132.192 181.902L132.796 180.372C133.252 179.112 133.684 178.187 134.092 177.597C134.869 177.164 135.501 176.472 135.989 175.522C136.389 174.854 136.726 173.959 137.001 172.835L142.212 152.401C143.272 148.301 145.039 144.596 147.511 141.288L147.667 141.096L147.888 140.955C148.104 140.776 148.324 140.636 148.548 140.535C149.186 140.273 149.765 140.389 150.286 140.882C151.319 141.792 152.394 142.912 153.511 144.244L154.993 146.085L156.475 147.926C158.876 151.08 161.047 153.338 162.989 154.701C163.09 154.925 162.678 156.044 161.753 158.057C160.758 160.155 159.918 161.671 159.233 162.602C157.249 161.205 155.103 159.002 152.796 155.995L151.493 154.194L150.139 152.457C149.1 151.118 148.167 150.041 147.339 149.227C146.838 150.805 146.22 153.138 145.485 156.227L145.033 158.093L144.57 159.843C144.277 161.164 144.033 162.207 143.838 162.97ZM202.637 135.324C207.362 141.639 208.657 148.077 206.522 154.636C205.669 157.346 205.001 159.391 204.519 160.771C203.661 163.051 202.787 165 201.899 166.618C199.662 170.684 196.694 173.555 192.995 175.23C191.314 175.992 189.473 176.163 187.474 175.745C185.595 175.354 183.946 174.547 182.528 173.325L182.08 172.961L181.683 172.533C181.341 172.256 181.013 171.918 180.698 171.521C179.904 170.664 179.194 169.662 178.566 168.515C176.87 165.366 175.602 161.077 174.764 155.648C173.798 156.14 172.856 156.864 171.939 157.82C170.137 157.42 168.649 156.284 167.477 154.411C165.361 150.992 163.419 146.793 161.649 141.814C160.992 140.004 160.298 137.846 159.568 135.34L158.586 132.098L157.615 128.971C157.719 127.709 158.41 125.896 159.69 123.533C160.117 122.745 160.617 121.911 161.191 121.03C161.391 120.696 161.591 120.362 161.791 120.029L162.039 119.592L162.247 119.336C163.517 118.382 164.901 118.336 166.399 119.198C170.033 121.793 173.86 126.813 177.881 134.259L177.789 134.503L177.761 134.799L177.601 135.52C177.433 136.163 177.244 136.789 177.034 137.398C176.402 139.224 175.603 140.95 174.638 142.576C173.479 142.344 172.789 142.103 172.568 141.852C171.599 137.806 169.564 134.028 166.46 130.516C166.316 130.258 166.124 130.102 165.883 130.048C165.601 129.96 165.454 130.054 165.443 130.329C165.148 133.137 166.167 136.728 168.499 141.102C169.373 142.732 170.337 144.294 171.392 145.789C172.354 147.136 173.159 148.109 173.808 148.706C174.55 148.316 175.436 147.618 176.466 146.611L177.75 145.421L178.334 144.832L178.867 144.308C179.195 144.078 179.578 143.999 180.016 144.071C180.461 144.22 180.743 144.484 180.861 144.863C180.091 149.129 180.466 153.295 181.984 157.363C183.662 161.843 186.357 164.81 190.068 166.263C191.878 166.74 193.74 166.586 195.653 165.8C197.566 165.014 198.928 163.816 199.739 162.207C201.334 159.107 201.873 155.823 201.356 152.356C200.821 149.087 199.442 145.983 197.22 143.046C194.665 143.311 192.737 143.766 191.435 144.41C190.869 144.234 190.506 143.939 190.345 143.525L190.157 142.841L189.968 142.156C190.28 141.772 190.598 141.25 190.92 140.59L191.848 138.792C192.616 137.148 193.208 136.069 193.624 135.556C194.23 134.985 195.096 134.66 196.222 134.582L196.867 134.574L197.512 134.565C198.019 134.552 198.462 134.486 198.841 134.369L199.822 134.208C200.209 134.168 200.561 134.17 200.879 134.215C201.669 134.29 202.255 134.659 202.637 135.324ZM220.773 134.459L220.222 135.925C219.8 137.142 219.505 138.249 219.334 139.244C218.908 140.032 218.429 140.316 217.897 140.098C217.134 139.903 215.761 139.674 213.777 139.411C212.555 139.695 212.927 136.879 214.894 130.963C215.164 130.543 215.736 130.406 216.612 130.549C217.247 130.64 218.053 130.869 219.03 131.237C219.596 131.413 220.089 131.635 220.508 131.905C221.013 132.244 221.281 132.568 221.313 132.877L220.773 134.459ZM218.067 260.245C217.691 261.144 216.842 262.758 215.519 265.087L214.735 266.576L213.939 267.95C213.347 269.029 212.903 269.838 212.607 270.377C214.444 271.868 216.982 273.326 220.22 274.75L224.449 276.481L226.595 277.373L228.614 278.161L228.986 278.357L229.359 278.553C229.727 278.71 229.958 278.862 230.051 279.009C230.452 279.476 230.327 280.154 229.676 281.043C229.447 281.849 229.002 282.834 228.34 283.998L227.608 285.424C227.32 286.041 227.067 286.615 226.848 287.146C221.96 285.659 216.679 283.215 211.006 279.815L210.569 279.567L210.249 279.307L209.684 278.955C209.811 282.814 210.38 288.095 211.389 294.797L212.594 303.004C213.036 306.127 213.357 308.832 213.555 311.119L213.504 312.885L213.453 314.651C213.315 315.956 212.864 317.079 212.101 318.019L211.626 319.652L211.086 321.234C210.595 322.537 209.867 323.434 208.901 323.926C207.55 324.105 206.349 323.839 205.297 323.127C204.579 322.615 203.824 321.754 203.034 320.545C201.495 318.162 199.948 315.135 198.393 311.463L196.493 306.731L194.593 302C191.752 306.285 189.25 309.499 187.086 311.641C186.627 312.119 185.46 311.986 183.583 311.242L186.178 303.461L186.746 303.285C187.442 302.078 188.274 300.485 189.242 298.507L190.342 296.104L191.558 293.689C190.505 290.708 189.382 287.246 188.19 283.301L186.642 278.005L185.146 272.644C182.614 263.714 180.394 256.845 178.486 252.036C178.24 251.553 177.794 250.837 177.147 249.887L180.319 242.574C181.317 242.392 182.325 242.679 183.342 243.434C183.684 243.711 184.072 244.062 184.508 244.486L185.032 245.018L185.557 245.55L188.321 248.432L191.149 251.365C193.376 253.598 195.296 255.511 196.909 257.104C201.348 261.415 205.384 264.869 209.018 267.464L209.338 267.724C209.467 267.828 209.535 267.919 209.543 267.996L210.835 265.749L212.243 263.491C213.382 261.651 214.209 260.196 214.723 259.125C215.214 258.957 215.747 258.999 216.321 259.253L217.078 259.761C217.489 259.953 217.819 260.114 218.067 260.245ZM189.132 261.316C190.467 267.006 192.769 275.04 196.038 285.419C197.004 283.793 198.092 281.842 199.303 279.564L200.806 276.533L202.375 273.553C200.401 271.88 198.155 269.845 195.637 267.446L192.385 264.381L189.132 261.316ZM203.986 277.2C203.524 278.03 202.971 279.105 202.326 280.424L201.45 282.158L200.574 283.892C199.179 286.658 198.104 288.549 197.349 289.567L197.754 290.639L204.007 279.662L203.986 277.2ZM204.463 286.304C203.775 287.588 202.927 289.026 201.918 290.617L199.31 294.879C201.994 303.01 205.285 309.651 209.185 314.801C209.289 314.673 208.906 312.874 208.037 309.404C207.502 307.269 207.006 305.13 206.549 302.987C206.011 300.07 205.577 297.024 205.247 293.851L204.463 286.304ZM236.344 221.095C236.969 222.595 237.074 224.168 236.658 225.815C236.491 226.458 236.249 227.149 235.935 227.885L235.567 228.863L235.135 229.788C232.348 234.967 229.985 239.144 228.046 242.319C233.589 239.943 238.52 238.453 242.838 237.848C248.619 237.012 253.56 237.692 257.661 239.886L258.098 240.134L258.662 240.486C259.167 240.825 259.65 241.147 260.112 241.451C261.386 242.414 262.239 243.283 262.672 244.06C261.93 244.45 261.049 245.011 260.03 245.743L258.773 246.636L257.517 247.53C255.513 248.951 253.659 249.75 251.957 249.927C250.707 249.196 249.512 248.616 248.372 248.187L246.971 247.687L245.621 247.123C242.474 246.198 238.655 245.969 234.166 246.436C229.754 246.894 226.834 247.785 225.407 249.107C230.139 253.231 234.244 256.599 237.723 259.21C242.519 262.819 246.946 265.704 251.004 267.864C251.354 268.219 248.996 270.557 243.929 274.878C235.692 270.531 226.543 263.991 216.481 255.257C216.206 255.246 215.88 255.3 215.501 255.417L215.112 255.634L214.712 255.734C214.031 255.961 213.452 255.845 212.974 255.387C212.694 254.946 212.603 254.447 212.701 253.889C212.816 253.486 213.025 253.054 213.329 252.592C210.68 250.442 208.212 248.332 205.923 246.261L204.437 244.949L203.003 243.572C201.662 242.342 200.604 241.377 199.827 240.675L198.83 241.248L197.781 241.885C197.005 242.318 196.293 242.627 195.648 242.811C195.245 242.696 194.864 242.423 194.506 241.991C194.106 241.524 193.902 241.076 193.897 240.646L196.477 236.681C196.496 236.483 196.451 236.234 196.341 235.932L196.125 235.544C196.1 235.312 196.098 235.097 196.116 234.899C197.859 233.975 199.963 232.387 202.428 230.136L203.881 228.87L205.334 227.604C206.457 226.744 207.497 226.029 208.455 225.46C216.015 221.037 222.847 218.644 228.951 218.284C230.31 218.182 231.697 218.35 233.112 218.79C234.732 219.326 235.81 220.094 236.344 221.095ZM226.901 225.656C226.722 225.44 226.444 225.214 226.068 224.979C225.734 224.779 225.447 224.653 225.207 224.599C222.1 224.062 218.817 224.657 215.358 226.386C212.194 227.928 209.501 230.066 207.282 232.8L218.578 243.244L219.946 241.166L221.302 238.971C222.38 237.294 223.267 235.852 223.963 234.646C225.8 231.247 226.78 228.25 226.901 225.656ZM234.971 201.437C235.422 200.882 235.872 200.503 236.32 200.3C236.958 200.038 237.589 200.089 238.214 200.455C240.969 202.124 244.4 204.271 248.507 206.896L253.601 210.181L258.812 213.453C267.06 218.66 274.019 222.572 279.689 225.19C279.732 225.225 279.669 225.564 279.502 226.207C279.307 226.971 279.057 227.76 278.75 228.574C277.934 230.889 277.073 232.386 276.166 233.068C270.41 230.38 263.182 226.143 254.483 220.358L249.196 216.917L244.026 213.464C240.039 210.866 236.548 208.706 233.553 206.983C232.463 210.422 231.572 212.959 230.882 214.596C235.563 213.718 239.401 213.573 242.397 214.162C242.661 214.447 242.553 215.671 242.074 217.833C241.637 220.03 241.186 221.329 240.719 221.73C236.306 221.054 231.671 221.438 226.814 222.882L226.478 223.034L225.909 223.21C225.453 223.336 225.049 223.398 224.696 223.395C223.613 223.508 222.898 223.034 222.554 221.975C222.815 221.478 223.072 220.943 223.325 220.369L223.929 218.839C224.385 217.579 224.817 216.654 225.225 216.064C226.002 215.631 226.634 214.939 227.122 213.989C227.522 213.322 227.859 212.426 228.134 211.302L233.345 190.868C234.405 186.768 236.172 183.063 238.644 179.755L238.801 179.563L239.021 179.422C239.237 179.243 239.457 179.103 239.681 179.002C240.319 178.74 240.898 178.856 241.419 179.349C242.452 180.259 243.527 181.379 244.644 182.711L246.126 184.552L247.608 186.393C250.009 189.547 252.18 191.805 254.122 193.168C254.223 193.392 253.811 194.511 252.886 196.524C251.891 198.622 251.051 200.138 250.366 201.07C248.382 199.672 246.236 197.469 243.929 194.462L242.626 192.661L241.272 190.924C240.233 189.585 239.3 188.508 238.472 187.695C237.971 189.272 237.353 191.605 236.618 194.694L236.166 196.56L235.703 198.31C235.41 199.631 235.166 200.674 234.971 201.437Z" fill="url(#paint0_linear_118_6804)" fill-opacity="0.4"/>
<defs>
<linearGradient id="paint0_linear_118_6804" x1="144" y1="110.5" x2="104.908" y2="240.759" gradientUnits="userSpaceOnUse">
<stop stop-color="#121212"/>
<stop offset="0.5" stop-color="#268DF4"/>
<stop offset="1" stop-color="#FF8ED2"/>
</linearGradient>
</defs>
</svg>
