<svg width="542" height="623" viewBox="0 0 542 623" fill="none" xmlns="http://www.w3.org/2000/svg">
<path d="M100.542 178.243C108.33 196.694 109.294 212.001 103.433 224.165C97.6131 232.875 89.8131 238.989 80.0334 242.508C74.0526 244.717 68.6668 243.847 63.876 239.9C53.8357 232.008 44.8447 216.503 36.903 193.386C34.2284 185.572 31.8197 176.773 29.6769 166.988C28.9627 163.726 28.2895 160.626 27.6575 157.688C27.4913 156.582 27.2986 155.598 27.0793 154.736C27.0227 154.062 26.967 153.617 26.9122 153.401C23.9842 136.011 22.7333 123.187 23.1596 114.93L23.1542 113.554L23.1488 112.178L23.2202 109.749C23.3482 107.995 23.8545 106.374 24.739 104.887C25.035 104.697 25.5329 104.398 26.2328 103.991L27.1209 103.421L28.009 102.851C29.4891 101.901 30.0913 100.657 29.8154 99.1206L32.159 98.1806L34.3408 97.2818C36.0109 96.6277 37.2498 96.0833 38.0575 95.6484C40.5079 94.4517 43.0588 94.779 45.71 96.6301C46.5761 97.3282 47.5509 98.2282 48.6344 99.3301L50.0568 100.862L51.3175 102.436C55.3025 107.276 59.523 113.721 63.9792 121.771L66.6705 126.94L69.5234 132.069L75.1498 142.69C74.4279 144.365 72.4534 146.531 69.2263 149.188C65.9992 151.845 63.7653 153.216 62.5246 153.302C61.2839 153.388 60.31 152.717 59.6029 151.29C58.1632 148.786 56.5454 145.582 54.7494 141.677L50.0576 132.023C46.2501 124.268 42.5978 118.253 39.1007 113.977C39.0356 131.783 42.2987 152.073 48.8901 174.844C55.401 197.751 63.2225 214.299 72.3545 224.489C74.2511 226.532 76.2674 228.143 78.4033 229.321C81.0802 230.822 83.6182 231.324 86.0174 230.829C87.3642 230.257 88.3729 229.485 89.0435 228.511C89.2848 228.105 89.526 227.699 89.7672 227.294L90.0468 226.362C92.3423 220.04 92.6917 212.835 91.0952 204.747C89.8841 198.628 87.4826 191.663 83.8907 183.853L83.2795 182.803L82.5478 181.956C82.1677 181.364 81.5995 180.935 80.843 180.668C79.2169 178.786 79.3047 177.099 81.1064 175.608C87.9353 169.511 92.8781 167.509 95.935 169.601C97.8626 172.669 99.3982 175.55 100.542 178.243ZM166.232 113.858C176.327 128.738 178.77 146.251 173.561 166.398C171.037 176.337 167.007 184.19 161.472 189.958C155.212 196.485 146.193 201.417 134.416 204.755C130.886 205.767 127.04 205.539 122.88 204.072C118.99 202.765 115.186 199.542 111.47 194.404C110.195 192.547 109 190.555 107.885 188.428C106.961 186.597 106.348 185.089 106.046 183.903C103.503 175.253 102.048 165.236 101.679 153.852C101.608 149.508 102.081 142.789 103.098 133.693C104.352 123.274 105.728 116.496 107.227 113.361C107.788 111.956 108.957 110.912 110.735 110.231L110.85 108.652L111.127 107.032C111.285 105.845 111.631 104.724 112.166 103.669C113.371 101.183 115.644 99.5144 118.986 98.665L121.332 98.4129L123.314 98.0814C124.851 97.8056 125.995 97.3425 126.748 96.692C133.509 93.9406 140.972 94.6263 149.136 98.7491C156.138 102.364 161.836 107.4 166.232 113.858ZM156.537 169.865C159.891 158.223 160.103 146.864 157.172 135.787C153.97 124.091 147.796 114.928 138.651 108.3C135.134 105.751 131.824 104.469 128.721 104.454C128.107 106.102 127.764 108.141 127.693 110.569C127.567 112.782 127.641 114.427 127.915 115.506C130.52 126.206 137.122 137.957 147.721 150.757C147.317 150.975 146.805 151.22 146.186 151.492C145.594 151.872 144.934 152.212 144.207 152.511C142.376 153.436 140.679 154.211 139.117 154.838C134.781 156.744 131.938 157.524 130.587 157.178C128.612 155.729 126.62 153.538 124.613 150.605C123.745 149.448 122.89 148.116 122.047 146.609C121.45 145.613 120.73 144.361 119.888 142.854C119.386 159.394 120.893 172.095 124.408 180.958C125.361 183.355 126.612 185.792 128.16 188.268C131.47 193.165 134.974 195.661 138.67 195.754C142.502 195.928 146.64 191.662 151.085 182.957C153.307 178.605 155.124 174.241 156.537 169.865ZM254.161 71.5381C255.384 73.6377 256.285 76.5074 256.866 80.1474C257.396 84.489 257.294 89.5075 256.561 95.2031C254.676 109.914 248.767 127.083 238.835 146.709C229.464 164.93 224.855 176.373 225.008 181.04C223.877 181.557 221.342 181.972 217.405 182.284C215.139 182.401 213.237 182.597 211.701 182.873C209.139 183.18 206.672 183.635 204.3 184.238C201.288 172.837 198.331 155.11 195.431 131.056C194.849 126.957 194.319 122.615 193.842 118.031C193.479 114.795 193.046 111.06 192.544 106.826C191.651 99.2482 191.162 95.0684 191.078 94.2863C179.203 99.9446 169.814 103.421 162.912 104.716C159.084 105.46 155.683 104.947 152.708 103.178C156.193 90.7 159.857 78.9226 163.698 67.846C163.887 67.6834 164.183 67.4934 164.587 67.2759C165.179 66.8959 165.771 66.5159 166.363 66.1358C168.086 65.2388 169.823 64.3956 171.573 63.6063C176.772 61.4815 181.005 60.75 184.272 61.4116L183.195 65.3009L182.279 69.1491L180.445 76.1574C179.036 81.4509 177.611 86.2318 176.171 90.5002L179.605 89.1108L182.878 87.7625C185.275 86.8088 187.16 85.8706 188.533 84.9479C188.555 83.6798 188.21 81.8735 187.5 79.5291L186.801 76.78L186.426 73.9486C187.77 72.9181 190.586 72.0302 194.873 71.285L197.543 70.9508L200.333 70.4137C202.436 70.1087 203.987 69.8868 204.984 69.748C205.267 73.1193 205.79 75.6263 206.552 77.2691C221.93 70.4909 235.718 67.3881 247.915 67.9608C250.992 68.3265 253.074 69.5189 254.161 71.5381ZM236.794 80.4284C236.113 78.6505 234.989 77.6162 233.423 77.3255C230.185 77.2303 226.196 78.0149 221.454 79.6792C219.648 80.2529 217.493 81.0302 214.988 82.0113L208.322 84.9108C208.488 86.0163 208.961 89.6836 209.741 95.9128C210.212 99.1215 210.587 101.953 210.867 104.407C211.285 107.859 211.702 111.081 212.119 114.074C214.508 131.601 216.515 144.692 218.141 153.346C227.64 133.371 233.61 118.023 236.05 107.303C238.302 96.745 238.55 87.7869 236.794 80.4284ZM349.273 109.686C349.308 125.631 343.636 137.632 332.255 145.689C327.601 149.053 324.049 151.563 321.601 153.218C317.456 155.878 313.688 157.984 310.294 159.535C301.757 163.427 293.479 164.498 285.459 162.749C281.813 161.954 278.622 160.01 275.885 156.918C273.311 154.014 271.612 150.716 270.788 147.023L270.5 145.891L270.374 144.718C270.155 143.856 270.03 142.912 269.999 141.887C269.747 139.541 269.804 137.058 270.172 134.44C271.223 127.286 274.346 118.802 279.542 108.988C277.382 108.619 274.981 108.656 272.339 109.098C269.9 106.274 268.86 102.636 269.22 98.1832C269.917 90.0867 271.837 80.9331 274.981 70.7226C276.099 66.9951 277.579 62.6591 279.422 57.7146L281.744 51.2709L283.945 45.0301C285.637 43.1079 288.947 41.004 293.876 38.7184C295.518 37.9565 297.336 37.2075 299.33 36.4712C300.057 36.1716 300.785 35.872 301.512 35.5723L302.441 35.164L303.088 34.9996C306.298 34.987 308.598 36.5833 309.986 39.7884C312.745 48.384 312.89 61.1446 310.42 78.0704L309.976 78.3554L309.573 78.8021L308.444 79.7778C307.395 80.6183 306.332 81.4049 305.256 82.1375C302.027 84.3355 298.648 86.1699 295.12 87.6406C293.521 85.8662 292.693 84.6419 292.637 83.9677C295.952 76.2386 297.213 67.6542 296.421 58.2145C296.499 57.6207 296.376 57.1355 296.051 56.7591C295.698 56.2748 295.347 56.2492 294.998 56.6823C291.13 60.8792 288.446 67.9314 286.947 77.8387C286.395 81.537 286.072 85.2345 285.979 88.931C285.911 92.2767 286.042 94.8257 286.373 96.5781C288.047 96.8413 290.326 96.7784 293.211 96.3894L296.731 96.0114L298.389 95.7621L299.886 95.5539C300.695 95.5777 301.411 95.9121 302.034 96.5572C302.577 97.3374 302.715 98.1058 302.448 98.8623C296.05 104.85 291.627 112.057 289.178 120.484C286.49 129.776 287.277 137.84 291.539 144.676C293.898 147.634 297.103 149.631 301.154 150.668C305.205 151.704 308.859 151.406 312.118 149.775C318.445 146.674 323.283 142.001 326.631 135.756C329.711 129.809 331.222 123.112 331.166 115.666C326.704 113.012 323.029 111.421 320.14 110.893C319.434 109.925 319.202 109.008 319.441 108.144L319.962 106.806L320.483 105.469C321.453 105.222 322.598 104.759 323.917 104.08L327.593 102.284C330.823 100.545 333.086 99.511 334.379 99.1822C336.051 98.9868 337.848 99.5058 339.768 100.739L340.823 101.504L341.878 102.269C342.717 102.859 343.515 103.288 344.271 103.555L346.055 104.478C346.731 104.88 347.3 105.31 347.76 105.767C348.951 106.841 349.456 108.148 349.273 109.686ZM427.261 75.4021C428.126 75.6415 428.752 77.2039 429.141 80.0891L429.514 82.2325L429.725 84.417C429.975 86.3046 430.211 87.909 430.432 89.2301C429.14 90.0176 426.794 90.4989 423.396 90.6741C416.898 91.7518 410.308 93.3694 403.625 95.527L399.624 96.7163L395.663 98.0673C392.699 99.0502 390.139 99.8156 387.983 100.364C370.335 106.341 357.83 109.749 350.468 110.588C349.093 111.052 348.212 109.841 347.823 106.956C347.602 105.635 347.492 101.818 347.495 95.5043C352.512 95.3767 357.676 94.6955 362.986 93.4606C365.035 92.9399 367.339 92.2969 369.899 91.5314L376.609 89.4817L382.833 87.5552L389.017 85.467L401.587 81.4113C411.504 78.4316 420.062 76.4286 427.261 75.4021ZM153.231 346.256C157.614 356.276 157.495 367.095 152.873 378.714C151.11 383.065 148.579 388.012 145.283 393.555L140.738 400.736L136.434 407.512C132.841 413.245 129.863 417.331 127.498 419.768C123.683 423.722 119.51 426.045 114.98 426.738C109.668 427.514 105.138 428.206 101.391 428.814C99.8539 429.09 97.7334 428.424 95.0292 426.816C92.5149 425.504 90.675 424.135 89.5093 422.71C87.0646 418.51 85.4798 413.404 84.7548 407.39C84.2507 402.698 84.3379 397.396 85.0161 391.485C87.6902 378.525 91.4824 368.608 96.3927 361.736C99.5852 357.137 103.01 353.225 106.666 350C107.796 349.025 109.046 348.075 110.419 347.153L111.145 346.624L111.913 346.257C112.289 345.931 112.571 345.687 112.76 345.525C114 345.439 115.714 345.635 117.901 346.112L120.615 346.627L123.328 347.143C127.059 349.178 129.031 353.096 129.242 358.896C129.008 361.136 128.454 364.147 127.578 367.927L126.583 372.14C126.184 373.733 125.934 375.231 125.832 376.635L128.962 380.143C128.532 380.712 125.109 381.467 118.691 382.409C117.909 382.493 117.087 382.645 116.224 382.864L114.122 383.399C112.64 383.89 111.602 384.096 111.008 384.018C109.497 383.943 109.043 381.705 109.647 377.305C109.698 376.604 110.03 375.429 110.645 373.781L111.445 371.511L112.245 369.242C113.497 365.136 113.284 362.263 111.605 360.624C104.98 370.687 101.651 381.748 101.618 393.808C101.641 399.77 102.296 405.055 103.582 409.664C105.222 415.215 107.541 418.241 110.538 418.742C118.2 411.859 124.75 403.537 130.189 393.777C134.85 385.476 137.699 379.07 138.733 374.561C140.221 368.673 140.233 361.497 138.77 353.031C136.854 345.943 131.835 342.455 123.715 342.568C122.231 342.601 120.384 342.784 118.173 343.116L112.469 343.705C107.561 344.264 103.636 344.401 100.694 344.115C90.5897 340.486 85.7059 333.463 86.0427 323.048C86.1105 319.702 86.7439 316.098 87.9428 312.235L88.6227 310.169C88.7287 309.683 88.9425 309.169 89.2642 308.628C89.7448 307.358 89.9714 306.67 89.944 306.562C91.4664 302.617 94.4653 296.804 98.9407 289.125C102.051 284.202 105.665 280.357 109.782 277.589C113.307 275.201 116.257 274.164 118.632 274.479L120.573 273.985C121.678 273.819 122.757 273.774 123.81 273.851C126.832 274.001 129.413 275.124 131.553 277.22C135.187 282.035 137.113 288.26 137.332 295.894C137.398 298.862 137.208 302.181 136.764 305.852C136.557 308.2 136.098 311.358 135.385 315.327C129.296 317.563 125.537 318.806 124.108 319.054C122.329 319.277 121.651 318.416 122.075 316.472L122.949 312.462L123.904 308.088C124.673 304.793 125.147 301.918 125.327 299.462C125.921 292.769 124.779 287.148 121.902 282.6L121.252 282.077L120.561 281.391C119.858 280.881 119.332 280.843 118.983 281.276C107.625 295.296 101.989 309.698 102.074 324.482C102.063 328.502 103.978 331.746 107.818 334.213C110.956 336.17 114.871 337.126 119.566 337.081C121.292 337.101 123.383 336.971 125.837 336.692L128.871 336.437L131.864 336.021C141.87 335.199 148.993 338.611 153.231 346.256ZM194.273 260.418C194.112 260.688 193.791 261.229 193.308 262.04L192.705 263.054L192.143 264.23C190.99 266.015 189.821 267.059 188.635 267.36C190.261 269.242 191.606 271.827 192.671 275.114C194.82 286.275 195.698 300.342 195.306 317.313L195.023 327.715L194.74 338.116C194.582 346.076 194.663 352.942 194.982 358.714C195.242 362.895 196.041 367.168 197.38 371.534C197.972 371.154 198.792 370.543 199.841 369.703L201.415 368.442L202.988 367.181C205.946 364.823 208.314 363.073 210.09 361.933C215.767 358.08 218.962 357.555 219.675 360.358C219.602 362.327 219.436 364.837 219.178 367.887L218.748 371.612L218.317 375.336C217.882 381.301 218.455 386.492 220.038 390.91C218.636 391.267 217.101 392.001 215.433 393.114L213.213 394.539L211.477 395.841C208.625 397.713 206.548 397.897 205.247 396.391C204.453 393.265 204.13 389.961 204.278 386.48L204.585 382.27C204.686 380.408 204.761 378.897 204.81 377.737C204.755 377.521 203.572 378.51 201.26 380.705C202.324 383.533 201.468 385.587 198.695 386.866L196.716 387.886L194.695 388.743C192.972 389.641 191.695 390.711 190.864 391.956C190.083 392.498 188.976 392.206 187.542 391.078C183.187 395.169 177.748 401.315 171.224 409.515C168.69 409.93 166.795 408.345 165.54 404.762C170.048 398.566 176.023 391.366 183.464 383.162C181.447 377.936 180.169 372.006 179.63 365.371C179.351 362.917 179.177 359.977 179.11 356.551L178.793 347.851C178.694 343.4 178.739 337.707 178.928 330.773L179.219 322.435L179.469 313.935C179.605 300.472 178.481 289.051 176.097 279.671C171.543 281.173 167.383 283.091 163.615 285.426L161.992 284.462C161.424 284.032 160.91 283.589 160.449 283.132C159.23 281.95 158.402 280.496 157.963 278.771C165.366 274.479 172.545 268.179 179.5 259.869C184.541 258.932 188.557 257.796 191.546 256.462C193.81 255.887 194.719 257.205 194.273 260.418ZM232.166 278.677C233.567 278.321 234.754 278.249 235.726 278.461C237.076 278.806 238.037 279.652 238.609 280.999C241.061 287.033 244.032 294.656 247.521 303.869L251.815 315.346L256.313 326.943C263.399 345.342 269.959 360.087 275.992 371.179C276.02 371.287 275.509 371.761 274.46 372.601C273.223 373.605 271.864 374.581 270.384 375.531C266.267 378.299 263.062 379.688 260.769 379.697C254.681 368.389 248.077 352.794 240.958 332.911L236.54 320.95L232.325 309.109C228.998 300.084 225.947 292.366 223.169 285.956C217.251 290.215 212.744 293.254 209.648 295.074C218.298 299.303 224.696 303.703 228.842 308.273C228.926 309.055 227.274 310.909 223.886 313.836C220.525 316.871 218.225 318.432 216.984 318.517C210.646 312.094 202.667 307.121 193.049 303.597L192.32 303.438L191.185 303.038C190.293 302.691 189.563 302.302 188.995 301.873C187.102 300.747 186.516 299.117 187.236 296.983C188.259 296.494 189.323 295.936 190.426 295.311L193.252 293.56C195.513 292.067 197.33 291.089 198.704 290.625C200.486 290.861 202.346 290.503 204.285 289.551C205.739 288.952 207.367 287.907 209.169 286.416L242.289 259.576C248.959 254.208 256.295 250.335 264.299 247.956L264.784 247.833L265.31 247.871C265.877 247.842 266.403 247.881 266.889 247.987C268.239 248.332 269.039 249.219 269.287 250.648C269.864 253.371 270.254 256.485 270.457 259.992L270.638 264.766L270.818 269.541C270.904 277.554 271.697 283.837 273.199 288.39C273.093 288.876 271.074 290.193 267.144 292.34C262.998 294.541 259.806 295.984 257.57 296.667C256.041 292.005 255.221 285.844 255.11 278.182L255.173 273.69L255.074 269.239C255.007 265.813 254.793 262.94 254.434 260.621C251.716 262.574 247.897 265.611 242.976 269.731L239.991 272.212L237.127 274.489C235.056 276.278 233.403 277.674 232.166 278.677ZM360.879 304.841C360.914 320.786 355.242 332.787 343.861 340.844C339.207 344.208 335.655 346.718 333.207 348.373C329.062 351.033 325.294 353.139 321.9 354.69C313.363 358.582 305.085 359.653 297.065 357.904C293.42 357.108 290.228 355.165 287.491 352.073C284.917 349.169 283.218 345.871 282.394 342.178L282.106 341.046L281.98 339.873C281.761 339.011 281.636 338.067 281.605 337.042C281.353 334.695 281.411 332.213 281.778 329.595C282.829 322.441 285.952 313.957 291.148 304.143C288.988 303.774 286.587 303.811 283.945 304.253C281.506 301.429 280.466 297.791 280.826 293.338C281.523 285.242 283.443 276.088 286.587 265.878C287.705 262.15 289.186 257.814 291.028 252.87L293.35 246.426L295.551 240.185C297.243 238.263 300.553 236.159 305.482 233.873C307.124 233.111 308.943 232.362 310.936 231.626C311.663 231.327 312.391 231.027 313.118 230.727L314.047 230.319L314.694 230.155C317.904 230.142 320.204 231.738 321.592 234.943C324.351 243.539 324.496 256.3 322.026 273.225L321.582 273.51L321.179 273.957L320.05 274.933C319.001 275.773 317.938 276.56 316.862 277.292C313.633 279.49 310.254 281.325 306.726 282.796C305.127 281.021 304.299 279.797 304.243 279.123C307.558 271.393 308.819 262.809 308.027 253.369C308.105 252.776 307.982 252.29 307.657 251.914C307.304 251.43 306.953 251.404 306.604 251.837C302.736 256.034 300.052 263.086 298.553 272.994C298.001 276.692 297.678 280.389 297.585 284.086C297.517 287.432 297.648 289.981 297.979 291.733C299.653 291.996 301.932 291.933 304.817 291.544L308.337 291.166L309.995 290.917L311.492 290.709C312.301 290.733 313.017 291.067 313.64 291.712C314.183 292.492 314.321 293.261 314.054 294.017C307.657 300.005 303.233 307.212 300.784 315.639C298.096 324.931 298.883 332.994 303.145 339.83C305.504 342.789 308.709 344.786 312.76 345.823C316.811 346.859 320.465 346.561 323.724 344.93C330.052 341.829 334.89 337.156 338.237 330.911C341.317 324.964 342.828 318.267 342.772 310.821C338.31 308.167 334.635 306.576 331.746 306.048C331.041 305.08 330.808 304.163 331.047 303.299L331.568 301.961L332.089 300.624C333.059 300.377 334.204 299.914 335.523 299.234L339.199 297.439C342.43 295.7 344.692 294.666 345.985 294.337C347.657 294.142 349.454 294.661 351.374 295.894L352.429 296.659L353.484 297.424C354.323 298.014 355.121 298.443 355.877 298.709L357.661 299.633C358.337 300.035 358.906 300.465 359.366 300.922C360.557 301.996 361.062 303.303 360.879 304.841ZM391.329 325.336L388.664 327.046C386.512 328.512 384.696 329.949 383.218 331.357C381.575 332.119 380.455 332.002 379.858 331.006C378.855 329.769 376.904 327.74 374.006 324.919C371.682 323.902 375.686 319.786 386.018 312.569C386.961 312.214 388.055 312.682 389.301 313.972C390.222 314.886 391.252 316.231 392.393 318.007C393.098 318.976 393.628 319.931 393.982 320.874C394.391 322.033 394.435 322.882 394.114 323.423L391.329 325.336ZM235.064 525.972C233.368 526.977 230.043 528.568 225.087 530.746L222.017 532.215L219.068 533.481C216.806 534.515 215.109 535.291 213.978 535.808C215.156 540.444 217.511 545.871 221.043 552.089L225.809 560.002L228.212 564.04L230.534 567.754L230.901 568.521L231.268 569.289C231.675 569.989 231.866 570.514 231.841 570.865C231.927 572.106 230.905 573.054 228.776 573.71C227.431 574.74 225.52 575.8 223.042 576.889L220.134 578.317C218.922 578.969 217.819 579.594 216.823 580.191C210.693 571.879 205.081 561.541 199.987 549.177L199.579 548.248L199.374 547.439L198.883 546.187C194.43 552.598 188.976 561.847 182.521 573.932L174.566 588.694C171.512 594.29 168.766 599.063 166.326 603.011L164.111 605.812L161.896 608.614C160.096 610.563 158.011 611.839 155.639 612.442L152.895 614.517L150.11 616.43C147.742 617.95 145.478 618.525 143.318 618.156C140.912 616.817 139.286 614.934 138.44 612.51C137.893 610.812 137.709 608.506 137.886 605.592C138.269 599.87 139.416 593.094 141.327 585.263L143.959 575.297L146.591 565.331C136.812 568.85 128.875 571.039 122.781 571.9C121.46 572.121 119.727 570.495 117.582 567.023L131.182 557.541L132.317 557.941C134.903 556.825 138.175 555.247 142.133 553.208L146.817 550.64L151.704 548.193C153.596 542.088 155.956 535.118 158.785 527.283L162.67 516.827L166.716 506.329C173.392 488.794 178.086 474.975 180.798 464.874C180.983 463.794 181.125 462.094 181.223 459.774L195.194 451.746C197.032 452.656 198.32 454.338 199.059 456.79C199.278 457.652 199.484 458.69 199.678 459.903L199.886 461.4L200.094 462.897L201.097 470.905L202.141 479.076C203.056 485.386 203.859 490.805 204.552 495.335C206.543 507.684 208.917 518.156 211.676 526.752L211.882 527.56C211.964 527.884 211.965 528.113 211.884 528.248L216.692 526.165L221.702 524.203C225.77 522.596 228.867 521.234 230.994 520.12C231.994 520.44 232.806 521.152 233.431 522.255L234.045 523.993C234.479 524.801 234.819 525.46 235.064 525.972ZM186.857 492.774C182.151 503.611 176.183 519.418 168.953 540.193C172.481 538.722 176.602 536.872 181.315 534.641L187.413 531.541L193.553 528.603C192.373 523.509 191.189 517.497 190.002 510.568L188.429 501.671L186.857 492.774ZM191.763 536.461C190.012 537.251 187.818 538.325 185.179 539.684L181.665 541.438L178.151 543.192C172.55 545.993 168.524 547.763 166.072 548.501L165.433 550.729L188.824 540.479L191.763 536.461ZM181.544 551.799C178.878 553.05 175.767 554.358 172.211 555.72L162.837 559.48C157.37 575.905 154.69 590.647 154.795 603.704C155.119 603.622 156.67 600.243 159.45 593.569C161.16 589.461 162.938 585.394 164.784 581.367C167.434 575.987 170.407 570.526 173.704 564.982L181.544 551.799ZM311.965 484.561C311.168 487.748 309.438 490.426 306.776 492.595C305.727 493.435 304.503 494.263 303.103 495.078L301.327 496.218L299.509 497.196C288.737 502.23 279.863 506.149 272.886 508.956C284.742 511.796 294.535 515.332 302.268 519.565C312.65 525.19 319.841 532.257 323.84 540.767L324.249 541.696L324.739 542.949C325.148 544.107 325.544 545.212 325.926 546.262C326.828 549.362 327.162 551.802 326.926 553.583C325.252 553.32 323.147 553.167 320.611 553.123L317.494 553.054L314.378 552.985C309.413 552.87 305.444 551.928 302.469 550.159C301.325 547.465 300.088 545.082 298.758 543.01L297.089 540.508L295.582 537.964C291.595 532.665 285.681 527.683 277.838 523.019C270.131 518.436 264.323 516.355 260.412 516.775C263.105 529.175 265.695 539.592 268.183 548.027C271.602 559.668 275.297 569.69 279.268 578.092C279.407 579.09 272.761 580.033 259.328 580.922C251.222 563.93 244.284 542.279 238.515 515.97C238.082 515.621 237.488 515.313 236.731 515.046L235.84 514.929L235.07 514.608C233.692 514.155 232.893 513.267 232.672 511.946C232.749 510.894 233.204 509.975 234.037 509.189C234.71 508.674 235.571 508.225 236.622 507.843C234.923 501.159 233.468 494.757 232.257 488.638L231.432 484.715L230.769 480.752C230.08 477.14 229.53 474.295 229.117 472.22L226.809 471.945L224.339 471.712C222.558 471.476 221.032 471.118 219.762 470.638C219.247 469.965 218.96 469.062 218.902 467.929C218.816 466.689 219.028 465.717 219.538 465.013L228.509 461.7C228.778 461.402 229.005 460.943 229.191 460.321L229.309 459.431C229.551 459.025 229.806 458.673 230.074 458.375C234.016 458.98 239.344 458.946 246.059 458.272L249.943 457.974L253.827 457.675C256.686 457.637 259.236 457.735 261.477 457.969C279.075 459.923 293.04 464.293 303.373 471.078C305.699 472.553 307.744 474.501 309.507 476.922C311.487 479.748 312.307 482.294 311.965 484.561ZM291.148 480.556C291.119 479.989 290.941 479.289 290.614 478.453C290.314 477.726 290.002 477.174 289.676 476.798C285.288 472.175 279.246 469.177 271.551 467.804C264.559 466.482 257.612 466.698 250.712 468.452L256.417 499.024L261.145 497.306L265.994 495.385C269.766 493.967 272.944 492.7 275.53 491.584C282.612 488.292 287.819 484.616 291.148 480.556ZM333.473 451.032C334.874 450.676 336.061 450.604 337.033 450.816C338.384 451.161 339.345 452.007 339.917 453.354C342.368 459.388 345.339 467.011 348.829 476.225L353.123 487.701L357.62 499.298C364.707 517.697 371.267 532.443 377.299 543.534C377.327 543.642 376.816 544.116 375.767 544.957C374.53 545.96 373.171 546.937 371.691 547.887C367.574 550.655 364.369 552.043 362.076 552.052C355.988 540.745 349.385 525.15 342.265 505.267L337.847 493.305L333.633 481.464C330.306 472.439 327.254 464.722 324.477 458.312C318.558 462.57 314.051 465.61 310.955 467.43C319.605 471.658 326.003 476.058 330.149 480.628C330.233 481.41 328.581 483.265 325.193 486.192C321.833 489.227 319.532 490.787 318.291 490.873C311.953 484.45 303.975 479.476 294.356 475.953L293.627 475.794L292.492 475.393C291.601 475.046 290.871 474.658 290.302 474.228C288.409 473.103 287.823 471.473 288.543 469.339C289.566 468.849 290.63 468.292 291.734 467.667L294.56 465.916C296.82 464.423 298.637 463.445 300.011 462.98C301.793 463.216 303.653 462.858 305.592 461.906C307.046 461.307 308.675 460.262 310.476 458.771L343.596 431.932C350.266 426.564 357.603 422.69 365.606 420.312L366.091 420.188L366.618 420.227C367.184 420.198 367.71 420.236 368.196 420.342C369.547 420.687 370.346 421.575 370.594 423.003C371.172 425.726 371.562 428.841 371.764 432.347L371.945 437.122L372.125 441.897C372.211 449.909 373.004 456.192 374.506 460.746C374.4 461.232 372.382 462.548 368.451 464.695C364.305 466.897 361.114 468.339 358.877 469.022C357.348 464.361 356.528 458.199 356.417 450.538L356.48 446.045L356.382 441.594C356.314 438.168 356.101 435.295 355.741 432.977C353.024 434.93 349.205 437.967 344.283 442.087L341.299 444.567L338.434 446.844C336.364 448.633 334.71 450.029 333.473 451.032Z" fill="#4A0631" style="mix-blend-mode:color-burn"/>
</svg>
