<svg width="364" height="338" viewBox="0 0 364 338" fill="none" xmlns="http://www.w3.org/2000/svg">
<g opacity="0.48">
<path d="M214.815 86.8278C214.085 83.6785 212.676 80.7265 210.688 78.1776C208.67 75.6479 206.124 73.5895 203.228 72.1462C200.944 71.0227 198.465 70.3491 195.927 70.1622C194.633 56.2751 188.478 43.2906 178.547 33.4979C167.239 22.2064 151.911 15.8643 135.931 15.8643C119.95 15.8643 104.623 22.2064 93.3144 33.4979C83.3832 43.2906 77.2282 56.2751 75.9346 70.1622C73.3961 70.3491 70.9174 71.0227 68.6335 72.1462C65.723 73.567 63.1725 75.6292 61.1736 78.1776C59.1703 80.7209 57.7602 83.6795 57.0463 86.8373C56.3323 89.9952 56.3326 93.2726 57.0469 96.4304L69.5064 147.459C71.6509 155.278 76.3106 162.172 82.7654 167.078C89.2203 171.984 97.111 174.627 105.218 174.6H166.405C174.54 174.608 182.452 171.94 188.92 167.006C195.388 162.073 200.054 155.148 202.196 147.3L214.576 96.4304C215.37 93.2877 215.449 90.0022 214.815 86.8278ZM110.853 137.777C110.853 139.355 110.226 140.869 109.11 141.986C107.993 143.102 106.48 143.729 104.901 143.729C103.322 143.729 101.808 143.102 100.692 141.986C99.5761 140.869 98.949 139.355 98.949 137.777V106.509C98.949 104.931 99.5761 103.417 100.692 102.3C101.808 101.184 103.322 100.557 104.901 100.557C106.48 100.557 107.993 101.184 109.11 102.3C110.226 103.417 110.853 104.931 110.853 106.509V137.777ZM141.883 137.777C141.883 138.559 141.729 139.333 141.43 140.055C141.131 140.777 140.692 141.433 140.139 141.986C139.587 142.538 138.931 142.977 138.208 143.276C137.486 143.575 136.712 143.729 135.931 143.729C135.149 143.729 134.375 143.575 133.653 143.276C132.931 142.977 132.275 142.538 131.722 141.986C131.169 141.433 130.731 140.777 130.432 140.055C130.133 139.333 129.979 138.559 129.979 137.777V106.509C129.979 104.931 130.606 103.417 131.722 102.3C132.838 101.184 134.352 100.557 135.931 100.557C137.509 100.557 139.023 101.184 140.139 102.3C141.256 103.417 141.883 104.931 141.883 106.509V137.777ZM172.912 137.777C172.912 139.355 172.285 140.869 171.169 141.986C170.053 143.102 168.539 143.729 166.96 143.729C165.382 143.729 163.868 143.102 162.752 141.986C161.636 140.869 161.008 139.355 161.008 137.777V106.509C161.008 104.931 161.636 103.417 162.752 102.3C163.868 101.184 165.382 100.557 166.96 100.557C168.539 100.557 170.053 101.184 171.169 102.3C172.285 103.417 172.912 104.931 172.912 106.509V137.777ZM87.9179 70.0035C89.2231 59.3504 94.0891 49.4507 101.727 41.91C110.813 32.8671 123.111 27.7905 135.931 27.7905C148.75 27.7905 161.048 32.8671 170.135 41.91C177.772 49.4507 182.638 59.3504 183.943 70.0035H87.9179Z" fill="url(#paint0_linear_295_1559)"/>
</g>
<g opacity="0.48">
<path d="M137.734 255.142C137.156 252.652 136.043 250.317 134.47 248.301C132.875 246.301 130.861 244.673 128.571 243.532C126.765 242.643 124.805 242.111 122.797 241.963C121.774 230.981 116.907 220.713 109.054 212.969C100.111 204.04 87.9902 199.024 75.3528 199.024C62.7155 199.024 50.5947 204.04 41.6521 212.969C33.7985 220.713 28.9312 230.981 27.9082 241.963C25.9008 242.111 23.9406 242.643 22.1345 243.532C19.8329 244.655 17.816 246.286 16.2353 248.301C14.6511 250.313 13.536 252.652 12.9714 255.15C12.4068 257.647 12.407 260.239 12.9719 262.736L22.8248 303.089C24.5207 309.272 28.2055 314.724 33.31 318.604C38.4144 322.483 44.6544 324.573 51.0657 324.552H99.4517C105.885 324.559 112.142 322.448 117.257 318.547C122.372 314.645 126.061 309.169 127.755 302.963L137.545 262.736C138.173 260.25 138.236 257.652 137.734 255.142ZM55.5215 295.432C55.5215 296.681 55.0256 297.878 54.1429 298.761C53.2602 299.643 52.063 300.139 50.8147 300.139C49.5663 300.139 48.3691 299.643 47.4864 298.761C46.6037 297.878 46.1078 296.681 46.1078 295.432V270.706C46.1078 269.458 46.6037 268.26 47.4864 267.378C48.3691 266.495 49.5663 265.999 50.8147 265.999C52.063 265.999 53.2602 266.495 54.1429 267.378C55.0256 268.26 55.5215 269.458 55.5215 270.706V295.432ZM80.0596 295.432C80.0596 296.05 79.9379 296.662 79.7013 297.234C79.4648 297.805 79.1181 298.323 78.681 298.761C78.244 299.198 77.7251 299.544 77.154 299.781C76.583 300.017 75.9709 300.139 75.3528 300.139C74.7347 300.139 74.1227 300.017 73.5516 299.781C72.9805 299.544 72.4617 299.198 72.0246 298.761C71.5875 298.323 71.2408 297.805 71.0043 297.234C70.7678 296.662 70.646 296.05 70.646 295.432V270.706C70.646 269.458 71.1419 268.26 72.0246 267.378C72.9073 266.495 74.1045 265.999 75.3528 265.999C76.6011 265.999 77.7983 266.495 78.681 267.378C79.5637 268.26 80.0596 269.458 80.0596 270.706V295.432ZM104.598 295.432C104.598 296.681 104.102 297.878 103.219 298.761C102.337 299.643 101.139 300.139 99.891 300.139C98.6427 300.139 97.4455 299.643 96.5628 298.761C95.6801 297.878 95.1842 296.681 95.1842 295.432V270.706C95.1842 269.458 95.6801 268.26 96.5628 267.378C97.4455 266.495 98.6427 265.999 99.891 265.999C101.139 265.999 102.337 266.495 103.219 267.378C104.102 268.26 104.598 269.458 104.598 270.706V295.432ZM37.3846 241.837C38.4167 233.413 42.2647 225.584 48.3044 219.621C55.49 212.47 65.2152 208.456 75.3528 208.456C85.4905 208.456 95.2156 212.47 102.401 219.621C108.441 225.584 112.289 233.413 113.321 241.837H37.3846Z" fill="url(#paint1_linear_295_1559)"/>
</g>
<g opacity="0.48">
<path d="M354.304 114.408C353.889 112.616 353.087 110.936 351.956 109.485C350.808 108.046 349.359 106.875 347.711 106.053C346.411 105.414 345.001 105.031 343.556 104.924C342.82 97.0221 339.318 89.6335 333.666 84.0611C327.232 77.6358 318.51 74.0269 309.416 74.0269C300.323 74.0269 291.601 77.6358 285.166 84.0611C279.515 89.6335 276.012 97.0221 275.276 104.924C273.832 105.031 272.421 105.414 271.122 106.053C269.465 106.862 268.014 108.035 266.877 109.485C265.737 110.933 264.934 112.616 264.528 114.413C264.122 116.21 264.122 118.075 264.528 119.872L271.618 148.909C272.839 153.358 275.49 157.282 279.163 160.073C282.836 162.865 287.326 164.369 291.94 164.353H326.757C331.386 164.358 335.889 162.84 339.569 160.032C343.25 157.225 345.905 153.285 347.124 148.819L354.169 119.872C354.62 118.084 354.665 116.214 354.304 114.408ZM295.146 143.4C295.146 144.298 294.789 145.159 294.154 145.795C293.519 146.43 292.657 146.787 291.759 146.787C290.861 146.787 289.999 146.43 289.364 145.795C288.729 145.159 288.372 144.298 288.372 143.4V125.607C288.372 124.709 288.729 123.847 289.364 123.212C289.999 122.577 290.861 122.22 291.759 122.22C292.657 122.22 293.519 122.577 294.154 123.212C294.789 123.847 295.146 124.709 295.146 125.607V143.4ZM312.803 143.4C312.803 143.845 312.716 144.285 312.545 144.696C312.375 145.107 312.126 145.48 311.811 145.795C311.497 146.109 311.123 146.359 310.712 146.529C310.301 146.699 309.861 146.787 309.416 146.787C308.971 146.787 308.531 146.699 308.12 146.529C307.709 146.359 307.336 146.109 307.021 145.795C306.707 145.48 306.457 145.107 306.287 144.696C306.117 144.285 306.029 143.845 306.029 143.4V125.607C306.029 124.709 306.386 123.847 307.021 123.212C307.656 122.577 308.518 122.22 309.416 122.22C310.314 122.22 311.176 122.577 311.811 123.212C312.446 123.847 312.803 124.709 312.803 125.607V143.4ZM330.46 143.4C330.46 144.298 330.103 145.159 329.468 145.795C328.833 146.43 327.972 146.787 327.073 146.787C326.175 146.787 325.314 146.43 324.678 145.795C324.043 145.159 323.686 144.298 323.686 143.4V125.607C323.686 124.709 324.043 123.847 324.678 123.212C325.314 122.577 326.175 122.22 327.073 122.22C327.972 122.22 328.833 122.577 329.468 123.212C330.103 123.847 330.46 124.709 330.46 125.607V143.4ZM282.095 104.834C282.838 98.7721 285.607 93.1388 289.953 88.8479C295.123 83.7021 302.121 80.8133 309.416 80.8133C316.711 80.8133 323.709 83.7021 328.88 88.8479C333.226 93.1388 335.995 98.7721 336.737 104.834H282.095Z" fill="url(#paint2_linear_295_1559)"/>
</g>
<defs>
<linearGradient id="paint0_linear_295_1559" x1="135.874" y1="15.8643" x2="135.874" y2="174.6" gradientUnits="userSpaceOnUse">
<stop stop-color="#121212"/>
<stop offset="1" stop-color="#089AFA"/>
</linearGradient>
<linearGradient id="paint1_linear_295_1559" x1="75.3083" y1="199.024" x2="75.3083" y2="324.552" gradientUnits="userSpaceOnUse">
<stop stop-color="#121212"/>
<stop offset="1" stop-color="#089AFA"/>
</linearGradient>
<linearGradient id="paint2_linear_295_1559" x1="309.384" y1="74.0269" x2="309.384" y2="164.354" gradientUnits="userSpaceOnUse">
<stop stop-color="#121212"/>
<stop offset="1" stop-color="#089AFA"/>
</linearGradient>
</defs>
</svg>
