<svg width="335" height="423" viewBox="0 0 335 423" fill="none" xmlns="http://www.w3.org/2000/svg">
<g opacity="0.48">
<path d="M269.556 108.954C268.64 105.002 266.873 101.298 264.377 98.0994C261.845 94.9251 258.651 92.3422 255.017 90.531C252.151 89.1212 249.04 88.2759 245.855 88.0415C244.232 70.6155 236.508 54.3221 224.046 42.034C209.856 27.865 190.623 19.9067 170.57 19.9067C150.517 19.9067 131.284 27.865 117.094 42.034C104.632 54.3221 96.9082 70.6155 95.2849 88.0415C92.0996 88.2759 88.9892 89.1212 86.1233 90.531C82.4711 92.3139 79.2706 94.9016 76.7624 98.0994C74.2486 101.291 72.4792 105.003 71.5833 108.966C70.6875 112.928 70.6877 117.041 71.5841 121.004L87.2187 185.036C89.9097 194.847 95.7568 203.499 103.857 209.654C111.956 215.81 121.858 219.127 132.031 219.093H208.81C219.018 219.104 228.946 215.755 237.063 209.565C245.179 203.374 251.033 194.684 253.722 184.836L269.257 121.004C270.253 117.06 270.352 112.937 269.556 108.954ZM139.102 172.886C139.102 174.867 138.315 176.767 136.914 178.168C135.513 179.568 133.614 180.355 131.633 180.355C129.652 180.355 127.752 179.568 126.352 178.168C124.951 176.767 124.164 174.867 124.164 172.886V133.651C124.164 131.67 124.951 129.77 126.352 128.369C127.752 126.969 129.652 126.182 131.633 126.182C133.614 126.182 135.513 126.969 136.914 128.369C138.315 129.77 139.102 131.67 139.102 133.651V172.886ZM178.039 172.886C178.039 173.867 177.845 174.838 177.47 175.745C177.095 176.651 176.545 177.474 175.851 178.168C175.158 178.861 174.334 179.411 173.428 179.787C172.522 180.162 171.551 180.355 170.57 180.355C169.589 180.355 168.618 180.162 167.712 179.787C166.806 179.411 165.982 178.861 165.289 178.168C164.595 177.474 164.045 176.651 163.67 175.745C163.294 174.838 163.101 173.867 163.101 172.886V133.651C163.101 131.67 163.888 129.77 165.289 128.369C166.689 126.969 168.589 126.182 170.57 126.182C172.551 126.182 174.45 126.969 175.851 128.369C177.252 129.77 178.039 131.67 178.039 133.651V172.886ZM216.976 172.886C216.976 174.867 216.189 176.767 214.788 178.168C213.388 179.568 211.488 180.355 209.507 180.355C207.526 180.355 205.626 179.568 204.226 178.168C202.825 176.767 202.038 174.867 202.038 172.886V133.651C202.038 131.67 202.825 129.77 204.226 128.369C205.626 126.969 207.526 126.182 209.507 126.182C211.488 126.182 213.388 126.969 214.788 128.369C216.189 129.77 216.976 131.67 216.976 133.651V172.886ZM110.322 87.8423C111.96 74.4744 118.066 62.052 127.65 52.5898C139.052 41.2424 154.484 34.8721 170.57 34.8721C186.656 34.8721 202.088 41.2424 213.49 52.5898C223.074 62.052 229.18 74.4744 230.818 87.8423H110.322Z" fill="url(#paint0_linear_294_1545)"/>
</g>
<g opacity="0.48">
<path d="M172.833 320.16C172.109 317.035 170.711 314.106 168.738 311.577C166.736 309.066 164.209 307.024 161.335 305.592C159.069 304.477 156.609 303.808 154.09 303.623C152.807 289.842 146.699 276.958 136.844 267.24C125.623 256.036 110.413 249.742 94.5554 249.742C78.6977 249.742 63.4881 256.036 52.2666 267.24C42.4118 276.958 36.3041 289.842 35.0204 303.623C32.5015 303.808 30.0418 304.477 27.7754 305.592C24.8873 307.001 22.3564 309.048 20.3729 311.577C18.385 314.1 16.9857 317.036 16.2773 320.17C15.5688 323.303 15.569 326.556 16.2779 329.689L28.6416 380.325C30.7697 388.084 35.3935 394.926 41.7987 399.794C48.204 404.662 56.0341 407.285 64.0791 407.258H124.795C132.868 407.266 140.719 404.618 147.138 399.723C153.556 394.827 158.185 387.955 160.312 380.168L172.597 329.689C173.384 326.571 173.463 323.31 172.833 320.16ZM69.6704 370.718C69.6704 372.284 69.0481 373.787 67.9405 374.894C66.8329 376.002 65.3306 376.624 63.7641 376.624C62.1977 376.624 60.6954 376.002 59.5878 374.894C58.4802 373.787 57.8579 372.284 57.8579 370.718V339.69C57.8579 338.124 58.4802 336.622 59.5878 335.514C60.6954 334.406 62.1977 333.784 63.7641 333.784C65.3306 333.784 66.8329 334.406 67.9405 335.514C69.0481 336.622 69.6704 338.124 69.6704 339.69V370.718ZM100.462 370.718C100.462 371.493 100.309 372.261 100.012 372.978C99.7152 373.695 99.2802 374.346 98.7317 374.894C98.1833 375.443 97.5322 375.878 96.8156 376.174C96.099 376.471 95.331 376.624 94.5554 376.624C93.7798 376.624 93.0117 376.471 92.2952 376.174C91.5786 375.878 90.9275 375.443 90.379 374.894C89.8306 374.346 89.3955 373.695 89.0987 372.978C88.8019 372.261 88.6491 371.493 88.6491 370.718V339.69C88.6491 338.124 89.2714 336.622 90.379 335.514C91.4867 334.406 92.989 333.784 94.5554 333.784C96.1218 333.784 97.6241 334.406 98.7317 335.514C99.8394 336.622 100.462 338.124 100.462 339.69V370.718ZM131.253 370.718C131.253 372.284 130.631 373.787 129.523 374.894C128.415 376.002 126.913 376.624 125.347 376.624C123.78 376.624 122.278 376.002 121.17 374.894C120.063 373.787 119.44 372.284 119.44 370.718V339.69C119.44 338.124 120.063 336.622 121.17 335.514C122.278 334.406 123.78 333.784 125.347 333.784C126.913 333.784 128.415 334.406 129.523 335.514C130.631 336.622 131.253 338.124 131.253 339.69V370.718ZM46.9116 303.465C48.2068 292.894 53.0354 283.07 60.6141 275.588C69.6309 266.614 81.8343 261.577 94.5554 261.577C107.276 261.577 119.48 266.614 128.497 275.588C136.075 283.07 140.904 292.894 142.199 303.465H46.9116Z" fill="url(#paint1_linear_294_1545)"/>
</g>
<g opacity="0.48">
<path d="M323.367 295.999C322.845 293.75 321.84 291.642 320.42 289.822C318.979 288.016 317.161 286.546 315.093 285.516C313.462 284.713 311.692 284.232 309.88 284.099C308.956 274.183 304.561 264.911 297.47 257.919C289.395 249.856 278.451 245.328 267.04 245.328C255.629 245.328 244.685 249.856 236.61 257.919C229.519 264.911 225.124 274.183 224.2 284.099C222.387 284.232 220.617 284.713 218.987 285.516C216.908 286.53 215.087 288.003 213.66 289.822C212.229 291.638 211.223 293.751 210.713 296.006C210.203 298.261 210.203 300.601 210.713 302.856L219.61 339.292C221.141 344.875 224.468 349.798 229.077 353.301C233.687 356.804 239.321 358.692 245.11 358.672H288.8C294.609 358.678 300.258 356.773 304.877 353.25C309.495 349.727 312.827 344.783 314.357 339.179L323.197 302.856C323.763 300.612 323.82 298.266 323.367 295.999ZM249.133 332.379C249.133 333.506 248.685 334.587 247.888 335.384C247.091 336.181 246.01 336.629 244.883 336.629C243.756 336.629 242.675 336.181 241.878 335.384C241.081 334.587 240.633 333.506 240.633 332.379V310.052C240.633 308.925 241.081 307.844 241.878 307.047C242.675 306.25 243.756 305.802 244.883 305.802C246.01 305.802 247.091 306.25 247.888 307.047C248.685 307.844 249.133 308.925 249.133 310.052V332.379ZM271.29 332.379C271.29 332.937 271.18 333.49 270.966 334.005C270.753 334.521 270.44 334.989 270.045 335.384C269.65 335.779 269.182 336.092 268.666 336.305C268.151 336.519 267.598 336.629 267.04 336.629C266.482 336.629 265.929 336.519 265.413 336.305C264.898 336.092 264.429 335.779 264.035 335.384C263.64 334.989 263.327 334.521 263.113 334.005C262.9 333.49 262.79 332.937 262.79 332.379V310.052C262.79 308.925 263.238 307.844 264.035 307.047C264.832 306.25 265.913 305.802 267.04 305.802C268.167 305.802 269.248 306.25 270.045 307.047C270.842 307.844 271.29 308.925 271.29 310.052V332.379ZM293.447 332.379C293.447 333.506 292.999 334.587 292.202 335.384C291.405 336.181 290.324 336.629 289.197 336.629C288.069 336.629 286.988 336.181 286.191 335.384C285.394 334.587 284.947 333.506 284.947 332.379V310.052C284.947 308.925 285.394 307.844 286.191 307.047C286.988 306.25 288.069 305.802 289.197 305.802C290.324 305.802 291.405 306.25 292.202 307.047C292.999 307.844 293.447 308.925 293.447 310.052V332.379ZM232.757 283.986C233.689 276.379 237.163 269.31 242.617 263.926C249.105 257.468 257.886 253.844 267.04 253.844C276.194 253.844 284.975 257.468 291.463 263.926C296.917 269.31 300.391 276.379 301.323 283.986H232.757Z" fill="url(#paint2_linear_294_1545)"/>
</g>
<defs>
<linearGradient id="paint0_linear_294_1545" x1="170.499" y1="19.9067" x2="170.499" y2="219.093" gradientUnits="userSpaceOnUse">
<stop stop-color="#121212"/>
<stop offset="1" stop-color="#089AFA"/>
</linearGradient>
<linearGradient id="paint1_linear_294_1545" x1="94.4995" y1="249.742" x2="94.4995" y2="407.258" gradientUnits="userSpaceOnUse">
<stop stop-color="#121212"/>
<stop offset="1" stop-color="#089AFA"/>
</linearGradient>
<linearGradient id="paint2_linear_294_1545" x1="267" y1="245.328" x2="267" y2="358.672" gradientUnits="userSpaceOnUse">
<stop stop-color="#121212"/>
<stop offset="1" stop-color="#089AFA"/>
</linearGradient>
</defs>
</svg>
