<svg width="291" height="189" viewBox="0 0 291 189" fill="none" xmlns="http://www.w3.org/2000/svg">
<g filter="url(#filter0_i_118_1437)">
<path d="M47.5357 154.474L8.61911 111.464L12.4946 94.1654L66.1146 71.5461L62.2033 89.0043L23.6681 105.667L51.4107 137.178L47.5357 154.474Z" fill="url(#paint0_linear_118_1437)" fill-opacity="0.7"/>
<path d="M60.2923 163.445L124.868 40.4027L139.902 43.771L75.1652 166.777L60.2923 163.445Z" fill="url(#paint1_linear_118_1437)" fill-opacity="0.7"/>
<path d="M125.932 172.038L129.807 154.742L168.541 137.954L140.6 106.568L144.511 89.1099L183.556 132.319L179.681 149.615L125.932 172.038Z" fill="url(#paint2_linear_118_1437)" fill-opacity="0.7"/>
</g>
<g filter="url(#filter1_i_118_1437)">
<path d="M202.321 77.8642L179.954 53.1437L182.181 43.2014L213 30.2009L210.752 40.2351L188.603 49.812L204.549 67.9231L202.321 77.8642Z" fill="url(#paint3_linear_118_1437)" fill-opacity="0.2"/>
<path d="M209.653 83.0203L246.768 12.3009L255.41 14.2369L218.202 84.9354L209.653 83.0203Z" fill="url(#paint4_linear_118_1437)" fill-opacity="0.2"/>
<path d="M247.38 87.959L249.607 78.0179L271.87 68.3688L255.811 50.3299L258.059 40.2957L280.5 65.1304L278.272 75.0715L247.38 87.959Z" fill="url(#paint5_linear_118_1437)" fill-opacity="0.2"/>
</g>
<defs>
<filter id="filter0_i_118_1437" x="-22.2098" y="9.57365" width="236.595" height="193.293" filterUnits="userSpaceOnUse" color-interpolation-filters="sRGB">
<feFlood flood-opacity="0" result="BackgroundImageFix"/>
<feBlend mode="normal" in="SourceGraphic" in2="BackgroundImageFix" result="shape"/>
<feColorMatrix in="SourceAlpha" type="matrix" values="0 0 0 0 0 0 0 0 0 0 0 0 0 0 0 0 0 0 127 0" result="hardAlpha"/>
<feOffset dy="3.25371"/>
<feGaussianBlur stdDeviation="5.1246"/>
<feComposite in2="hardAlpha" operator="arithmetic" k2="-1" k3="1"/>
<feColorMatrix type="matrix" values="0 0 0 0 1 0 0 0 0 1 0 0 0 0 1 0 0 0 0.25 0"/>
<feBlend mode="normal" in2="shape" result="effect1_innerShadow_118_1437"/>
</filter>
<filter id="filter1_i_118_1437" x="145.981" y="-21.6714" width="168.491" height="143.603" filterUnits="userSpaceOnUse" color-interpolation-filters="sRGB">
<feFlood flood-opacity="0" result="BackgroundImageFix"/>
<feBlend mode="normal" in="SourceGraphic" in2="BackgroundImageFix" result="shape"/>
<feColorMatrix in="SourceAlpha" type="matrix" values="0 0 0 0 0 0 0 0 0 0 0 0 0 0 0 0 0 0 127 0" result="hardAlpha"/>
<feOffset dy="3.58548"/>
<feGaussianBlur stdDeviation="5.64713"/>
<feComposite in2="hardAlpha" operator="arithmetic" k2="-1" k3="1"/>
<feColorMatrix type="matrix" values="0 0 0 0 1 0 0 0 0 1 0 0 0 0 1 0 0 0 0.25 0"/>
<feBlend mode="normal" in2="shape" result="effect1_innerShadow_118_1437"/>
</filter>
<linearGradient id="paint0_linear_118_1437" x1="46.9937" y1="51.0774" x2="91.6126" y2="81.215" gradientUnits="userSpaceOnUse">
<stop stop-color="#0B97FB"/>
<stop offset="1" stop-color="#FFB5E6"/>
</linearGradient>
<linearGradient id="paint1_linear_118_1437" x1="120.806" y1="13.9379" x2="174.546" y2="42.1987" gradientUnits="userSpaceOnUse">
<stop stop-color="#0B97FB"/>
<stop offset="1" stop-color="#FFB5E6"/>
</linearGradient>
<linearGradient id="paint2_linear_118_1437" x1="171.707" y1="79.0176" x2="216.426" y2="109.302" gradientUnits="userSpaceOnUse">
<stop stop-color="#0B97FB"/>
<stop offset="1" stop-color="#FFB5E6"/>
</linearGradient>
<linearGradient id="paint3_linear_118_1437" x1="202.01" y1="18.4364" x2="227.655" y2="35.7581" gradientUnits="userSpaceOnUse">
<stop stop-color="#0B97FB"/>
<stop offset="1" stop-color="#FFB5E6"/>
</linearGradient>
<linearGradient id="paint4_linear_118_1437" x1="244.434" y1="-2.90982" x2="275.321" y2="13.3332" gradientUnits="userSpaceOnUse">
<stop stop-color="#0B97FB"/>
<stop offset="1" stop-color="#FFB5E6"/>
</linearGradient>
<linearGradient id="paint5_linear_118_1437" x1="273.689" y1="34.4951" x2="299.392" y2="51.901" gradientUnits="userSpaceOnUse">
<stop stop-color="#0B97FB"/>
<stop offset="1" stop-color="#FFB5E6"/>
</linearGradient>
</defs>
</svg>
