<svg width="450" height="477" viewBox="0 0 450 477" fill="none" xmlns="http://www.w3.org/2000/svg">
<path d="M68.6021 142.298C73.2251 156.047 73.0897 167.155 68.1959 175.622C63.5188 181.597 57.5529 185.59 50.2981 187.6C45.8584 188.87 42.0156 187.95 38.7698 184.839C31.9467 178.593 26.2951 166.906 21.8149 149.777C20.3075 143.988 19.0458 137.502 18.0297 130.318C17.691 127.924 17.3732 125.648 17.0764 123.491C17.0164 122.684 16.9306 121.963 16.8191 121.328C16.8149 120.838 16.7988 120.513 16.771 120.355C15.6009 107.635 15.394 98.3049 16.1505 92.364L16.2214 91.3699L16.2922 90.3758L16.4757 88.6257C16.6635 87.3657 17.1172 86.2226 17.8368 85.1963C18.0609 85.0752 18.4368 84.8865 18.9645 84.6302L19.6369 84.2667L20.3093 83.9032C21.4299 83.2974 21.9324 82.4321 21.8167 81.3071L23.5604 80.7555L25.1851 80.2248C26.4269 79.8431 27.3513 79.5172 27.9583 79.247C29.7932 78.5158 31.6178 78.8907 33.4322 80.3718C34.0198 80.923 34.675 81.626 35.3977 82.4808L36.3418 83.6647L37.1669 84.8696C39.7822 88.5824 42.4805 93.4667 45.2618 99.5226L46.9247 103.403L48.7067 107.262L52.1935 115.239C51.5811 116.41 50.0373 117.867 47.5621 119.611C45.087 121.354 43.399 122.223 42.4982 122.218C41.5974 122.212 40.9304 121.675 40.4972 120.606C39.5934 118.719 38.5989 116.317 37.5139 113.399L34.6496 106.172C32.3208 100.363 30.0096 95.8202 27.7161 92.5418C26.7017 105.399 27.9564 120.231 31.48 137.037C34.9383 153.935 39.6885 166.312 45.7308 174.168C46.9896 175.747 48.3584 177.02 49.8372 177.987C51.6891 179.216 53.4949 179.717 55.2547 179.49C56.2585 179.15 57.029 178.647 57.5663 177.98C57.7626 177.7 57.9589 177.42 58.1551 177.14L58.4077 176.482C60.4091 172.04 61.0529 166.856 60.3391 160.927C59.7968 156.442 58.4407 151.281 56.2706 145.445L55.8862 144.653L55.4037 144.002C55.1614 143.553 54.7743 143.212 54.2424 142.979C53.1701 141.531 53.3252 140.317 54.7075 139.338C59.971 135.306 63.6499 134.128 65.7441 135.805C66.9697 138.126 67.9223 140.29 68.6021 142.298ZM119.546 99.3624C126.029 110.658 126.842 123.44 121.985 137.709C119.622 144.75 116.285 150.203 111.974 154.069C107.098 158.443 100.316 161.515 91.6282 163.286C89.0234 163.825 86.2583 163.452 83.3329 162.166C80.5942 161.011 78.0222 158.477 75.6172 154.563C74.7969 153.153 74.0421 151.65 73.3527 150.053C72.7844 148.68 72.4236 147.557 72.2704 146.684C70.9035 140.298 70.3963 132.984 70.7487 124.742C70.9333 121.601 71.6399 116.773 72.8682 110.259C74.34 102.801 75.7023 97.9811 76.955 95.7979C77.4366 94.8135 78.338 94.1235 79.6592 93.7278L79.8281 92.5938L80.1162 91.4389C80.2942 90.5896 80.6053 89.7987 81.0493 89.0663C82.0542 87.3356 83.7867 86.2542 86.2468 85.8222L87.9551 85.7677L89.4044 85.6359C90.5294 85.5201 91.3814 85.2478 91.9605 84.8189C96.9933 83.1989 102.346 84.0996 108.019 87.5209C112.879 90.5121 116.722 94.4592 119.546 99.3624ZM109.501 139.288C112.556 131.062 113.326 122.869 111.811 114.709C110.134 106.087 106.172 99.134 99.927 93.85C97.5251 91.8176 95.204 90.7119 92.9638 90.5326C92.4308 91.6897 92.0725 93.1432 91.889 94.8933C91.6776 96.4847 91.6416 97.6772 91.7809 98.4708C93.0812 106.341 97.2113 115.187 104.171 125.008C103.868 125.143 103.485 125.292 103.023 125.455C102.575 125.698 102.08 125.907 101.538 126.084C100.165 126.652 98.8978 127.12 97.7353 127.488C94.4999 128.629 92.4039 129.038 91.4474 128.715C90.0995 127.561 88.78 125.87 87.4891 123.643C86.9251 122.76 86.3798 121.752 85.8534 120.617C85.4759 119.865 85.024 118.922 84.4976 117.787C83.2366 129.707 83.6349 138.963 85.6923 145.555C86.2509 147.338 87.0218 149.166 88.005 151.038C90.1302 154.755 92.5252 156.748 95.19 157.016C97.9481 157.35 101.169 154.494 104.852 148.448C106.693 145.425 108.243 142.372 109.501 139.288ZM185.354 73.5727C186.123 75.1556 186.618 77.2773 186.84 79.9379C186.986 83.1025 186.64 86.7217 185.801 90.7956C183.641 101.319 178.441 113.398 170.2 127.034C162.442 139.685 158.491 147.7 158.348 151.079C157.503 151.391 155.65 151.553 152.789 151.565C151.146 151.526 149.762 151.564 148.637 151.68C146.77 151.763 144.964 151.957 143.218 152.264C141.662 143.866 140.49 130.901 139.702 113.37C139.503 110.378 139.357 107.213 139.261 103.876C139.175 101.519 139.065 98.798 138.932 95.7128C138.699 90.1911 138.573 87.1455 138.555 86.5761C129.67 90.0178 122.7 92.0188 117.645 92.5793C114.839 92.9083 112.411 92.3532 110.358 90.9139C113.553 82.0907 116.839 73.7832 120.216 65.9916C120.36 65.8843 120.585 65.7632 120.888 65.6281C121.336 65.3858 121.785 65.1434 122.233 64.9011C123.526 64.3468 124.827 63.8321 126.134 63.3572C130.004 62.1049 133.101 61.8065 135.425 62.4619L134.435 65.2125L133.565 67.9421L131.86 72.9044C130.554 76.6512 129.265 80.0269 127.993 83.0316L130.549 82.2147L132.987 81.4186C134.77 80.8601 136.182 80.2848 137.224 79.693C137.308 78.7782 137.158 77.4549 136.772 75.723L136.417 73.6994L136.299 71.634C137.327 70.9628 139.409 70.4744 142.545 70.169L144.492 70.0727L146.536 69.8364C148.072 69.7303 149.204 69.6543 149.932 69.6082C149.953 72.0586 150.194 73.8977 150.655 75.1256C162.131 71.0654 172.258 69.5734 181.037 70.6496C183.239 71.0809 184.678 72.0552 185.354 73.5727ZM172.327 79.0505C171.932 77.7293 171.176 76.9212 170.061 76.6262C167.728 76.3816 164.803 76.7315 161.288 77.676C159.953 77.9922 158.354 78.4366 156.491 79.0091L151.519 80.7412C151.579 81.5487 151.721 84.2232 151.946 88.7647C152.112 91.1079 152.229 93.1733 152.298 94.9609C152.412 97.4767 152.539 99.8269 152.677 102.011C153.45 114.8 154.189 124.365 154.893 130.703C162.839 116.792 167.985 106.031 170.33 98.4207C172.53 90.9174 173.196 84.4607 172.327 79.0505ZM251.978 106.293C251.137 117.811 246.388 126.171 237.731 131.373C234.186 133.549 231.485 135.169 229.626 136.232C226.488 137.928 223.652 139.244 221.117 140.18C214.739 142.527 208.702 142.851 203.004 141.152C200.414 140.379 198.215 138.802 196.406 136.421C194.705 134.183 193.656 131.709 193.262 128.997L193.116 128.164L193.088 127.309C192.977 126.675 192.938 125.986 192.971 125.244C192.917 123.536 193.093 121.746 193.501 119.875C194.649 114.765 197.365 108.807 201.651 102.001C200.111 101.617 198.375 101.513 196.443 101.688C194.834 99.5167 194.281 96.8325 194.783 93.6358C195.726 87.8258 197.61 81.3187 200.435 74.1147C201.446 71.4832 202.751 68.4318 204.35 64.9607L206.377 60.4327L208.306 56.0447C209.632 54.7483 212.138 53.4085 215.821 52.0255C217.049 51.5644 218.403 51.1222 219.883 50.6987C220.425 50.5218 220.966 50.3449 221.508 50.168L222.201 49.9235L222.677 49.8399C224.997 50.0052 226.571 51.2831 227.4 53.6735C228.925 60.0317 228.336 69.2562 225.633 81.3471L225.297 81.5288L224.982 81.8296L224.113 82.4729C223.31 83.023 222.499 83.5334 221.682 84.0041C219.231 85.4163 216.691 86.5576 214.062 87.4282C213.004 86.0598 212.473 85.1305 212.468 84.6404C215.283 79.238 216.66 73.1063 216.6 66.2452C216.69 65.8206 216.627 65.4634 216.412 65.1739C216.184 64.805 215.932 64.7674 215.656 65.0612C212.634 67.8824 210.313 72.8302 208.692 79.9045C208.092 82.5458 207.658 85.1988 207.39 87.8636C207.159 90.2764 207.116 92.1247 207.259 93.4083C208.454 93.6894 210.104 93.7678 212.209 93.6435L214.771 93.5617L215.982 93.4717L217.075 93.4026C217.658 93.4638 218.157 93.7442 218.572 94.244C218.922 94.8371 218.98 95.3995 218.746 95.9314C213.8 99.9085 210.213 104.874 207.987 110.828C205.54 117.392 205.67 123.259 208.378 128.428C209.921 130.693 212.127 132.31 214.997 133.279C217.866 134.247 220.522 134.231 222.964 133.229C227.703 131.334 231.451 128.222 234.208 123.893C236.756 119.764 238.211 115.009 238.575 109.628C235.496 107.469 232.928 106.121 230.87 105.582C230.414 104.844 230.295 104.17 230.515 103.558L230.964 102.621L231.413 101.683C232.127 101.558 232.979 101.285 233.969 100.866L236.721 99.7691C239.149 98.6884 240.839 98.0644 241.791 97.8971C243.01 97.8468 244.279 98.3193 245.599 99.3146L246.319 99.9243L247.04 100.534C247.614 101.006 248.166 101.359 248.698 101.593L249.937 102.357C250.403 102.684 250.79 103.025 251.098 103.38C251.9 104.221 252.193 105.192 251.978 106.293ZM310.169 85.7673C310.781 85.9872 311.148 87.1497 311.273 89.2547L311.425 90.8231L311.459 92.4124C311.537 93.7893 311.62 94.9609 311.708 95.9271C310.732 96.4257 309.012 96.6459 306.548 96.5878C301.796 97.0132 296.948 97.8236 292.004 99.0189L289.049 99.6605L286.115 100.421C283.921 100.97 282.031 101.384 280.443 101.663C267.372 105.021 258.155 106.803 252.792 107.009C251.774 107.269 251.203 106.347 251.079 104.242C250.991 103.276 251.119 100.513 251.464 95.9532C255.095 96.1337 258.862 95.9221 262.764 95.3187C264.272 95.0539 265.971 94.7146 267.862 94.3008L272.82 93.1849L277.42 92.1316L282 90.9593L291.299 88.7128C298.623 87.0994 304.914 86.1176 310.169 85.7673ZM97.5191 266.444C100.141 273.919 99.4665 281.727 95.497 289.868C93.9869 292.914 91.8907 296.35 89.2084 300.175L85.5357 305.115L82.0593 309.774C79.1528 313.721 76.7795 316.51 74.9391 318.142C71.9685 320.79 68.8284 322.241 65.5191 322.495C61.6403 322.767 58.3309 323.021 55.591 323.257C54.466 323.373 52.9707 322.776 51.1048 321.468C49.3601 320.384 48.1055 319.295 47.341 318.202C45.8035 315.037 44.9362 311.262 44.7392 306.88C44.6301 303.463 44.981 299.638 45.792 295.406C48.4275 286.19 51.7052 279.234 55.6251 274.537C58.1808 271.389 60.8668 268.749 63.683 266.619C64.5517 265.975 65.5067 265.358 66.548 264.766L67.1013 264.423L67.6756 264.2C67.9652 263.985 68.1823 263.824 68.3271 263.717C69.2279 263.723 70.4552 263.957 72.0091 264.42L73.9409 264.94L75.8728 265.46C78.4571 267.133 79.6681 270.07 79.5059 274.27C79.2151 275.875 78.6509 278.02 77.8132 280.703L76.8655 283.691C76.4912 284.82 76.2289 285.889 76.0787 286.897L78.1487 289.601C77.8077 289.988 75.294 290.348 70.6077 290.68C70.0383 290.698 69.4361 290.763 68.8013 290.874L67.2538 291.146C66.1567 291.421 65.3959 291.513 64.9712 291.424C63.8838 291.288 63.6775 289.647 64.3523 286.502C64.4274 285.998 64.7315 285.168 65.2645 284.01L65.966 282.415L66.6674 280.819C67.7947 277.922 67.7965 275.835 66.6727 274.56C61.3414 281.468 58.3361 289.276 57.6566 297.985C57.3496 302.293 57.5354 306.146 58.2139 309.544C59.0973 313.643 60.6075 315.955 62.7447 316.479C68.6528 311.924 73.836 306.269 78.2944 299.515C82.1124 293.772 84.5176 289.301 85.5098 286.1C86.9041 281.928 87.3029 276.746 86.7061 270.552C85.707 265.328 82.2718 262.536 76.4006 262.177C75.3272 262.12 73.9829 262.151 72.3679 262.271L68.2162 262.387C64.6409 262.524 61.7986 262.409 59.6893 262.044C52.5882 258.873 49.4423 253.536 50.2514 246.031C50.4821 243.618 51.1354 241.05 52.2112 238.325L52.8145 236.869C52.9175 236.524 53.0998 236.165 53.3615 235.791C53.7776 234.9 53.9787 234.415 53.9648 234.336C55.2787 231.569 57.7604 227.534 61.4101 222.23C63.924 218.844 66.743 216.263 69.8669 214.487C72.5426 212.954 74.7298 212.365 76.4284 212.721L77.8568 212.471C78.6643 212.411 79.4461 212.437 80.2021 212.55C82.3768 212.822 84.18 213.773 85.6115 215.404C87.9747 219.079 89.028 223.679 88.7713 229.205C88.6574 231.352 88.3404 233.739 87.8201 236.367C87.5433 238.051 87.0396 240.307 86.3092 243.135C81.7901 244.42 79.0077 245.113 77.9622 245.214C76.6646 245.279 76.2217 244.62 76.6336 243.239L77.4832 240.39L78.4099 237.283C79.1447 234.945 79.6435 232.894 79.9063 231.13C80.6992 226.328 80.1799 222.206 78.3486 218.765L77.9078 218.351L77.4462 217.819C76.9658 217.413 76.5878 217.356 76.3122 217.65C67.3475 227.159 62.4943 237.255 61.7525 247.938C61.526 250.841 62.7328 253.288 65.3728 255.278C67.5325 256.862 70.3088 257.766 73.7018 257.988C74.9478 258.096 76.4647 258.116 78.2524 258.048L80.4577 258.028L82.6421 257.89C89.9139 257.84 94.8729 260.692 97.5191 266.444ZM131.826 206.675C131.695 206.861 131.433 207.235 131.041 207.794L130.55 208.494L130.08 209.313C129.15 210.539 128.249 211.229 127.376 211.383C128.448 212.831 129.28 214.771 129.87 217.203C130.816 225.381 130.686 235.588 129.48 247.825L128.711 255.322L127.942 262.82C127.395 268.56 127.081 273.524 126.998 277.71C126.958 280.744 127.303 283.874 128.033 287.099C128.481 286.857 129.107 286.461 129.91 285.911L131.115 285.086L132.32 284.261C134.585 282.718 136.39 281.583 137.735 280.856C142.045 278.381 144.381 278.175 144.743 280.239C144.583 281.657 144.328 283.461 143.976 285.65L143.462 288.317L142.949 290.984C142.311 295.268 142.443 299.048 143.346 302.326C142.314 302.507 141.165 302.954 139.9 303.667L138.219 304.576L136.895 305.422C134.733 306.619 133.223 306.639 132.365 305.481C131.961 303.18 131.907 300.776 132.203 298.27L132.654 295.246C132.828 293.906 132.964 292.819 133.063 291.983C133.035 291.825 132.127 292.475 130.338 293.934C130.952 296.035 130.223 297.472 128.15 298.245L126.665 298.874L125.159 299.384C123.866 299.938 122.885 300.642 122.217 301.496C121.624 301.845 120.84 301.574 119.865 300.682C116.498 303.4 112.236 307.543 107.078 313.112C105.225 313.273 103.943 312.026 103.231 309.37C106.823 305.14 111.53 300.264 117.35 294.743C116.177 290.858 115.576 286.506 115.548 281.684C115.479 279.896 115.514 277.764 115.651 275.285L115.895 268.985C116.065 265.764 116.407 261.655 116.92 256.657L117.583 250.65L118.226 244.525C119.055 234.808 118.864 226.498 117.652 219.594C114.281 220.431 111.172 221.591 108.323 223.072L107.204 222.287C106.817 221.946 106.469 221.598 106.162 221.243C105.345 220.323 104.826 219.228 104.603 217.959C110.183 215.261 115.71 211.1 121.185 205.476C124.877 205.073 127.839 204.471 130.071 203.67C131.737 203.377 132.322 204.379 131.826 206.675ZM158.202 221.921C159.234 221.74 160.095 221.753 160.786 221.959C161.742 222.281 162.39 222.945 162.73 223.949C164.173 228.44 165.905 234.107 167.925 240.951L170.403 249.474L173.021 258.094C177.14 271.768 181.077 282.775 184.832 291.114C184.846 291.193 184.451 291.508 183.648 292.058C182.7 292.716 181.665 293.347 180.545 293.953C177.421 295.729 175.03 296.557 173.374 296.439C169.591 287.941 165.669 276.319 161.606 261.571L159.065 252.692L156.665 243.91C154.752 237.211 152.967 231.471 151.309 226.69C146.803 229.445 143.382 231.395 141.048 232.541C147.066 236.066 151.448 239.591 154.194 243.117C154.212 243.687 152.918 244.936 150.312 246.866C147.72 248.876 145.974 249.878 145.073 249.872C140.844 244.889 135.351 240.863 128.596 237.796L128.078 237.641L127.28 237.291C126.655 236.991 126.148 236.671 125.761 236.33C124.455 235.414 124.12 234.205 124.756 232.703C125.522 232.405 126.32 232.06 127.152 231.669L129.288 230.557C131.002 229.602 132.367 228.994 133.385 228.733C134.659 229.001 136.022 228.843 137.474 228.261C138.557 227.907 139.79 227.241 141.172 226.262L166.552 208.676C171.661 205.161 177.17 202.762 183.08 201.478L183.437 201.416L183.815 201.472C184.226 201.482 184.604 201.538 184.949 201.641C185.906 201.964 186.435 202.648 186.537 203.694C186.806 205.691 186.918 207.962 186.874 210.506L186.745 213.964L186.616 217.423C186.243 223.215 186.475 227.796 187.312 231.166C187.209 231.512 185.68 232.353 182.724 233.69C179.61 235.055 177.226 235.923 175.574 236.295C174.723 232.845 174.465 228.35 174.801 222.811L175.091 219.569L175.262 216.349C175.399 213.871 175.401 211.784 175.267 210.09C173.198 211.353 170.275 213.339 166.497 216.048L164.206 217.677L162.013 219.166C160.421 220.346 159.15 221.264 158.202 221.921ZM249.747 247.812C248.906 259.33 244.157 267.69 235.5 272.891C231.955 275.068 229.254 276.687 227.395 277.75C224.258 279.446 221.421 280.762 218.886 281.698C212.508 284.045 206.471 284.369 200.773 282.67C198.184 281.898 195.984 280.321 194.175 277.939C192.474 275.702 191.426 273.227 191.031 270.515L190.885 269.682L190.858 268.828C190.746 268.193 190.707 267.505 190.74 266.762C190.686 265.054 190.862 263.264 191.27 261.393C192.418 256.283 195.134 250.325 199.42 243.519C197.88 243.135 196.144 243.031 194.212 243.207C192.603 241.035 192.05 238.351 192.552 235.154C193.495 229.344 195.379 222.837 198.205 215.633C199.215 213.002 200.52 209.95 202.119 206.479L204.146 201.951L206.075 197.563C207.402 196.267 209.907 194.927 213.59 193.544C214.818 193.083 216.172 192.641 217.652 192.217C218.194 192.04 218.735 191.863 219.277 191.687L219.97 191.442L220.446 191.358C222.766 191.524 224.34 192.802 225.169 195.192C226.694 201.55 226.105 210.775 223.402 222.866L223.066 223.047L222.751 223.348L221.882 223.991C221.079 224.542 220.269 225.052 219.451 225.523C217 226.935 214.46 228.076 211.831 228.947C210.773 227.578 210.242 226.649 210.237 226.159C213.052 220.757 214.429 214.625 214.37 207.764C214.459 207.339 214.396 206.982 214.181 206.692C213.953 206.324 213.701 206.286 213.425 206.58C210.403 209.401 208.082 214.349 206.461 221.423C205.861 224.064 205.427 226.717 205.159 229.382C204.928 231.795 204.885 233.643 205.028 234.927C206.223 235.208 207.873 235.286 209.978 235.162L212.54 235.08L213.751 234.99L214.844 234.921C215.427 234.982 215.926 235.263 216.341 235.763C216.691 236.356 216.749 236.918 216.515 237.45C211.569 241.427 207.982 246.392 205.756 252.346C203.309 258.911 203.439 264.778 206.147 269.947C207.69 272.212 209.896 273.829 212.766 274.797C215.635 275.766 218.291 275.749 220.733 274.748C225.472 272.852 229.22 269.74 231.977 265.411C234.525 261.283 235.98 256.528 236.344 251.147C233.266 248.988 230.697 247.639 228.639 247.101C228.183 246.363 228.064 245.688 228.284 245.077L228.733 244.139L229.182 243.201C229.896 243.076 230.748 242.804 231.738 242.385L234.49 241.288C236.918 240.207 238.608 239.583 239.561 239.416C240.779 239.365 242.048 239.838 243.368 240.833L244.089 241.443L244.809 242.053C245.383 242.524 245.936 242.877 246.467 243.111L247.706 243.875C248.172 244.202 248.56 244.543 248.867 244.898C249.669 245.739 249.963 246.71 249.747 247.812ZM270.627 264.269L268.609 265.359C266.975 266.301 265.586 267.24 264.441 268.177C263.214 268.638 262.411 268.493 262.033 267.741C261.376 266.793 260.078 265.221 258.138 263.026C256.514 262.166 259.63 259.41 267.484 254.759C268.185 254.554 268.95 254.951 269.78 255.951C270.395 256.661 271.066 257.688 271.793 259.033C272.25 259.771 272.581 260.49 272.786 261.19C273.018 262.049 273.004 262.665 272.742 263.038L270.627 264.269ZM146.85 400.626C145.57 401.26 143.082 402.229 139.384 403.532L137.087 404.427L134.888 405.181C133.198 405.805 131.93 406.273 131.085 406.585C131.685 409.997 133.091 414.045 135.304 418.728L138.316 424.703L139.833 427.749L141.308 430.558L141.531 431.132L141.755 431.707C142.011 432.234 142.12 432.624 142.083 432.876C142.077 433.777 141.288 434.406 139.715 434.764C138.687 435.436 137.249 436.097 135.401 436.749L133.222 437.622C132.312 438.028 131.481 438.419 130.729 438.796C126.753 432.459 123.262 424.688 120.254 415.481L120.01 414.788L119.905 414.193L119.619 413.261C116.054 417.65 111.612 424.034 106.294 432.412L99.7463 442.642C97.2366 446.518 94.9935 449.816 93.0169 452.536L91.2651 454.438L89.5132 456.341C88.1072 457.652 86.5313 458.46 84.7855 458.767L82.691 460.116L80.5757 461.346C78.7826 462.316 77.1161 462.608 75.5762 462.224C73.9109 461.126 72.8386 459.678 72.3594 457.881C72.0571 456.625 72.0491 454.95 72.3356 452.854C72.9225 448.743 74.1191 443.911 75.9254 438.358L78.3677 431.303L80.81 424.248C73.5552 426.258 67.7037 427.408 63.2555 427.699C62.2893 427.787 61.1259 426.518 59.7652 423.894L70.1039 417.784L70.9017 418.135C72.8299 417.469 75.2787 416.507 78.2482 415.25L81.7711 413.649L85.4339 412.147C87.1318 407.841 89.2153 402.935 91.6843 397.429L95.058 390.088L98.5507 382.726C104.325 370.423 108.466 360.697 110.974 353.549C111.166 352.779 111.361 351.559 111.558 349.888L122.085 344.849C123.363 345.606 124.202 346.891 124.602 348.702C124.714 349.337 124.806 350.098 124.88 350.984L124.949 352.077L125.019 353.169L125.308 359.008L125.618 364.966C125.936 369.573 126.222 373.531 126.476 376.841C127.243 385.868 128.389 393.561 129.915 399.919L130.019 400.514C130.061 400.752 130.049 400.918 129.984 401.011L133.569 399.768L137.295 398.623C140.32 397.683 142.631 396.868 144.228 396.179C144.933 396.464 145.481 397.022 145.872 397.853L146.221 399.142C146.491 399.749 146.701 400.244 146.85 400.626ZM113.834 374.03C109.847 381.601 104.678 392.694 98.3269 407.306C100.955 406.436 104.032 405.323 107.557 403.968L112.13 402.06L116.725 400.272C116.149 396.528 115.621 392.122 115.139 387.053L114.487 380.541L113.834 374.03ZM115.005 405.85C113.697 406.325 112.054 406.982 110.074 407.82L107.441 408.896L104.808 409.972C100.61 411.691 97.6059 412.75 95.7946 413.15L95.2122 414.725L112.664 408.593L115.005 405.85ZM106.79 416.373C104.797 417.132 102.479 417.907 99.8365 418.698L92.8616 420.905C88.0211 432.471 85.2842 442.973 84.6508 452.409C84.8889 452.368 86.1931 450.012 88.5633 445.342C90.022 442.468 91.5273 439.627 93.0792 436.818C95.2854 433.077 97.7296 429.294 100.412 425.469L106.79 416.373ZM204.643 374.894C203.894 377.153 202.499 378.993 200.458 380.415C199.655 380.965 198.726 381.496 197.671 382.008L196.326 382.735L194.96 383.343C186.906 386.394 180.284 388.743 175.092 390.391C183.5 393.086 190.382 396.172 195.737 399.649C202.931 404.276 207.74 409.771 210.167 416.135L210.411 416.828L210.697 417.76C210.93 418.619 211.156 419.438 211.374 420.218C211.858 422.505 211.966 424.286 211.699 425.56C210.504 425.279 208.992 425.053 207.163 424.884L204.916 424.665L202.668 424.446C199.089 424.093 196.273 423.197 194.221 421.757C193.541 419.75 192.777 417.962 191.929 416.393L190.859 414.495L189.909 412.575C187.317 408.531 183.316 404.612 177.905 400.818C172.587 397.089 168.505 395.269 165.658 395.36C166.929 404.463 168.234 412.128 169.573 418.355C171.409 426.949 173.533 434.388 175.946 440.673C175.992 441.401 171.14 441.721 161.39 441.634C156.458 428.92 152.623 412.906 149.886 393.59C149.592 393.314 149.179 393.059 148.647 392.826L148.01 392.692L147.471 392.419C146.501 392.016 145.972 391.332 145.884 390.366C145.997 389.61 146.375 388.971 147.02 388.449C147.533 388.113 148.18 387.836 148.96 387.617C148.096 382.697 147.393 377.994 146.85 373.508L146.468 370.631L146.204 367.732C145.903 365.085 145.66 363.001 145.474 361.479L143.822 361.156L142.051 360.853C140.777 360.586 139.695 360.245 138.804 359.828C138.468 359.315 138.31 358.647 138.329 357.826C138.335 356.925 138.541 356.234 138.947 355.754L145.607 353.848C145.817 353.648 146.006 353.328 146.175 352.89L146.308 352.253C146.504 351.973 146.708 351.733 146.918 351.532C149.732 352.183 153.582 352.448 158.469 352.326L161.29 352.321L164.112 352.317C166.179 352.445 168.016 352.654 169.621 352.945C182.226 355.312 192.075 359.227 199.169 364.689C200.769 365.881 202.14 367.399 203.282 369.243C204.559 371.391 205.013 373.275 204.643 374.894ZM189.825 370.87C189.835 370.459 189.744 369.944 189.553 369.323C189.376 368.781 189.181 368.366 188.966 368.076C186.047 364.498 181.846 362.005 176.364 360.595C171.385 359.261 166.356 359.04 161.277 359.931L163.736 382.323L167.245 381.339L170.851 380.215C173.652 379.395 176.017 378.653 177.945 377.987C183.24 375.994 187.199 373.622 189.825 370.87ZM221.999 351.846C223.03 351.664 223.892 351.677 224.582 351.883C225.539 352.206 226.187 352.869 226.527 353.873C227.97 358.364 229.701 364.032 231.721 370.876L234.199 379.398L236.817 388.018C240.936 401.693 244.873 412.699 248.628 421.038C248.642 421.118 248.248 421.432 247.444 421.982C246.496 422.64 245.462 423.271 244.341 423.877C241.217 425.653 238.827 426.481 237.17 426.363C233.387 417.866 229.465 406.243 225.403 391.495L222.862 382.616L220.461 373.834C218.548 367.135 216.763 361.395 215.106 356.614C210.599 359.369 207.179 361.319 204.844 362.466C210.862 365.99 215.244 369.515 217.99 373.041C218.008 373.611 216.715 374.86 214.109 376.791C211.516 378.8 209.77 379.802 208.869 379.797C204.64 374.813 199.148 370.787 192.392 367.72L191.874 367.565L191.076 367.215C190.451 366.915 189.945 366.595 189.558 366.254C188.252 365.338 187.917 364.129 188.553 362.627C189.318 362.329 190.117 361.984 190.948 361.593L193.084 360.481C194.798 359.526 196.164 358.918 197.181 358.658C198.455 358.925 199.818 358.767 201.27 358.185C202.353 357.831 203.586 357.165 204.969 356.186L230.348 338.6C235.457 335.085 240.967 332.686 246.877 331.403L247.234 331.34L247.612 331.396C248.023 331.406 248.401 331.462 248.746 331.565C249.702 331.888 250.232 332.572 250.333 333.618C250.602 335.616 250.715 337.886 250.671 340.43L250.542 343.888L250.413 347.347C250.039 353.139 250.271 357.72 251.108 361.09C251.005 361.436 249.476 362.277 246.52 363.614C243.406 364.979 241.023 365.847 239.37 366.219C238.519 362.769 238.261 358.275 238.597 352.735L238.887 349.493L239.058 346.273C239.195 343.795 239.197 341.709 239.063 340.014C236.995 341.277 234.071 343.263 230.293 345.972L228.002 347.601L225.81 349.09C224.217 350.27 222.947 351.188 221.999 351.846Z" fill="#4A0631"/>
</svg>
