<svg width="481" height="350" viewBox="0 0 481 350" fill="none" xmlns="http://www.w3.org/2000/svg">
<path d="M64.2827 152.683C68.9058 166.432 68.7704 177.541 63.8765 186.008C59.1995 191.983 53.2336 195.975 45.9788 197.985C41.5391 199.256 37.6963 198.335 34.4504 195.224C27.6274 188.978 21.9757 177.291 17.4955 160.163C15.9882 154.374 14.7265 147.888 13.7104 140.704C13.3717 138.309 13.0539 136.033 12.757 133.877C12.697 133.069 12.6113 132.348 12.4998 131.713C12.4956 131.223 12.4795 130.899 12.4516 130.74C11.2815 118.021 11.0747 108.69 11.8312 102.749L11.902 101.755L11.9729 100.761L12.1564 99.0112C12.3441 97.7511 12.7978 96.608 13.5175 95.5818C13.7416 95.4607 14.1175 95.2719 14.6451 95.0157L15.3175 94.6522L15.9899 94.2887C17.1106 93.6829 17.6131 92.8175 17.4973 91.6926L19.2411 91.141L20.8658 90.6103C22.1076 90.2286 23.032 89.9027 23.639 89.6325C25.4739 88.9013 27.2985 89.2762 29.1128 90.7573C29.7005 91.3085 30.3556 92.0115 31.0784 92.8662L32.0225 94.0502L32.8476 95.2551C35.4628 98.9678 38.1611 103.852 40.9424 109.908L42.6054 113.788L44.3874 117.647L47.8742 125.624C47.2618 126.795 45.718 128.252 43.2428 129.996C40.7676 131.739 39.0796 132.609 38.1788 132.603C37.2781 132.598 36.6111 132.06 36.1779 130.991C35.274 129.105 34.2796 126.703 33.1946 123.785L30.3302 116.557C28.0015 110.749 25.6903 106.206 23.3967 102.927C22.3824 115.785 23.637 130.617 27.1607 147.422C30.6189 164.321 35.3692 176.698 41.4115 184.553C42.6703 186.132 44.0391 187.405 45.5178 188.373C47.3697 189.602 49.1756 190.103 50.9354 189.875C51.9391 189.535 52.7097 189.032 53.247 188.365C53.4432 188.085 53.6395 187.805 53.8358 187.525L54.0884 186.868C56.0898 182.426 56.7336 177.241 56.0198 171.313C55.4775 166.827 54.1213 161.666 51.9513 155.83L51.5669 155.039L51.0844 154.387C50.842 153.939 50.4549 153.598 49.923 153.364C48.8508 151.916 49.0058 150.703 50.3882 149.724C55.6517 145.691 59.3306 144.513 61.4248 146.191C62.6504 148.511 63.603 150.676 64.2827 152.683ZM115.227 109.748C121.71 121.044 122.523 133.826 117.666 148.095C115.303 155.136 111.966 160.589 107.655 164.454C102.778 168.828 95.9963 171.901 87.3089 173.672C84.704 174.211 81.9389 173.837 79.0136 172.552C76.2748 171.396 73.7029 168.862 71.2979 164.949C70.4776 163.539 69.7228 162.035 69.0333 160.438C68.4651 159.066 68.1043 157.943 67.951 157.07C66.5842 150.684 66.077 143.37 66.4293 135.127C66.614 131.986 67.3205 127.159 68.5489 120.644C70.0207 113.187 71.383 108.367 72.6357 106.183C73.1172 105.199 74.0186 104.509 75.3398 104.113L75.5088 102.979L75.7968 101.824C75.9749 100.975 76.286 100.184 76.73 99.4518C77.7349 97.7211 79.4674 96.6397 81.9275 96.2077L83.6358 96.1531L85.0851 96.0213C86.21 95.9056 87.062 95.6333 87.6412 95.2044C92.6739 93.5844 98.0266 94.485 103.699 97.9063C108.56 100.898 112.403 104.845 115.227 109.748ZM105.182 149.673C108.236 141.447 109.007 133.254 107.492 125.095C105.814 116.473 101.853 109.519 95.6077 104.235C93.2057 102.203 90.8847 101.097 88.6445 100.918C88.1114 102.075 87.7532 103.529 87.5696 105.279C87.3583 106.87 87.3223 108.063 87.4616 108.856C88.7618 116.727 92.892 125.572 99.852 135.394C99.5485 135.529 99.1657 135.678 98.7035 135.841C98.2552 136.083 97.7603 136.293 97.2187 136.47C95.846 137.038 94.5785 137.506 93.416 137.874C90.1805 139.014 88.0846 139.423 87.128 139.1C85.7801 137.946 84.4607 136.256 83.1697 134.028C82.6057 133.146 82.0605 132.137 81.534 131.003C81.1566 130.251 80.7047 129.308 80.1782 128.173C78.9173 140.092 79.3155 149.348 81.373 155.94C81.9315 157.723 82.7024 159.551 83.6857 161.424C85.8108 165.141 88.2058 167.133 90.8707 167.402C93.6288 167.735 96.8494 164.879 100.532 158.834C102.374 155.811 103.924 152.757 105.182 149.673ZM181.035 83.9582C181.803 85.541 182.299 87.6628 182.52 90.3234C182.667 93.4879 182.321 97.1072 181.482 101.181C179.322 111.704 174.121 123.784 165.881 137.419C158.123 150.071 154.172 158.086 154.029 161.465C153.184 161.777 151.331 161.939 148.47 161.95C146.827 161.911 145.443 161.95 144.318 162.066C142.451 162.148 140.645 162.343 138.899 162.649C137.342 154.251 136.17 141.287 135.382 123.755C135.184 120.764 135.037 117.599 134.942 114.262C134.855 111.905 134.746 109.183 134.613 106.098C134.38 100.577 134.254 97.531 134.236 96.9616C125.351 100.403 118.381 102.404 113.325 102.965C110.52 103.294 108.091 102.739 106.039 101.299C109.234 92.4761 112.52 84.1687 115.896 76.377C116.041 76.2698 116.265 76.1487 116.569 76.0136C117.017 75.7712 117.465 75.5289 117.914 75.2866C119.207 74.7323 120.507 74.2176 121.814 73.7426C125.685 72.4904 128.782 72.192 131.106 72.8474L130.116 75.5979L129.246 78.3276L127.54 83.2899C126.235 87.0367 124.946 90.4124 123.674 93.4171L126.23 92.6002L128.667 91.8041C130.451 91.2455 131.863 90.6703 132.904 90.0784C132.989 89.1637 132.838 87.8404 132.453 86.1085L132.097 84.0849L131.98 82.0195C133.007 81.3482 135.089 80.8599 138.226 80.5545L140.172 80.4581L142.217 80.2218C143.753 80.1158 144.885 80.0397 145.613 79.9937C145.634 82.444 145.875 84.2832 146.336 85.5111C157.812 81.4508 167.939 79.9588 176.717 81.0351C178.92 81.4663 180.359 82.4407 181.035 83.9582ZM168.008 89.436C167.612 88.1148 166.857 87.3067 165.742 87.0117C163.408 86.767 160.484 87.1169 156.969 88.0614C155.633 88.3777 154.034 88.8221 152.172 89.3946L147.199 91.1266C147.259 91.9342 147.402 94.6087 147.627 99.1502C147.793 101.493 147.91 103.559 147.979 105.346C148.093 107.862 148.22 110.212 148.358 112.397C149.131 125.186 149.87 134.75 150.574 141.089C158.52 127.178 163.666 116.417 166.01 108.806C168.21 101.303 168.876 94.8462 168.008 89.436ZM247.659 116.678C246.818 128.197 242.069 136.557 233.411 141.758C229.867 143.935 227.165 145.554 225.307 146.617C222.169 148.313 219.333 149.629 216.797 150.565C210.42 152.912 204.382 153.236 198.685 151.537C196.095 150.765 193.896 149.188 192.087 146.806C190.385 144.569 189.337 142.094 188.943 139.382L188.796 138.549L188.769 137.695C188.658 137.06 188.619 136.372 188.652 135.629C188.597 133.921 188.774 132.131 189.181 130.26C190.329 125.15 193.046 119.192 197.332 112.386C195.792 112.002 194.056 111.898 192.123 112.074C190.515 109.902 189.962 107.218 190.464 104.021C191.407 98.2112 193.291 91.7042 196.116 84.5002C197.126 81.8687 198.431 78.8173 200.03 75.3461L202.058 70.8182L203.987 66.4302C205.313 65.1338 207.818 63.794 211.502 62.4109C212.73 61.9499 214.084 61.5076 215.564 61.0842C216.105 60.9073 216.647 60.7304 217.188 60.5534L217.882 60.309L218.358 60.2254C220.677 60.3907 222.252 61.6686 223.08 64.0589C224.606 70.4172 224.017 79.6417 221.314 91.7325L220.978 91.9143L220.662 92.2151L219.794 92.8584C218.99 93.4085 218.18 93.9189 217.363 94.3896C214.911 95.8017 212.371 96.9431 209.743 97.8137C208.685 96.4452 208.153 95.516 208.149 95.0259C210.963 89.6235 212.341 83.4917 212.281 76.6307C212.37 76.206 212.307 75.8489 212.093 75.5594C211.865 75.1904 211.613 75.1529 211.337 75.4467C208.315 78.2679 205.993 83.2157 204.372 90.29C203.773 92.9312 203.339 95.5843 203.071 98.2491C202.84 100.662 202.796 102.51 202.94 103.794C204.134 104.075 205.784 104.153 207.889 104.029L210.452 103.947L211.663 103.857L212.755 103.788C213.339 103.849 213.838 104.13 214.253 104.629C214.602 105.223 214.66 105.785 214.426 106.317C209.48 110.294 205.894 115.259 203.667 121.213C201.221 127.778 201.351 133.645 204.058 138.814C205.601 141.079 207.808 142.696 210.677 143.664C213.547 144.633 216.203 144.616 218.645 143.615C223.383 141.719 227.132 138.607 229.889 134.278C232.436 130.15 233.892 125.395 234.256 120.014C231.177 117.855 228.609 116.506 226.551 115.968C226.094 115.23 225.976 114.555 226.196 113.944L226.645 113.006L227.093 112.068C227.808 111.943 228.66 111.671 229.649 111.251L232.402 110.155C234.83 109.074 236.52 108.45 237.472 108.283C238.69 108.232 239.959 108.705 241.279 109.7L242 110.31L242.721 110.919C243.294 111.391 243.847 111.744 244.379 111.978L245.618 112.742C246.084 113.069 246.471 113.41 246.779 113.765C247.581 114.606 247.874 115.577 247.659 116.678ZM305.85 96.1528C306.461 96.3727 306.829 97.5351 306.953 99.6402L307.106 101.209L307.14 102.798C307.218 104.175 307.301 105.346 307.389 106.313C306.413 106.811 304.693 107.031 302.228 106.973C297.477 107.399 292.629 108.209 287.685 109.404L284.73 110.046L281.796 110.807C279.602 111.356 277.711 111.769 276.124 112.048C263.053 115.407 253.836 117.189 248.473 117.394C247.455 117.655 246.884 116.733 246.76 114.628C246.672 113.661 246.8 110.898 247.145 106.339C250.776 106.519 254.542 106.308 258.445 105.704C259.953 105.439 261.652 105.1 263.543 104.686L268.5 103.57L273.101 102.517L277.68 101.345L286.98 99.0983C294.304 97.4849 300.594 96.503 305.85 96.1528ZM93.1998 276.83C95.8212 284.304 95.1472 292.112 91.1777 300.253C89.6676 303.3 87.5714 306.736 84.8891 310.561L81.2164 315.5L77.7399 320.16C74.8335 324.106 72.4601 326.895 70.6198 328.527C67.6491 331.176 64.5091 332.627 61.1997 332.881C57.3209 333.153 54.0116 333.407 51.2716 333.643C50.1467 333.758 48.6513 333.162 46.7855 331.854C45.0408 330.769 43.7862 329.681 43.0217 328.588C41.4841 325.422 40.6169 321.648 40.4199 317.265C40.3107 313.848 40.6617 310.024 41.4727 305.791C44.1082 296.575 47.3859 289.619 51.3058 284.922C53.8615 281.774 56.5474 279.135 59.3636 277.004C60.2323 276.361 61.1873 275.743 62.2286 275.151L62.782 274.809L63.3563 274.585C63.6458 274.371 63.863 274.21 64.0078 274.103C64.9086 274.108 66.1359 274.342 67.6897 274.806L69.6216 275.325L71.5534 275.845C74.1377 277.518 75.3488 280.455 75.1865 284.656C74.8958 286.261 74.3316 288.405 73.4938 291.088L72.5462 294.077C72.1718 295.206 71.9096 296.274 71.7594 297.283L73.8294 299.987C73.4883 300.374 70.9747 300.733 66.2884 301.065C65.7189 301.084 65.1168 301.148 64.4819 301.26L62.9345 301.532C61.8374 301.806 61.0765 301.899 60.6519 301.81C59.5645 301.674 59.3582 300.033 60.033 296.888C60.1081 296.384 60.4121 295.553 60.9452 294.396L61.6466 292.8L62.3481 291.205C63.4754 288.307 63.4771 286.221 62.3534 284.946C57.0221 291.854 54.0167 299.662 53.3373 308.371C53.0303 312.678 53.216 316.531 53.8946 319.93C54.7779 324.028 56.2882 326.34 58.4254 326.865C64.3335 322.31 69.5167 316.655 73.975 309.9C77.7931 304.158 80.1982 299.686 81.1904 296.485C82.5848 292.314 82.9836 287.131 82.3867 280.937C81.3877 275.713 77.9525 272.922 72.0813 272.562C71.0078 272.505 69.6636 272.537 68.0486 272.657L63.8969 272.772C60.3216 272.909 57.4793 272.795 55.3699 272.429C48.2689 269.259 45.1229 263.921 45.9321 256.417C46.1628 254.004 46.8161 251.435 47.8918 248.71L48.4952 247.255C48.5981 246.909 48.7805 246.55 49.0422 246.177C49.4583 245.286 49.6594 244.8 49.6455 244.721C50.9593 241.954 53.4411 237.919 57.0908 232.616C59.6047 229.229 62.4236 226.648 65.5476 224.873C68.2233 223.339 70.4104 222.751 72.109 223.107L73.5375 222.856C74.345 222.796 75.1267 222.822 75.8827 222.935C78.0575 223.208 79.8606 224.159 81.2921 225.789C83.6554 229.464 84.7086 234.065 84.4519 239.591C84.3381 241.738 84.021 244.125 83.5008 246.752C83.224 248.437 82.7203 250.693 81.9898 253.521C77.4707 254.805 74.6884 255.498 73.6428 255.6C72.3452 255.664 71.9024 255.006 72.3143 253.625L73.1638 250.776L74.0906 247.668C74.8253 245.33 75.3241 243.28 75.587 241.516C76.3798 236.713 75.8606 232.592 74.0292 229.15L73.5885 228.737L73.1269 228.204C72.6465 227.798 72.2685 227.742 71.9929 228.036C63.0282 237.545 58.1749 247.641 57.4331 258.324C57.2067 261.227 58.4134 263.673 61.0535 265.664C63.2131 267.248 65.9894 268.151 69.3824 268.373C70.6285 268.482 72.1454 268.502 73.933 268.433L76.1384 268.414L78.3228 268.276C85.5946 268.226 90.5536 271.077 93.1998 276.83ZM127.506 217.06C127.375 217.247 127.114 217.62 126.721 218.18L126.231 218.879L125.761 219.698C124.831 220.925 123.93 221.615 123.057 221.768C124.129 223.216 124.96 225.156 125.551 227.588C126.496 235.766 126.366 245.974 125.161 258.21L124.392 265.708L123.622 273.205C123.076 278.946 122.761 283.909 122.679 288.096C122.639 291.129 122.984 294.259 123.714 297.485C124.162 297.243 124.788 296.846 125.591 296.296L126.796 295.471L128.001 294.646C130.266 293.103 132.071 291.968 133.415 291.241C137.726 288.767 140.062 288.561 140.424 290.624C140.264 292.043 140.008 293.847 139.656 296.035L139.143 298.702L138.63 301.369C137.991 305.653 138.123 309.434 139.026 312.711C137.995 312.892 136.846 313.339 135.581 314.052L133.9 314.961L132.576 315.807C130.414 317.005 128.904 317.025 128.046 315.866C127.642 313.565 127.588 311.161 127.884 308.655L128.335 305.631C128.508 304.292 128.645 303.204 128.743 302.369C128.716 302.21 127.807 302.861 126.018 304.32C126.633 306.421 125.903 307.858 123.83 308.631L122.346 309.26L120.84 309.769C119.547 310.324 118.566 311.028 117.898 311.881C117.305 312.231 116.521 311.959 115.546 311.067C112.179 313.785 107.916 317.929 102.759 323.497C100.906 323.659 99.6232 322.412 98.9113 319.755C102.504 315.525 107.211 310.649 113.031 305.128C111.858 301.244 111.257 296.891 111.229 292.07C111.16 290.282 111.194 288.149 111.332 285.671L111.575 279.37C111.746 276.15 112.088 272.04 112.601 267.042L113.264 261.036L113.906 254.91C114.736 245.194 114.545 236.883 113.332 229.979C109.962 230.817 106.852 231.976 104.004 233.458L102.884 232.673C102.497 232.332 102.15 231.984 101.842 231.629C101.026 230.709 100.507 229.614 100.284 228.344C105.863 225.646 111.391 221.485 116.866 215.861C120.558 215.458 123.52 214.856 125.752 214.055C127.418 213.763 128.003 214.764 127.506 217.06ZM153.883 232.307C154.915 232.126 155.776 232.138 156.466 232.344C157.423 232.667 158.071 233.33 158.411 234.334C159.854 238.825 161.586 244.493 163.605 251.337L166.084 259.859L168.702 268.48C172.821 282.154 176.758 293.16 180.512 301.5C180.526 301.579 180.132 301.894 179.329 302.444C178.381 303.101 177.346 303.733 176.225 304.338C173.102 306.114 170.711 306.943 169.054 306.825C165.272 298.327 161.349 286.704 157.287 271.957L154.746 263.077L152.345 254.296C150.433 247.597 148.647 241.857 146.99 237.076C142.484 239.83 139.063 241.781 136.729 242.927C142.746 246.451 147.128 249.976 149.875 253.503C149.893 254.072 148.599 255.322 145.993 257.252C143.401 259.261 141.654 260.263 140.753 260.258C136.524 255.274 131.032 251.249 124.276 248.181L123.758 248.027L122.96 247.676C122.335 247.377 121.829 247.057 121.442 246.716C120.136 245.8 119.801 244.591 120.437 243.088C121.203 242.79 122.001 242.445 122.832 242.054L124.968 240.943C126.682 239.987 128.048 239.379 129.066 239.119C130.34 239.386 131.703 239.228 133.155 238.646C134.238 238.293 135.47 237.626 136.853 236.647L162.232 219.061C167.341 215.546 172.851 213.147 178.761 211.864L179.118 211.801L179.496 211.857C179.907 211.867 180.285 211.923 180.63 212.026C181.587 212.349 182.116 213.034 182.218 214.079C182.487 216.077 182.599 218.348 182.555 220.891L182.426 224.35L182.297 227.808C181.923 233.6 182.155 238.181 182.992 241.552C182.89 241.897 181.36 242.738 178.405 244.075C175.29 245.44 172.907 246.309 171.254 246.681C170.403 243.231 170.146 238.736 170.482 233.196L170.771 229.955L170.942 226.734C171.08 224.256 171.081 222.17 170.948 220.476C168.879 221.739 165.955 223.724 162.177 226.433L159.886 228.062L157.694 229.552C156.101 230.731 154.831 231.65 153.883 232.307ZM245.428 258.197C244.587 269.715 239.838 278.075 231.18 283.277C227.636 285.453 224.935 287.073 223.076 288.136C219.938 289.832 217.102 291.148 214.566 292.084C208.189 294.431 202.151 294.755 196.454 293.056C193.864 292.283 191.665 290.706 189.856 288.325C188.154 286.087 187.106 283.613 186.712 280.901L186.565 280.068L186.538 279.213C186.427 278.579 186.388 277.89 186.421 277.148C186.366 275.44 186.543 273.65 186.951 271.779C188.098 266.669 190.815 260.711 195.101 253.905C193.561 253.521 191.825 253.417 189.892 253.592C188.284 251.421 187.731 248.737 188.233 245.54C189.176 239.73 191.06 233.223 193.885 226.019C194.896 223.387 196.2 220.336 197.8 216.865L199.827 212.337L201.756 207.949C203.082 206.652 205.587 205.313 209.271 203.929C210.499 203.468 211.853 203.026 213.333 202.603C213.874 202.426 214.416 202.249 214.958 202.072L215.651 201.828L216.127 201.744C218.447 201.909 220.021 203.187 220.849 205.577C222.375 211.936 221.786 221.16 219.083 233.251L218.747 233.433L218.431 233.734L217.563 234.377C216.759 234.927 215.949 235.437 215.132 235.908C212.68 237.32 210.14 238.462 207.512 239.332C206.454 237.964 205.922 237.035 205.918 236.544C208.732 231.142 210.11 225.01 210.05 218.149C210.139 217.725 210.077 217.367 209.862 217.078C209.634 216.709 209.382 216.671 209.106 216.965C206.084 219.786 203.762 224.734 202.142 231.809C201.542 234.45 201.108 237.103 200.84 239.768C200.609 242.18 200.565 244.029 200.709 245.312C201.904 245.593 203.553 245.672 205.658 245.548L208.221 245.466L209.432 245.376L210.524 245.307C211.108 245.368 211.607 245.648 212.022 246.148C212.371 246.741 212.429 247.304 212.195 247.835C207.249 251.812 203.663 256.778 201.436 262.732C198.99 269.296 199.12 275.163 201.828 280.332C203.371 282.597 205.577 284.214 208.446 285.183C211.316 286.151 213.972 286.135 216.414 285.133C221.153 283.238 224.901 280.126 227.658 275.797C230.205 271.668 231.661 266.913 232.025 261.532C228.946 259.373 226.378 258.025 224.32 257.486C223.863 256.748 223.745 256.074 223.965 255.462L224.414 254.525L224.863 253.587C225.577 253.462 226.429 253.189 227.419 252.77L230.171 251.673C232.599 250.592 234.289 249.968 235.241 249.801C236.459 249.751 237.729 250.223 239.049 251.219L239.769 251.828L240.49 252.438C241.063 252.91 241.616 253.263 242.148 253.497L243.387 254.261C243.853 254.588 244.24 254.929 244.548 255.284C245.35 256.125 245.643 257.096 245.428 258.197ZM266.307 274.654L264.29 275.745C262.656 276.686 261.266 277.625 260.122 278.563C258.894 279.024 258.092 278.878 257.714 278.127C257.057 277.178 255.758 275.607 253.819 273.412C252.195 272.551 255.31 269.796 263.165 265.144C263.865 264.939 264.63 265.337 265.46 266.336C266.076 267.046 266.747 268.074 267.474 269.418C267.931 270.156 268.261 270.875 268.466 271.576C268.699 272.435 268.684 273.051 268.423 273.424L266.307 274.654ZM351.794 233.138C350.515 233.772 348.026 234.741 344.329 236.044L342.032 236.939L339.833 237.693C338.142 238.317 336.875 238.785 336.03 239.097C336.629 242.509 338.035 246.557 340.248 251.24L343.261 257.215L344.777 260.261L346.252 263.07L346.476 263.644L346.699 264.219C346.955 264.746 347.065 265.136 347.027 265.388C347.022 266.289 346.232 266.918 344.659 267.276C343.632 267.948 342.194 268.609 340.345 269.261L338.167 270.134C337.256 270.54 336.425 270.931 335.674 271.308C331.698 264.971 328.206 257.2 325.199 247.993L324.954 247.3L324.85 246.705L324.563 245.773C320.999 250.162 316.557 256.546 311.238 264.924L304.691 275.154C302.181 279.03 299.938 282.328 297.961 285.048L296.21 286.95L294.458 288.853C293.052 290.163 291.476 290.972 289.73 291.279L287.635 292.628L285.52 293.858C283.727 294.828 282.061 295.12 280.521 294.736C278.855 293.638 277.783 292.19 277.304 290.393C277.002 289.137 276.994 287.462 277.28 285.366C277.867 281.255 279.064 276.423 280.87 270.87L283.312 263.815L285.754 256.76C278.5 258.77 272.648 259.92 268.2 260.211C267.234 260.299 266.07 259.03 264.71 256.406L275.048 250.296L275.846 250.647C277.774 249.981 280.223 249.019 283.193 247.762L286.716 246.161L290.378 244.659C292.076 240.353 294.16 235.447 296.629 229.941L300.002 222.6L303.495 215.238C309.27 202.935 313.411 193.209 315.919 186.061C316.111 185.291 316.305 184.071 316.503 182.4L327.03 177.361C328.308 178.118 329.147 179.403 329.547 181.214C329.658 181.849 329.751 182.61 329.825 183.496L329.894 184.589L329.963 185.681L330.252 191.52L330.562 197.478C330.88 202.085 331.166 206.043 331.42 209.353C332.187 218.38 333.334 226.073 334.859 232.431L334.964 233.026C335.006 233.264 334.994 233.43 334.928 233.523L338.514 232.28L342.239 231.135C345.265 230.195 347.576 229.38 349.173 228.69C349.877 228.976 350.425 229.534 350.816 230.365L351.165 231.654C351.436 232.261 351.645 232.755 351.794 233.138ZM318.779 206.542C314.791 214.113 309.622 225.206 303.271 239.818C305.9 238.948 308.977 237.835 312.502 236.48L317.075 234.572L321.669 232.784C321.093 229.04 320.565 224.634 320.084 219.565L319.431 213.053L318.779 206.542ZM319.949 238.362C318.642 238.837 316.998 239.494 315.019 240.332L312.385 241.408L309.752 242.484C305.555 244.203 302.55 245.262 300.739 245.662L300.157 247.237L317.608 241.105L319.949 238.362ZM311.735 248.885C309.741 249.644 307.423 250.419 304.781 251.21L297.806 253.417C292.966 264.983 290.229 275.485 289.595 284.921C289.833 284.88 291.138 282.524 293.508 277.854C294.966 274.98 296.472 272.139 298.024 269.33C300.23 265.589 302.674 261.806 305.356 257.981L311.735 248.885ZM409.587 207.406C408.838 209.665 407.444 211.505 405.403 212.927C404.6 213.477 403.67 214.008 402.615 214.52L401.27 215.247L399.905 215.855C391.851 218.906 385.228 221.255 380.037 222.903C388.445 225.598 395.327 228.684 400.682 232.161C407.875 236.788 412.685 242.283 415.111 248.647L415.356 249.34L415.642 250.272C415.874 251.131 416.1 251.95 416.319 252.73C416.802 255.017 416.91 256.798 416.643 258.072C415.449 257.791 413.937 257.565 412.107 257.396L409.86 257.177L407.613 256.958C404.033 256.605 401.217 255.709 399.165 254.269C398.485 252.262 397.721 250.474 396.873 248.905L395.804 247.006L394.853 245.087C392.261 241.043 388.26 237.124 382.849 233.33C377.532 229.6 373.449 227.781 370.602 227.872C371.873 236.975 373.178 244.64 374.517 250.867C376.354 259.461 378.478 266.9 380.89 273.185C380.936 273.913 376.084 274.233 366.334 274.146C361.402 261.432 357.568 245.418 354.83 226.102C354.536 225.826 354.124 225.571 353.592 225.338L352.955 225.204L352.416 224.931C351.445 224.528 350.916 223.844 350.828 222.878C350.941 222.122 351.32 221.483 351.964 220.961C352.478 220.625 353.124 220.348 353.904 220.129C353.04 215.209 352.337 210.506 351.795 206.02L351.412 203.143L351.149 200.244C350.847 197.597 350.604 195.513 350.419 193.991L348.767 193.668L346.996 193.365C345.722 193.098 344.639 192.757 343.748 192.34C343.412 191.827 343.254 191.159 343.274 190.338C343.279 189.437 343.485 188.746 343.892 188.266L350.551 186.36C350.761 186.16 350.951 185.84 351.119 185.402L351.253 184.765C351.449 184.485 351.652 184.245 351.862 184.044C354.676 184.695 358.527 184.96 363.413 184.838L366.235 184.833L369.056 184.829C371.124 184.957 372.96 185.166 374.565 185.456C387.17 187.824 397.019 191.739 404.114 197.201C405.714 198.393 407.085 199.911 408.227 201.755C409.504 203.903 409.957 205.787 409.587 207.406ZM394.769 203.382C394.779 202.971 394.688 202.456 394.498 201.835C394.321 201.293 394.125 200.878 393.911 200.588C390.992 197.01 386.791 194.517 381.308 193.107C376.329 191.773 371.3 191.552 366.221 192.443L368.681 214.835L372.189 213.851L375.796 212.727C378.597 211.907 380.961 211.165 382.89 210.499C388.184 208.506 392.144 206.134 394.769 203.382ZM426.943 184.358C427.975 184.176 428.836 184.189 429.527 184.395C430.483 184.718 431.131 185.381 431.471 186.385C432.914 190.876 434.646 196.543 436.666 203.388L439.144 211.91L441.762 220.53C445.881 234.205 449.818 245.211 453.573 253.55C453.587 253.63 453.192 253.944 452.389 254.494C451.441 255.152 450.406 255.783 449.286 256.389C446.162 258.165 443.771 258.993 442.115 258.875C438.332 250.378 434.409 238.755 430.347 224.007L427.806 215.128L425.405 206.346C423.493 199.647 421.708 193.907 420.05 189.126C415.544 191.881 412.123 193.831 409.789 194.978C415.807 198.502 420.189 202.027 422.935 205.553C422.953 206.123 421.659 207.372 419.053 209.303C416.461 211.312 414.714 212.314 413.814 212.309C409.585 207.325 404.092 203.299 397.336 200.232L396.819 200.077L396.021 199.727C395.396 199.427 394.889 199.107 394.502 198.766C393.196 197.85 392.861 196.641 393.497 195.139C394.263 194.841 395.061 194.496 395.892 194.105L398.029 192.993C399.742 192.038 401.108 191.43 402.126 191.17C403.4 191.437 404.763 191.279 406.215 190.697C407.298 190.343 408.531 189.677 409.913 188.698L435.293 171.112C440.402 167.597 445.911 165.198 451.821 163.915L452.178 163.852L452.556 163.908C452.967 163.918 453.345 163.974 453.69 164.077C454.647 164.4 455.176 165.084 455.278 166.13C455.547 168.128 455.659 170.398 455.615 172.942L455.486 176.4L455.357 179.859C454.984 185.651 455.215 190.232 456.053 193.602C455.95 193.948 454.42 194.789 451.465 196.126C448.351 197.491 445.967 198.359 444.315 198.731C443.463 195.281 443.206 190.787 443.542 185.247L443.832 182.005L444.002 178.785C444.14 176.307 444.142 174.221 444.008 172.526C441.939 173.789 439.016 175.775 435.237 178.484L432.947 180.113L430.754 181.602C429.162 182.782 427.891 183.7 426.943 184.358Z" fill="url(#paint0_linear_2026_160)"/>
<defs>
<linearGradient id="paint0_linear_2026_160" x1="367.77" y1="77.8213" x2="200.596" y2="405.536" gradientUnits="userSpaceOnUse">
<stop stop-color="#121212"/>
<stop offset="1" stop-color="#B00F74"/>
</linearGradient>
</defs>
</svg>
