<svg width="514" height="457" viewBox="0 0 514 457" fill="none" xmlns="http://www.w3.org/2000/svg">
<path d="M138.802 100.137C133.531 113.651 126.302 122.087 117.117 125.444C109.696 127.028 102.558 126.265 95.703 123.154C91.482 121.281 89.124 118.111 88.6292 113.642C87.4005 104.473 90.5603 91.882 98.1088 75.8672C100.665 70.4592 103.857 64.6735 107.685 58.5101C108.961 56.4556 110.177 54.5059 111.333 52.6609C111.804 52.0029 112.201 51.3946 112.523 50.8361C112.834 50.4573 113.03 50.1981 113.11 50.0585C120.37 39.5493 126.196 32.2583 130.587 28.1855L131.279 27.4683L131.971 26.751L133.234 25.526C134.186 24.6797 135.267 24.0937 136.478 23.7679C136.727 23.8187 137.137 23.915 137.706 24.0568L138.455 24.2092L139.204 24.3616C140.452 24.6156 141.393 24.2739 142.026 23.3366L143.717 24.0318L145.304 24.6667C146.502 25.1704 147.42 25.5132 148.059 25.6952C149.936 26.3111 151.095 27.769 151.537 30.069C151.635 30.8688 151.686 31.8284 151.693 32.9477L151.658 34.4616L151.518 35.9152C151.143 40.4411 150.08 45.9191 148.33 52.3492L147.117 56.3926L146.01 60.4963L143.568 68.8529C142.347 69.3585 140.228 69.4864 137.211 69.2365C134.194 68.9866 132.341 68.5707 131.654 67.9888C130.966 67.4069 130.799 66.5669 131.152 65.4687C131.669 63.4417 132.447 60.9609 133.486 58.0262L135.924 50.644C137.862 44.6942 139.003 39.7262 139.346 35.7399C130.321 44.954 121.771 57.1378 113.696 72.2913C105.511 87.4745 101.217 100.017 100.814 109.92C100.767 111.938 101.001 113.793 101.515 115.483C102.147 117.614 103.212 119.157 104.707 120.111C105.696 120.494 106.61 120.602 107.45 120.435C107.78 120.346 108.11 120.257 108.44 120.168L109.056 119.826C113.44 117.702 117.259 114.137 120.514 109.131C122.975 105.341 125.245 100.512 127.323 94.6425L127.536 93.7887L127.583 92.9794C127.685 92.4801 127.607 91.9701 127.348 91.4496C127.454 89.6511 128.352 88.8196 130.04 88.9551C136.665 89.237 140.243 90.693 140.774 93.3231C140.225 95.8896 139.568 98.161 138.802 100.137ZM205.426 99.871C203.154 112.695 195.58 123.024 182.702 130.856C176.373 134.742 170.315 136.786 164.528 136.986C157.982 137.214 150.808 135.222 143.007 131.009C140.662 129.752 138.78 127.692 137.361 124.829C136.001 122.186 135.653 118.592 136.317 114.047C136.593 112.439 136.978 110.801 137.473 109.134C137.917 107.716 138.361 106.624 138.803 105.856C141.85 100.079 146.152 94.1425 151.709 88.0448C153.865 85.7534 157.504 82.5026 162.625 78.2923C168.537 73.515 172.674 70.6906 175.035 69.819C176.036 69.3726 177.17 69.4213 178.437 69.9652L179.294 69.2035L180.256 68.5022C180.937 67.9648 181.683 67.5575 182.494 67.2804C184.375 66.5971 186.397 66.8786 188.562 68.125L189.908 69.1788L191.104 70.0073C192.041 70.64 192.87 70.9776 193.589 71.0199C198.489 73.005 202.018 77.1291 204.176 83.3923C205.987 88.8049 206.404 94.2978 205.426 99.871ZM172.111 124.06C179.731 119.708 185.577 113.916 189.648 106.684C193.891 98.9932 195.311 91.1179 193.909 83.0583C193.37 79.9585 192.298 77.6214 190.694 76.0471C189.543 76.5929 188.336 77.4784 187.073 78.7034C185.89 79.7887 185.097 80.6805 184.695 81.3788C180.645 88.2509 178.14 97.6866 177.181 109.686C176.861 109.595 176.472 109.464 176.013 109.292C175.514 109.191 175 109.034 174.471 108.822C173.053 108.378 171.78 107.924 170.652 107.461C167.439 106.261 165.568 105.23 165.041 104.369C164.747 102.619 164.819 100.476 165.258 97.9386C165.391 96.8997 165.62 95.7762 165.943 94.568C166.136 93.7492 166.394 92.7357 166.718 91.5275C158.106 99.8636 152.475 107.22 149.825 113.597C149.11 115.324 148.529 117.221 148.082 119.288C147.329 123.503 147.888 126.568 149.761 128.483C151.663 130.508 155.966 130.382 162.669 128.106C166.021 126.968 169.168 125.619 172.111 124.06ZM272.456 122.292C272.03 124 271.049 125.945 269.513 128.129C267.596 130.651 265.009 133.206 261.753 135.793C253.346 142.481 241.608 148.413 226.541 153.59C212.474 158.32 204.302 161.936 202.025 164.436C201.177 164.134 199.651 163.069 197.449 161.243C196.213 160.16 195.127 159.302 194.189 158.669C192.704 157.535 191.193 156.525 189.657 155.641C193.849 148.199 201.265 137.501 211.905 123.545C213.672 121.123 215.589 118.601 217.656 115.979C219.102 114.115 220.763 111.957 222.64 109.505C226.002 105.119 227.859 102.701 228.21 102.253C219.186 99.1948 212.555 96.2596 208.317 93.4473C205.954 91.9005 204.447 89.9167 203.795 87.4961C211.906 82.776 219.755 78.5099 227.343 74.6975C227.522 74.7081 227.772 74.7589 228.092 74.8499C228.591 74.9515 229.09 75.0531 229.59 75.1547C230.938 75.5589 232.265 75.9981 233.573 76.4721C237.345 77.9937 239.913 79.7511 241.275 81.7444L238.752 83.2201L236.333 84.756L231.842 87.4694C228.438 89.5068 225.284 91.2702 222.381 92.7595L224.866 93.7722L227.246 94.7245C228.973 95.4398 230.425 95.9043 231.604 96.1181C232.255 95.4707 232.989 94.3588 233.803 92.7825L234.829 91.0021L236.063 89.3422C237.282 89.4862 239.193 90.4469 241.795 92.2245L243.35 93.3989L245.07 94.5289C246.317 95.4325 247.234 96.1001 247.822 96.5318C246.267 98.4254 245.272 99.9911 244.838 101.229C256.247 105.474 264.974 110.825 271.018 117.281C272.432 119.024 272.911 120.695 272.456 122.292ZM258.948 118.14C259.492 116.873 259.431 115.768 258.764 114.827C257.131 113.142 254.663 111.535 251.36 110.005C250.133 109.391 248.621 108.707 246.825 107.951L241.899 106.091C241.427 106.749 239.821 108.892 237.081 112.521C235.705 114.425 234.47 116.085 233.376 117.5C231.851 119.504 230.44 121.388 229.145 123.153C221.536 133.461 215.968 141.272 212.443 146.587C227.462 141.011 238.312 136.055 244.992 131.72C251.492 127.374 256.144 122.848 258.948 118.14ZM302.585 190.128C294.552 198.426 285.547 201.793 275.568 200.231C271.453 199.628 268.342 199.138 266.234 198.761C262.739 198.05 259.718 197.24 257.173 196.333C250.775 194.043 245.935 190.419 242.653 185.461C241.162 183.208 240.486 180.587 240.626 177.599C240.755 174.792 241.538 172.221 242.975 169.887L243.397 169.154L243.924 168.481C244.246 167.923 244.657 167.369 245.159 166.821C246.213 165.476 247.496 164.216 249.009 163.041C253.167 159.857 259.073 157.029 266.726 154.556C265.791 153.274 264.526 152.08 262.93 150.975C263.089 148.278 264.386 145.864 266.822 143.733C271.272 139.88 276.891 136.096 283.679 132.381C286.142 131.01 289.1 129.506 292.553 127.869L297.013 125.695L301.307 123.565C303.156 123.422 305.938 124.001 309.651 125.302C310.889 125.736 312.211 126.265 313.618 126.889C314.147 127.101 314.676 127.313 315.205 127.524L315.894 127.781L316.313 128.023C317.986 129.637 318.374 131.627 317.477 133.993C314.57 139.849 308.201 146.549 298.372 154.091L297.998 154.015L297.563 154.044L296.484 153.98C295.515 153.887 294.566 153.759 293.637 153.596C290.85 153.107 288.17 152.354 285.595 151.336C285.66 149.607 285.849 148.553 286.16 148.174C291.784 145.835 296.774 142.014 301.129 136.712C301.469 136.443 301.65 136.129 301.671 135.769C301.733 135.339 301.563 135.149 301.164 135.198C297.035 135.424 292.081 137.731 286.3 142.119C284.146 143.761 282.111 145.518 280.196 147.39C278.472 149.093 277.253 150.483 276.54 151.56C277.276 152.542 278.491 153.661 280.186 154.915L282.205 156.496L283.192 157.204L284.074 157.851C284.482 158.273 284.685 158.808 284.683 159.457C284.571 160.137 284.255 160.605 283.734 160.863C277.389 160.742 271.452 162.252 265.925 165.391C259.838 168.859 256.175 173.444 254.937 179.146C254.668 181.873 255.324 184.529 256.904 187.112C258.484 189.696 260.532 191.387 263.048 192.185C267.9 193.77 272.772 193.786 277.664 192.233C282.266 190.7 286.432 187.985 290.163 184.09C289.186 180.459 288.08 177.777 286.847 176.044C286.97 175.185 287.311 174.592 287.872 174.264L288.818 173.832L289.764 173.4C290.392 173.762 291.22 174.1 292.249 174.413L295.064 175.337C297.62 176.065 299.317 176.67 300.155 177.153C301.122 177.895 301.792 179.072 302.167 180.682L302.328 181.612L302.49 182.542C302.628 183.272 302.825 183.897 303.084 184.418L303.544 185.798C303.692 186.349 303.77 186.859 303.778 187.328C303.855 188.488 303.457 189.421 302.585 190.128ZM360.395 211.703C360.723 212.263 360.26 213.391 359.005 215.086L358.116 216.387L357.123 217.628C356.3 218.735 355.612 219.687 355.06 220.484C353.991 220.241 352.53 219.307 350.677 217.682C346.758 214.96 342.519 212.473 337.96 210.219L335.281 208.816L332.542 207.518C330.507 206.532 328.791 205.636 327.394 204.832C315.211 199.025 306.997 194.481 302.75 191.199C301.802 190.746 301.956 189.672 303.211 187.978C303.763 187.18 305.634 185.142 308.822 181.865C311.493 184.332 314.518 186.586 317.899 188.626C319.226 189.39 320.747 190.219 322.463 191.115L326.982 193.438L331.188 195.581L335.453 197.619L344.029 201.859C350.683 205.319 356.138 208.6 360.395 211.703ZM81.3627 213.932C78.5798 221.348 73.0549 226.906 64.7878 230.606C61.6752 231.975 57.8633 233.267 53.3522 234.481L47.3662 235.915L41.7103 237.26C36.9495 238.424 33.3397 239.041 30.881 239.113C26.9031 239.24 23.5632 238.339 20.8614 236.411C17.7109 234.132 15.0091 232.205 12.7557 230.628C11.8184 229.995 11.0536 228.579 10.4613 226.378C9.81823 224.427 9.55386 222.788 9.6682 221.459C10.519 218.044 12.2744 214.592 14.9343 211.103C17.0419 208.412 19.7642 205.702 23.1012 202.975C31.034 197.595 38.0104 194.36 44.0302 193.271C48.0102 192.495 51.7638 192.192 55.291 192.364C56.3701 192.427 57.499 192.566 58.6775 192.78L59.3218 192.872L59.9058 193.069C60.2655 193.09 60.5352 193.106 60.7151 193.117C61.4027 193.698 62.194 194.665 63.0889 196.018L64.2378 197.655L65.3866 199.293C66.2962 202.234 65.3417 205.264 62.5232 208.383C61.2705 209.428 59.4624 210.711 57.0988 212.232L54.4549 213.917C53.4434 214.544 52.5568 215.195 51.7951 215.872L51.6488 219.275C51.1389 219.353 48.9797 218.017 45.1713 215.266C44.7227 214.914 44.2192 214.578 43.6606 214.256L42.2991 213.472C41.2813 212.979 40.6381 212.562 40.3694 212.222C39.6226 211.42 40.5166 210.029 43.0516 208.048C43.4325 207.71 44.1985 207.268 45.3496 206.722L46.9112 205.947L48.4727 205.173C51.196 203.673 52.5355 202.074 52.4912 200.375C43.9703 202.255 36.6564 206.318 30.5495 212.564C27.5511 215.672 25.2224 218.747 23.5633 221.79C21.6122 225.501 21.2883 228.243 22.5915 230.016C30.0458 230.311 37.6494 229.297 45.4022 226.974C52.0145 225.017 56.7278 223.129 59.5421 221.31C63.2873 219.004 66.9174 215.283 70.4323 210.148C73.0161 205.5 72.1711 201.155 67.8972 197.113C67.1102 196.381 66.0586 195.543 64.7426 194.599L61.4832 192.025C58.6523 189.837 56.545 187.926 55.1613 186.292C51.7467 179.305 52.7564 173.193 58.1904 167.954C59.915 166.251 62.0638 164.699 64.6368 163.298L66.0333 162.569C66.3338 162.37 66.7041 162.211 67.1442 162.093C68.035 161.676 68.5005 161.433 68.5407 161.363C71.3232 160.083 75.8154 158.579 82.0172 156.85C86.1179 155.865 89.936 155.692 93.4716 156.334C96.5079 156.874 98.5635 157.825 99.6382 159.187L100.895 159.911C101.553 160.383 102.136 160.905 102.644 161.476C104.137 163.08 104.911 164.966 104.963 167.135C104.419 171.471 102.277 175.676 98.5355 179.751C97.0712 181.325 95.2969 182.953 93.2127 184.635C91.9198 185.75 90.0863 187.158 87.7121 188.859C83.4212 186.946 80.842 185.693 79.9745 185.101C78.9378 184.318 79.0204 183.528 80.2222 182.733L82.7011 181.092L85.4054 179.302C87.4685 177.98 89.1665 176.727 90.4996 175.542C94.1879 172.366 96.4331 168.871 97.2352 165.056L97.1623 164.456L97.1496 163.751C97.0418 163.131 96.7879 162.846 96.388 162.894C83.4111 164.44 73.2121 169.073 65.7912 176.794C63.7555 178.876 63.1121 181.527 63.8609 184.747C64.5019 187.348 66.0527 189.821 68.5133 192.168C69.3998 193.05 70.5508 194.039 71.9662 195.133L73.6705 196.532L75.4351 197.827C81.0461 202.453 83.022 207.821 81.3627 213.932ZM146.018 190.079C145.798 190.138 145.358 190.257 144.698 190.435L143.873 190.657L142.987 190.984C141.487 191.328 140.353 191.28 139.585 190.837C139.479 192.636 138.873 194.658 137.766 196.902C133.246 203.783 126.599 211.531 117.826 220.146L112.427 225.405L107.028 230.664C102.927 234.718 99.5024 238.324 96.7536 241.483C94.7772 243.785 93.0346 246.407 91.5258 249.35C92.0251 249.452 92.7593 249.549 93.7284 249.642L95.182 249.782L96.6356 249.922C99.363 250.191 101.476 250.478 102.974 250.783C107.868 251.648 109.792 252.989 108.747 254.804C107.714 255.79 106.361 257.01 104.687 258.463L102.583 260.18L100.478 261.897C97.2409 264.775 94.9174 267.76 93.508 270.853C92.6003 270.331 91.4324 269.937 90.0042 269.672L88.1316 269.291L86.5733 269.091C84.1464 268.624 82.9753 267.67 83.06 266.231C84.226 264.207 85.7263 262.328 87.5609 260.595L89.8462 258.564C90.8386 257.648 91.6406 256.901 92.2521 256.323C92.3326 256.184 91.2185 256.1 88.9101 256.072C88.034 258.078 86.5528 258.713 84.4666 257.976L82.9241 257.507L81.442 256.932C80.0942 256.528 78.8902 256.439 77.8302 256.665C77.151 256.553 76.7236 255.842 76.5481 254.532C72.2211 254.458 66.2933 254.903 58.7649 255.867C57.2394 254.803 57.0554 253.023 58.213 250.529C63.6827 249.588 70.4208 248.865 78.4274 248.362C80.0188 244.63 82.3497 240.905 85.4201 237.188C86.5141 235.772 87.9086 234.158 89.6036 232.345L93.8315 227.667C96.0279 225.306 98.9258 222.372 102.525 218.866L106.886 214.683L111.308 210.396C118.176 203.473 123.36 196.974 126.858 190.9C123.735 189.381 120.605 188.276 117.47 187.586L117.114 186.265C117.036 185.756 116.993 185.266 116.984 184.796C116.948 183.567 117.252 182.393 117.895 181.276C123.907 182.785 130.816 183.138 138.624 182.335C141.715 184.393 144.374 185.831 146.599 186.648C148.066 187.493 147.872 188.636 146.018 190.079ZM156.476 218.694C157.384 219.217 158.037 219.779 158.434 220.38C158.961 221.241 159.033 222.166 158.65 223.154C156.877 227.525 154.57 232.984 151.73 239.53L148.165 247.658L144.645 255.951C139.035 269.084 134.996 280.054 132.528 288.86C132.488 288.93 131.983 288.918 131.014 288.825C129.865 288.721 128.667 288.542 127.418 288.288C123.883 287.647 121.517 286.75 120.322 285.597C122.87 276.651 127.315 265.218 133.657 251.298L137.403 242.855L141.193 234.578C144.023 228.212 146.335 222.663 148.129 217.932C142.905 217.155 139.03 216.458 136.503 215.84C138.86 222.403 139.961 227.918 139.806 232.385C139.455 232.834 137.661 232.963 134.423 232.772C131.146 232.651 129.163 232.3 128.476 231.718C128.428 225.182 126.796 218.571 123.58 211.884L123.282 211.433L122.894 210.653C122.607 210.022 122.424 209.452 122.345 208.942C121.931 207.402 122.449 206.259 123.901 205.514C124.679 205.777 125.513 206.024 126.402 206.257L128.754 206.775C130.681 207.141 132.119 207.55 133.067 208.003C133.873 209.025 135.02 209.779 136.507 210.263C137.565 210.686 138.938 210.966 140.627 211.101L171.378 213.887C177.552 214.467 183.318 216.16 188.675 218.966L188.989 219.147L189.243 219.433C189.552 219.704 189.806 219.989 190.005 220.29C190.532 221.151 190.499 222.015 189.906 222.883C188.831 224.588 187.461 226.402 185.796 228.326L183.479 230.896L181.162 233.467C177.16 237.671 174.4 241.335 172.88 244.457C172.58 244.656 170.867 244.321 167.742 243.451C164.477 242.501 162.091 241.638 160.585 240.864C162.145 237.671 164.83 234.057 168.641 230.023L170.942 227.722L173.139 225.36C174.834 223.547 176.173 221.948 177.157 220.562C174.76 220.204 171.243 219.853 166.607 219.507L163.805 219.288L161.167 219.025C159.189 218.908 157.625 218.798 156.476 218.694ZM210.106 297.273C202.073 305.571 193.068 308.939 183.089 307.377C178.974 306.773 175.863 306.283 173.755 305.906C170.26 305.195 167.239 304.386 164.694 303.478C158.296 301.188 153.456 297.564 150.174 292.606C148.683 290.353 148.007 287.732 148.147 284.745C148.276 281.937 149.059 279.366 150.496 277.032L150.918 276.299L151.445 275.626C151.767 275.068 152.178 274.515 152.68 273.967C153.734 272.621 155.017 271.361 156.53 270.187C160.688 267.003 166.594 264.174 174.247 261.701C173.312 260.419 172.047 259.225 170.451 258.121C170.61 255.423 171.907 253.009 174.343 250.878C178.793 247.026 184.412 243.242 191.2 239.527C193.663 238.156 196.621 236.651 200.074 235.014L204.534 232.84L208.828 230.711C210.677 230.567 213.459 231.146 217.172 232.447C218.41 232.881 219.732 233.41 221.139 234.035C221.668 234.246 222.197 234.458 222.726 234.669L223.415 234.927L223.834 235.168C225.507 236.782 225.895 238.772 224.998 241.138C222.091 246.995 215.722 253.694 205.893 261.237L205.519 261.16L205.084 261.189L204.005 261.125C203.036 261.032 202.087 260.904 201.158 260.741C198.372 260.252 195.691 259.499 193.116 258.481C193.181 256.752 193.37 255.698 193.681 255.32C199.305 252.98 204.295 249.159 208.65 243.857C208.99 243.588 209.171 243.274 209.192 242.914C209.254 242.485 209.084 242.294 208.685 242.343C204.556 242.569 199.602 244.876 193.821 249.264C191.667 250.906 189.632 252.663 187.717 254.535C185.993 256.239 184.774 257.629 184.061 258.706C184.797 259.687 186.013 260.806 187.707 262.061L189.726 263.641L190.713 264.349L191.595 264.997C192.003 265.418 192.206 265.953 192.204 266.603C192.092 267.282 191.776 267.751 191.255 268.009C184.91 267.888 178.973 269.397 173.446 272.537C167.359 276.004 163.696 280.589 162.458 286.291C162.189 289.019 162.845 291.674 164.425 294.258C166.005 296.841 168.053 298.532 170.569 299.33C175.421 300.915 180.293 300.931 185.185 299.379C189.787 297.845 193.953 295.13 197.684 291.235C196.707 287.604 195.601 284.922 194.368 283.189C194.491 282.33 194.832 281.737 195.393 281.409L196.339 280.977L197.285 280.546C197.913 280.908 198.741 281.245 199.77 281.558L202.585 282.482C205.141 283.21 206.838 283.815 207.676 284.298C208.643 285.041 209.313 286.217 209.688 287.827L209.849 288.757L210.011 289.687C210.149 290.417 210.346 291.043 210.605 291.563L211.065 292.944C211.213 293.494 211.291 294.004 211.299 294.474C211.376 295.633 210.978 296.566 210.106 297.273ZM215.57 323.291L213.323 322.834C211.465 322.508 209.797 322.337 208.318 322.322C207.08 321.889 206.557 321.262 206.75 320.443C206.854 319.295 206.865 317.256 206.785 314.327C206.091 312.626 210.249 312.51 219.259 313.979C219.927 314.271 220.259 315.067 220.255 316.366C220.272 317.305 220.128 318.524 219.823 320.022C219.7 320.881 219.493 321.645 219.201 322.314C218.828 323.122 218.422 323.585 217.982 323.704L215.57 323.291ZM307.785 346.269C306.397 345.934 303.866 345.082 300.193 343.71L297.857 342.923L295.686 342.091C293.989 341.486 292.717 341.032 291.868 340.729C290.139 343.732 288.622 347.739 287.316 352.752L285.796 359.267L285.005 362.578L284.335 365.678L284.138 366.262L283.941 366.846C283.8 367.416 283.634 367.785 283.443 367.954C282.861 368.642 281.852 368.618 280.415 367.884C279.197 367.74 277.669 367.325 275.832 366.64L273.601 365.913C272.643 365.64 271.754 365.407 270.935 365.214C271.949 357.802 274.255 349.6 277.853 340.608L278.11 339.919L278.411 339.395L278.789 338.497C273.239 339.578 265.737 341.627 256.283 344.644L244.698 348.293C240.286 349.657 236.45 350.749 233.189 351.567L230.625 351.904L228.061 352.24C226.141 352.343 224.414 351.953 222.878 351.068L220.405 350.76L217.993 350.348C215.996 349.941 214.53 349.097 213.594 347.815C213.021 345.904 213.127 344.105 213.912 342.419C214.486 341.262 215.554 339.971 217.118 338.547C220.205 335.769 224.223 332.829 229.17 329.728L235.568 325.882L241.967 322.035C235.112 318.924 229.885 316.054 226.286 313.424C225.488 312.871 225.409 311.152 226.048 308.266L237.899 310.209L238.286 310.99C240.193 311.716 242.688 312.549 245.773 313.488L249.502 314.52L253.276 315.717C257.341 313.502 262.086 311.074 267.511 308.434L274.808 304.965L282.21 301.557C294.531 295.822 303.946 291.016 310.455 287.14C311.096 286.673 312.028 285.861 313.251 284.706L324.559 287.592C325.054 288.993 324.874 290.516 324.019 292.162C323.698 292.721 323.281 293.364 322.769 294.092L322.121 294.974L321.474 295.856L317.951 300.522L314.367 305.292C311.656 309.03 309.337 312.251 307.409 314.952C302.208 322.37 298.153 329.008 295.246 334.864L294.944 335.388C294.824 335.597 294.708 335.717 294.598 335.747L298.146 337.093L301.739 338.604C304.663 339.822 306.959 340.68 308.626 341.175C308.984 341.846 309.046 342.625 308.813 343.514L308.255 344.726C308.073 345.365 307.916 345.879 307.785 346.269ZM299.513 304.688C291.598 307.939 280.517 313.134 266.273 320.272C268.848 321.29 271.922 322.41 275.496 323.631L280.228 325.101L284.899 326.675C286.859 323.434 289.28 319.714 292.162 315.516L295.838 310.102L299.513 304.688ZM280.002 329.852C278.694 329.378 277.012 328.827 274.956 328.201L272.245 327.338L269.535 326.474C265.212 325.101 262.228 323.986 260.582 323.131L259.125 323.966L276.447 330.455L280.002 329.852ZM266.951 332.657C264.935 331.96 262.659 331.068 260.124 329.981L253.358 327.2C242.226 332.969 233.39 339.271 226.852 346.105C227.061 346.225 229.573 345.254 234.387 343.192C237.349 341.922 240.326 340.708 243.318 339.549C247.41 338.093 251.712 336.758 256.223 335.544L266.951 332.657ZM368.629 363.594C366.606 364.846 364.356 365.364 361.878 365.145C360.909 365.052 359.855 364.864 358.717 364.58L357.219 364.276L355.781 363.866C347.646 361.041 341.058 358.595 336.018 356.53C340.74 363.991 344.041 370.773 345.919 376.875C348.47 385.038 348.636 392.339 346.416 398.778L346.159 399.466L345.781 400.365C345.409 401.173 345.056 401.946 344.724 402.685C343.628 404.75 342.569 406.185 341.547 406.991C340.81 406.009 339.795 404.867 338.5 403.563L336.916 401.954L335.333 400.345C332.813 397.778 331.227 395.284 330.576 392.864C331.342 390.888 331.903 389.026 332.258 387.278L332.655 385.136L333.157 383.054C333.762 378.289 333.206 372.715 331.488 366.334C329.8 360.062 327.835 356.048 325.592 354.292C320.729 362.091 316.814 368.808 313.848 374.445C309.744 382.216 306.603 389.286 304.423 395.655C303.991 396.243 300.063 393.377 292.639 387.056C297.009 374.139 304.339 359.393 314.627 342.817C314.579 342.418 314.425 341.957 314.167 341.437L313.764 340.926L313.526 340.37C313.039 339.439 313.072 338.575 313.625 337.777C314.196 337.27 314.896 337.022 315.726 337.035C316.335 337.107 317.009 337.309 317.747 337.641C320.24 333.312 322.717 329.253 325.178 325.464L326.73 323.01L328.387 320.617C329.854 318.394 331.004 316.639 331.838 315.352L330.778 314.044L329.613 312.676C328.807 311.654 328.195 310.698 327.779 309.807C327.851 309.198 328.158 308.584 328.699 307.966C329.281 307.279 329.882 306.881 330.502 306.773L336.834 309.582C337.124 309.563 337.474 309.44 337.884 309.211L338.395 308.808C338.725 308.719 339.035 308.665 339.325 308.646C341.066 310.951 343.851 313.623 347.678 316.664L349.846 318.47L352.013 320.276C353.518 321.7 354.793 323.039 355.838 324.291C363.99 334.192 369.035 343.513 370.975 352.254C371.438 354.194 371.516 356.238 371.21 358.386C370.812 360.853 369.951 362.589 368.629 363.594ZM359.841 351.003C360.112 350.694 360.374 350.24 360.625 349.641C360.837 349.112 360.953 348.668 360.975 348.308C361.03 343.691 359.406 339.084 356.104 334.486C353.14 330.269 349.423 326.873 344.955 324.3L332.48 343.057L335.803 344.552L339.291 346.002C341.965 347.171 344.256 348.118 346.162 348.844C351.503 350.71 356.062 351.43 359.841 351.003ZM396.728 357.042C397.636 357.565 398.288 358.127 398.686 358.728C399.213 359.589 399.285 360.514 398.902 361.502C397.128 365.873 394.822 371.332 391.982 377.878L388.417 386.006L384.897 394.299C379.286 407.432 375.247 418.402 372.78 427.208C372.74 427.278 372.235 427.266 371.266 427.173C370.117 427.069 368.918 426.89 367.67 426.636C364.134 425.995 361.769 425.098 360.573 423.945C363.121 414.999 367.567 403.566 373.909 389.646L377.655 381.204L381.445 372.926C384.274 366.56 386.586 361.011 388.381 356.28C383.157 355.503 379.281 354.806 376.755 354.188C379.112 360.751 380.213 366.267 380.058 370.733C379.707 371.182 377.912 371.311 374.675 371.12C371.398 370.999 369.415 370.648 368.727 370.066C368.679 363.53 367.047 356.919 363.831 350.232L363.533 349.782L363.146 349.001C362.858 348.37 362.675 347.8 362.597 347.29C362.182 345.75 362.701 344.607 364.152 343.862C364.931 344.125 365.765 344.372 366.653 344.605L369.005 345.123C370.933 345.489 372.37 345.898 373.318 346.351C374.124 347.373 375.271 348.127 376.759 348.611C377.817 349.034 379.19 349.314 380.878 349.449L411.629 352.235C417.804 352.815 423.569 354.508 428.927 357.314L429.241 357.495L429.495 357.781C429.804 358.052 430.057 358.337 430.256 358.638C430.783 359.499 430.75 360.363 430.158 361.231C429.083 362.936 427.713 364.75 426.047 366.674L423.73 369.244L421.413 371.815C417.412 376.019 414.651 379.683 413.132 382.806C412.831 383.004 411.119 382.669 407.993 381.799C404.729 380.849 402.343 379.986 400.837 379.212C402.396 376.019 405.082 372.405 408.893 368.371L411.194 366.07L413.39 363.708C415.085 361.895 416.425 360.296 417.409 358.91C415.011 358.552 411.495 358.201 406.859 357.855L404.056 357.636L401.419 357.373C399.44 357.256 397.877 357.146 396.728 357.042Z" fill="url(#paint0_linear_2026_168)"/>
<defs>
<linearGradient id="paint0_linear_2026_168" x1="25.7562" y1="163.496" x2="359.952" y2="441.658" gradientUnits="userSpaceOnUse">
<stop stop-color="#121212"/>
<stop offset="1" stop-color="#6A8FFF"/>
</linearGradient>
</defs>
</svg>
