<svg width="502" height="433" viewBox="0 0 502 433" fill="none" xmlns="http://www.w3.org/2000/svg">
<path d="M134.734 86.7864C129.462 100.3 122.234 108.736 113.048 112.093C105.628 113.677 98.49 112.914 91.6347 109.803C87.4136 107.931 85.0556 104.76 84.5608 100.291C83.3321 91.1226 86.492 78.5311 94.0404 62.5164C96.5968 57.1083 99.789 51.3226 103.617 45.1593C104.893 43.1048 106.109 41.1551 107.264 39.3101C107.736 38.6521 108.133 38.0438 108.455 37.4852C108.766 37.1065 108.961 36.8473 109.042 36.7077C116.302 26.1985 122.128 18.9075 126.518 14.8347L127.21 14.1174L127.902 13.4002L129.166 12.1752C130.118 11.3289 131.199 10.7428 132.409 10.4171C132.659 10.4679 133.068 10.5642 133.638 10.706L134.387 10.8584L135.136 11.0108C136.384 11.2648 137.325 10.9231 137.957 9.98581L139.649 10.681L141.236 11.3159C142.433 11.8195 143.352 12.1624 143.991 12.3444C145.867 12.9602 147.027 14.4182 147.469 16.7182C147.566 17.518 147.618 18.4776 147.624 19.5969L147.589 21.1108L147.449 22.5644C147.075 27.0903 146.012 32.5683 144.262 38.9984L143.049 43.0418L141.941 47.1455L139.5 55.5021C138.279 56.0077 136.16 56.1355 133.143 55.8857C130.125 55.6358 128.273 55.2199 127.585 54.638C126.898 54.0561 126.731 53.216 127.084 52.1179C127.6 50.0909 128.378 47.6101 129.417 44.6754L131.855 37.2932C133.794 31.3434 134.935 26.3754 135.278 22.389C126.253 31.6032 117.703 43.787 109.627 58.9405C101.442 74.1237 97.1481 86.6664 96.7455 96.5688C96.6988 98.5874 96.9325 100.442 97.4465 102.133C98.079 104.263 99.1432 105.806 100.639 106.76C101.627 107.143 102.541 107.251 103.381 107.084C103.711 106.995 104.041 106.906 104.372 106.818L104.987 106.475C109.372 104.351 113.191 100.786 116.446 95.7798C118.907 91.9904 121.176 87.161 123.254 81.2917L123.467 80.4379L123.515 79.6286C123.616 79.1292 123.538 78.6193 123.28 78.0988C123.386 76.3003 124.283 75.4688 125.972 75.6043C132.597 75.8862 136.174 77.3421 136.705 79.9722C136.157 82.5388 135.5 84.8102 134.734 86.7864ZM201.357 86.5202C199.086 99.3445 191.512 109.673 178.634 117.505C172.305 121.391 166.247 123.435 160.46 123.636C153.913 123.864 146.739 121.871 138.938 117.658C136.594 116.401 134.712 114.341 133.292 111.478C131.932 108.835 131.584 105.241 132.249 100.696C132.524 99.0882 132.909 97.4505 133.405 95.7833C133.849 94.3656 134.292 93.2728 134.735 92.5048C137.782 86.7286 142.084 80.7916 147.641 74.694C149.797 72.4026 153.435 69.1518 158.556 64.9415C164.468 60.1642 168.605 57.3397 170.967 56.4681C171.967 56.0218 173.102 56.0705 174.369 56.6144L175.226 55.8527L176.188 55.1513C176.869 54.6139 177.615 54.2067 178.425 53.9296C180.306 53.2462 182.329 53.5278 184.494 54.7742L185.839 55.828L187.036 56.6565C187.973 57.2892 188.801 57.6267 189.521 57.6691C194.421 59.6541 197.95 63.7783 200.108 70.0415C201.919 75.454 202.335 80.9469 201.357 86.5202ZM168.043 110.709C175.663 106.357 181.508 100.565 185.58 93.3334C189.823 85.6423 191.243 77.7671 189.841 69.7075C189.301 66.6077 188.23 64.2706 186.626 62.6963C185.475 63.2421 184.268 64.1275 183.004 65.3525C181.822 66.4379 181.029 67.3297 180.627 68.0279C176.577 74.9001 174.072 84.3358 173.113 96.335C172.793 96.244 172.404 96.1128 171.945 95.9413C171.445 95.8397 170.931 95.6831 170.402 95.4715C168.985 95.0271 167.712 94.5731 166.584 94.1097C163.37 92.9097 161.5 91.8792 160.973 91.018C160.679 89.2681 160.751 87.1247 161.189 84.5878C161.323 83.5489 161.551 82.4254 161.875 81.2172C162.068 80.3984 162.326 79.3849 162.65 78.1767C154.037 86.5128 148.406 93.8694 145.757 100.247C145.042 101.973 144.461 103.87 144.014 105.937C143.261 110.152 143.82 113.217 145.692 115.132C147.595 117.157 151.897 117.031 158.601 114.755C161.952 113.617 165.1 112.268 168.043 110.709ZM268.387 108.942C267.962 110.649 266.981 112.595 265.445 114.778C263.528 117.3 260.941 119.855 257.684 122.442C249.277 129.13 237.54 135.062 222.472 140.239C208.406 144.969 200.234 148.585 197.957 151.086C197.108 150.783 195.583 149.719 193.38 147.892C192.145 146.809 191.058 145.951 190.121 145.318C188.636 144.184 187.125 143.175 185.589 142.29C189.781 134.849 197.197 124.15 207.837 110.194C209.604 107.772 211.521 105.25 213.588 102.628C215.033 100.764 216.695 98.6062 218.571 96.154C221.934 91.7679 223.791 89.3506 224.142 88.9021C215.118 85.844 208.487 82.9088 204.249 80.0965C201.886 78.5496 200.378 76.5659 199.727 74.1452C207.837 69.4252 215.686 65.159 223.274 61.3467C223.454 61.3573 223.704 61.4081 224.023 61.4991C224.523 61.6007 225.022 61.7023 225.521 61.8039C226.869 62.2081 228.197 62.6472 229.504 63.1213C233.277 64.6429 235.845 66.4003 237.207 68.3936L234.684 69.8692L232.265 71.4052L227.774 74.1186C224.369 76.1559 221.215 77.9193 218.312 79.4087L220.797 80.4213L223.178 81.3737C224.904 82.0889 226.357 82.5535 227.535 82.7673C228.187 82.1198 228.92 81.008 229.735 79.4317L230.76 77.6512L231.995 75.9914C233.214 76.1354 235.124 77.0961 237.727 78.8736L239.282 80.0481L241.002 81.1781C242.248 82.0816 243.165 82.7493 243.754 83.1809C242.198 85.0746 241.204 86.6403 240.77 87.878C252.179 92.1233 260.905 97.4739 266.95 103.93C268.363 105.674 268.842 107.344 268.387 108.942ZM254.88 104.789C255.424 103.522 255.362 102.417 254.696 101.476C253.063 99.7914 250.594 98.1842 247.292 96.6542C246.064 96.0405 244.553 95.3559 242.756 94.6004L237.831 92.7402C237.359 93.3982 235.753 95.5415 233.012 99.1701C231.637 101.074 230.402 102.734 229.308 104.15C227.782 106.153 226.372 108.037 225.077 109.802C217.468 120.11 211.9 127.922 208.375 133.237C223.394 127.66 234.243 122.704 240.923 118.369C247.424 114.024 252.076 109.497 254.88 104.789ZM298.517 176.777C290.484 185.075 281.479 188.443 271.5 186.88C267.385 186.277 264.273 185.787 262.166 185.41C258.67 184.699 255.65 183.89 253.105 182.982C246.706 180.692 241.867 177.068 238.585 172.11C237.094 169.857 236.418 167.236 236.558 164.249C236.687 161.441 237.47 158.87 238.907 156.536L239.329 155.803L239.856 155.13C240.177 154.572 240.589 154.018 241.091 153.47C242.144 152.125 243.428 150.865 244.941 149.691C249.099 146.507 255.004 143.678 262.658 141.205C261.722 139.923 260.457 138.729 258.862 137.625C259.021 134.927 260.318 132.513 262.754 130.382C267.204 126.529 272.823 122.746 279.611 119.03C282.074 117.66 285.032 116.155 288.485 114.518L292.944 112.344L297.239 110.215C299.088 110.071 301.869 110.65 305.583 111.951C306.82 112.385 308.143 112.914 309.55 113.539C310.079 113.75 310.608 113.962 311.137 114.173L311.825 114.431L312.244 114.672C313.918 116.286 314.306 118.276 313.409 120.642C310.501 126.498 304.133 133.198 294.304 140.741L293.93 140.664L293.495 140.693L292.416 140.629C291.447 140.536 290.498 140.408 289.569 140.245C286.782 139.756 284.101 139.003 281.526 137.985C281.592 136.256 281.78 135.202 282.092 134.824C287.716 132.484 292.705 128.663 297.06 123.361C297.401 123.092 297.582 122.778 297.603 122.418C297.664 121.989 297.495 121.798 297.095 121.847C292.967 122.073 288.012 124.38 282.232 128.768C280.077 130.41 278.043 132.167 276.128 134.039C274.403 135.743 273.184 137.133 272.471 138.21C273.208 139.191 274.423 140.31 276.118 141.565L278.136 143.145L279.123 143.853L280.006 144.501C280.414 144.922 280.617 145.457 280.615 146.107C280.503 146.786 280.186 147.254 279.666 147.513C273.32 147.392 267.384 148.901 261.857 152.04C255.769 155.508 252.106 160.093 250.868 165.795C250.599 168.523 251.255 171.178 252.836 173.762C254.416 176.345 256.464 178.036 258.98 178.834C263.831 180.419 268.703 180.435 273.595 178.882C278.198 177.349 282.364 174.634 286.095 170.739C285.117 167.108 284.012 164.426 282.778 162.693C282.901 161.834 283.243 161.241 283.804 160.913L284.749 160.481L285.695 160.05C286.324 160.412 287.152 160.749 288.18 161.062L290.996 161.986C293.551 162.714 295.248 163.319 296.086 163.802C297.053 164.545 297.724 165.721 298.098 167.331L298.26 168.261L298.422 169.191C298.559 169.921 298.757 170.546 299.015 171.067L299.475 172.448C299.623 172.998 299.702 173.508 299.71 173.977C299.786 175.137 299.388 176.07 298.517 176.777ZM356.327 198.352C356.655 198.913 356.192 200.04 354.937 201.735L354.048 203.036L353.054 204.277C352.231 205.384 351.544 206.336 350.991 207.134C349.923 206.89 348.462 205.956 346.608 204.331C342.69 201.609 338.451 199.122 333.891 196.868L331.213 195.465L328.474 194.167C326.438 193.181 324.722 192.286 323.326 191.481C311.143 185.675 302.928 181.13 298.682 177.848C297.734 177.395 297.887 176.321 299.142 174.627C299.695 173.829 301.565 171.792 304.754 168.514C307.424 170.982 310.45 173.235 313.831 175.275C315.157 176.039 316.679 176.869 318.395 177.764L322.914 180.087L327.119 182.23L331.385 184.268L339.96 188.509C346.614 191.969 352.07 195.25 356.327 198.352ZM77.2944 200.581C74.5115 207.997 68.9865 213.555 60.7194 217.255C57.6069 218.624 53.795 219.916 49.2838 221.13L43.2978 222.564L37.642 223.909C32.8811 225.073 29.2713 225.69 26.8127 225.762C22.8348 225.889 19.4949 224.988 16.793 223.061C13.6426 220.782 10.9407 218.854 8.68739 217.277C7.75008 216.645 6.98528 215.228 6.39298 213.027C5.74987 211.077 5.4855 209.437 5.59984 208.108C6.45066 204.693 8.20603 201.241 10.8659 197.752C12.9736 195.061 15.6958 192.351 19.0328 189.624C26.9657 184.244 33.942 181.009 39.9618 179.92C43.9419 179.144 47.6955 178.841 51.2227 179.013C52.3018 179.077 53.4306 179.215 54.6091 179.429L55.2534 179.521L55.8374 179.718C56.1971 179.739 56.4669 179.755 56.6467 179.766C57.3344 180.348 58.1256 181.315 59.0206 182.667L60.1694 184.305L61.3182 185.942C62.2279 188.883 61.2734 191.913 58.4548 195.032C57.2021 196.077 55.394 197.36 53.0304 198.882L50.3865 200.567C49.3751 201.193 48.4885 201.845 47.7267 202.522L47.5805 205.924C47.0705 206.002 44.9113 204.666 41.1029 201.915C40.6544 201.564 40.1508 201.227 39.5922 200.906L38.2307 200.121C37.213 199.628 36.5698 199.212 36.3011 198.871C35.5542 198.069 36.4483 196.678 38.9833 194.697C39.3642 194.359 40.1301 193.917 41.2812 193.371L42.8428 192.597L44.4044 191.822C47.1277 190.322 48.4671 188.723 48.4228 187.024C39.902 188.904 32.5881 192.967 26.4812 199.213C23.4827 202.321 21.154 205.396 19.4949 208.439C17.5438 212.15 17.2199 214.892 18.5232 216.665C25.9775 216.96 33.581 215.946 41.3338 213.623C47.9461 211.666 52.6594 209.778 55.4737 207.959C59.219 205.653 62.8491 201.932 66.3639 196.797C68.9477 192.149 68.1027 187.804 63.8289 183.762C63.0418 183.03 61.9903 182.192 60.6742 181.248L57.4149 178.674C54.5839 176.486 52.4766 174.575 51.0929 172.942C47.6784 165.955 48.688 159.842 54.122 154.603C55.8466 152.9 57.9954 151.348 60.5684 149.948L61.965 149.218C62.2654 149.019 62.6357 148.86 63.0758 148.742C63.9667 148.325 64.4322 148.082 64.4724 148.012C67.2549 146.732 71.747 145.228 77.9488 143.5C82.0495 142.514 85.8677 142.342 89.4033 142.983C92.4396 143.523 94.4951 144.474 95.5699 145.837L96.8267 146.56C97.4847 147.032 98.0676 147.554 98.5754 148.125C100.069 149.729 100.842 151.616 100.895 153.784C100.351 158.12 98.2084 162.325 94.4672 166.4C93.0029 167.974 91.2286 169.602 89.1443 171.284C87.8514 172.399 86.0179 173.807 83.6438 175.508C79.3528 173.595 76.7736 172.342 75.9062 171.75C74.8694 170.967 74.952 170.178 76.1539 169.382L78.6328 167.741L81.337 165.952C83.4001 164.629 85.0982 163.376 86.4313 162.191C90.1195 159.015 92.3647 155.52 93.1669 151.705L93.0939 151.105L93.0813 150.4C92.9734 149.781 92.7195 149.495 92.3196 149.544C79.3427 151.089 69.1438 155.722 61.7228 163.443C59.6872 165.525 59.0438 168.176 59.7926 171.396C60.4335 173.997 61.9843 176.471 64.4449 178.817C65.3314 179.7 66.4824 180.688 67.8979 181.782L69.6021 183.182L71.3667 184.477C76.9778 189.102 78.9537 194.471 77.2944 200.581ZM141.95 176.728C141.73 176.788 141.29 176.906 140.63 177.084L139.804 177.306L138.919 177.633C137.419 177.978 136.285 177.929 135.517 177.486C135.411 179.285 134.804 181.307 133.698 183.552C129.178 190.432 122.531 198.18 113.758 206.796L108.359 212.054L102.96 217.313C98.8589 221.367 95.434 224.973 92.6853 228.132C90.7089 230.434 88.9663 233.056 87.4574 236C87.9568 236.101 88.691 236.198 89.6601 236.292L91.1137 236.431L92.5673 236.571C95.2947 236.84 97.4074 237.127 98.9054 237.432C103.799 238.297 105.724 239.638 104.678 241.453C103.646 242.439 102.293 243.659 100.619 245.112L98.5144 246.829L96.41 248.546C93.1725 251.424 90.849 254.409 89.4397 257.502C88.532 256.98 87.364 256.586 85.9358 256.322L84.0633 255.941L82.5049 255.741C80.078 255.273 78.9069 254.319 78.9917 252.881C80.1576 250.856 81.6579 248.977 83.4925 247.244L85.7779 245.213C86.7703 244.297 87.5722 243.55 88.1838 242.972C88.2642 242.833 87.1502 242.749 84.8417 242.722C83.9656 244.727 82.4844 245.362 80.3982 244.626L78.8558 244.156L77.3736 243.581C76.0258 243.177 74.8219 243.088 73.7618 243.314C73.0826 243.202 72.6552 242.491 72.4797 241.181C68.1527 241.107 62.225 241.552 54.6965 242.516C53.1711 241.452 52.9871 239.673 54.1447 237.178C59.6143 236.237 66.3524 235.515 74.359 235.012C75.9504 231.279 78.2813 227.554 81.3518 223.837C82.4458 222.421 83.8403 220.807 85.5352 218.994L89.7631 214.316C91.9596 211.955 94.8575 209.021 98.4568 205.515L102.818 201.333L107.239 197.045C114.108 190.122 119.291 183.624 122.789 177.549C119.666 176.03 116.537 174.925 113.401 174.235L113.046 172.915C112.968 172.405 112.924 171.915 112.916 171.445C112.88 170.216 113.184 169.043 113.827 167.925C119.838 169.434 126.748 169.787 134.555 168.984C137.647 171.043 140.305 172.481 142.531 173.297C143.997 174.142 143.804 175.285 141.95 176.728ZM152.408 205.343C153.316 205.866 153.968 206.428 154.366 207.029C154.893 207.89 154.965 208.815 154.582 209.803C152.808 214.174 150.502 219.633 147.662 226.179L144.097 234.307L140.577 242.6C134.966 255.733 130.927 266.703 128.46 275.509C128.42 275.579 127.915 275.567 126.946 275.474C125.797 275.37 124.598 275.192 123.35 274.938C119.814 274.296 117.449 273.399 116.253 272.246C118.801 263.3 123.247 251.867 129.589 237.947L133.335 229.505L137.125 221.228C139.954 214.861 142.266 209.312 144.061 204.581C138.837 203.804 134.961 203.107 132.435 202.489C134.792 209.052 135.893 214.568 135.738 219.034C135.387 219.483 133.592 219.612 130.355 219.421C127.078 219.3 125.095 218.949 124.407 218.367C124.359 211.831 122.727 205.22 119.511 198.533L119.213 198.083L118.826 197.302C118.538 196.671 118.355 196.101 118.277 195.591C117.862 194.051 118.381 192.908 119.832 192.163C120.611 192.426 121.445 192.673 122.333 192.906L124.685 193.424C126.613 193.79 128.05 194.199 128.998 194.652C129.804 195.674 130.951 196.428 132.439 196.912C133.497 197.336 134.87 197.615 136.558 197.751L167.309 200.536C173.484 201.116 179.249 202.809 184.607 205.615L184.921 205.796L185.175 206.082C185.484 206.353 185.737 206.638 185.936 206.939C186.463 207.8 186.43 208.664 185.838 209.532C184.763 211.237 183.393 213.052 181.727 214.975L179.41 217.546L177.093 220.116C173.092 224.32 170.331 227.984 168.812 231.107C168.511 231.306 166.799 230.97 163.673 230.1C160.409 229.15 158.023 228.288 156.517 227.513C158.076 224.32 160.762 220.706 164.573 216.672L166.874 214.371L169.07 212.01C170.765 210.196 172.105 208.597 173.089 207.211C170.691 206.853 167.175 206.502 162.539 206.157L159.736 205.937L157.099 205.674C155.121 205.557 153.557 205.447 152.408 205.343ZM206.038 283.922C198.005 292.22 189 295.588 179.021 294.026C174.906 293.422 171.794 292.932 169.687 292.556C166.191 291.844 163.171 291.035 160.626 290.127C154.227 287.837 149.388 284.213 146.106 279.256C144.615 277.002 143.939 274.381 144.079 271.394C144.208 268.586 144.991 266.015 146.428 263.682L146.85 262.948L147.377 262.276C147.698 261.717 148.11 261.164 148.612 260.616C149.665 259.27 150.949 258.01 152.462 256.836C156.62 253.652 162.525 250.823 170.179 248.35C169.243 247.068 167.978 245.875 166.383 244.77C166.542 242.072 167.839 239.658 170.275 237.527C174.725 233.675 180.344 229.891 187.132 226.176C189.595 224.805 192.553 223.301 196.006 221.663L200.465 219.489L204.76 217.36C206.609 217.216 209.39 217.795 213.104 219.097C214.341 219.53 215.664 220.059 217.071 220.684C217.6 220.895 218.129 221.107 218.658 221.319L219.346 221.576L219.765 221.817C221.439 223.432 221.827 225.422 220.93 227.787C218.022 233.644 211.654 240.343 201.825 247.886L201.451 247.81L201.016 247.838L199.937 247.775C198.968 247.681 198.019 247.553 197.09 247.39C194.303 246.901 191.622 246.148 189.047 245.13C189.113 243.401 189.301 242.348 189.613 241.969C195.237 239.629 200.226 235.808 204.581 230.506C204.922 230.237 205.103 229.923 205.124 229.563C205.185 229.134 205.016 228.943 204.616 228.992C200.488 229.218 195.534 231.525 189.753 235.913C187.598 237.555 185.564 239.312 183.649 241.185C181.924 242.888 180.705 244.278 179.992 245.355C180.729 246.337 181.944 247.455 183.639 248.71L185.657 250.291L186.644 250.998L187.527 251.646C187.935 252.067 188.138 252.602 188.136 253.252C188.024 253.931 187.707 254.4 187.187 254.658C180.841 254.537 174.905 256.046 169.378 259.186C163.29 262.653 159.628 267.238 158.389 272.94C158.12 275.668 158.776 278.323 160.357 280.907C161.937 283.491 163.985 285.181 166.501 285.979C171.352 287.564 176.224 287.58 181.116 286.028C185.719 284.494 189.885 281.78 193.616 277.884C192.638 274.254 191.533 271.572 190.299 269.839C190.422 268.979 190.764 268.386 191.325 268.058L192.27 267.627L193.216 267.195C193.845 267.557 194.673 267.894 195.701 268.208L198.517 269.131C201.072 269.859 202.769 270.465 203.607 270.947C204.574 271.69 205.245 272.866 205.619 274.477L205.781 275.407L205.943 276.336C206.08 277.066 206.278 277.692 206.536 278.212L206.996 279.593C207.144 280.143 207.223 280.653 207.231 281.123C207.307 282.282 206.909 283.215 206.038 283.922ZM211.502 309.94L209.254 309.483C207.397 309.157 205.728 308.987 204.249 308.972C203.012 308.538 202.489 307.911 202.682 307.093C202.785 305.944 202.797 303.905 202.717 300.977C202.023 299.275 206.181 299.159 215.19 300.628C215.859 300.92 216.191 301.716 216.187 303.015C216.203 303.955 216.059 305.173 215.755 306.671C215.632 307.53 215.425 308.294 215.132 308.963C214.76 309.771 214.354 310.234 213.914 310.353L211.502 309.94ZM303.716 332.918C302.328 332.584 299.798 331.731 296.125 330.359L293.789 329.572L291.618 328.74C289.921 328.135 288.648 327.681 287.8 327.379C286.071 330.381 284.554 334.388 283.248 339.401L281.727 345.917L280.937 349.227L280.267 352.328L280.07 352.912L279.873 353.496C279.731 354.065 279.565 354.434 279.375 354.603C278.793 355.291 277.784 355.268 276.347 354.533C275.128 354.389 273.601 353.974 271.764 353.289L269.533 352.562C268.574 352.289 267.686 352.056 266.867 351.863C267.881 344.451 270.187 336.249 273.784 327.257L274.041 326.568L274.343 326.045L274.721 325.146C269.171 326.227 261.669 328.276 252.215 331.293L240.63 334.942C236.218 336.306 232.382 337.398 229.121 338.216L226.557 338.553L223.992 338.889C222.073 338.993 220.345 338.602 218.809 337.717L216.337 337.409L213.925 336.997C211.927 336.59 210.461 335.746 209.526 334.464C208.953 332.553 209.059 330.754 209.844 329.068C210.417 327.911 211.486 326.62 213.05 325.196C216.137 322.418 220.154 319.479 225.101 316.377L231.5 312.531L237.899 308.684C231.043 305.574 225.816 302.703 222.217 300.073C221.42 299.52 221.341 297.801 221.98 294.915L233.831 296.858L234.218 297.639C236.124 298.365 238.62 299.198 241.705 300.137L245.434 301.169L249.208 302.366C253.272 300.151 258.017 297.723 263.443 295.083L270.74 291.614L278.141 288.206C290.463 282.471 299.878 277.665 306.386 273.789C307.028 273.322 307.96 272.51 309.183 271.355L320.491 274.241C320.986 275.642 320.806 277.165 319.951 278.811C319.629 279.37 319.213 280.013 318.7 280.741L318.053 281.623L317.405 282.505L313.882 287.171L310.299 291.941C307.588 295.679 305.269 298.9 303.341 301.602C298.139 309.02 294.085 315.657 291.177 321.513L290.876 322.037C290.755 322.247 290.64 322.366 290.53 322.396L294.078 323.742L297.671 325.253C300.595 326.472 302.891 327.329 304.558 327.824C304.915 328.495 304.978 329.274 304.745 330.163L304.186 331.375C304.004 332.014 303.848 332.529 303.716 332.918ZM295.445 291.337C287.529 294.588 276.449 299.783 262.204 306.921C264.779 307.939 267.854 309.059 271.427 310.28L276.159 311.75L280.831 313.324C282.791 310.083 285.211 306.363 288.094 302.166L291.769 296.751L295.445 291.337ZM275.934 316.501C274.626 316.027 272.944 315.477 270.887 314.85L268.177 313.987L265.467 313.123C261.144 311.75 258.159 310.636 256.513 309.781L255.056 310.615L272.379 317.104L275.934 316.501ZM262.883 319.306C260.866 318.61 258.591 317.717 256.056 316.63L249.289 313.849C238.157 319.618 229.322 325.92 222.783 332.754C222.993 332.874 225.504 331.903 230.318 329.841C233.281 328.571 236.258 327.357 239.25 326.198C243.342 324.742 247.644 323.407 252.155 322.193L262.883 319.306ZM364.56 350.243C362.538 351.496 360.287 352.013 357.81 351.795C356.841 351.701 355.787 351.513 354.649 351.229L353.15 350.925L351.713 350.515C343.577 347.69 336.99 345.245 331.95 343.179C336.672 350.64 339.972 357.422 341.851 363.524C344.402 371.687 344.568 378.988 342.348 385.427L342.09 386.116L341.713 387.014C341.34 387.822 340.988 388.595 340.656 389.334C339.559 391.399 338.5 392.834 337.478 393.64C336.742 392.659 335.727 391.516 334.432 390.213L332.848 388.603L331.264 386.994C328.745 384.427 327.159 381.934 326.507 379.513C327.273 377.537 327.834 375.675 328.19 373.927L328.587 371.785L329.088 369.703C329.694 364.938 329.138 359.364 327.42 352.983C325.732 346.711 323.766 342.697 321.524 340.941C316.661 348.74 312.746 355.457 309.779 361.094C305.676 368.865 302.534 375.935 300.355 382.304C299.923 382.892 295.995 380.026 288.571 373.705C292.941 360.788 300.27 346.042 310.559 329.467C310.51 329.067 310.357 328.607 310.099 328.086L309.696 327.575L309.458 327.02C308.971 326.089 309.004 325.224 309.556 324.427C310.128 323.919 310.828 323.671 311.657 323.684C312.267 323.756 312.941 323.958 313.679 324.29C316.172 319.961 318.649 315.902 321.11 312.113L322.662 309.659L324.319 307.266C325.785 305.043 326.936 303.288 327.769 302.001L326.709 300.694L325.545 299.326C324.739 298.304 324.127 297.347 323.71 296.456C323.782 295.847 324.089 295.233 324.631 294.616C325.213 293.928 325.814 293.53 326.434 293.422L332.765 296.232C333.055 296.213 333.405 296.089 333.816 295.86L334.327 295.457C334.657 295.368 334.967 295.314 335.257 295.295C336.998 297.6 339.782 300.272 343.61 303.313L345.778 305.119L347.945 306.925C349.449 308.349 350.724 309.688 351.769 310.94C359.921 320.841 364.967 330.162 366.907 338.903C367.37 340.843 367.448 342.887 367.141 345.035C366.743 347.502 365.883 349.238 364.56 350.243ZM355.773 337.652C356.044 337.343 356.305 336.889 356.557 336.29C356.769 335.761 356.885 335.317 356.906 334.957C356.962 330.34 355.338 325.733 352.035 321.135C349.071 316.918 345.355 313.522 340.886 310.949L328.412 329.706L331.735 331.201L335.223 332.652C337.897 333.82 340.187 334.767 342.094 335.493C347.434 337.359 351.994 338.079 355.773 337.652ZM392.66 343.691C393.567 344.214 394.22 344.776 394.618 345.377C395.145 346.238 395.216 347.163 394.833 348.151C393.06 352.522 390.753 357.981 387.913 364.527L384.349 372.655L380.828 380.948C375.218 394.081 371.179 405.051 368.711 413.857C368.671 413.927 368.167 413.915 367.197 413.822C366.049 413.719 364.85 413.54 363.602 413.286C360.066 412.644 357.7 411.747 356.505 410.594C359.053 401.648 363.498 390.215 369.841 376.295L373.586 367.853L377.376 359.576C380.206 353.209 382.518 347.66 384.312 342.929C379.088 342.152 375.213 341.455 372.687 340.837C375.043 347.401 376.144 352.916 375.99 357.382C375.638 357.831 373.844 357.96 370.607 357.769C367.329 357.648 365.347 357.297 364.659 356.715C364.611 350.179 362.979 343.568 359.763 336.881L359.465 336.431L359.078 335.65C358.79 335.019 358.607 334.449 358.529 333.939C358.114 332.399 358.633 331.256 360.084 330.511C360.863 330.774 361.696 331.022 362.585 331.254L364.937 331.772C366.864 332.138 368.302 332.548 369.25 333C370.056 334.022 371.203 334.776 372.69 335.26C373.748 335.684 375.121 335.963 376.81 336.099L407.561 338.884C413.735 339.464 419.501 341.157 424.858 343.963L425.172 344.144L425.426 344.43C425.735 344.701 425.989 344.987 426.188 345.287C426.715 346.148 426.682 347.013 426.089 347.88C425.014 349.585 423.644 351.4 421.979 353.323L419.662 355.894L417.345 358.464C413.343 362.668 410.583 366.332 409.063 369.455C408.763 369.654 407.05 369.318 403.925 368.448C400.66 367.498 398.275 366.636 396.768 365.861C398.328 362.668 401.013 359.055 404.824 355.02L407.125 352.719L409.322 350.358C411.017 348.544 412.356 346.945 413.34 345.559C410.943 345.201 407.426 344.85 402.79 344.505L399.988 344.285L397.35 344.022C395.372 343.905 393.808 343.795 392.66 343.691Z" fill="url(#paint0_linear_2262_2201)"/>
<defs>
<linearGradient id="paint0_linear_2262_2201" x1="21.6879" y1="150.145" x2="355.884" y2="428.307" gradientUnits="userSpaceOnUse">
<stop stop-color="#121212"/>
<stop offset="1" stop-color="#6A8FFF"/>
</linearGradient>
</defs>
</svg>
