<svg width="473" height="320" viewBox="0 0 473 320" fill="none" xmlns="http://www.w3.org/2000/svg">
<path d="M64.0796 134.907C68.7027 148.656 68.5673 159.764 63.6734 168.231C58.9963 174.206 53.0304 178.199 45.7757 180.209C41.3359 181.48 37.4931 180.559 34.2473 177.448C27.4242 171.202 21.7726 159.515 17.2924 142.386C15.7851 136.598 14.5234 130.111 13.5073 122.927C13.1686 120.533 12.8508 118.257 12.5539 116.101C12.4939 115.293 12.4082 114.572 12.2967 113.937C12.2924 113.447 12.2764 113.123 12.2485 112.964C11.0784 100.244 10.8716 90.9141 11.628 84.9732L11.6989 83.9791L11.7697 82.985L11.9533 81.2349C12.141 79.9749 12.5947 78.8318 13.3143 77.8056C13.5385 77.6844 13.9144 77.4957 14.442 77.2394L15.1144 76.876L15.7868 76.5125C16.9075 75.9067 17.41 75.0413 17.2942 73.9164L19.0379 73.3647L20.6626 72.834C21.9045 72.4524 22.8289 72.1264 23.4359 71.8562C25.2708 71.125 27.0954 71.4999 28.9097 72.981C29.4973 73.5323 30.1525 74.2353 30.8752 75.09L31.8194 76.274L32.6445 77.4788C35.2597 81.1916 37.958 86.0759 40.7393 92.1318L42.4023 96.0118L44.1843 99.8709L47.671 107.848C47.0586 109.019 45.5148 110.476 43.0397 112.22C40.5645 113.963 38.8765 114.832 37.9757 114.827C37.0749 114.821 36.4079 114.284 35.9748 113.215C35.0709 111.329 34.0765 108.926 32.9914 106.008L30.1271 98.7809C27.7983 92.9727 25.4872 88.4294 23.1936 85.151C22.1793 98.0087 23.4339 112.84 26.9576 129.646C30.4158 146.544 35.1661 158.922 41.2083 166.777C42.4672 168.356 43.836 169.629 45.3147 170.596C47.1666 171.825 48.9725 172.326 50.7322 172.099C51.736 171.759 52.5065 171.256 53.0439 170.589C53.2401 170.309 53.4364 170.029 53.6327 169.749L53.8852 169.091C55.8866 164.65 56.5304 159.465 55.8167 153.537C55.2744 149.051 53.9182 143.89 51.7481 138.054L51.3638 137.262L50.8812 136.611C50.6389 136.163 50.2518 135.822 49.7199 135.588C48.6477 134.14 48.8027 132.927 50.1851 131.948C55.4486 127.915 59.1275 126.737 61.2217 128.414C62.4472 130.735 63.3999 132.899 64.0796 134.907ZM115.024 91.9716C121.507 103.267 122.32 116.05 117.463 130.318C115.1 137.359 111.763 142.813 107.452 146.678C102.575 151.052 95.7932 154.125 87.1057 155.895C84.5009 156.435 81.7358 156.061 78.8105 154.775C76.0717 153.62 73.4998 151.086 71.0947 147.173C70.2745 145.762 69.5196 144.259 68.8302 142.662C68.262 141.289 67.9012 140.167 67.7479 139.294C66.3811 132.908 65.8739 125.593 66.2262 117.351C66.4109 114.21 67.1174 109.382 68.3457 102.868C69.8176 95.4106 71.1799 90.5904 72.4326 88.4071C72.9141 87.4227 73.8155 86.7327 75.1367 86.3371L75.3057 85.203L75.5937 84.0481C75.7718 83.1988 76.0828 82.408 76.5268 81.6756C77.5318 79.9448 79.2643 78.8634 81.7243 78.4315L83.4326 78.3769L84.882 78.2451C86.0069 78.1294 86.8589 77.857 87.438 77.4281C92.4708 75.8081 97.8235 76.7088 103.496 80.1301C108.357 83.1213 112.2 87.0685 115.024 91.9716ZM104.979 131.897C108.033 123.671 108.803 115.478 107.289 107.318C105.611 98.6963 101.65 91.7433 95.4046 86.4592C93.0026 84.4269 90.6815 83.3211 88.4414 83.1418C87.9083 84.2989 87.55 85.7525 87.3665 87.5026C87.1551 89.094 87.1191 90.2864 87.2585 91.08C88.5587 98.9503 92.6888 107.796 99.6489 117.617C99.3454 117.752 98.9626 117.902 98.5004 118.064C98.0521 118.307 97.5572 118.516 97.0156 118.693C95.6429 119.262 94.3753 119.73 93.2129 120.097C89.9774 121.238 87.8814 121.647 86.9249 121.324C85.577 120.17 84.2576 118.48 82.9666 116.252C82.4026 115.369 81.8574 114.361 81.3309 113.226C80.9535 112.474 80.5016 111.531 79.9751 110.397C78.7142 122.316 79.1124 131.572 81.1698 138.164C81.7284 139.947 82.4993 141.775 83.4825 143.648C85.6077 147.365 88.0027 149.357 90.6676 149.626C93.4257 149.959 96.6462 147.103 100.329 141.057C102.171 138.035 103.721 134.981 104.979 131.897ZM180.831 66.1819C181.6 67.7648 182.095 69.8865 182.317 72.5471C182.464 75.7117 182.118 79.3309 181.279 83.4048C179.118 93.9279 173.918 106.007 165.678 119.643C157.92 132.294 153.969 140.309 153.826 143.689C152.981 144.001 151.128 144.162 148.267 144.174C146.624 144.135 145.24 144.174 144.115 144.289C142.248 144.372 140.442 144.566 138.696 144.873C137.139 136.475 135.967 123.51 135.179 105.979C134.981 102.987 134.834 99.8227 134.739 96.4855C134.652 94.1284 134.543 91.4072 134.41 88.322C134.176 82.8003 134.051 79.7547 134.033 79.1853C125.148 82.627 118.178 84.6281 113.122 85.1885C110.317 85.5176 107.888 84.9624 105.836 83.5231C109.031 74.6999 112.317 66.3924 115.693 58.6008C115.838 58.4936 116.062 58.3724 116.366 58.2373C116.814 57.995 117.262 57.7527 117.71 57.5103C119.004 56.956 120.304 56.4414 121.611 55.9664C125.482 54.7142 128.579 54.4157 130.902 55.0711L129.913 57.8217L129.043 60.5514L127.337 65.5136C126.032 69.2604 124.743 72.6362 123.471 75.6409L126.027 74.8239L128.464 74.0279C130.247 73.4693 131.66 72.894 132.701 72.3022C132.786 71.3874 132.635 70.0641 132.249 68.3322L131.894 66.3086L131.777 64.2432C132.804 63.572 134.886 63.0837 138.023 62.7783L139.969 62.6819L142.014 62.4456C143.549 62.3395 144.681 62.2635 145.41 62.2174C145.431 64.6678 145.672 66.5069 146.133 67.7348C157.609 63.6746 167.736 62.1826 176.514 63.2588C178.717 63.6901 180.156 64.6645 180.831 66.1819ZM167.805 71.6597C167.409 70.3385 166.654 69.5304 165.539 69.2355C163.205 68.9908 160.281 69.3407 156.765 70.2852C155.43 70.6014 153.831 71.0458 151.969 71.6183L146.996 73.3504C147.056 74.1579 147.199 76.8324 147.424 81.3739C147.59 83.7171 147.707 85.7825 147.775 87.5702C147.89 90.086 148.016 92.4361 148.155 94.6205C148.928 107.41 149.667 116.974 150.371 123.313C158.317 109.401 163.462 98.6404 165.807 91.0299C168.007 83.5266 168.673 77.0699 167.805 71.6597ZM247.455 98.9022C246.615 110.421 241.866 118.78 233.208 123.982C229.664 126.159 226.962 127.778 225.104 128.841C221.966 130.537 219.129 131.853 216.594 132.789C210.217 135.136 204.179 135.46 198.482 133.761C195.892 132.989 193.693 131.412 191.884 129.03C190.182 126.793 189.134 124.318 188.74 121.606L188.593 120.773L188.566 119.919C188.454 119.284 188.415 118.595 188.449 117.853C188.394 116.145 188.571 114.355 188.978 112.484C190.126 107.374 192.843 101.416 197.129 94.6101C195.589 94.2261 193.853 94.1219 191.92 94.2976C190.312 92.126 189.759 89.4418 190.261 86.245C191.204 80.435 193.088 73.928 195.913 66.7239C196.923 64.0924 198.228 61.0411 199.827 57.5699L201.854 53.0419L203.783 48.6539C205.11 47.3575 207.615 46.0178 211.299 44.6347C212.527 44.1736 213.881 43.7314 215.361 43.3079C215.902 43.131 216.444 42.9541 216.985 42.7772L217.679 42.5328L218.155 42.4491C220.474 42.6145 222.048 43.8923 222.877 46.2827C224.403 52.6409 223.814 61.8655 221.111 73.9563L220.774 74.138L220.459 74.4388L219.59 75.0822C218.787 75.6322 217.977 76.1426 217.16 76.6133C214.708 78.0255 212.168 79.1668 209.54 80.0374C208.481 78.669 207.95 77.7397 207.946 77.2497C210.76 71.8472 212.138 65.7155 212.078 58.8544C212.167 58.4298 212.104 58.0727 211.89 57.7831C211.661 57.4142 211.409 57.3766 211.134 57.6705C208.112 60.4917 205.79 65.4394 204.169 72.5138C203.57 75.155 203.136 77.808 202.867 80.4728C202.637 82.8857 202.593 84.7339 202.737 86.0175C203.931 86.2986 205.581 86.377 207.686 86.2528L210.249 86.1709L211.46 86.0809L212.552 86.0118C213.136 86.073 213.635 86.3535 214.05 86.8532C214.399 87.4463 214.457 88.0087 214.223 88.5406C209.277 92.5177 205.691 97.4831 203.464 103.437C201.018 110.002 201.148 115.869 203.855 121.038C205.398 123.303 207.605 124.919 210.474 125.888C213.344 126.857 216 126.84 218.441 125.839C223.18 123.943 226.929 120.831 229.686 116.502C232.233 112.373 233.689 107.619 234.053 102.237C230.974 100.078 228.406 98.7298 226.348 98.1913C225.891 97.4535 225.773 96.7789 225.993 96.1677L226.441 95.2299L226.89 94.2922C227.604 94.1667 228.456 93.8944 229.446 93.4752L232.199 92.3784C234.627 91.2976 236.317 90.6736 237.269 90.5064C238.487 90.4561 239.756 90.9285 241.076 91.9238L241.797 92.5335L242.518 93.1432C243.091 93.6151 243.644 93.9679 244.176 94.2017L245.414 94.9659C245.881 95.293 246.268 95.6341 246.576 95.989C247.378 96.8298 247.671 97.8009 247.455 98.9022ZM305.647 78.3765C306.258 78.5964 306.626 79.7589 306.75 81.864L306.903 83.4323L306.936 85.0216C307.015 86.3985 307.098 87.5701 307.185 88.5363C306.21 89.0349 304.489 89.2552 302.025 89.1971C297.273 89.6224 292.426 90.4328 287.482 91.6281L284.527 92.2697L281.593 93.0304C279.399 93.5793 277.508 93.9931 275.921 94.2718C262.85 97.6306 253.632 99.4127 248.269 99.6182C247.252 99.8787 246.681 98.9564 246.557 96.8514C246.469 95.8851 246.597 93.1222 246.942 88.5625C250.573 88.7429 254.339 88.5314 258.242 87.9279C259.75 87.6631 261.449 87.3239 263.339 86.9101L268.297 85.7941L272.898 84.7408L277.477 83.5685L286.777 81.322C294.101 79.7086 300.391 78.7268 305.647 78.3765ZM92.9967 259.053C95.6181 266.528 94.944 274.336 90.9746 282.477C89.4645 285.524 87.3682 288.959 84.686 292.784L81.0132 297.724L77.5368 302.384C74.6304 306.33 72.257 309.119 70.4167 310.751C67.446 313.399 64.306 314.851 60.9966 315.105C57.1178 315.377 53.8084 315.631 51.0685 315.866C49.9436 315.982 48.4482 315.386 46.5824 314.077C44.8377 312.993 43.5831 311.904 42.8186 310.812C41.281 307.646 40.4137 303.872 40.2167 299.489C40.1076 296.072 40.4586 292.248 41.2696 288.015C43.9051 278.799 47.1828 271.843 51.1026 267.146C53.6584 263.998 56.3443 261.358 59.1605 259.228C60.0292 258.584 60.9842 257.967 62.0255 257.375L62.5789 257.032L63.1532 256.809C63.4427 256.594 63.6599 256.434 63.8047 256.326C64.7055 256.332 65.9328 256.566 67.4866 257.03L69.4185 257.549L71.3503 258.069C73.9346 259.742 75.1456 262.679 74.9834 266.879C74.6927 268.485 74.1284 270.629 73.2907 273.312L72.3431 276.3C71.9687 277.43 71.7064 278.498 71.5562 279.506L73.6262 282.21C73.2852 282.598 70.7715 282.957 66.0852 283.289C65.5158 283.307 64.9137 283.372 64.2788 283.484L62.7313 283.755C61.6343 284.03 60.8734 284.123 60.4488 284.034C59.3614 283.897 59.1551 282.257 59.8298 279.111C59.9049 278.607 60.209 277.777 60.7421 276.62L61.4435 275.024L62.145 273.428C63.2723 270.531 63.274 268.445 62.1503 267.17C56.819 274.077 53.8136 281.886 53.1341 290.594C52.8271 294.902 53.0129 298.755 53.6915 302.154C54.5748 306.252 56.0851 308.564 58.2223 309.088C64.1303 304.533 69.3135 298.879 73.7719 292.124C77.59 286.382 79.9951 281.91 80.9873 278.709C82.3817 274.538 82.7805 269.355 82.1836 263.161C81.1845 257.937 77.7494 255.146 71.8781 254.786C70.8047 254.729 69.4605 254.761 67.8455 254.881L63.6938 254.996C60.1185 255.133 57.2761 255.019 55.1668 254.653C48.0658 251.482 44.9198 246.145 45.7289 238.64C45.9597 236.228 46.6129 233.659 47.6887 230.934L48.292 229.478C48.395 229.133 48.5773 228.774 48.839 228.401C49.2552 227.509 49.4563 227.024 49.4423 226.945C50.7562 224.178 53.238 220.143 56.8877 214.839C59.4016 211.453 62.2205 208.872 65.3445 207.096C68.0201 205.563 70.2073 204.974 71.9059 205.331L73.3343 205.08C74.1418 205.02 74.9236 205.046 75.6796 205.159C77.8544 205.431 79.6575 206.383 81.089 208.013C83.4522 211.688 84.5055 216.289 84.2488 221.814C84.135 223.961 83.8179 226.348 83.2976 228.976C83.0208 230.66 82.5172 232.917 81.7867 235.744C77.2676 237.029 74.4853 237.722 73.4397 237.824C72.1421 237.888 71.6993 237.229 72.1112 235.848L72.9607 233L73.8875 229.892C74.6222 227.554 75.121 225.503 75.3839 223.739C76.1767 218.937 75.6575 214.816 73.8261 211.374L73.3854 210.961L72.9238 210.428C72.4434 210.022 72.0654 209.965 71.7897 210.259C62.825 219.768 57.9718 229.864 57.23 240.547C57.0035 243.45 58.2103 245.897 60.8503 247.888C63.01 249.472 65.7863 250.375 69.1793 250.597C70.4254 250.705 71.9423 250.725 73.7299 250.657L75.9353 250.638L78.1197 250.5C85.3915 250.45 90.3505 253.301 92.9967 259.053ZM127.303 199.284C127.172 199.471 126.911 199.844 126.518 200.404L126.027 201.103L125.558 201.922C124.628 203.149 123.726 203.839 122.854 203.992C123.926 205.44 124.757 207.38 125.348 209.812C126.293 217.99 126.163 228.197 124.958 240.434L124.189 247.932L123.419 255.429C122.873 261.169 122.558 266.133 122.475 270.319C122.436 273.353 122.781 276.483 123.511 279.709C123.959 279.466 124.585 279.07 125.388 278.52L126.593 277.695L127.798 276.87C130.063 275.327 131.868 274.192 133.212 273.465C137.522 270.99 139.859 270.785 140.221 272.848C140.061 274.267 139.805 276.07 139.453 278.259L138.94 280.926L138.427 283.593C137.788 287.877 137.92 291.658 138.823 294.935C137.791 295.116 136.643 295.563 135.377 296.276L133.696 297.185L132.372 298.031C130.21 299.229 128.701 299.248 127.843 298.09C127.439 295.789 127.385 293.385 127.681 290.879L128.131 287.855C128.305 286.515 128.442 285.428 128.54 284.593C128.512 284.434 127.604 285.084 125.815 286.544C126.43 288.644 125.7 290.081 123.627 290.854L122.143 291.483L120.637 291.993C119.344 292.547 118.363 293.251 117.695 294.105C117.102 294.454 116.318 294.183 115.343 293.291C111.976 296.009 107.713 300.152 102.556 305.721C100.703 305.883 99.4201 304.635 98.7082 301.979C102.301 297.749 107.007 292.873 112.828 287.352C111.655 283.468 111.054 279.115 111.025 274.293C110.957 272.506 110.991 270.373 111.129 267.895L111.372 261.594C111.543 258.373 111.885 254.264 112.398 249.266L113.061 243.26L113.703 237.134C114.533 227.417 114.341 219.107 113.129 212.203C109.759 213.04 106.649 214.2 103.801 215.682L102.681 214.897C102.294 214.556 101.947 214.208 101.639 213.853C100.823 212.932 100.304 211.837 100.081 210.568C105.66 207.87 111.188 203.709 116.663 198.085C120.355 197.682 123.317 197.08 125.548 196.279C127.215 195.987 127.8 196.988 127.303 199.284ZM153.68 214.531C154.712 214.349 155.573 214.362 156.263 214.568C157.22 214.891 157.868 215.554 158.208 216.558C159.651 221.049 161.382 226.717 163.402 233.561L165.88 242.083L168.499 250.703C172.618 264.378 176.555 275.384 180.309 283.723C180.323 283.803 179.929 284.117 179.125 284.667C178.177 285.325 177.143 285.956 176.022 286.562C172.898 288.338 170.508 289.167 168.851 289.048C165.068 280.551 161.146 268.928 157.084 254.18L154.543 245.301L152.142 236.52C150.229 229.82 148.444 224.08 146.787 219.3C142.281 222.054 138.86 224.005 136.525 225.151C142.543 228.675 146.925 232.2 149.671 235.726C149.69 236.296 148.396 237.546 145.79 239.476C143.198 241.485 141.451 242.487 140.55 242.482C136.321 237.498 130.829 233.472 124.073 230.405L123.555 230.251L122.757 229.9C122.132 229.601 121.626 229.28 121.239 228.939C119.933 228.023 119.598 226.814 120.234 225.312C121 225.014 121.798 224.669 122.629 224.278L124.765 223.166C126.479 222.211 127.845 221.603 128.862 221.343C130.136 221.61 131.499 221.452 132.951 220.87C134.035 220.516 135.267 219.85 136.65 218.871L162.029 201.285C167.138 197.77 172.648 195.371 178.558 194.088L178.915 194.025L179.293 194.081C179.704 194.091 180.082 194.147 180.427 194.25C181.383 194.573 181.913 195.257 182.014 196.303C182.283 198.301 182.396 200.571 182.352 203.115L182.223 206.574L182.094 210.032C181.72 215.824 181.952 220.405 182.789 223.776C182.686 224.121 181.157 224.962 178.202 226.299C175.087 227.664 172.704 228.532 171.051 228.904C170.2 225.455 169.943 220.96 170.279 215.42L170.568 212.179L170.739 208.958C170.877 206.48 170.878 204.394 170.744 202.699C168.676 203.962 165.752 205.948 161.974 208.657L159.683 210.286L157.491 211.775C155.898 212.955 154.628 213.873 153.68 214.531ZM245.225 240.421C244.384 251.939 239.635 260.299 230.977 265.5C227.433 267.677 224.731 269.297 222.873 270.359C219.735 272.056 216.899 273.372 214.363 274.308C207.986 276.655 201.948 276.979 196.251 275.28C193.661 274.507 191.462 272.93 189.653 270.548C187.951 268.311 186.903 265.837 186.509 263.125L186.362 262.291L186.335 261.437C186.224 260.802 186.185 260.114 186.218 259.372C186.163 257.663 186.34 255.874 186.747 254.002C187.895 248.893 190.612 242.935 194.898 236.129C193.358 235.745 191.622 235.64 189.689 235.816C188.081 233.644 187.528 230.96 188.03 227.764C188.973 221.954 190.857 215.446 193.682 208.242C194.692 205.611 195.997 202.56 197.596 199.088L199.624 194.56L201.553 190.172C202.879 188.876 205.384 187.536 209.068 186.153C210.296 185.692 211.65 185.25 213.13 184.826C213.671 184.65 214.213 184.473 214.754 184.296L215.448 184.051L215.924 183.968C218.243 184.133 219.818 185.411 220.646 187.801C222.172 194.159 221.583 203.384 218.88 215.475L218.543 215.657L218.228 215.957L217.36 216.601C216.556 217.151 215.746 217.661 214.929 218.132C212.477 219.544 209.937 220.685 207.309 221.556C206.251 220.188 205.719 219.258 205.715 218.768C208.529 213.366 209.907 207.234 209.847 200.373C209.936 199.948 209.873 199.591 209.659 199.302C209.431 198.933 209.179 198.895 208.903 199.189C205.881 202.01 203.559 206.958 201.938 214.032C201.339 216.674 200.905 219.327 200.637 221.991C200.406 224.404 200.362 226.252 200.506 227.536C201.7 227.817 203.35 227.896 205.455 227.771L208.018 227.689L209.229 227.599L210.321 227.53C210.905 227.592 211.404 227.872 211.819 228.372C212.168 228.965 212.226 229.527 211.992 230.059C207.046 234.036 203.46 239.002 201.233 244.955C198.787 251.52 198.917 257.387 201.624 262.556C203.167 264.821 205.374 266.438 208.243 267.406C211.113 268.375 213.769 268.359 216.21 267.357C220.949 265.462 224.698 262.349 227.455 258.02C230.002 253.892 231.458 249.137 231.822 243.756C228.743 241.597 226.175 240.248 224.117 239.71C223.66 238.972 223.542 238.297 223.762 237.686L224.211 236.748L224.659 235.811C225.374 235.685 226.226 235.413 227.215 234.994L229.968 233.897C232.396 232.816 234.086 232.192 235.038 232.025C236.256 231.975 237.525 232.447 238.845 233.442L239.566 234.052L240.287 234.662C240.86 235.134 241.413 235.486 241.945 235.72L243.184 236.484C243.65 236.812 244.037 237.153 244.345 237.508C245.147 238.348 245.44 239.319 245.225 240.421ZM266.104 256.878L264.087 257.968C262.453 258.91 261.063 259.849 259.919 260.786C258.691 261.247 257.888 261.102 257.511 260.35C256.854 259.402 255.555 257.831 253.615 255.635C251.992 254.775 255.107 252.019 262.962 247.368C263.662 247.163 264.427 247.561 265.257 248.56C265.873 249.27 266.544 250.297 267.271 251.642C267.728 252.38 268.058 253.099 268.263 253.799C268.496 254.658 268.481 255.274 268.22 255.648L266.104 256.878ZM351.591 215.362C350.312 215.996 347.823 216.964 344.125 218.268L341.828 219.162L339.629 219.917C337.939 220.541 336.672 221.009 335.827 221.321C336.426 224.733 337.832 228.781 340.045 233.464L343.057 239.438L344.574 242.485L346.049 245.294L346.272 245.868L346.496 246.442C346.752 246.97 346.862 247.36 346.824 247.612C346.819 248.513 346.029 249.142 344.456 249.5C343.429 250.171 341.991 250.833 340.142 251.485L337.964 252.358C337.053 252.763 336.222 253.155 335.47 253.532C331.495 247.195 328.003 239.423 324.996 230.217L324.751 229.524L324.647 228.928L324.36 227.997C320.795 232.386 316.354 238.769 311.035 247.148L304.488 257.378C301.978 261.254 299.735 264.552 297.758 267.271L296.006 269.174L294.255 271.077C292.849 272.387 291.273 273.196 289.527 273.502L287.432 274.852L285.317 276.082C283.524 277.051 281.857 277.344 280.318 276.96C278.652 275.862 277.58 274.414 277.101 272.617C276.798 271.361 276.79 269.685 277.077 267.59C277.664 263.478 278.86 258.646 280.667 253.094L283.109 246.039L285.551 238.984C278.297 240.994 272.445 242.144 267.997 242.435C267.031 242.522 265.867 241.254 264.507 238.63L274.845 232.52L275.643 232.871C277.571 232.205 280.02 231.243 282.99 229.985L286.512 228.385L290.175 226.883C291.873 222.576 293.957 217.67 296.426 212.165L299.799 204.824L303.292 197.462C309.067 185.159 313.208 175.433 315.715 168.285C315.908 167.515 316.102 166.295 316.3 164.624L326.826 159.585C328.105 160.342 328.944 161.626 329.344 163.438C329.455 164.073 329.548 164.833 329.622 165.72L329.691 166.812L329.76 167.905L330.049 173.744L330.359 179.702C330.677 184.309 330.963 188.267 331.217 191.576C331.984 200.604 333.131 208.296 334.656 214.655L334.761 215.25C334.802 215.488 334.791 215.654 334.725 215.747L338.311 214.504L342.036 213.359C345.062 212.418 347.373 211.604 348.969 210.914C349.674 211.2 350.222 211.758 350.613 212.589L350.962 213.877C351.232 214.484 351.442 214.979 351.591 215.362ZM318.576 188.765C314.588 196.337 309.419 207.429 303.068 222.042C305.697 221.172 308.773 220.059 312.298 218.703L316.872 216.796L321.466 215.008C320.89 211.264 320.362 206.857 319.881 201.788L319.228 195.277L318.576 188.765ZM319.746 220.586C318.439 221.061 316.795 221.718 314.816 222.556L312.182 223.632L309.549 224.708C305.352 226.427 302.347 227.486 300.536 227.886L299.954 229.461L317.405 223.328L319.746 220.586ZM311.532 231.109C309.538 231.868 307.22 232.643 304.578 233.434L297.603 235.641C292.762 247.207 290.026 257.708 289.392 267.145C289.63 267.103 290.934 264.747 293.305 260.077C294.763 257.204 296.269 254.362 297.821 251.554C300.027 247.813 302.471 244.03 305.153 240.205L311.532 231.109ZM409.384 189.63C408.635 191.888 407.241 193.729 405.2 195.15C404.396 195.7 403.467 196.232 402.412 196.744L401.067 197.471L399.701 198.079C391.648 201.129 385.025 203.479 379.834 205.126C388.242 207.822 395.124 210.908 400.479 214.385C407.672 219.012 412.482 224.507 414.908 230.871L415.152 231.564L415.439 232.495C415.671 233.354 415.897 234.174 416.116 234.953C416.599 237.241 416.707 239.022 416.44 240.295C415.246 240.014 413.734 239.789 411.904 239.62L409.657 239.401L407.41 239.182C403.83 238.829 401.014 237.932 398.962 236.493C398.282 234.486 397.518 232.697 396.67 231.128L395.6 229.23L394.65 227.311C392.058 223.267 388.057 219.348 382.646 215.553C377.328 211.824 373.246 210.005 370.399 210.096C371.67 219.199 372.975 226.863 374.314 233.091C376.15 241.685 378.275 249.124 380.687 255.409C380.733 256.137 375.881 256.457 366.131 256.369C361.199 243.656 357.365 227.641 354.627 208.326C354.333 208.05 353.92 207.795 353.389 207.561L352.752 207.428L352.213 207.154C351.242 206.752 350.713 206.068 350.625 205.102C350.738 204.346 351.116 203.707 351.761 203.184C352.275 202.849 352.921 202.572 353.701 202.353C352.837 197.433 352.134 192.73 351.592 188.244L351.209 185.366L350.945 182.468C350.644 179.821 350.401 177.737 350.216 176.215L348.564 175.892L346.793 175.589C345.519 175.322 344.436 174.98 343.545 174.564C343.209 174.051 343.051 173.383 343.071 172.562C343.076 171.661 343.282 170.97 343.688 170.49L350.348 168.584C350.558 168.384 350.748 168.064 350.916 167.625L351.049 166.988C351.246 166.709 351.449 166.468 351.659 166.268C354.473 166.919 358.323 167.184 363.21 167.062L366.032 167.057L368.853 167.052C370.921 167.18 372.757 167.39 374.362 167.68C386.967 170.048 396.816 173.963 403.911 179.425C405.511 180.616 406.882 182.134 408.024 183.979C409.301 186.127 409.754 188.011 409.384 189.63ZM394.566 185.606C394.576 185.195 394.485 184.679 394.294 184.058C394.118 183.517 393.922 183.101 393.707 182.812C390.789 179.234 386.588 176.741 381.105 175.331C376.126 173.997 371.097 173.775 366.018 174.667L368.478 197.059L371.986 196.074L375.592 194.95C378.394 194.131 380.758 193.389 382.686 192.723C387.981 190.73 391.941 188.357 394.566 185.606ZM426.74 166.581C427.772 166.4 428.633 166.413 429.323 166.618C430.28 166.941 430.928 167.605 431.268 168.608C432.711 173.1 434.443 178.767 436.462 185.611L438.941 194.134L441.559 202.754C445.678 216.428 449.615 227.435 453.37 235.774C453.384 235.853 452.989 236.168 452.186 236.718C451.238 237.375 450.203 238.007 449.083 238.613C445.959 240.388 443.568 241.217 441.911 241.099C438.129 232.601 434.206 220.979 430.144 206.231L427.603 197.352L425.202 188.57C423.29 181.871 421.505 176.131 419.847 171.35C415.341 174.105 411.92 176.055 409.586 177.201C415.604 180.726 419.986 184.251 422.732 187.777C422.75 188.346 421.456 189.596 418.85 191.526C416.258 193.536 414.511 194.538 413.611 194.532C409.381 189.549 403.889 185.523 397.133 182.456L396.615 182.301L395.818 181.95C395.192 181.651 394.686 181.331 394.299 180.99C392.993 180.074 392.658 178.865 393.294 177.363C394.06 177.065 394.858 176.72 395.689 176.328L397.826 175.217C399.539 174.262 400.905 173.654 401.923 173.393C403.197 173.66 404.56 173.503 406.012 172.921C407.095 172.567 408.328 171.901 409.71 170.922L435.09 153.335C440.199 149.821 445.708 147.421 451.618 146.138L451.975 146.076L452.353 146.132C452.764 146.142 453.142 146.198 453.487 146.301C454.444 146.624 454.973 147.308 455.075 148.354C455.344 150.351 455.456 152.622 455.412 155.166L455.283 158.624L455.154 162.083C454.78 167.874 455.012 172.456 455.85 175.826C455.747 176.172 454.217 177.013 451.262 178.35C448.147 179.715 445.764 180.583 444.112 180.955C443.26 177.505 443.003 173.01 443.339 167.47L443.629 164.229L443.799 161.009C443.937 158.531 443.939 156.444 443.805 154.75C441.736 156.013 438.812 157.999 435.034 160.707L432.744 162.337L430.551 163.826C428.958 165.006 427.688 165.924 426.74 166.581Z" fill="url(#paint0_linear_2262_3374)"/>
<defs>
<linearGradient id="paint0_linear_2262_3374" x1="367.567" y1="60.0451" x2="200.393" y2="387.759" gradientUnits="userSpaceOnUse">
<stop stop-color="#121212"/>
<stop offset="1" stop-color="#B00F74"/>
</linearGradient>
</defs>
</svg>
