<svg width="335" height="416" viewBox="0 0 335 416" fill="none" xmlns="http://www.w3.org/2000/svg">
<path d="M154.023 399.126L104.294 380.609L100.149 364.93L134.15 323.961L138.334 339.785L114.069 369.559L149.878 383.449L154.023 399.126Z" fill="url(#paint0_linear_2262_3573)"/>
<path d="M168.163 401.033L168.727 273.908L182.354 270.305L181.643 397.469L168.163 401.033Z" fill="url(#paint1_linear_2262_3573)"/>
<path d="M225.084 380.34L220.939 364.663L245.311 334.704L209.395 320.999L205.211 305.175L255.127 323.8L259.272 339.477L225.084 380.34Z" fill="url(#paint2_linear_2262_3573)"/>
<path d="M221.658 193.587L191.092 162.16L193.548 148.989L233.432 130.444L230.953 143.737L202.301 157.372L224.113 180.417L221.658 193.587Z" fill="url(#paint3_linear_2262_3573)"/>
<path d="M231.537 200.016L276.962 105.321L288.409 107.456L242.862 202.127L231.537 200.016Z" fill="url(#paint4_linear_2262_3573)"/>
<path d="M281.35 204.718L283.806 191.549L312.605 177.814L290.646 154.868L293.125 141.575L323.792 173.149L321.337 186.319L281.35 204.718Z" fill="url(#paint5_linear_2262_3573)"/>
<path d="M46.375 204.337L14.6572 192.92L11.915 182.989L33.2291 156.728L35.9966 166.751L20.79 185.832L43.6331 194.407L46.375 204.337Z" fill="url(#paint6_linear_2262_3573)"/>
<path d="M55.3736 205.449L54.8486 124.692L63.4801 122.308L63.912 203.091L55.3736 205.449Z" fill="url(#paint7_linear_2262_3573)"/>
<path d="M91.3841 191.909L88.6423 181.98L103.916 162.78L81.0058 154.323L78.2383 144.301L110.076 155.785L112.818 165.714L91.3841 191.909Z" fill="url(#paint8_linear_2262_3573)"/>
<path d="M144.344 64.6341L121.967 56.579L120.032 49.5725L135.069 31.045L137.022 38.1162L126.293 51.5786L142.41 57.6284L144.344 64.6341Z" fill="url(#paint9_linear_2262_3573)"/>
<path d="M150.687 65.4191L150.317 8.44297L156.406 6.76147L156.711 63.7557L150.687 65.4191Z" fill="url(#paint10_linear_2262_3573)"/>
<path d="M176.095 55.8659L174.161 48.8603L184.937 35.3142L168.773 29.3481L166.82 22.2769L189.283 30.3792L191.217 37.3848L176.095 55.8659Z" fill="url(#paint11_linear_2262_3573)"/>
<defs>
<linearGradient id="paint0_linear_2262_3573" x1="109.997" y1="315.402" x2="158.929" y2="321.064" gradientUnits="userSpaceOnUse">
<stop stop-color="#FFE8F3"/>
<stop offset="1" stop-color="#1C2883"/>
</linearGradient>
<linearGradient id="paint1_linear_2262_3573" x1="154.273" y1="254.132" x2="209.82" y2="254.425" gradientUnits="userSpaceOnUse">
<stop stop-color="#FFE8F3"/>
<stop offset="1" stop-color="#1C2883"/>
</linearGradient>
<linearGradient id="paint2_linear_2262_3573" x1="223.038" y1="285.517" x2="272.113" y2="291.255" gradientUnits="userSpaceOnUse">
<stop stop-color="#FFE8F3"/>
<stop offset="1" stop-color="#1C2883"/>
</linearGradient>
<linearGradient id="paint3_linear_2262_3573" x1="218.433" y1="115.505" x2="252.955" y2="137.053" gradientUnits="userSpaceOnUse">
<stop stop-color="white"/>
<stop offset="1" stop-color="#78A9FF"/>
</linearGradient>
<linearGradient id="paint4_linear_2262_3573" x1="273.173" y1="85.4424" x2="314.533" y2="105.325" gradientUnits="userSpaceOnUse">
<stop stop-color="white"/>
<stop offset="1" stop-color="#78A9FF"/>
</linearGradient>
<linearGradient id="paint5_linear_2262_3573" x1="313.391" y1="133.212" x2="347.993" y2="154.868" gradientUnits="userSpaceOnUse">
<stop stop-color="white"/>
<stop offset="1" stop-color="#78A9FF"/>
</linearGradient>
<linearGradient id="paint6_linear_2262_3573" x1="17.8267" y1="151.459" x2="48.9491" y2="154.715" gradientUnits="userSpaceOnUse">
<stop stop-color="white"/>
<stop offset="1" stop-color="#B5C9FF"/>
</linearGradient>
<linearGradient id="paint7_linear_2262_3573" x1="45.5299" y1="112.23" x2="80.8166" y2="112.03" gradientUnits="userSpaceOnUse">
<stop stop-color="white"/>
<stop offset="1" stop-color="#B5C9FF"/>
</linearGradient>
<linearGradient id="paint8_linear_2262_3573" x1="89.4257" y1="131.689" x2="120.64" y2="134.993" gradientUnits="userSpaceOnUse">
<stop stop-color="white"/>
<stop offset="1" stop-color="#B5C9FF"/>
</linearGradient>
<linearGradient id="paint9_linear_2262_3573" x1="124.203" y1="27.3274" x2="146.16" y2="29.6248" gradientUnits="userSpaceOnUse">
<stop stop-color="white"/>
<stop offset="1" stop-color="#B5D8FF"/>
</linearGradient>
<linearGradient id="paint10_linear_2262_3573" x1="143.742" y1="-0.349129" x2="168.638" y2="-0.490142" gradientUnits="userSpaceOnUse">
<stop stop-color="white"/>
<stop offset="1" stop-color="#B5D8FF"/>
</linearGradient>
<linearGradient id="paint11_linear_2262_3573" x1="174.713" y1="13.3793" x2="196.736" y2="15.7103" gradientUnits="userSpaceOnUse">
<stop stop-color="white"/>
<stop offset="1" stop-color="#B5D8FF"/>
</linearGradient>
</defs>
</svg>
