<svg width="508" height="444" viewBox="0 0 508 444" fill="none" xmlns="http://www.w3.org/2000/svg">
<path d="M84.3506 251.011C92.8844 262.741 96.0866 273.378 93.9574 282.923C91.2875 290.026 86.7936 295.624 80.4757 299.717C76.6213 302.261 72.6794 302.535 68.6499 300.54C60.2677 296.628 51.3711 287.174 41.9603 272.178C38.7862 267.108 35.6373 261.298 32.5135 254.75C31.4722 252.567 30.4865 250.491 29.5566 248.523C29.2571 247.771 28.9591 247.108 28.6623 246.536C28.5113 246.07 28.3987 245.765 28.3245 245.622C23.3936 233.839 20.3981 225 19.338 219.106L19.1075 218.137L18.8769 217.167L18.5271 215.442C18.3283 214.184 18.4183 212.958 18.7971 211.763C18.9745 211.58 19.2765 211.287 19.703 210.884L20.2355 210.336L20.7679 209.788C21.6553 208.874 21.8751 207.897 21.4273 206.859L22.9254 205.81L24.3161 204.816C25.3863 204.08 26.1704 203.492 26.6684 203.052C28.1996 201.804 30.0526 201.614 32.2276 202.483C32.9535 202.833 33.7894 203.307 34.7352 203.906L35.9909 204.752L37.1394 205.654C40.7478 208.411 44.7867 212.262 49.2561 217.205L52.0062 220.407L54.8635 223.554L60.5822 230.118C60.3492 231.419 59.3135 233.272 57.4751 235.678C55.6368 238.084 54.2871 239.419 53.4262 239.684C52.5652 239.949 51.7678 239.636 51.0339 238.746C49.6059 237.218 47.9368 235.224 46.0266 232.766L41.1265 226.73C37.1631 221.888 33.5957 218.247 30.4245 215.807C33.313 228.377 38.958 242.15 47.3595 257.125C55.7266 272.209 63.9702 282.591 72.0903 288.273C73.7646 289.402 75.4522 290.206 77.153 290.685C79.2882 291.302 81.1612 291.238 82.7718 290.494C83.6275 289.869 84.2115 289.157 84.5241 288.36C84.6274 288.034 84.7307 287.708 84.834 287.382L84.8776 286.679C85.4548 281.842 84.514 276.702 82.0552 271.261C80.1926 267.144 77.351 262.628 73.5306 257.711L72.9265 257.071L72.2708 256.595C71.9052 256.24 71.4337 256.03 70.8561 255.967C69.399 254.907 69.183 253.703 70.2082 252.355C74.0199 246.929 77.1762 244.702 79.6771 245.674C81.5422 247.521 83.1001 249.299 84.3506 251.011ZM120.073 194.773C129.645 203.605 134.254 215.555 133.9 230.623C133.758 238.049 132.21 244.252 129.256 249.233C125.916 254.868 120.368 259.833 112.611 264.127C110.288 265.423 107.538 265.896 104.362 265.547C101.403 265.266 98.1894 263.62 94.7214 260.608C93.5159 259.509 92.3449 258.301 91.2084 256.984C90.2546 255.845 89.5737 254.882 89.1656 254.095C85.9465 248.413 83.2691 241.588 81.1333 233.619C80.3675 230.568 79.5936 225.75 78.8116 219.167C77.9792 211.612 77.8332 206.605 78.3734 204.146C78.5376 203.063 79.1906 202.134 80.3323 201.361L80.1534 200.228L80.0818 199.04C79.997 198.176 80.0565 197.329 80.2604 196.497C80.7001 194.544 82.0285 192.993 84.2458 191.843L85.8591 191.279L87.2021 190.718C88.2406 190.271 88.9717 189.755 89.3955 189.172C93.7108 186.118 99.0872 185.372 105.525 186.934C111.059 188.33 115.908 190.943 120.073 194.773ZM122.464 235.873C122.911 227.11 121.189 219.063 117.297 211.733C113.111 204.011 107.246 198.566 99.7039 195.399C96.8029 194.18 94.2571 193.821 92.0663 194.322C91.9047 195.586 91.9989 197.08 92.3487 198.805C92.6243 200.386 92.9476 201.535 93.3185 202.25C96.9192 209.368 103.512 216.568 113.097 223.85C112.848 224.07 112.528 224.327 112.136 224.621C111.781 224.986 111.372 225.335 110.908 225.666C109.769 226.62 108.7 227.446 107.701 228.146C104.957 230.204 103.08 231.223 102.071 231.202C100.439 230.505 98.6731 229.288 96.7735 227.55C95.9707 226.877 95.1481 226.079 94.3056 225.154C93.7201 224.55 93.0061 223.786 92.1636 222.862C94.5354 234.61 97.6912 243.321 101.631 248.992C102.699 250.526 103.982 252.039 105.482 253.53C108.624 256.439 111.506 257.621 114.129 257.078C116.86 256.569 119.076 252.879 120.776 246.007C121.626 242.571 122.189 239.193 122.464 235.873ZM175.117 150.435C176.325 151.714 177.434 153.59 178.443 156.061C179.532 159.036 180.288 162.593 180.709 166.731C181.804 177.417 180.466 190.5 176.695 205.979C173.087 220.375 171.722 229.206 172.599 232.473C171.887 233.024 170.168 233.734 167.442 234.603C165.863 235.059 164.554 235.51 163.516 235.958C161.759 236.597 160.094 237.324 158.521 238.14C154.518 230.596 149.511 218.579 143.502 202.091C142.415 199.297 141.326 196.322 140.235 193.167C139.445 190.944 138.524 188.381 137.472 185.478C135.594 180.28 134.56 177.413 134.372 176.875C126.928 182.823 120.879 186.822 116.225 188.873C113.647 190.028 111.164 190.227 108.774 189.469C109.176 180.094 109.819 171.183 110.704 162.738C110.81 162.592 110.987 162.409 111.236 162.189C111.591 161.824 111.946 161.458 112.301 161.093C113.369 160.176 114.455 159.295 115.559 158.45C118.876 156.095 121.741 154.881 124.154 154.809L124.035 157.73L124.023 160.595L123.885 165.84C123.763 169.806 123.546 173.413 123.234 176.661L125.427 175.115L127.513 173.625C129.047 172.557 130.222 171.585 131.038 170.708C130.844 169.81 130.304 168.592 129.416 167.056L128.47 165.232L127.739 163.297C128.518 162.349 130.358 161.258 133.258 160.026L135.086 159.351L136.966 158.512C138.399 157.95 139.456 157.538 140.137 157.276C140.892 159.607 141.674 161.289 142.482 162.322C152.211 155.007 161.425 150.547 170.122 148.941C172.353 148.692 174.018 149.19 175.117 150.435ZM164.333 159.567C163.559 158.425 162.596 157.881 161.444 157.934C159.145 158.4 156.46 159.611 153.389 161.567C152.211 162.269 150.819 163.172 149.213 164.277L144.989 167.42C145.289 168.173 146.227 170.682 147.803 174.947C148.664 177.132 149.396 179.067 149.997 180.752C150.861 183.118 151.686 185.322 152.473 187.364C157.047 199.333 160.62 208.235 163.192 214.071C166.601 198.417 168.282 186.608 168.237 178.645C168.085 170.827 166.784 164.468 164.333 159.567ZM248.487 161.668C251.14 172.908 249.117 182.307 242.417 189.866C239.689 193.005 237.598 195.361 236.143 196.932C233.659 199.491 231.347 201.597 229.21 203.25C223.829 207.402 218.167 209.522 212.222 209.609C209.52 209.649 206.949 208.805 204.509 207.075C202.215 205.451 200.473 203.405 199.283 200.936L198.894 200.185L198.612 199.378C198.315 198.806 198.071 198.161 197.88 197.443C197.316 195.83 196.948 194.069 196.775 192.162C196.338 186.943 197.143 180.445 199.19 172.667C197.606 172.762 195.918 173.183 194.127 173.931C191.942 172.341 190.609 169.946 190.129 166.746C189.286 160.921 189.132 154.148 189.667 146.429C189.842 143.615 190.171 140.313 190.656 136.522L191.232 131.595L191.756 126.83C192.633 125.195 194.621 123.166 197.72 120.742C198.753 119.934 199.912 119.106 201.197 118.258C201.66 117.927 202.124 117.596 202.587 117.264L203.176 116.823L203.605 116.601C205.867 116.063 207.752 116.81 209.26 118.842C212.622 124.45 214.826 133.426 215.874 145.771L215.607 146.045L215.397 146.427L214.761 147.301C214.16 148.067 213.54 148.797 212.902 149.491C210.986 151.573 208.906 153.424 206.659 155.043C205.239 154.054 204.454 153.327 204.303 152.861C205.367 146.863 204.842 140.601 202.728 134.073C202.685 133.642 202.518 133.32 202.227 133.108C201.898 132.824 201.647 132.864 201.472 133.227C199.435 136.825 198.704 142.241 199.28 149.476C199.5 152.175 199.881 154.836 200.425 157.459C200.928 159.83 201.441 161.606 201.963 162.788C203.187 162.697 204.784 162.277 206.755 161.528L209.175 160.681L210.304 160.232L211.325 159.838C211.9 159.722 212.46 159.84 213.006 160.192C213.517 160.653 213.741 161.172 213.677 161.75C210.152 167.027 208.22 172.839 207.881 179.187C207.516 186.183 209.4 191.741 213.533 195.86C215.684 197.558 218.274 198.439 221.302 198.502C224.33 198.566 226.858 197.753 228.887 196.066C232.84 192.836 235.482 188.743 236.814 183.786C238.006 179.084 237.968 174.112 236.702 168.869C233.117 167.733 230.263 167.216 228.138 167.32C227.481 166.753 227.166 166.145 227.192 165.496L227.339 164.467L227.486 163.438C228.13 163.104 228.861 162.588 229.68 161.892L231.976 160.02C233.968 158.261 235.394 157.158 236.252 156.713C237.399 156.3 238.751 156.37 240.309 156.924L241.179 157.289L242.05 157.655C242.738 157.933 243.372 158.104 243.949 158.167L245.36 158.525C245.903 158.697 246.374 158.906 246.774 159.153C247.792 159.714 248.363 160.552 248.487 161.668ZM297.844 124.635C298.493 124.661 299.193 125.66 299.943 127.631L300.559 129.081L301.067 130.587C301.555 131.877 301.985 132.97 302.359 133.866C301.578 134.634 300.003 135.36 297.634 136.044C293.229 137.874 288.847 140.101 284.49 142.724L281.863 144.223L279.292 145.828C277.364 147.01 275.684 147.972 274.254 148.713C262.791 155.838 254.533 160.302 249.479 162.107C248.586 162.66 247.765 161.952 247.015 159.981C246.641 159.086 245.935 156.411 244.896 151.958C248.414 151.041 251.944 149.71 255.486 147.964C256.845 147.259 258.364 146.426 260.044 145.464L264.438 142.912L268.511 140.528L272.529 138.036L280.726 133.104C287.229 129.368 292.936 126.545 297.844 124.635ZM149.169 360.77C153.911 367.115 155.61 374.765 154.265 383.722C153.738 387.081 152.769 390.988 151.357 395.441L149.335 401.255L147.416 406.742C145.827 411.379 144.399 414.751 143.133 416.86C141.093 420.277 138.533 422.604 135.452 423.838C131.833 425.261 128.753 426.496 126.209 427.542C125.171 427.99 123.566 427.87 121.393 427.181C119.404 426.67 117.88 426.008 116.823 425.195C114.407 422.636 112.448 419.295 110.945 415.173C109.817 411.947 109.004 408.193 108.509 403.912C108.259 394.33 109.3 386.711 111.63 381.055C113.124 377.285 114.895 373.961 116.943 371.084C117.578 370.21 118.304 369.334 119.12 368.457L119.545 367.965L120.026 367.579C120.238 367.288 120.397 367.069 120.503 366.924C121.364 366.659 122.605 366.514 124.226 366.49L126.225 366.407L128.224 366.323C131.191 367.144 133.227 369.582 134.332 373.638C134.536 375.257 134.641 377.471 134.646 380.282L134.639 383.417C134.62 384.607 134.69 385.705 134.849 386.712L137.635 388.671C137.426 389.142 135.136 390.239 130.765 391.961C130.227 392.149 129.672 392.392 129.1 392.689L127.705 393.412C126.741 394.003 126.043 394.319 125.611 394.362C124.533 394.558 123.844 393.055 123.544 389.852C123.465 389.348 123.506 388.465 123.667 387.201L123.858 385.469L124.049 383.736C124.255 380.634 123.631 378.643 122.177 377.764C119.162 385.953 118.637 394.303 120.601 402.814C121.6 407.016 122.933 410.636 124.599 413.674C126.671 417.319 128.805 419.072 131.001 418.931C135.271 412.814 138.52 405.865 140.747 398.084C142.667 391.461 143.621 386.474 143.607 383.123C143.686 378.725 142.513 373.661 140.085 367.931C137.566 363.248 133.452 361.615 127.743 363.033C126.702 363.3 125.429 363.734 123.924 364.332L119.998 365.688C116.628 366.891 113.883 367.634 111.761 367.918C104.036 367.023 99.4338 362.874 97.955 355.473C97.4515 353.102 97.3043 350.455 97.5134 347.533L97.6524 345.964C97.647 345.603 97.7132 345.206 97.851 344.772C97.9807 343.797 98.027 343.273 97.9899 343.202C98.4136 340.169 99.5709 335.575 101.462 329.421C102.845 325.436 104.76 322.129 107.207 319.498C109.3 317.233 111.21 316.015 112.937 315.846L114.225 315.178C114.977 314.879 115.731 314.669 116.486 314.55C118.642 314.158 120.647 314.524 122.502 315.65C125.859 318.448 128.243 322.52 129.656 327.869C130.191 329.951 130.604 332.323 130.896 334.986C131.137 336.676 131.333 338.979 131.484 341.896C127.559 344.477 125.112 345.972 124.145 346.383C122.927 346.833 122.307 346.338 122.285 344.897L122.242 341.925L122.194 338.682C122.193 336.232 122.054 334.125 121.776 332.364C121.092 327.545 119.361 323.769 116.581 321.035L116.037 320.773L115.437 320.403C114.857 320.16 114.479 320.219 114.305 320.582C108.604 332.342 107.002 343.429 109.499 353.843C110.153 356.68 112.038 358.652 115.154 359.759C117.689 360.623 120.608 360.652 123.912 359.846C125.133 359.576 126.586 359.14 128.271 358.538L130.369 357.859L132.411 357.072C139.334 354.843 144.919 356.076 149.169 360.77ZM163.971 293.463C163.902 293.681 163.764 294.115 163.558 294.767L163.3 295.581L163.097 296.503C162.578 297.952 161.925 298.881 161.138 299.289C162.595 300.349 163.97 301.95 165.263 304.093C168.618 311.611 171.555 321.388 174.075 333.423L175.59 340.806L177.104 348.189C178.305 353.829 179.493 358.658 180.67 362.677C181.541 365.583 182.809 368.465 184.473 371.323C184.828 370.958 185.306 370.392 185.907 369.626L186.809 368.478L187.711 367.33C189.409 365.178 190.791 363.554 191.856 362.457C195.225 358.804 197.392 357.907 198.356 359.767C198.629 361.168 198.926 362.966 199.247 365.159L199.557 367.857L199.867 370.555C200.543 374.834 201.803 378.401 203.647 381.256C202.717 381.739 201.756 382.51 200.762 383.569L199.431 384.94L198.422 386.144C196.719 387.935 195.284 388.407 194.118 387.559C193.043 385.485 192.27 383.208 191.801 380.729L191.324 377.709C191.088 376.379 190.892 375.301 190.736 374.474C190.662 374.331 189.99 375.224 188.721 377.153C189.937 378.972 189.673 380.562 187.927 381.921L186.699 382.966L185.416 383.904C184.348 384.821 183.624 385.786 183.242 386.801C182.781 387.312 181.952 387.289 180.755 386.73C178.357 390.333 175.534 395.564 172.284 402.423C170.565 403.133 168.967 402.328 167.491 400.007C169.65 394.894 172.678 388.831 176.574 381.819C174.29 378.465 172.412 374.493 170.938 369.902C170.337 368.217 169.73 366.172 169.118 363.766L167.46 357.683C166.658 354.559 165.751 350.537 164.742 345.615L163.573 339.686L162.349 333.65C160.226 324.132 157.551 316.261 154.324 310.039C151.36 311.848 148.741 313.887 146.468 316.155L145.165 315.741C144.693 315.532 144.258 315.304 143.857 315.058C142.803 314.425 141.979 313.536 141.386 312.392C145.899 308.145 149.924 302.518 153.461 295.511C156.862 294.019 159.507 292.556 161.396 291.123C162.898 290.344 163.756 291.124 163.971 293.463ZM193.706 300.098C194.636 299.615 195.461 299.369 196.182 299.358C197.191 299.379 198.008 299.818 198.634 300.673C201.357 304.525 204.709 309.413 208.688 315.336L213.608 322.723L218.691 330.161C226.722 341.97 233.778 351.29 239.861 358.119C239.898 358.19 239.616 358.609 239.015 359.375C238.308 360.286 237.51 361.199 236.623 362.113C234.175 364.743 232.143 366.251 230.527 366.635C224.37 359.663 217.143 349.752 208.845 336.901L203.758 329.193L198.834 321.536C195 315.718 191.576 310.778 188.561 306.714C185.088 310.693 182.41 313.58 180.526 315.374C187.324 316.931 192.562 318.98 196.239 321.52C196.427 322.058 195.568 323.638 193.66 326.261C191.79 328.955 190.425 330.435 189.564 330.7C184.035 327.214 177.588 325.021 170.223 324.12L169.683 324.128L168.816 324.033C168.13 323.935 167.551 323.782 167.08 323.572C165.559 323.09 164.877 322.037 165.033 320.413C165.674 319.899 166.332 319.331 167.008 318.708L168.713 317.008C170.061 315.582 171.181 314.593 172.074 314.039C173.37 313.912 174.623 313.353 175.833 312.362C176.76 311.699 177.736 310.694 178.762 309.345L197.699 284.957C201.518 280.072 206.055 276.131 211.308 273.134L211.63 272.968L212.007 272.908C212.402 272.794 212.779 272.734 213.14 272.729C214.149 272.75 214.859 273.244 215.27 274.211C216.126 276.036 216.914 278.169 217.635 280.609L218.549 283.947L219.463 287.284C220.844 292.922 222.439 297.223 224.248 300.187C224.254 300.547 223.047 301.808 220.628 303.97C218.067 306.206 216.054 307.749 214.589 308.6C212.742 305.564 211.148 301.353 209.807 295.968L209.112 292.789L208.309 289.665C207.697 287.26 207.073 285.269 206.437 283.693C204.842 285.518 202.649 288.29 199.857 292.007L198.16 294.248L196.515 296.326C195.35 297.929 194.413 299.186 193.706 300.098ZM288.801 297.341C291.454 308.581 289.431 317.981 282.732 325.539C280.003 328.679 277.912 331.034 276.458 332.605C273.973 335.164 271.662 337.27 269.524 338.924C264.144 343.075 258.481 345.195 252.537 345.283C249.834 345.323 247.263 344.478 244.823 342.748C242.529 341.124 240.787 339.078 239.597 336.609L239.208 335.858L238.926 335.051C238.629 334.479 238.385 333.834 238.194 333.116C237.63 331.503 237.262 329.743 237.089 327.835C236.652 322.616 237.457 316.118 239.504 308.34C237.92 308.435 236.232 308.857 234.442 309.604C232.256 308.014 230.923 305.62 230.444 302.42C229.601 296.594 229.447 289.822 229.981 282.102C230.156 279.288 230.485 275.986 230.97 272.195L231.546 267.268L232.07 262.503C232.947 260.869 234.935 258.839 238.034 256.415C239.067 255.607 240.226 254.779 241.511 253.931C241.975 253.6 242.438 253.269 242.902 252.938L243.49 252.497L243.919 252.274C246.181 251.736 248.066 252.483 249.574 254.515C252.936 260.123 255.141 269.099 256.188 281.444L255.922 281.719L255.711 282.1L255.075 282.974C254.474 283.74 253.854 284.47 253.216 285.164C251.301 287.246 249.22 289.097 246.973 290.716C245.553 289.728 244.768 289.001 244.617 288.534C245.681 282.537 245.156 276.274 243.042 269.747C243 269.315 242.833 268.993 242.541 268.781C242.213 268.498 241.961 268.537 241.786 268.9C239.749 272.498 239.018 277.914 239.594 285.149C239.814 287.849 240.196 290.51 240.739 293.132C241.242 295.503 241.755 297.279 242.277 298.461C243.501 298.371 245.098 297.951 247.069 297.201L249.489 296.354L250.618 295.905L251.639 295.512C252.214 295.395 252.774 295.513 253.32 295.865C253.831 296.326 254.055 296.845 253.992 297.423C250.466 302.7 248.534 308.513 248.195 314.86C247.83 321.857 249.714 327.414 253.847 331.534C255.998 333.231 258.588 334.112 261.616 334.176C264.644 334.239 267.172 333.427 269.201 331.739C273.154 328.509 275.796 324.416 277.128 319.46C278.32 314.757 278.283 309.785 277.016 304.542C273.431 303.406 270.577 302.89 268.452 302.993C267.795 302.426 267.48 301.818 267.506 301.169L267.653 300.14L267.8 299.111C268.444 298.777 269.175 298.262 269.994 297.565L272.29 295.693C274.283 293.934 275.708 292.832 276.566 292.387C277.713 291.973 279.065 292.043 280.623 292.597L281.493 292.962L282.364 293.328C283.053 293.606 283.686 293.777 284.263 293.84L285.674 294.198C286.217 294.37 286.689 294.579 287.089 294.826C288.106 295.387 288.677 296.226 288.801 297.341ZM313.656 306.779L312.058 308.424C310.782 309.812 309.738 311.125 308.927 312.362C307.894 313.17 307.085 313.272 306.499 312.668C305.588 311.961 303.878 310.851 301.369 309.339C299.562 309.005 301.708 305.442 307.806 298.649C308.412 298.244 309.261 298.393 310.353 299.098C311.153 299.59 312.101 300.369 313.198 301.434C313.855 302.001 314.387 302.588 314.792 303.194C315.271 303.944 315.442 304.536 315.305 304.971L313.656 306.779ZM382.757 241.536C381.726 242.524 379.643 244.194 376.506 246.547L374.583 248.089L372.711 249.468C371.286 250.57 370.217 251.397 369.505 251.948C371.1 255.024 373.655 258.463 377.171 262.267L381.836 267.063L384.197 269.515L386.446 271.752L386.832 272.233L387.217 272.713C387.62 273.14 387.841 273.479 387.881 273.731C388.146 274.592 387.582 275.429 386.188 276.242C385.409 277.191 384.236 278.253 382.668 279.429L380.852 280.916C380.105 281.575 379.429 282.198 378.825 282.784C373.132 277.931 367.47 271.564 361.84 263.683L361.399 263.095L361.121 262.558L360.569 261.756C358.484 267.012 356.161 274.434 353.6 284.021L350.422 295.744C349.19 300.195 348.04 304.013 346.97 307.2L345.869 309.541L344.769 311.882C343.82 313.553 342.559 314.797 340.986 315.613L339.392 317.529L337.743 319.337C336.324 320.799 334.822 321.578 333.237 321.674C331.319 321.125 329.862 320.066 328.866 318.495C328.201 317.388 327.691 315.792 327.336 313.707C326.663 309.609 326.355 304.64 326.413 298.801L326.627 291.339L326.841 283.876C320.523 287.969 315.286 290.822 311.129 292.433C310.234 292.806 308.744 291.945 306.659 289.85L314.689 280.92L315.555 281.016C317.195 279.802 319.243 278.15 321.698 276.06L324.579 273.477L327.623 270.945C327.951 266.328 328.467 261.023 329.172 255.03L330.188 247.015L331.312 238.945C333.131 225.476 334.165 214.956 334.414 207.385C334.366 206.593 334.186 205.37 333.873 203.717L342.404 195.753C343.85 196.092 345.036 197.066 345.961 198.674C346.257 199.246 346.574 199.944 346.911 200.768L347.304 201.789L347.697 202.81L349.724 208.294L351.807 213.885C353.492 218.184 354.952 221.874 356.187 224.955C359.626 233.337 363.027 240.332 366.389 245.94L366.667 246.476C366.778 246.691 366.817 246.852 366.782 246.961L369.83 244.7L373.041 242.49C375.645 240.686 377.605 239.216 378.922 238.079C379.679 238.14 380.369 238.508 380.992 239.184L381.711 240.308C382.151 240.806 382.5 241.215 382.757 241.536ZM343.284 226.065C341.751 234.484 340.146 246.616 338.471 262.461C340.717 260.842 343.318 258.857 346.275 256.507L350.065 253.316L353.912 250.232C352.24 246.834 350.414 242.789 348.435 238.097L345.86 232.081L343.284 226.065ZM353.944 256.07C352.839 256.915 351.468 258.034 349.831 259.428L347.642 261.244L345.453 263.06C341.964 265.959 339.415 267.87 337.808 268.795L337.724 270.472L352.534 259.388L353.944 256.07ZM349.264 268.572C347.59 269.894 345.611 271.328 343.327 272.876L337.335 277.072C336.186 289.558 336.725 300.397 338.951 309.589C339.165 309.478 339.703 306.839 340.564 301.673C341.093 298.494 341.677 295.333 342.315 292.188C343.298 287.957 344.495 283.615 345.907 279.162L349.264 268.572ZM430.172 199.656C430.135 202.035 429.356 204.208 427.836 206.177C427.235 206.942 426.507 207.728 425.654 208.533L424.59 209.63L423.469 210.62C416.701 215.945 411.087 220.172 406.629 223.301C415.459 223.351 422.949 224.231 429.101 225.942C437.35 228.199 443.587 231.998 447.81 237.341L448.251 237.93L448.804 238.732C449.283 239.482 449.744 240.196 450.187 240.874C451.334 242.911 451.971 244.577 452.098 245.873C450.874 245.963 449.364 246.201 447.568 246.588L445.359 247.053L443.15 247.519C439.629 248.255 436.674 248.245 434.284 247.487C433.034 245.776 431.769 244.299 430.489 243.057L428.899 241.567L427.417 240.021C423.732 236.94 418.739 234.402 412.439 232.405C406.248 230.442 401.808 229.931 399.119 230.872C403.062 239.174 406.606 246.095 409.751 251.634C414.08 259.282 418.337 265.741 422.524 271.013C422.786 271.694 418.253 273.454 408.926 276.295C400.408 265.646 391.947 251.518 383.543 233.913C383.18 233.738 382.709 233.619 382.132 233.555L381.484 233.619L380.888 233.519C379.842 233.427 379.132 232.933 378.758 232.037C378.639 231.282 378.808 230.559 379.266 229.868C379.656 229.393 380.19 228.935 380.868 228.493C378.568 224.058 376.487 219.783 374.624 215.666L373.396 213.035L372.275 210.349C371.194 207.915 370.337 205.999 369.704 204.603L368.031 204.79L366.251 205.033C364.955 205.16 363.82 205.159 362.845 205.029C362.371 204.64 362.02 204.05 361.792 203.261C361.527 202.4 361.516 201.679 361.76 201.099L367.542 197.284C367.682 197.03 367.767 196.668 367.796 196.199L367.732 195.551C367.836 195.225 367.957 194.935 368.098 194.681C370.977 194.458 374.73 193.556 379.355 191.974L382.045 191.124L384.736 190.273C386.746 189.775 388.561 189.424 390.179 189.22C402.914 187.698 413.484 188.479 421.89 191.562C423.774 192.219 425.537 193.256 427.179 194.673C429.042 196.339 430.039 198 430.172 199.656ZM414.829 200.261C414.715 199.866 414.474 199.401 414.106 198.866C413.775 198.403 413.464 198.065 413.172 197.853C409.315 195.315 404.559 194.196 398.906 194.496C393.756 194.716 388.892 196.013 384.315 198.387L393.376 219.01L396.428 217.019L399.531 214.865C401.958 213.244 403.991 211.827 405.631 210.613C410.084 207.124 413.15 203.673 414.829 200.261ZM439.817 172.463C440.746 171.981 441.572 171.734 442.292 171.723C443.302 171.745 444.119 172.183 444.744 173.039C447.468 176.89 450.819 181.778 454.799 187.701L459.719 195.088L464.802 202.526C472.832 214.336 479.889 223.655 485.972 230.484C486.009 230.556 485.727 230.974 485.125 231.74C484.418 232.651 483.621 233.564 482.733 234.478C480.286 237.109 478.254 238.616 476.638 239C470.481 232.028 463.253 222.117 454.955 209.266L449.868 201.558L444.944 193.901C441.111 188.083 437.686 183.143 434.671 179.079C431.198 183.059 428.52 185.945 426.637 187.739C433.435 189.296 438.672 191.345 442.349 193.885C442.538 194.423 441.678 196.003 439.771 198.626C437.901 201.32 436.535 202.8 435.674 203.065C430.145 199.579 423.698 197.386 416.334 196.486L415.793 196.494L414.927 196.398C414.241 196.3 413.662 196.147 413.19 195.937C411.67 195.455 410.987 194.402 411.144 192.779C411.785 192.265 412.443 191.696 413.118 191.074L414.823 189.373C416.171 187.947 417.292 186.958 418.185 186.404C419.48 186.277 420.733 185.718 421.944 184.727C422.871 184.065 423.847 183.059 424.872 181.711L443.809 157.323C447.629 152.437 452.165 148.496 457.418 145.5L457.74 145.333L458.118 145.273C458.512 145.159 458.89 145.1 459.25 145.094C460.26 145.115 460.97 145.609 461.38 146.576C462.236 148.402 463.024 150.534 463.745 152.974L464.659 156.312L465.574 159.65C466.954 165.287 468.549 169.588 470.359 172.552C470.364 172.912 469.158 174.173 466.739 176.335C464.177 178.571 462.164 180.115 460.699 180.965C458.853 177.929 457.259 173.719 455.918 168.333L455.222 165.154L454.419 162.031C453.807 159.625 453.183 157.634 452.547 156.058C450.953 157.884 448.759 160.655 445.967 164.372L444.271 166.613L442.626 168.691C441.46 170.294 440.524 171.551 439.817 172.463Z" fill="url(#paint0_linear_2007_163)" style="mix-blend-mode:color-dodge"/>
<defs>
<linearGradient id="paint0_linear_2007_163" x1="-25" y1="239" x2="333.043" y2="325.966" gradientUnits="userSpaceOnUse">
<stop stop-color="#F9E9F9"/>
<stop offset="1" stop-color="#0F98B0"/>
</linearGradient>
</defs>
</svg>
